<svg width="27" height="25" viewBox="0 0 27 25" fill="none" xmlns="http://www.w3.org/2000/svg">
<path d="M6.85178 17.5427C8.59734 17.1341 9.67841 15.3996 9.26642 13.6685C8.85443 11.9374 7.10539 10.8653 5.35983 11.2739C3.61427 11.6825 2.5332 13.417 2.94519 15.1481C3.35718 16.8791 5.10622 17.9512 6.85178 17.5427Z" fill="#EDC25F"/>
<path d="M6.14307 18.877C2.93313 18.877 0.33048 21.4441 0.304688 24.6204H11.9815C11.9557 21.4441 9.35301 18.877 6.14307 18.877Z" fill="#EDC25F"/>
<path d="M21.8071 5.56601C23.2234 5.33803 24.1851 4.01461 23.9552 2.61009C23.7253 1.20556 22.3908 0.251784 20.9746 0.479771C19.5583 0.707758 18.5965 2.03117 18.8264 3.4357C19.0563 4.84023 20.3908 5.794 21.8071 5.56601Z" fill="#EDC25F"/>
<path d="M21.4184 6.59766C18.8532 6.59766 16.7711 8.65088 16.75 11.1878H26.0844C26.0633 8.64855 23.9812 6.59766 21.416 6.59766H21.4184Z" fill="#EDC25F"/>
<path d="M12.2411 1.89499C12.0066 1.67409 11.6361 1.68571 11.4134 1.91824C11.1906 2.15077 11.2024 2.52049 11.4368 2.73906L12.6373 3.86217H9.54933C7.34762 3.86217 5.55859 5.63869 5.55859 7.8198V8.81269C5.55859 9.13358 5.8212 9.39401 6.14478 9.39401C6.46835 9.39401 6.73096 9.13358 6.73096 8.81269V7.8198C6.73096 6.27814 7.99477 5.02481 9.54933 5.02481H12.6139L11.4368 6.12699C11.2024 6.34789 11.1906 6.71529 11.4134 6.94782C11.5283 7.06873 11.683 7.12919 11.8401 7.12919C11.9855 7.12919 12.1285 7.07571 12.2434 6.97107L14.9563 4.43187L12.2434 1.89266L12.2411 1.89499Z" fill="#EDC25F"/>
<path d="M21.524 14.0762C21.2004 14.0762 20.9378 14.3366 20.9378 14.6575V15.6504C20.9378 17.192 19.674 18.4454 18.1195 18.4454H15.0549L16.2319 17.3432C16.4664 17.1223 16.4781 16.7549 16.2554 16.5224C16.0326 16.2875 15.6622 16.2782 15.4277 16.4991L12.7148 19.0383L15.4277 21.5775C15.5402 21.6845 15.6856 21.7356 15.831 21.7356C15.9857 21.7356 16.1428 21.6752 16.2577 21.5543C16.4805 21.3217 16.4688 20.952 16.2343 20.7334L15.0338 19.6103H18.1218C20.3235 19.6103 22.1125 17.8338 22.1125 15.6527V14.6598C22.1125 14.3389 21.8499 14.0785 21.5263 14.0785L21.524 14.0762Z" fill="#EDC25F"/>
</svg>
