<svg width="45" height="49" viewBox="0 0 45 49" fill="none" xmlns="http://www.w3.org/2000/svg">
<g clip-path="url(#clip0_1274_1018)">
<path d="M27.8417 11.9507H4.42486C2.50586 11.9507 0.950195 13.5063 0.950195 15.4254V43.815C0.950195 45.734 2.50586 47.2897 4.42486 47.2897H27.8417C29.7607 47.2897 31.3163 45.734 31.3163 43.815V15.4254C31.3163 13.5063 29.7607 11.9507 27.8417 11.9507Z" stroke="white" stroke-width="1.90046" stroke-miterlimit="10"/>
<path d="M26.1697 17.2651H6.09766V31.1955H26.1697V17.2651Z" stroke="white" stroke-width="1.58371" stroke-linecap="round" stroke-linejoin="round"/>
<path d="M13.4548 37.2393H5.95121C5.62758 37.2393 5.36523 37.5016 5.36523 37.8252V39.542C5.36523 39.8656 5.62758 40.128 5.95121 40.128H13.4548C13.7785 40.128 14.0408 39.8656 14.0408 39.542V37.8252C14.0408 37.5016 13.7785 37.2393 13.4548 37.2393Z" fill="white"/>
<path d="M8.26074 34.9299V42.4336C8.26074 42.7572 8.52308 43.0195 8.84671 43.0195H10.5634C10.8871 43.0195 11.1494 42.7572 11.1494 42.4336V34.9299C11.1494 34.6063 10.8871 34.3439 10.5634 34.3439H8.84671C8.52308 34.3439 8.26074 34.6063 8.26074 34.9299Z" fill="white"/>
<path d="M20.9877 43.0228C22.0758 43.0228 22.9579 42.1407 22.9579 41.0527C22.9579 39.9646 22.0758 39.0825 20.9877 39.0825C19.8996 39.0825 19.0176 39.9646 19.0176 41.0527C19.0176 42.1407 19.8996 43.0228 20.9877 43.0228Z" fill="white"/>
<path d="M24.9272 38.2845C26.0152 38.2845 26.8973 37.4025 26.8973 36.3144C26.8973 35.2263 26.0152 34.3442 24.9272 34.3442C23.8391 34.3442 22.957 35.2263 22.957 36.3144C22.957 37.4025 23.8391 38.2845 24.9272 38.2845Z" fill="white"/>
<path d="M14.3896 23.9389V28.2592C14.3896 28.5829 14.652 28.8452 14.9756 28.8452H17.2879C17.6115 28.8452 17.8738 28.5829 17.8738 28.2592V23.9389C17.8738 23.6152 17.6115 23.3529 17.2879 23.3529H14.9756C14.652 23.3529 14.3896 23.6152 14.3896 23.9389Z" fill="white"/>
<path d="M9.24219 25.6844V28.2627C9.24219 28.5863 9.50455 28.8486 9.82817 28.8486H12.1404C12.464 28.8486 12.7264 28.5863 12.7264 28.2627V25.6844C12.7264 25.3607 12.464 25.0984 12.1404 25.0984H9.82817C9.50455 25.0984 9.24219 25.3607 9.24219 25.6844Z" fill="white"/>
<path d="M19.54 20.5212V28.2592C19.54 28.5829 19.8024 28.8452 20.126 28.8452H22.4382C22.7618 28.8452 23.0242 28.5829 23.0242 28.2592V20.5212C23.0242 20.1976 22.7618 19.9352 22.4382 19.9352H20.126C19.8024 19.9352 19.54 20.1976 19.54 20.5212Z" fill="white"/>
</g>
<g filter="url(#filter0_d_1274_1018)">
<g filter="url(#filter1_d_1274_1018)">
<ellipse cx="29.2897" cy="11.1111" rx="11.0944" ry="11.1111" fill="#E2B857"/>
</g>
</g>
<path d="M27.4378 5.48148C27.4378 5.08857 27.5936 4.71175 27.871 4.43392C28.1484 4.15608 28.5247 4 28.917 4C29.3093 4 29.6856 4.15608 29.963 4.43392C30.2404 4.71175 30.3963 5.08857 30.3963 5.48148C31.2457 5.88372 31.9697 6.50987 32.4909 7.29281C33.0121 8.07576 33.3107 8.98598 33.3548 9.92592V12.1481C33.4104 12.6087 33.5733 13.0497 33.8302 13.4356C34.0871 13.8216 34.431 14.1418 34.834 14.3704H23C23.4031 14.1418 23.7469 13.8216 24.0038 13.4356C24.2607 13.0497 24.4236 12.6087 24.4793 12.1481V9.92592C24.5233 8.98598 24.8219 8.07576 25.3431 7.29281C25.8643 6.50987 26.5884 5.88372 27.4378 5.48148" stroke="white" stroke-width="1.11203" stroke-linecap="round" stroke-linejoin="round"/>
<path d="M26.6982 14.3706V15.1113C26.6982 15.7007 26.932 16.2659 27.3481 16.6827C27.7643 17.0994 28.3286 17.3336 28.9171 17.3336C29.5056 17.3336 30.07 17.0994 30.4861 16.6827C30.9022 16.2659 31.136 15.7007 31.136 15.1113V14.3706" stroke="white" stroke-width="1.11203" stroke-linecap="round" stroke-linejoin="round"/>
<defs>
<filter id="filter0_d_1274_1018" x="14.1953" y="0" width="30.1885" height="30.2222" filterUnits="userSpaceOnUse" color-interpolation-filters="sRGB">
<feFlood flood-opacity="0" result="BackgroundImageFix"/>
<feColorMatrix in="SourceAlpha" type="matrix" values="0 0 0 0 0 0 0 0 0 0 0 0 0 0 0 0 0 0 127 0" result="hardAlpha"/>
<feOffset dy="4"/>
<feGaussianBlur stdDeviation="2"/>
<feComposite in2="hardAlpha" operator="out"/>
<feColorMatrix type="matrix" values="0 0 0 0 0 0 0 0 0 0 0 0 0 0 0 0 0 0 0.25 0"/>
<feBlend mode="normal" in2="BackgroundImageFix" result="effect1_dropShadow_1274_1018"/>
<feBlend mode="normal" in="SourceGraphic" in2="effect1_dropShadow_1274_1018" result="shape"/>
</filter>
<filter id="filter1_d_1274_1018" x="13.7472" y="0" width="31.0847" height="31.1184" filterUnits="userSpaceOnUse" color-interpolation-filters="sRGB">
<feFlood flood-opacity="0" result="BackgroundImageFix"/>
<feColorMatrix in="SourceAlpha" type="matrix" values="0 0 0 0 0 0 0 0 0 0 0 0 0 0 0 0 0 0 127 0" result="hardAlpha"/>
<feOffset dy="4.44813"/>
<feGaussianBlur stdDeviation="2.22407"/>
<feColorMatrix type="matrix" values="0 0 0 0 0 0 0 0 0 0 0 0 0 0 0 0 0 0 0.25 0"/>
<feBlend mode="normal" in2="BackgroundImageFix" result="effect1_dropShadow_1274_1018"/>
<feBlend mode="normal" in="SourceGraphic" in2="effect1_dropShadow_1274_1018" result="shape"/>
</filter>
<clipPath id="clip0_1274_1018">
<rect width="32.2666" height="37.2395" fill="white" transform="translate(0 11)"/>
</clipPath>
</defs>
</svg>
