<svg width="45" height="49" viewBox="0 0 45 49" fill="none" xmlns="http://www.w3.org/2000/svg">
<g clip-path="url(#clip0_571_1814)">
<path d="M27.8417 11.9507H4.42486C2.50586 11.9507 0.950195 13.5063 0.950195 15.4254V43.815C0.950195 45.734 2.50586 47.2897 4.42486 47.2897H27.8417C29.7607 47.2897 31.3163 45.734 31.3163 43.815V15.4254C31.3163 13.5063 29.7607 11.9507 27.8417 11.9507Z" stroke="white" stroke-width="1.90046" stroke-miterlimit="10"/>
<path d="M26.1692 17.2651H6.09717V31.1955H26.1692V17.2651Z" stroke="white" stroke-width="1.58371" stroke-linecap="round" stroke-linejoin="round"/>
<path d="M13.4553 37.2393H5.9517C5.62807 37.2393 5.36572 37.5016 5.36572 37.8252V39.542C5.36572 39.8656 5.62807 40.128 5.9517 40.128H13.4553C13.779 40.128 14.0413 39.8656 14.0413 39.542V37.8252C14.0413 37.5016 13.779 37.2393 13.4553 37.2393Z" fill="white"/>
<path d="M8.26074 34.9299V42.4336C8.26074 42.7572 8.52308 43.0195 8.84671 43.0195H10.5634C10.8871 43.0195 11.1494 42.7572 11.1494 42.4336V34.9299C11.1494 34.6063 10.8871 34.3439 10.5634 34.3439H8.84671C8.52308 34.3439 8.26074 34.6063 8.26074 34.9299Z" fill="white"/>
<path d="M20.9872 43.0228C22.0753 43.0228 22.9574 42.1407 22.9574 41.0527C22.9574 39.9646 22.0753 39.0825 20.9872 39.0825C19.8992 39.0825 19.0171 39.9646 19.0171 41.0527C19.0171 42.1407 19.8992 43.0228 20.9872 43.0228Z" fill="white"/>
<path d="M24.9277 38.2845C26.0157 38.2845 26.8978 37.4025 26.8978 36.3144C26.8978 35.2263 26.0157 34.3442 24.9277 34.3442C23.8396 34.3442 22.9575 35.2263 22.9575 36.3144C22.9575 37.4025 23.8396 38.2845 24.9277 38.2845Z" fill="white"/>
<path d="M14.3896 23.9389V28.2592C14.3896 28.5829 14.652 28.8452 14.9756 28.8452H17.2879C17.6115 28.8452 17.8738 28.5829 17.8738 28.2592V23.9389C17.8738 23.6152 17.6115 23.3529 17.2879 23.3529H14.9756C14.652 23.3529 14.3896 23.6152 14.3896 23.9389Z" fill="white"/>
<path d="M9.24268 25.6844V28.2627C9.24268 28.5863 9.50504 28.8486 9.82866 28.8486H12.1409C12.4645 28.8486 12.7268 28.5863 12.7268 28.2627V25.6844C12.7268 25.3607 12.4645 25.0984 12.1409 25.0984H9.82866C9.50504 25.0984 9.24268 25.3607 9.24268 25.6844Z" fill="white"/>
<path d="M19.54 20.5212V28.2592C19.54 28.5829 19.8024 28.8452 20.126 28.8452H22.4382C22.7618 28.8452 23.0242 28.5829 23.0242 28.2592V20.5212C23.0242 20.1976 22.7618 19.9352 22.4382 19.9352H20.126C19.8024 19.9352 19.54 20.1976 19.54 20.5212Z" fill="white"/>
</g>
<g filter="url(#filter0_d_571_1814)">
<g filter="url(#filter1_d_571_1814)">
<ellipse cx="29.2863" cy="11.1111" rx="11.0944" ry="11.1111" fill="#E2B857"/>
<g clip-path="url(#clip1_571_1814)">
<path d="M27.8074 5.92582C27.8074 5.5329 27.9632 5.15608 28.2407 4.87825C28.5181 4.60042 28.8943 4.44434 29.2866 4.44434C29.679 4.44434 30.0552 4.60042 30.3326 4.87825C30.61 5.15608 30.7659 5.5329 30.7659 5.92582C31.6153 6.32806 32.3394 6.95421 32.8606 7.73715C33.3817 8.52009 33.6803 9.43032 33.7244 10.3703V12.5925C33.7801 13.053 33.9429 13.494 34.1998 13.88C34.4568 14.266 34.8006 14.5861 35.2037 14.8147H23.3696C23.7727 14.5861 24.1165 14.266 24.3734 13.88C24.6304 13.494 24.7932 13.053 24.8489 12.5925V10.3703C24.8929 9.43032 25.1916 8.52009 25.7127 7.73715C26.2339 6.95421 26.958 6.32806 27.8074 5.92582" stroke="white" stroke-width="1.11203" stroke-linecap="round" stroke-linejoin="round"/>
<path d="M27.0674 14.8149V15.5557C27.0674 16.1451 27.3012 16.7103 27.7173 17.127C28.1334 17.5438 28.6978 17.7779 29.2863 17.7779C29.8747 17.7779 30.4391 17.5438 30.8552 17.127C31.2714 16.7103 31.5051 16.1451 31.5051 15.5557V14.8149" stroke="white" stroke-width="1.11203" stroke-linecap="round" stroke-linejoin="round"/>
</g>
</g>
</g>
<defs>
<filter id="filter0_d_571_1814" x="14.1919" y="0" width="30.189" height="30.2222" filterUnits="userSpaceOnUse" color-interpolation-filters="sRGB">
<feFlood flood-opacity="0" result="BackgroundImageFix"/>
<feColorMatrix in="SourceAlpha" type="matrix" values="0 0 0 0 0 0 0 0 0 0 0 0 0 0 0 0 0 0 127 0" result="hardAlpha"/>
<feOffset dy="4"/>
<feGaussianBlur stdDeviation="2"/>
<feComposite in2="hardAlpha" operator="out"/>
<feColorMatrix type="matrix" values="0 0 0 0 0 0 0 0 0 0 0 0 0 0 0 0 0 0 0.25 0"/>
<feBlend mode="normal" in2="BackgroundImageFix" result="effect1_dropShadow_571_1814"/>
<feBlend mode="normal" in="SourceGraphic" in2="effect1_dropShadow_571_1814" result="shape"/>
</filter>
<filter id="filter1_d_571_1814" x="13.7438" y="0" width="31.0852" height="31.1184" filterUnits="userSpaceOnUse" color-interpolation-filters="sRGB">
<feFlood flood-opacity="0" result="BackgroundImageFix"/>
<feColorMatrix in="SourceAlpha" type="matrix" values="0 0 0 0 0 0 0 0 0 0 0 0 0 0 0 0 0 0 127 0" result="hardAlpha"/>
<feOffset dy="4.44813"/>
<feGaussianBlur stdDeviation="2.22407"/>
<feColorMatrix type="matrix" values="0 0 0 0 0 0 0 0 0 0 0 0 0 0 0 0 0 0 0.25 0"/>
<feBlend mode="normal" in2="BackgroundImageFix" result="effect1_dropShadow_571_1814"/>
<feBlend mode="normal" in="SourceGraphic" in2="effect1_dropShadow_571_1814" result="shape"/>
</filter>
<clipPath id="clip0_571_1814">
<rect width="32.2666" height="37.2395" fill="white" transform="translate(0 11)"/>
</clipPath>
<clipPath id="clip1_571_1814">
<rect width="17.751" height="17.7778" fill="white" transform="translate(20.4111 2.22217)"/>
</clipPath>
</defs>
</svg>
