<svg width="205" height="172" viewBox="0 0 205 172" fill="none" xmlns="http://www.w3.org/2000/svg">
<path opacity="0.5" fill-rule="evenodd" clip-rule="evenodd" d="M14 0C6.26801 0 0 6.26802 0 14V126C0 133.732 6.26801 140 14 140H132.4L132.439 171.532L161.183 140H191C198.732 140 205 133.732 205 126V14C205 6.26801 198.732 0 191 0H14Z" fill="#110000"/>
<path d="M115.25 82.9999L120.125 68.3749C115.912 62.1435 114.387 54.764 115.836 47.6086C117.284 40.4531 121.606 34.0087 127.999 29.4735C134.392 24.9382 142.42 22.6208 150.59 22.9521C158.761 23.2834 166.518 26.2408 172.42 31.2745C178.321 36.3083 181.966 43.0757 182.675 50.3186C183.385 57.5615 181.111 64.787 176.277 70.6517C171.443 76.5163 164.377 80.621 156.394 82.2025C148.411 83.784 140.053 82.7348 132.875 79.2499L115.25 82.9999" stroke="white" stroke-width="2.75" stroke-linecap="round" stroke-linejoin="round"/>
</svg>
