<?xml version="1.0" encoding="UTF-8" standalone="no"?>
<!-- Created with Inkscape (http://www.inkscape.org/) -->

<svg
   xmlns:dc="http://purl.org/dc/elements/1.1/"
   xmlns:cc="http://creativecommons.org/ns#"
   xmlns:rdf="http://www.w3.org/1999/02/22-rdf-syntax-ns#"
   xmlns:svg="http://www.w3.org/2000/svg"
   xmlns="http://www.w3.org/2000/svg"
   xmlns:sodipodi="http://sodipodi.sourceforge.net/DTD/sodipodi-0.dtd"
   xmlns:inkscape="http://www.inkscape.org/namespaces/inkscape"
   width="82.724846mm"
   height="90.605606mm"
   viewBox="0 0 82.724846 90.605606"
   version="1.1"
   id="svg8"
   inkscape:version="0.92.2 5c3e80d, 2017-08-06"
   sodipodi:docname="icon-change-char.svg">
  <defs
     id="defs2" />
  <sodipodi:namedview
     id="base"
     pagecolor="#ffffff"
     bordercolor="#666666"
     borderopacity="1.0"
     inkscape:pageopacity="0.0"
     inkscape:pageshadow="2"
     inkscape:zoom="0.97536518"
     inkscape:cx="125.10796"
     inkscape:cy="135.4426"
     inkscape:document-units="mm"
     inkscape:current-layer="layer1"
     showgrid="false"
     inkscape:window-width="1404"
     inkscape:window-height="878"
     inkscape:window-x="36"
     inkscape:window-y="0"
     inkscape:window-maximized="1"
     fit-margin-top="0"
     fit-margin-left="0"
     fit-margin-right="0"
     fit-margin-bottom="0" />
  <metadata
     id="metadata5">
    <rdf:RDF>
      <cc:Work
         rdf:about="">
        <dc:format>image/svg+xml</dc:format>
        <dc:type
           rdf:resource="http://purl.org/dc/dcmitype/StillImage" />
        <dc:title></dc:title>
      </cc:Work>
    </rdf:RDF>
  </metadata>
  <g
     inkscape:label="Layer 1"
     inkscape:groupmode="layer"
     id="layer1"
     transform="translate(-38.803524,-50.688152)">
    <path
       style="fill:#ffffff;stroke-width:0.26458332"
       d="m 77.301424,141.14508 c -4.72301,-0.44006 -9.50298,-1.86047 -13.89571,-4.12922 -1.35288,-0.69874 -2.456,-1.11862 -2.58609,-0.98437 -0.12478,0.12877 -1.06226,1.28174 -2.083287,2.56215 -1.021025,1.28042 -1.948323,2.32954 -2.060665,2.33139 -0.11234,0.002 -1.414658,-4.14139 -2.894036,-9.2072 -1.913663,-6.55291 -2.593044,-9.23362 -2.354519,-9.29049 0.38995,-0.093 18.975517,1.24364 19.105927,1.37405 0.0481,0.0481 -0.93506,1.35852 -2.18479,2.91206 l -2.27226,2.8246 2.23312,1.04647 c 6.16807,2.89046 13.84261,3.5487 20.30458,1.74153 4.37156,-1.22257 7.115,-2.59337 10.76718,-5.37997 l 2.245256,-1.71313 1.57605,1.54758 c 0.86683,0.85117 2.06922,2.13112 2.67197,2.84433 l 1.09592,1.29674 -1.31487,1.16858 c -1.97351,1.75394 -5.721136,4.1921 -8.430026,5.48446 -6.02879,2.87623 -13.33061,4.18476 -19.92375,3.57044 z M 40.351095,115.91456 c 0.851162,-0.64282 1.948908,-1.58606 2.439429,-2.0961 0.490525,-0.51003 1.040257,-0.87038 1.221629,-0.80078 0.407329,0.1563 0.929219,-1.7689 0.929219,-3.4278 0,-0.86536 -0.236201,-1.56595 -0.899136,-2.66686 -0.651571,-1.08204 -1.030573,-2.19101 -1.37651,-4.02773 -0.405517,-2.15304 -0.566719,-2.56853 -1.070901,-2.76022 -0.694502,-0.264048 -1.431822,-2.379228 -1.949569,-5.592808 -0.381752,-2.36946 -0.265891,-2.85893 0.676719,-2.85893 h 0.688875 l -0.185436,-3.01128 c -0.194326,-3.15563 0.03471,-7.04289 0.414967,-7.04289 0.122433,0 0.269224,0.20836 0.326202,0.46302 0.05698,0.25466 0.196506,-0.19182 0.310065,-0.99219 0.243128,-1.71355 1.232128,-4.08902 1.404496,-3.37343 0.177395,0.73646 0.48429,0.5456 1.014965,-0.63123 0.413605,-0.91721 0.537327,-1.02467 0.764715,-0.66419 0.225771,0.35793 0.391745,0.19752 0.98947,-0.95627 0.39501,-0.76248 0.723813,-1.17798 0.730679,-0.92331 0.02513,0.93236 0.502226,0.42093 1.174972,-1.25956 0.379277,-0.94742 0.689594,-1.89992 0.689594,-2.11666 0,-0.54195 0.256024,-0.49438 0.975135,0.18119 0.572286,0.53764 0.612365,0.54269 0.612365,0.0772 0,-0.38841 0.262189,-0.24077 1.190625,0.67042 0.938024,0.9206 1.190625,1.06161 1.190625,0.66464 0,-0.42633 0.134252,-0.37374 0.872492,0.34179 0.982668,0.95244 1.244174,1.03916 1.244174,0.41257 0,-0.29606 0.402805,-0.0563 1.273162,0.75781 0.700241,0.655 1.551731,1.33998 1.892202,1.5222 0.543605,0.29093 0.59844,0.27762 0.449993,-0.10923 -0.274331,-0.7149 2.965642,1.92781 3.404892,2.77722 0.22092,0.42721 0.50822,0.77675 0.63844,0.77675 0.13022,0 0.32072,0.38695 0.42332,0.8599 0.1026,0.47294 0.31217,0.93975 0.4657,1.03734 0.17332,0.11018 0.32415,2.14138 0.39787,5.35781 0.11824,5.1594 0.12112,5.18037 0.71355,5.18037 1.10048,0 1.22264,0.50342 0.7665,3.15883 -0.58266,3.39199 -1.21131,5.15554 -1.87302,5.254368 -0.44596,0.0666 -0.61582,0.51514 -1.09552,2.89301 -0.44322,2.19701 -0.77194,3.12174 -1.49887,4.21658 -0.975242,1.46882 -1.063033,1.99378 -0.758085,4.53294 0.116735,0.97204 0.270845,1.36332 0.502005,1.27462 0.18346,-0.0704 0.55311,0.11513 0.82144,0.41229 0.26833,0.29717 1.26179,1.14393 2.20767,1.88171 0.94589,0.73777 1.8329,1.43911 1.97115,1.55852 0.13824,0.11942 -5.796916,0.21712 -13.189239,0.21712 H 38.803524 Z m 54.042379,-1.46622 c 1.51423,-1.43466 2.90183,-2.55142 3.08355,-2.48169 0.45954,0.17634 0.84294,-4.3243 0.41899,-4.91826 -0.74617,-1.04536 -1.33109,-2.41749 -1.7791,-4.1735 -0.41072,-1.60989 -0.56829,-1.89707 -1.01622,-1.85209 -0.42451,0.0426 -0.6456,-0.26635 -1.10978,-1.550938 -0.69022,-1.91015 -1.31749,-5.40888 -1.08047,-6.02654 0.0956,-0.24904 0.45837,-0.43908 0.83825,-0.43908 h 0.66976 l 0.005,-2.84427 c 0.0113,-6.85876 0.69205,-9.22589 3.49309,-12.14693 2.700776,-2.81649 5.601436,-3.959 9.452186,-3.72302 3.3355,0.20441 4.97809,0.93488 7.48479,3.32854 3.27056,3.12306 3.89139,5.01339 3.90165,11.87995 l 0.005,3.50573 h 0.65216 c 0.99635,0 1.16745,0.67131 0.76371,2.99641 -0.48506,2.79341 -1.40279,5.072878 -2.04323,5.075028 -0.38816,0.001 -0.62541,0.47086 -1.13631,2.24896 -0.35515,1.23602 -0.94456,2.68128 -1.30981,3.21168 -0.63237,0.91831 -0.65376,1.06997 -0.44772,3.175 0.17173,1.75449 0.29945,2.19739 0.61897,2.14648 0.22143,-0.0353 1.58786,1.12558 3.03651,2.57969 l 2.63392,2.64383 -14.94399,-0.0132 -14.943996,-0.0133 z m 4.79746,-45.722618 c -5.30603,-0.19243 -9.69541,-0.39795 -9.75417,-0.45673 -0.0588,-0.0588 0.80679,-1.39279 1.92347,-2.96449 l 2.03033,-2.85763 -1.40428,-0.61927 c -4.61707,-2.03606 -8.41285,-2.81424 -13.70741,-2.81016 -8.17174,0.006 -14.18492,2.18562 -21.444476,7.77207 l -0.67468,0.51918 -2.61993,-2.93144 -2.619931,-2.93146 1.045655,-0.89842 c 1.724102,-1.48136 5.635402,-4.028 8.044622,-5.23784 11.20173,-5.62518 25.00531,-5.72061 36.07583,-0.24942 1.00657,0.49746 1.85338,0.90447 1.88182,0.90447 0.0284,0 0.87857,-1.18661 1.8892,-2.63692 1.010626,-1.45031 1.897036,-2.63808 1.969796,-2.63951 0.15982,-0.003 7.23404,18.25465 7.10325,18.33269 -0.0505,0.0301 -4.43308,-0.10269 -9.739096,-0.29512 z"
       id="path826"
       inkscape:connector-curvature="0" />
  </g>
</svg>
