<?xml version="1.0" encoding="UTF-8" standalone="no"?>
<!-- Created with Inkscape (http://www.inkscape.org/) -->

<svg
   xmlns:dc="http://purl.org/dc/elements/1.1/"
   xmlns:cc="http://creativecommons.org/ns#"
   xmlns:rdf="http://www.w3.org/1999/02/22-rdf-syntax-ns#"
   xmlns:svg="http://www.w3.org/2000/svg"
   xmlns="http://www.w3.org/2000/svg"
   xmlns:sodipodi="http://sodipodi.sourceforge.net/DTD/sodipodi-0.dtd"
   xmlns:inkscape="http://www.inkscape.org/namespaces/inkscape"
   width="96.386772mm"
   height="90.702995mm"
   viewBox="0 0 96.386772 90.702995"
   version="1.1"
   id="svg8"
   inkscape:version="0.92.2 5c3e80d, 2017-08-06"
   sodipodi:docname="icon-change-char2.svg">
  <defs
     id="defs2" />
  <sodipodi:namedview
     id="base"
     pagecolor="#ffffff"
     bordercolor="#666666"
     borderopacity="1.0"
     inkscape:pageopacity="0.0"
     inkscape:pageshadow="2"
     inkscape:zoom="0.2438413"
     inkscape:cx="-433.78076"
     inkscape:cy="-448.96557"
     inkscape:document-units="mm"
     inkscape:current-layer="layer1"
     showgrid="false"
     inkscape:window-width="1404"
     inkscape:window-height="878"
     inkscape:window-x="36"
     inkscape:window-y="0"
     inkscape:window-maximized="1"
     fit-margin-top="0"
     fit-margin-left="0"
     fit-margin-right="0"
     fit-margin-bottom="0" />
  <metadata
     id="metadata5">
    <rdf:RDF>
      <cc:Work
         rdf:about="">
        <dc:format>image/svg+xml</dc:format>
        <dc:type
           rdf:resource="http://purl.org/dc/dcmitype/StillImage" />
        <dc:title></dc:title>
      </cc:Work>
    </rdf:RDF>
  </metadata>
  <g
     inkscape:label="Layer 1"
     inkscape:groupmode="layer"
     id="layer1"
     transform="translate(-147.87264,-51.672347)">
    <path
       style="fill:#ffffff;stroke-width:0.26458332"
       d="m 148.03339,139.26648 c 0.18023,-3.48928 0.63881,-5.47191 1.83135,-7.91775 2.42293,-4.96928 7.09271,-8.22696 13.82864,-9.64699 3.01899,-0.63644 9.30055,-0.69451 12.56771,-0.11617 7.63838,1.35211 13.17092,5.62882 15.19134,11.74306 0.6503,1.96796 1.20618,5.60552 1.21066,7.92223 l 0.002,1.12448 h -22.39622 -22.39623 z m 51.39427,-13.29531 -4.51344,-4.49791 4.51344,-4.49792 c 4.322,-4.30714 4.55798,-4.49792 5.56352,-4.49792 1.25887,0 2.03715,0.49243 2.48425,1.57183 0.46807,1.13002 0.16539,1.98513 -1.23112,3.47811 l -1.21605,1.30006 h 3.4272 c 1.88495,0 4.13079,-0.13006 4.99073,-0.28903 3.49659,-0.64638 6.73439,-2.79195 8.6676,-5.74368 1.53065,-2.3371 2.00974,-3.64114 2.34349,-6.3788 0.33325,-2.73351 0.52101,-3.12951 1.72175,-3.63121 0.73493,-0.30707 1.11478,-0.32568 1.82997,-0.0896 1.34086,0.44252 1.69854,1.13778 1.69401,3.2928 -0.005,2.48583 -0.59466,4.85432 -1.84547,7.4156 -1.9481,3.98913 -4.64776,6.69212 -8.62597,8.63663 -3.26873,1.59772 -4.45382,1.84546 -9.58965,2.00462 l -4.58688,0.14216 1.19624,1.22288 c 1.43753,1.46953 1.69813,2.30283 1.10865,3.54505 -0.48132,1.01432 -1.33544,1.51429 -2.58691,1.51429 -0.72322,0 -1.42167,-0.58773 -5.34536,-4.49792 z m -32.3993,-11.00204 c -3.46225,-0.93105 -6.34125,-3.3633 -7.92434,-6.69468 -0.86357,-1.81728 -0.96694,-2.27404 -1.05469,-4.66057 -0.0806,-2.19359 0.001,-2.93735 0.47857,-4.351346 1.16541,-3.451675 3.22749,-5.752012 6.61762,-7.38225 1.76636,-0.849405 2.25881,-0.963912 4.53939,-1.05551 2.10014,-0.08435 2.86368,-0.0011 4.26513,0.46532 7.37087,2.45287 10.69199,10.361566 7.3133,17.415446 -0.83534,1.744 -3.73342,4.57697 -5.56099,5.43607 -2.75097,1.29317 -5.84482,1.58833 -8.67399,0.82752 z m 43.72048,-26.767226 c 0.38077,-5.150565 2.10788,-8.454491 5.64783,-10.804176 5.60791,-3.722317 16.29974,-3.800226 21.93216,-0.159816 3.7935,2.451862 5.91164,6.60745 5.92558,11.62545 l 0.005,1.653646 h -16.84066 -16.84066 z m -42.48087,-4.049816 c -0.91347,-1.04085 -0.74777,-1.909682 -0.67412,-3.241146 0.41033,-7.417934 5.47212,-13.953653 12.77082,-16.489496 1.94874,-0.677064 2.49422,-0.742699 6.9726,-0.83897 l 4.85848,-0.104444 -1.07279,-1.098741 c -0.59004,-0.604308 -1.20538,-1.451282 -1.36742,-1.882164 -0.77952,-2.072772 1.25542,-4.097435 3.32677,-3.309966 0.81287,0.309025 9.10795,8.367567 9.10795,8.848224 0,0.377093 -8.17347,8.467987 -8.95755,8.867055 -1.31959,0.671627 -3.22091,-0.308379 -3.60522,-1.858258 -0.22605,-0.911601 0.18135,-1.871731 1.33696,-3.150841 l 0.96863,-1.072166 h -3.97166 c -4.63312,0 -6.39564,0.40979 -8.94129,2.078871 -3.81637,2.502241 -5.81049,5.957779 -6.34605,10.996874 -0.13147,1.236985 -0.32393,1.723816 -0.91522,2.315104 -1.0564,1.056402 -2.39758,1.033378 -3.49089,-0.05994 z m 56.14871,-14.433962 c -4.28622,-1.554967 -6.85828,-5.903153 -6.06842,-10.258972 0.65732,-3.624911 3.10956,-6.379099 6.60359,-7.416716 4.95841,-1.472488 10.22371,1.588973 11.52013,6.698274 1.05314,4.150521 -1.02205,8.649999 -4.85414,10.524868 -1.87264,0.916197 -5.32507,1.13316 -7.20116,0.452546 z"
       id="path858"
       inkscape:connector-curvature="0"
       sodipodi:nodetypes="cccsccccccccsscccscccccccsccccsccccccssccsccsscccccccssccccsccccssccccssssss" />
  </g>
</svg>
