<svg width="617" height="1191" viewBox="0 0 617 1191" fill="none" xmlns="http://www.w3.org/2000/svg">
<path d="M137.608 220.526C56.601 220.526 0 277.129 0 358.139V622.633H93.9021V358.139C93.9021 328.626 111.384 309.585 138.387 309.585C165.389 309.585 182.871 328.626 182.871 358.139V428.33H275.216V358.139C275.216 277.129 218.615 220.526 137.608 220.526Z" fill="black"/>
<path d="M264.657 726.233C271.494 709.269 275.216 690.228 275.216 669.543V584.898H182.871V630.163C226.664 644.358 256.089 678.544 264.657 726.233Z" fill="black"/>
<path d="M609.63 704.162C611.793 693.689 613.005 682.697 613.005 671.1V228.575H520.66V619.69C564.799 631.028 596.648 661.406 609.63 704.162Z" fill="black"/>
<path d="M434.894 620.988V228.575H340.991V671.186C340.991 687.371 343.414 702.517 347.742 716.452C357.695 668.85 389.284 634.49 434.894 620.988Z" fill="black"/>
<path d="M138.387 718.01C165.389 718.01 182.871 698.969 182.871 669.456V630.076C168.245 625.316 152.061 622.633 134.406 622.633H93.8157V669.542C93.9022 698.969 111.384 718.01 138.387 718.01Z" fill="black"/>
<path d="M137.608 807.154C56.601 807.154 0 750.551 0 669.541V1183.04H141.676C222.51 1183.04 274.524 1130.24 274.524 1049.32V1003.71C274.524 950.046 251.329 912.484 210.48 893.27C247.262 872.498 267.34 836.407 267.34 786.036V756.436C267.34 745.877 266.389 735.837 264.658 726.317C244.752 775.737 197.931 807.154 137.608 807.154Z" fill="black"/>
<path d="M477.82 718.01C504.303 718.01 520.747 700.008 520.747 671.101V619.691C508.198 616.488 494.697 614.671 480.244 614.671C463.973 614.671 448.827 616.921 434.894 621.076V671.187C434.894 700.095 451.337 718.01 477.82 718.01Z" fill="black"/>
<path d="M609.63 704.161C596.821 766.909 547.144 807.154 477.734 807.154C413.43 807.154 364.704 771.496 347.655 716.364C345.405 726.923 344.106 738.088 344.106 749.946V1055.72C344.106 1136.56 398.544 1191 480.157 1191C561.77 1191 616.207 1136.56 616.207 1055.72V749.946C616.294 733.501 613.957 718.182 609.63 704.161Z" fill="black"/>
<path d="M0 0H81.6125V27.0898H28.733V79.9712H70.7077V107.061H28.733V162.625H81.6125V189.715H0V0Z" fill="black"/>
<path d="M86.0264 0H114.76V162.625H165.995V189.715H86.0264V0Z" fill="black"/>
</svg>
