<svg width="60" height="44" viewBox="0 0 60 44" fill="none" xmlns="http://www.w3.org/2000/svg">
<g clip-path="url(#clip0_1435_1127)">
<path d="M18.1125 42.0213C17.1654 41.7608 16.2269 41.468 15.2775 41.2205C14.8815 41.1172 14.7415 40.8675 14.7157 40.5058C14.7071 40.381 14.7028 40.2518 14.7157 40.127C14.8556 38.6653 14.3993 37.3802 13.5124 36.2415C13.0388 35.6344 12.4447 35.1652 11.6891 34.81C11.7602 35.2771 11.8247 35.6861 11.8872 36.0929C12.0422 37.1004 12.167 38.1207 12.6341 39.042C13.0108 39.7847 13.5296 40.3874 14.4143 40.5618C14.4983 40.579 14.5564 40.734 14.664 40.8739C14.5392 40.8739 14.5134 40.8804 14.494 40.8739C12.9893 40.198 11.6547 39.2659 10.4643 38.1293C10.404 38.0712 10.3502 37.97 10.3545 37.8904C10.3696 37.5696 10.3588 37.236 10.4492 36.9346C11.1359 34.6399 10.6451 32.5928 9.19209 30.7372C9.14258 30.6748 9.07154 30.6296 8.98328 30.5543C8.93808 30.9202 8.88641 31.228 8.86274 31.5402C8.78524 32.6014 8.66254 33.6626 8.66039 34.7239C8.66039 35.7399 9.06078 36.6203 9.91322 37.2403C10.1522 37.4147 10.1608 37.4017 10.0876 37.7526C10.0058 37.6751 9.92828 37.6062 9.8594 37.5352C8.87135 36.5127 8.0512 35.3675 7.30639 34.1599C6.97919 33.6282 7.07176 33.1632 7.37312 32.681C7.53887 32.4163 7.724 32.1558 7.84024 31.8695C8.61949 29.9687 8.54415 28.0766 7.72615 26.2038C7.70032 26.1457 7.65512 26.0983 7.60561 26.023C7.36451 26.6214 7.09974 27.1789 6.91461 27.7623C6.64769 28.5975 6.37646 29.4413 6.22362 30.3002C6.07079 31.1634 6.27098 32.0008 6.76608 32.7521C6.86941 32.9071 6.92753 33.0922 7.00718 33.2622C6.96197 33.2816 6.91461 33.301 6.86941 33.3204C6.83281 33.2666 6.78976 33.2149 6.75963 33.1568C5.93517 31.566 5.31737 29.8977 4.90837 28.1541C4.88685 28.0637 4.91268 27.9539 4.94066 27.8613C5.07412 27.4114 5.40778 27.1316 5.74144 26.8195C6.98135 25.6549 7.50013 24.1545 7.57332 22.4884C7.597 21.933 7.53672 21.3733 7.5152 20.8158L7.40111 20.8007C6.83712 21.5606 6.23869 22.3011 5.71776 23.089C5.36473 23.625 5.06121 24.2105 4.83949 24.8132C4.58548 25.5064 4.51014 26.2512 4.86532 26.9422C5.00093 27.2048 4.98156 27.3813 4.80505 27.6116C4.77491 27.5406 4.74477 27.4911 4.73401 27.4394C4.41112 25.8572 4.22384 24.2621 4.20446 22.6455C4.20016 22.3097 4.21953 21.9997 4.48861 21.763C4.62853 21.6381 4.77491 21.5197 4.9299 21.4121C5.39271 21.0935 5.92226 20.8459 6.31834 20.4585C7.2741 19.5221 7.78212 18.3338 7.99092 17.0186C8.04689 16.6634 8.06627 16.3039 8.11362 15.8476C7.83163 16.0736 7.6379 16.2156 7.45708 16.3728C6.77685 16.9669 6.04711 17.5137 5.43792 18.1724C4.64145 19.0334 4.28196 20.0818 4.48861 21.2829C4.51014 21.4099 4.38744 21.5628 4.33147 21.7048C4.29918 21.6941 4.26904 21.6812 4.23675 21.6704C4.23245 21.6058 4.22384 21.5391 4.22384 21.4745C4.25613 19.7309 4.49937 18.0131 4.89546 16.3168C4.9751 15.9724 5.39271 15.6452 5.75005 15.6474C6.30112 15.6538 6.80053 15.4902 7.26764 15.2168C8.43006 14.5388 9.17702 13.5184 9.65921 12.285C9.74962 12.0546 9.82065 11.8178 9.92398 11.5208C9.66136 11.6198 9.47408 11.6779 9.29757 11.7576C8.44728 12.145 7.56686 12.483 6.75747 12.9458C5.8792 13.4474 5.39917 14.2525 5.40132 15.2986C5.40132 15.5763 5.39271 15.5763 5.08058 15.6753C5.08058 15.6387 5.07412 15.6043 5.08058 15.572C5.5025 14.0028 6.05141 12.4808 6.75532 11.0149C6.89309 10.7286 7.36451 10.5586 7.68956 10.6167C8.06196 10.6834 8.44943 10.7717 8.81753 10.7286C9.79482 10.6167 10.6322 10.1732 11.3038 9.45857C11.6676 9.0711 11.9776 8.63196 12.3112 8.21651C12.2833 8.19068 12.2574 8.16269 12.2294 8.13686C11.9647 8.15408 11.6999 8.16269 11.4373 8.19068C10.77 8.25741 10.0919 8.27678 9.43964 8.41885C8.42791 8.64057 7.65942 9.18303 7.42263 10.2852C7.39895 10.3928 7.21168 10.4638 7.09974 10.5499C7.07606 10.5198 7.05238 10.4897 7.02655 10.4595C7.66157 9.20887 8.39992 8.02062 9.24806 6.90341C9.37506 6.73551 9.87232 6.65371 10.0747 6.76995C10.7764 7.17034 11.5255 7.2263 12.2983 7.07562C13.3832 6.86251 14.2012 6.24686 14.9073 5.32339C14.1259 5.21145 13.422 5.06077 12.7095 5.01771C11.5406 4.94883 10.5246 5.24589 9.94551 6.40185C9.89384 6.50302 9.7324 6.54823 9.62261 6.61926L9.56449 6.54823C9.58817 6.50087 9.60324 6.4449 9.63768 6.40615C10.333 5.6592 11.024 4.91224 11.7279 4.17389C11.9625 3.92634 12.2467 3.80364 12.6104 3.77135C12.9936 3.73691 13.3854 3.6099 13.7341 3.442C14.8879 2.88231 15.6112 1.92655 16.0697 0.753373C16.158 0.527347 16.2204 0.288407 16.313 -0.00219727C15.6629 0.234591 15.0924 0.428327 14.5327 0.647894C13.7556 0.951414 13.0603 1.37979 12.5437 2.05786C12.2187 2.48623 12.0335 2.95981 12.0443 3.50657C12.0443 3.6056 11.9991 3.72829 11.9324 3.79933C11.1165 4.66899 10.2856 5.52573 9.46978 6.39539C9.23083 6.6494 9.02634 6.9357 8.80462 7.20908C8.77878 7.19401 8.75295 7.17894 8.72712 7.16388C8.7917 7.00889 8.81753 6.81946 8.92516 6.70537C10.2232 5.31693 10.643 3.61421 10.6903 1.78448C10.7032 1.28938 10.6193 0.79212 10.5741 0.225981C10.4126 0.350833 10.333 0.400343 10.2684 0.462769C9.12536 1.5972 8.36333 2.94044 8.13085 4.54414C8.02106 5.30617 8.02967 6.0768 8.57859 6.72259C8.61949 6.76995 8.64963 6.8582 8.63456 6.91202C8.542 7.23922 8.48603 7.5901 8.32243 7.8807C7.77997 8.83646 7.188 9.76424 6.63047 10.7114C6.42812 11.0558 6.26883 11.4261 6.09016 11.7856C6.04711 11.6349 6.06002 11.4971 6.1203 11.3895C7.00718 9.78792 7.19661 8.08305 6.86941 6.30713C6.75747 5.69579 6.55297 5.11458 6.21501 4.55705C6.15689 4.62163 6.1203 4.65177 6.09662 4.68836C6.02773 4.79599 5.95455 4.90147 5.90073 5.01771C5.17314 6.56545 4.80289 8.18637 4.92344 9.89986C4.96219 10.4402 5.12148 10.9719 5.51756 11.3507C5.95239 11.7683 5.85122 12.2247 5.71345 12.681C5.36473 13.8435 4.98156 14.9951 4.61777 16.1554C4.53812 16.4072 4.48861 16.6699 4.42618 16.9282C4.38959 16.9217 4.353 16.9153 4.31855 16.9088C4.34439 16.7108 4.35084 16.5106 4.3982 16.319C4.66082 15.2427 4.8115 14.1599 4.6436 13.0491C4.45202 11.7899 3.93539 10.692 3.05927 9.7255C3.01622 9.81591 2.98178 9.87403 2.9624 9.93645C2.4264 11.6263 2.4264 13.3376 2.80526 15.0489C2.9624 15.755 3.32189 16.3642 4.00427 16.7172C4.06024 16.7452 4.12482 16.8119 4.13128 16.8679C4.17863 17.2403 4.26043 17.617 4.23675 17.9873C4.19585 18.6912 4.07746 19.3908 4.01934 20.0947C3.95476 20.8653 3.92247 21.6403 3.87727 22.413C3.84713 22.413 3.81699 22.4152 3.7847 22.4173C3.77609 22.2602 3.75026 22.1009 3.76102 21.9438C3.89018 20.0688 3.40154 18.3876 2.19607 16.9303C1.82367 16.4804 1.41682 16.065 0.878666 15.7528C0.848529 15.8497 0.822698 15.9035 0.818393 15.9573C0.691388 17.7332 1.02935 19.4187 1.83443 21.0009C2.17885 21.6768 2.67395 22.2258 3.47903 22.3829C3.53715 22.3937 3.61465 22.4453 3.63402 22.497C3.73304 22.7768 3.87942 23.061 3.89233 23.3473C3.96122 24.8778 4.09899 26.3975 4.44125 27.8936C4.46063 27.9797 4.47354 28.068 4.49076 28.1562C4.45847 28.1713 4.42403 28.1864 4.39174 28.2014C3.9483 25.5709 2.55986 23.724 0.0025493 22.7359C0.0025493 22.9577 -0.0189769 23.0976 0.00685454 23.2289C0.327595 24.8584 1.03796 26.2942 2.18961 27.4975C2.61583 27.9431 3.13677 28.3177 3.76748 28.2639C4.22814 28.2251 4.41542 28.4296 4.59409 28.7504C4.66082 28.8687 4.71679 28.9936 4.7663 29.1228C5.16669 30.1711 5.5434 31.228 5.96961 32.2656C6.22147 32.8791 6.54652 33.4603 6.83927 34.0566C6.81559 34.0716 6.79191 34.0867 6.76824 34.1039C6.69074 33.9941 6.60033 33.893 6.54006 33.7724C5.9158 32.5131 5.0569 31.4842 3.77179 30.8513C2.95164 30.4488 2.09274 30.3153 1.16927 30.4057C1.1908 30.5155 1.20371 30.5952 1.22524 30.6705C1.24892 30.7588 1.2769 30.8492 1.31134 30.9331C1.78492 32.0934 2.57924 33.0104 3.55653 33.7552C4.42403 34.4161 5.38841 34.7519 6.47548 34.2525C6.52068 34.2309 6.60033 34.2245 6.63477 34.2525C6.8608 34.4247 7.13633 34.571 7.28702 34.7971C8.09425 36.0176 8.96606 37.1865 10.0101 38.2197C10.0833 38.2929 10.15 38.3704 10.221 38.4479C10.1888 38.4867 10.1586 38.5233 10.1263 38.562C9.3277 37.6579 8.44298 36.8894 7.22244 36.6742C6.01482 36.461 4.85671 36.6053 3.7029 37.1542C3.83206 37.3286 3.92032 37.4921 4.04732 37.617C5.1387 38.6955 6.44319 39.352 7.97586 39.4984C8.61518 39.5587 9.22653 39.4424 9.7324 39.0011C10.1091 38.6739 10.4686 38.6675 10.8496 38.999C11.8979 39.9052 13.0388 40.6737 14.296 41.2635C14.41 41.3174 14.5198 41.3819 14.6318 41.4401C14.6145 41.4917 14.5973 41.5434 14.5779 41.5929C13.521 40.9428 12.4103 40.5144 11.1639 40.7039C9.9412 40.889 8.88426 41.4164 7.92419 42.2925C8.19542 42.4647 8.41069 42.6434 8.65824 42.7532C9.85079 43.287 11.0972 43.4678 12.3887 43.2418C13.1787 43.104 13.8697 42.7811 14.3282 42.0815C14.5758 41.7048 14.9503 41.5886 15.3938 41.7285C16.0568 41.9352 16.7198 42.1397 17.3893 42.3183C17.7595 42.4173 18.1427 42.4582 18.5259 42.5271C18.5517 42.1418 18.3364 42.088 18.0975 42.0213H18.1125Z" fill="white"/>
<path d="M55.6107 28.3802C55.6473 28.3177 55.7614 28.2553 55.8303 28.2639C56.6375 28.3802 57.2467 28.0056 57.7805 27.4739C58.7449 26.5095 59.3326 25.317 59.7502 24.0383C59.8772 23.653 59.9203 23.2376 59.9999 22.8372C59.9525 22.8156 59.9052 22.7941 59.8578 22.7726C57.4297 23.6961 56.0541 25.5086 55.5354 28.0465C55.5999 27.4588 55.7269 26.8949 55.7872 26.3223C55.8949 25.2869 55.9357 24.2428 56.0606 23.2096C56.095 22.9211 56.2694 22.4669 56.4696 22.4088C57.3263 22.1656 57.8279 21.58 58.1895 20.8482C58.8547 19.5071 59.1345 18.0713 59.1647 16.5817C59.169 16.3126 59.1259 16.0435 59.1001 15.7077C58.3704 16.1942 57.8408 16.7517 57.3931 17.391C56.4352 18.758 56.0757 20.2842 56.1855 21.9352C56.1962 22.0924 56.1725 22.2538 56.1639 22.411C56.1338 22.411 56.1037 22.4088 56.0714 22.4066C56.0649 22.3528 56.0541 22.2969 56.0498 22.243C55.9659 21.0871 55.8841 19.9333 55.8001 18.7773C55.7571 18.1746 55.5268 17.5719 55.7958 16.9691C55.8389 16.8723 55.8884 16.7474 55.9723 16.7001C56.5471 16.3815 56.8851 15.8842 57.0702 15.2772C57.4921 13.8952 57.4641 12.4874 57.2682 11.0774C57.2058 10.6275 57.0616 10.1862 56.9389 9.66959C56.1661 10.5048 55.6925 11.3895 55.432 12.3905C55.0898 13.7187 55.2211 15.0318 55.5547 16.3406C55.5999 16.5171 55.5935 16.7087 55.6107 16.8916C55.5763 16.8938 55.5418 16.8981 55.5074 16.9002C55.4579 16.6764 55.4213 16.446 55.3524 16.2265C54.98 15.0339 54.5839 13.85 54.2266 12.6531C54.0953 12.2118 53.9919 11.7641 54.4182 11.3529C54.8121 10.9762 54.9757 10.4467 55.0209 9.90423C55.1544 8.29622 54.7949 6.77432 54.1878 5.29977C54.0802 5.03715 53.9123 4.80036 53.7508 4.51406C53.682 4.62815 53.6411 4.68197 53.6131 4.74224C52.6121 6.93146 52.7025 9.09484 53.7508 11.241C53.8283 11.3981 53.8778 11.5682 53.9403 11.7318C53.9101 11.7426 53.8778 11.7533 53.8477 11.7662C53.6841 11.4369 53.542 11.0946 53.3548 10.7782C52.7585 9.77292 52.145 8.77841 51.5423 7.77528C51.3421 7.44163 51.1655 7.03263 51.3894 6.70974C51.7876 6.13499 51.8931 5.52149 51.8436 4.86494C51.7145 3.17083 50.9309 1.77808 49.7943 0.561852C49.691 0.449915 49.5597 0.36381 49.4219 0.249721C49.3918 0.348742 49.3724 0.393947 49.366 0.439152C49.084 2.69725 49.3961 4.80467 50.9374 6.60211C51.0665 6.75279 51.1354 6.95729 51.2323 7.13811C51.1892 7.1704 51.144 7.20269 51.101 7.23498C51.0773 7.18116 51.0622 7.11873 51.0278 7.07353C50.1129 5.88528 49.1162 4.77668 47.9969 3.77787C47.9431 3.73051 47.8893 3.64225 47.8936 3.57767C47.9538 2.49275 47.3296 1.80176 46.531 1.22701C45.6828 0.61782 44.6668 0.389642 43.6637 0.053833C43.823 0.553241 43.9887 1.04404 44.2363 1.48963C44.867 2.63483 45.7711 3.50018 47.0949 3.71329C47.702 3.81231 48.1497 4.04264 48.548 4.46671C48.817 4.753 49.1098 5.01993 49.3767 5.31053C49.7319 5.70016 50.0699 6.107 50.4164 6.50524C50.382 6.54398 50.3475 6.58058 50.3131 6.61933C50.199 6.52676 50.0354 6.45573 49.9794 6.33733C49.7319 5.81425 49.3294 5.47844 48.8149 5.24811C48.0701 4.9123 47.3016 4.96181 46.5266 5.0802C46.0531 5.15339 45.5816 5.24165 44.9961 5.34282C45.3879 5.71523 45.6764 6.05319 46.0251 6.30935C47.2133 7.18331 48.4898 7.44593 49.8697 6.76355C50.1538 6.62363 50.6059 6.72265 50.7824 6.99819C51.4669 8.07235 52.1385 9.15296 52.8123 10.2336C52.8575 10.3046 52.8769 10.3907 52.9092 10.4704C52.8833 10.4962 52.8575 10.5199 52.8317 10.5457C52.7262 10.4553 52.5518 10.3778 52.5282 10.2702C52.3107 9.24768 51.6262 8.66647 50.6726 8.46197C49.7082 8.25532 48.7116 8.19505 47.7278 8.07019C47.702 8.11325 47.6783 8.1563 47.6525 8.19935C47.9237 8.55238 48.1669 8.92909 48.4705 9.25198C49.5339 10.3778 50.7608 11.0516 52.3753 10.5823C52.6078 10.5156 53.0921 10.7825 53.2041 11.015C53.8972 12.4594 54.4418 13.9598 54.8594 15.5053C54.8745 15.5613 54.8594 15.6259 54.8594 15.6862C54.8293 15.6991 54.7992 15.712 54.7669 15.7249C54.6958 15.6001 54.5645 15.4752 54.5645 15.3525C54.5688 14.2159 54.0307 13.3764 53.0749 12.8555C52.1278 12.3388 51.1182 11.9363 50.0612 11.4498C50.0871 11.6328 50.0849 11.7017 50.1065 11.7641C50.3755 12.5713 50.7178 13.3463 51.2753 13.9985C52.0739 14.9306 52.9974 15.6539 54.3148 15.6453C54.5538 15.6453 54.9929 16.0112 55.0338 16.2523C55.2448 17.4728 55.4622 18.6912 55.6365 19.9161C55.7183 20.493 55.7119 21.0806 55.7463 21.664C55.699 21.6748 55.6516 21.6877 55.6021 21.6984C55.5569 21.5456 55.4557 21.382 55.4772 21.2378C55.5633 20.6393 55.5117 20.0624 55.305 19.4942C54.6937 17.8 53.1847 16.9691 51.8695 15.9273C51.8974 16.459 51.9276 16.9842 52.0567 17.4793C52.526 19.2617 53.3548 20.7642 55.2017 21.4918C55.5009 21.6102 55.7765 21.9611 55.7463 22.3464C55.6322 23.8231 55.4902 25.2976 55.3459 26.7722C55.3179 27.0477 55.2318 27.3146 55.1737 27.588C55.1371 27.588 55.1005 27.5837 55.0639 27.5837C55.0424 27.4244 54.9499 27.2264 55.0123 27.1144C55.4514 26.3244 55.3416 25.5236 55.0919 24.7229C54.8056 23.7994 54.2373 23.0331 53.6647 22.2732C53.2923 21.7781 52.9113 21.2937 52.5346 20.8029C52.4959 20.8094 52.4571 20.8159 52.4205 20.8223C52.4076 21.4638 52.3323 22.1117 52.3925 22.7468C52.5561 24.5011 53.1567 26.0446 54.6162 27.1726C54.9219 27.4093 55.1587 27.8248 55.0123 28.2725C54.5968 29.5361 54.1728 30.7954 53.7207 32.0461C53.5593 32.4917 53.3117 32.9071 53.1029 33.3377C53.0642 33.3247 53.0276 33.3118 52.9888 33.2989C53.0168 33.1547 52.9974 32.976 53.0792 32.8727C53.7013 32.0827 53.8456 31.1764 53.7293 30.2164C53.5485 28.7375 52.8747 27.4158 52.3516 26.0166C52.3021 26.0769 52.2634 26.107 52.2483 26.1458C51.3055 28.4189 51.2516 30.6383 52.6401 32.778C52.864 33.1224 52.9845 33.5335 52.7692 33.921C52.1321 35.0705 51.3593 36.1275 50.4896 37.1112C50.2937 37.3329 50.0935 37.5482 49.8955 37.7677C49.8524 37.7355 49.8072 37.701 49.7642 37.6687C49.8374 37.5353 49.8761 37.3566 49.9881 37.2791C50.6425 36.8249 51.0364 36.2006 51.1978 35.4386C51.5466 33.8026 51.1139 32.2054 50.9309 30.5672C50.8276 30.6275 50.7695 30.7115 50.7092 30.7933C49.2648 32.6919 48.8041 34.767 49.5511 37.0746C49.7039 37.546 49.719 38.0239 49.2389 38.3769C48.5587 38.8785 47.9151 39.4317 47.2176 39.9053C46.6493 40.2906 46.0251 40.5941 45.4245 40.9343C45.3901 40.8977 45.3578 40.8611 45.3233 40.8245C45.3944 40.7319 45.4525 40.5769 45.5386 40.5597C46.4061 40.3896 46.9335 39.8063 47.2994 39.0701C47.956 37.7484 47.9926 36.2803 48.2746 34.7928C48.111 34.8768 48.0076 34.922 47.9129 34.9801C45.9842 36.1985 45.0801 37.9421 45.2458 40.2239C45.2846 40.7491 45.1468 41.0526 44.6732 41.2012C43.7261 41.4982 42.7682 41.763 41.8081 42.0235C41.5605 42.0902 41.3776 42.1677 41.4163 42.5014C41.539 42.4884 41.6553 42.4928 41.7629 42.4648C42.6907 42.2215 43.6206 41.9826 44.5419 41.72C44.9832 41.5951 45.3599 41.7006 45.6075 42.0773C45.8809 42.4992 46.2511 42.8178 46.7204 42.9857C48.4253 43.5992 50.0656 43.3861 51.6434 42.5466C51.7661 42.482 51.8608 42.3614 51.9706 42.2667C51.0859 41.3798 49.635 40.7491 48.4575 40.6695C47.4415 40.6006 46.5417 40.9192 45.6764 41.3971C45.5752 41.453 45.4546 41.4767 45.3427 41.5133C45.3319 41.481 45.319 41.4487 45.3083 41.4186C46.7505 40.762 48.0529 39.8945 49.2583 38.8677C49.4391 38.7127 49.8029 38.5922 50.0548 38.8527C50.6468 39.4619 51.3851 39.5695 52.173 39.4748C53.415 39.3262 54.4978 38.7859 55.4643 38.0153C55.7528 37.785 55.9831 37.4793 56.2866 37.1607C55.0575 36.6053 53.8822 36.4374 52.6487 36.6893C51.6154 36.8981 50.8082 37.475 50.1129 38.237C50.0182 38.3403 49.8976 38.4221 49.79 38.5147C49.7448 38.463 49.6996 38.4135 49.6544 38.3619C49.8933 38.1617 50.1732 37.9959 50.3605 37.757C51.1483 36.7582 51.9125 35.7378 52.6767 34.7218C52.8618 34.4742 53.3246 34.1879 53.4968 34.2654C54.487 34.711 55.3868 34.4376 56.2177 33.8758C57.1132 33.2688 57.8107 32.4594 58.3488 31.5251C58.5447 31.185 58.661 30.7997 58.8246 30.4058C57.5459 30.2809 56.4674 30.5802 55.4837 31.2539C54.5452 31.8954 53.908 32.7758 53.4064 33.7746C53.3483 33.8909 53.2514 33.9878 53.1739 34.0932C53.146 34.0739 53.1201 34.0545 53.0921 34.0351C53.9618 32.5089 54.614 30.8901 55.163 29.2262C55.262 28.9269 55.4493 28.6557 55.615 28.3823L55.6107 28.3802Z" fill="white"/>
<path d="M28.1434 26.544V25.9284C26.6646 25.7045 24.6153 25.5646 22.3486 25.5646C20.0819 25.5646 18.0326 25.7023 16.5537 25.9284V26.544C18.0326 26.3201 20.084 26.1824 22.3486 26.1824C24.6131 26.1824 26.6646 26.3201 28.1434 26.544Z" fill="white"/>
<path d="M27.5854 26.6601C26.169 26.4901 24.3414 26.3889 22.3459 26.3889C20.3504 26.3889 18.5229 26.4901 17.1064 26.6601V26.9895C18.5229 26.8194 20.3504 26.7183 22.3459 26.7183C24.3414 26.7183 26.169 26.8194 27.5854 26.9895V26.6601Z" fill="white"/>
<path d="M26.8363 22.2408H26.7373V23.132H26.8363V22.2408Z" fill="white"/>
<path d="M27.0713 22.2021V23.1321H27.1703V22.4454L27.8656 23.173V22.2409H27.7666V22.9319L27.0713 22.2021Z" fill="white"/>
<path d="M28.6172 23.0202C28.7141 22.9319 28.7636 22.8178 28.7636 22.6865C28.7636 22.5552 28.7162 22.4347 28.6151 22.3464C28.5096 22.256 28.402 22.2388 28.2685 22.2388H28.1006V23.13H28.2663C28.4063 23.13 28.5117 23.1127 28.6194 23.018L28.6172 23.0202ZM28.1975 22.3313H28.2706C28.3761 22.3313 28.4665 22.3464 28.5483 22.4196C28.6258 22.4863 28.6646 22.5853 28.6646 22.6865C28.6646 22.7877 28.6258 22.8803 28.5526 22.9491C28.4708 23.0266 28.3804 23.0417 28.2706 23.0417H28.1975V22.3335V22.3313Z" fill="white"/>
<path d="M28.9463 22.2408V22.7984C28.9463 22.8995 28.9549 22.9813 29.0345 23.0567C29.0948 23.117 29.1809 23.1471 29.2649 23.1471C29.3553 23.1471 29.4435 23.1127 29.506 23.0459C29.577 22.9727 29.5835 22.8952 29.5835 22.7984V22.2408H29.4844V22.7725C29.4844 22.8414 29.4888 22.9211 29.4414 22.977C29.4005 23.0266 29.3295 23.0567 29.267 23.0567C29.2046 23.0567 29.1271 23.0266 29.0862 22.9706C29.0453 22.9146 29.0475 22.8371 29.0475 22.7725V22.2408H28.9484H28.9463Z" fill="white"/>
<path d="M30.0402 23.0567C29.9433 23.0567 29.8744 22.9814 29.8615 22.891L29.7646 22.919C29.7926 23.0567 29.9003 23.1493 30.0423 23.1493C30.1973 23.1493 30.3222 23.0288 30.3222 22.8738C30.3222 22.7317 30.2232 22.6736 30.1091 22.6219L30.0509 22.5961C29.9907 22.5681 29.911 22.5337 29.911 22.4562C29.911 22.3744 29.9799 22.3184 30.0596 22.3184C30.1349 22.3184 30.178 22.3528 30.2124 22.4153L30.292 22.3636C30.2447 22.2753 30.1607 22.2258 30.0617 22.2258C29.9304 22.2258 29.812 22.3141 29.812 22.454C29.812 22.581 29.9024 22.6348 30.0057 22.6822L30.0596 22.7059C30.1435 22.7425 30.2232 22.7791 30.2232 22.8824C30.2232 22.9857 30.1349 23.0567 30.0402 23.0567Z" fill="white"/>
<path d="M30.752 23.132V22.3334H30.9694V22.2408H30.4355V22.3334H30.6508V23.132H30.752Z" fill="white"/>
<path d="M31.5745 22.4863C31.5745 22.284 31.4174 22.2388 31.2473 22.2388H31.1182V23.13H31.2172V22.7382H31.2409L31.5099 23.13H31.6326L31.3485 22.7296C31.4863 22.7188 31.5724 22.6198 31.5724 22.4842L31.5745 22.4863ZM31.2495 22.6521H31.2193V22.3313H31.2495C31.3679 22.3313 31.4755 22.3464 31.4755 22.4928C31.4755 22.6305 31.3614 22.6521 31.2495 22.6521Z" fill="white"/>
<path d="M31.9086 22.2408H31.8096V23.132H31.9086V22.2408Z" fill="white"/>
<path d="M32.651 22.8802L32.7564 23.1342H32.8662L32.4658 22.2L32.0547 23.1342H32.1645L32.2721 22.8802H32.6531H32.651ZM32.4637 22.4303L32.6122 22.7876H32.3108L32.4637 22.4303Z" fill="white"/>
<path d="M33.9383 22.8802L34.0437 23.1342H34.1535L33.7531 22.2L33.3398 23.1342H33.4496L33.5573 22.8802H33.9383ZM33.751 22.4303L33.8995 22.7876H33.5982L33.751 22.4303Z" fill="white"/>
<path d="M34.6145 23.1471C34.7049 23.1471 34.7932 23.1127 34.8534 23.0459C34.9245 22.9727 34.9309 22.8952 34.9309 22.7984V22.2408H34.8319V22.7725C34.8319 22.8414 34.8362 22.9211 34.7888 22.977C34.7479 23.0266 34.6769 23.0567 34.6145 23.0567C34.5521 23.0567 34.4746 23.0266 34.4337 22.9706C34.3928 22.9146 34.3949 22.8371 34.3949 22.7725V22.2408H34.2959V22.7984C34.2959 22.8995 34.3045 22.9813 34.382 23.0567C34.4423 23.117 34.5284 23.1471 34.6123 23.1471H34.6145Z" fill="white"/>
<path d="M35.6729 23.0202C35.7697 22.9319 35.8193 22.8178 35.8193 22.6865C35.8193 22.5552 35.7719 22.4347 35.6707 22.3464C35.5652 22.256 35.4576 22.2388 35.3242 22.2388H35.1562V23.13H35.322C35.4619 23.13 35.5674 23.1127 35.675 23.018L35.6729 23.0202ZM35.2531 22.3313H35.3263C35.4318 22.3313 35.5222 22.3464 35.604 22.4196C35.6815 22.4863 35.7202 22.5853 35.7202 22.6865C35.7202 22.7877 35.6815 22.8803 35.6083 22.9491C35.5265 23.0266 35.4361 23.0417 35.3263 23.0417H35.2531V22.3335V22.3313Z" fill="white"/>
<path d="M36.1059 22.2408H36.0068V23.132H36.1059V22.2408Z" fill="white"/>
<path d="M36.754 22.2258C36.5 22.2258 36.2891 22.4346 36.2891 22.6886C36.2891 22.9427 36.5 23.1493 36.754 23.1493C37.008 23.1493 37.219 22.947 37.219 22.6886C37.219 22.4303 37.008 22.2258 36.754 22.2258ZM36.754 23.0567C36.5517 23.0567 36.3881 22.8888 36.3881 22.6865C36.3881 22.4841 36.5495 22.3184 36.754 22.3184C36.9585 22.3184 37.12 22.4863 37.12 22.6865C37.12 22.8867 36.9564 23.0567 36.754 23.0567Z" fill="white"/>
<path d="M37.9352 22.2408L37.6812 22.9211L37.425 22.2408H37.3174L37.6812 23.1858L38.0428 22.2408H37.9352Z" fill="white"/>
<path d="M38.2885 22.2408H38.1895V23.132H38.2885V22.2408Z" fill="white"/>
<path d="M38.7492 23.0567C38.6523 23.0567 38.5834 22.9814 38.5705 22.891L38.4736 22.919C38.5016 23.0567 38.6092 23.1493 38.7513 23.1493C38.9063 23.1493 39.0312 23.0288 39.0312 22.8738C39.0312 22.7317 38.9321 22.6736 38.8159 22.6219L38.7578 22.5961C38.6975 22.5681 38.6179 22.5337 38.6179 22.4562C38.6179 22.3744 38.6867 22.3184 38.7664 22.3184C38.8417 22.3184 38.8848 22.3528 38.9192 22.4153L38.9989 22.3636C38.9515 22.2753 38.8676 22.2258 38.7685 22.2258C38.6351 22.2258 38.5188 22.3141 38.5188 22.454C38.5188 22.581 38.6092 22.6348 38.7126 22.6822L38.7664 22.7059C38.8503 22.7425 38.9321 22.7791 38.9321 22.8824C38.9321 22.9857 38.8439 23.0567 38.7492 23.0567Z" fill="white"/>
<path d="M39.2227 22.2408V22.7984C39.2227 22.8995 39.2313 22.9813 39.3109 23.0567C39.3712 23.117 39.4573 23.1471 39.5412 23.1471C39.6317 23.1471 39.7199 23.1127 39.7823 23.0459C39.8534 22.9727 39.8598 22.8952 39.8598 22.7984V22.2408H39.7608V22.7725C39.7608 22.8414 39.7651 22.9211 39.7178 22.977C39.6769 23.0266 39.608 23.0567 39.5434 23.0567C39.4788 23.0567 39.4035 23.0266 39.3626 22.9706C39.3217 22.9146 39.3238 22.8371 39.3238 22.7725V22.2408H39.2248H39.2227Z" fill="white"/>
<path d="M40.1096 23.1321L40.2172 22.8781H40.5982L40.7037 23.1321H40.8135L40.4131 22.1979L40.002 23.1321H40.1096ZM40.4109 22.4304L40.5595 22.7877H40.2581L40.4109 22.4304Z" fill="white"/>
<path d="M40.958 22.2408V23.132H41.3024V23.0416H41.057V22.2408H40.958Z" fill="white"/>
<path d="M30.2702 23.6573C30.3736 23.6573 30.4704 23.7025 30.5415 23.7757V23.653C30.4618 23.5927 30.3757 23.5647 30.2745 23.5647C30.0205 23.5647 29.8096 23.7735 29.8096 24.0297C29.8096 24.2858 30.0227 24.4882 30.2745 24.4882C30.3693 24.4882 30.464 24.4559 30.5415 24.3999V24.2772C30.4704 24.3483 30.3714 24.3956 30.2724 24.3956C30.0722 24.3956 29.9107 24.2234 29.9107 24.0275C29.9107 23.8316 30.0722 23.6594 30.2702 23.6594V23.6573Z" fill="white"/>
<path d="M31.1788 24.486C31.4328 24.486 31.6438 24.2837 31.6438 24.0275C31.6438 23.7713 31.4328 23.5647 31.1788 23.5647C30.9248 23.5647 30.7139 23.7713 30.7139 24.0275C30.7139 24.2837 30.9248 24.486 31.1788 24.486ZM31.1788 23.6573C31.3833 23.6573 31.5448 23.823 31.5448 24.0254C31.5448 24.2277 31.3812 24.3935 31.1788 24.3935C30.9765 24.3935 30.8129 24.2256 30.8129 24.0254C30.8129 23.8252 30.9743 23.6573 31.1788 23.6573Z" fill="white"/>
<path d="M32.1708 24.3806H31.9232V23.5798H31.8242V24.471H32.1708V24.3806Z" fill="white"/>
<path d="M32.7345 24.486C32.9885 24.486 33.1995 24.2837 33.1995 24.0275C33.1995 23.7713 32.9885 23.5647 32.7345 23.5647C32.4805 23.5647 32.2695 23.7713 32.2695 24.0275C32.2695 24.2837 32.4805 24.486 32.7345 24.486ZM32.7345 23.6573C32.939 23.6573 33.1004 23.823 33.1004 24.0254C33.1004 24.2277 32.9368 24.3935 32.7345 24.3935C32.5322 24.3935 32.3685 24.2256 32.3685 24.0254C32.3685 23.8252 32.53 23.6573 32.7345 23.6573Z" fill="white"/>
<path d="M33.4195 24.471L33.5336 23.8683H33.5358L33.8221 24.5076L34.1105 23.8683H34.1127L34.2268 24.471H34.3301L34.1493 23.5282L33.8221 24.2773L33.4992 23.5282L33.3184 24.471H33.4195Z" fill="white"/>
<path d="M35.0166 24.2235C35.0166 24.118 34.9542 24.0211 34.8466 23.9953C34.9069 23.9544 34.9348 23.8941 34.9348 23.8209C34.9348 23.638 34.7992 23.5798 34.6356 23.5798H34.4893V24.471H34.6959C34.8724 24.471 35.0145 24.4 35.0145 24.2235H35.0166ZM34.5904 23.6724H34.6292C34.7519 23.6724 34.8358 23.6875 34.8358 23.8209C34.8358 23.9544 34.7411 23.9716 34.627 23.9716H34.5904V23.6702V23.6724ZM34.5904 24.3806V24.0577H34.6765C34.7863 24.0577 34.9176 24.0771 34.9176 24.2149C34.9176 24.3526 34.7992 24.3785 34.6894 24.3785H34.5904V24.3806Z" fill="white"/>
<path d="M35.309 23.5798H35.21V24.471H35.309V23.5798Z" fill="white"/>
<path d="M35.6733 24.2192H36.0543L36.1598 24.4732H36.2695L35.8692 23.5389L35.458 24.4732H35.5678L35.6754 24.2192H35.6733ZM35.867 23.7693L36.0155 24.1266H35.7142L35.867 23.7693Z" fill="white"/>
<path d="M36.4199 23.541V24.4709H36.5189V23.7843L37.2142 24.5118V23.5798H37.1152V24.2708L36.4199 23.541Z" fill="white"/>
<path d="M37.5805 24.2192H37.9615L38.067 24.4732H38.1768L37.7764 23.5389L37.3652 24.4732H37.475L37.5826 24.2192H37.5805ZM37.7742 23.7693L37.9228 24.1266H37.6214L37.7742 23.7693Z" fill="white"/>
<path d="M41.3019 21.2507H26.7373V21.3433H41.3019V21.2507Z" fill="white"/>
<path d="M29.1614 12.7392H29.3702C29.5165 12.7392 29.6694 12.7198 29.7835 12.6208C29.8868 12.5347 29.9385 12.3861 29.9385 12.2527C29.9385 12.1085 29.8846 11.9685 29.7706 11.8717C29.6543 11.7726 29.5144 11.764 29.3702 11.764H29.043V13.6196H29.1614V12.7392ZM29.1614 11.876H29.3551C29.467 11.876 29.5854 11.8781 29.6801 11.9492C29.7749 12.018 29.8201 12.1343 29.8201 12.2484C29.8201 12.356 29.7813 12.4529 29.6995 12.5261C29.6027 12.6122 29.495 12.6272 29.3745 12.6272H29.1614V11.8738V11.876Z" fill="white"/>
<path d="M30.3223 12.7436H30.3826L30.9875 13.6218H31.1231L30.516 12.7436C30.8239 12.7479 31.0477 12.5821 31.0477 12.2592C31.0477 12.1021 30.9939 11.9536 30.8604 11.861C30.7356 11.7706 30.5871 11.7684 30.4364 11.7684H30.2061V13.624H30.3244V12.7457L30.3223 12.7436ZM30.3223 11.8782H30.3998C30.5074 11.8782 30.6344 11.8739 30.7313 11.9191C30.8648 11.9772 30.9272 12.115 30.9272 12.2549C30.9272 12.3647 30.8841 12.4766 30.7959 12.5477C30.7033 12.6295 30.5871 12.6338 30.4708 12.6338H30.3201V11.8782H30.3223Z" fill="white"/>
<path d="M32.2912 11.876V11.7662H31.4043V13.6218H32.2912V13.5099H31.5227V12.6617H32.2718V12.5498H31.5227V11.876H32.2912Z" fill="white"/>
<path d="M32.5885 13.6218L32.9071 12.0849H32.9114L33.555 13.6821L34.203 12.0849H34.2073L34.5259 13.6218H34.6378L34.2396 11.7039L33.555 13.3915L32.8748 11.7039L32.4766 13.6218H32.5885Z" fill="white"/>
<path d="M34.9778 11.7662H34.8594V13.6218H34.9778V11.7662Z" fill="white"/>
<path d="M35.2666 12.694C35.2666 13.2149 35.7079 13.6455 36.2288 13.6455C36.7498 13.6455 37.191 13.2149 37.191 12.694C37.191 12.1731 36.7498 11.7426 36.2288 11.7426C35.7079 11.7426 35.2666 12.1731 35.2666 12.694ZM37.0727 12.694C37.0727 13.1504 36.6895 13.5357 36.2288 13.5357C35.7682 13.5357 35.385 13.1525 35.385 12.694C35.385 12.2355 35.766 11.8523 36.2288 11.8523C36.6916 11.8523 37.0727 12.2377 37.0727 12.694Z" fill="white"/>
<path d="M37.9288 13.6455C38.228 13.6455 38.51 13.4151 38.51 13.1073C38.51 12.9394 38.439 12.8275 38.2991 12.7392L37.946 12.5541C37.7953 12.4831 37.6102 12.4013 37.6102 12.2075C37.6102 12.0138 37.7609 11.8523 37.9589 11.8523C38.1333 11.8523 38.2517 11.9384 38.3356 12.0719L38.4196 12.003C38.3313 11.8437 38.1527 11.7426 37.9676 11.7426C37.6899 11.7426 37.4918 11.9363 37.4918 12.2118C37.4918 12.3582 37.5607 12.468 37.6834 12.5433L38.0171 12.7198C38.1764 12.7973 38.3895 12.8877 38.3895 13.0966C38.3895 13.342 38.1764 13.5335 37.931 13.5335C37.7071 13.5335 37.5629 13.3958 37.4832 13.1999L37.3799 13.2472C37.466 13.4862 37.6683 13.6455 37.9267 13.6455H37.9288Z" fill="white"/>
<path d="M26.4686 20.3423C26.7829 20.3423 27.0994 20.2368 27.3555 20.0517V19.6427C27.1187 19.8795 26.7915 20.0366 26.4579 20.0366C25.7927 20.0366 25.2524 19.4618 25.2524 18.8074C25.2524 18.1531 25.7884 17.5805 26.4493 17.5805C26.7915 17.5805 27.1187 17.729 27.3555 17.9744V17.5654C27.0907 17.3673 26.8001 17.2748 26.4686 17.2748C25.6183 17.2748 24.9209 17.9722 24.9209 18.8225C24.9209 19.6728 25.6291 20.3466 26.4686 20.3466V20.3423Z" fill="white"/>
<path d="M28.3588 19.449H29.6267L29.9776 20.2928H30.3435L29.0089 17.1823L27.6377 20.2928H27.9993L28.3567 19.449H28.3588ZM29.0003 17.9529L29.4954 19.1411H28.4923L29.0003 17.9529Z" fill="white"/>
<path d="M30.6875 20.2928H31.019V17.63H31.7423V17.3221H29.9707V17.63H30.6875V20.2928Z" fill="white"/>
<path d="M33.3589 19.449L33.7098 20.2928H34.0758L32.7411 17.1823L31.3721 20.2928H31.7337L32.091 19.449H33.3589ZM32.7325 17.9529L33.2298 19.1411H32.2267L32.7347 17.9529H32.7325Z" fill="white"/>
<path d="M34.3984 17.3221V20.2928H35.8019V19.9849H34.7278V17.3221H34.3984Z" fill="white"/>
<path d="M36.5883 17.3221H36.2568V20.2906H36.5883V17.3221Z" fill="white"/>
<path d="M39.7198 20.4262V17.3221H39.3883V19.6233L37.0742 17.1973V20.2927H37.4036V18.0045L39.7198 20.4262Z" fill="white"/>
<path d="M40.7815 19.449H42.0494L42.4002 20.2928H42.7662L41.4316 17.1823L40.0625 20.2928H40.4241L40.7815 19.449ZM41.423 17.9529L41.9181 19.1411H40.9149L41.423 17.9529Z" fill="white"/>
<path d="M29.3549 14.0415H29.0234V17.01H29.3549V14.0415Z" fill="white"/>
<path d="M30.4165 14.7218L32.7327 17.1456V14.0416H32.4012V16.3427L30.085 13.9146V17.0122H30.4165V14.7218Z" fill="white"/>
<path d="M33.4709 14.0415V17.01H34.022C34.4869 17.01 34.8421 16.9518 35.1952 16.6354C35.5224 16.3448 35.6795 15.9616 35.6795 15.529C35.6795 15.0963 35.5245 14.6894 35.1865 14.3988C34.8357 14.0996 34.474 14.0415 34.0284 14.0415H33.4688H33.4709ZM34.9648 14.6356C35.221 14.8595 35.3501 15.1867 35.3501 15.5247C35.3501 15.8626 35.2231 16.1683 34.9799 16.3943C34.7087 16.6505 34.4051 16.7021 34.0435 16.7021H33.8024V14.3472H34.0435C34.3944 14.3472 34.6936 14.3945 34.9648 14.6356Z" fill="white"/>
<path d="M36.5969 14.0415H36.2676V17.01H36.5969V14.0415Z" fill="white"/>
<path d="M37.0166 17.0121H37.3782L37.7377 16.1704H39.0056L39.3565 17.0121H39.7224L38.3878 13.8994L37.0166 17.0121ZM37.8712 15.8626L38.3792 14.6744L38.8765 15.8626H37.8712Z" fill="white"/>
<path d="M32.6979 10.2379C32.6979 9.85472 32.4245 9.60286 32.0865 9.53398V9.52537C32.4245 9.40267 32.5924 9.16373 32.5924 8.88174C32.5924 8.55023 32.3491 8.22949 31.8088 8.22949C31.5139 8.22949 31.2362 8.33497 31.092 8.44045L31.1889 8.70953C31.3073 8.62557 31.5182 8.52871 31.7356 8.52871C32.0758 8.52871 32.2157 8.72244 32.2157 8.94201C32.2157 9.26706 31.8756 9.40482 31.6043 9.40482H31.3977V9.68251H31.6043C31.9617 9.68251 32.3082 9.84611 32.3125 10.2293C32.3168 10.4575 32.1683 10.7588 31.6926 10.7588C31.4364 10.7588 31.191 10.6533 31.0855 10.5866L30.9844 10.8729C31.12 10.9612 31.3891 11.058 31.6969 11.058C32.3534 11.058 32.6957 10.6749 32.6957 10.2379H32.6979Z" fill="white"/>
<path d="M33.1291 10.3175C33.1291 10.7179 33.4735 11.058 34.0461 11.058C34.5692 11.058 34.9761 10.7373 34.9761 10.2615C34.9761 9.93002 34.7651 9.68892 34.425 9.55331V9.54039C34.7629 9.3811 34.8749 9.1314 34.8749 8.90106C34.8749 8.56095 34.6101 8.22729 34.0784 8.22729C33.5984 8.22729 33.2324 8.5222 33.2324 8.95488C33.2324 9.18952 33.3637 9.4263 33.6651 9.57053L33.6694 9.58345C33.3336 9.72767 33.127 9.97092 33.127 10.3153L33.1291 10.3175ZM33.5833 8.9312C33.5833 8.69441 33.7512 8.49207 34.059 8.49207C34.3927 8.49207 34.5219 8.72024 34.5219 8.93766C34.5219 9.18521 34.341 9.35527 34.1042 9.43492C33.7878 9.35096 33.5812 9.20243 33.5812 8.92905L33.5833 8.9312ZM34.0009 9.70184C34.3712 9.80732 34.6037 9.96661 34.6037 10.3003C34.6037 10.5823 34.3884 10.7889 34.0569 10.7889C33.7082 10.7889 33.4972 10.5457 33.5101 10.2658C33.5101 10.0054 33.6823 9.7944 34.0031 9.70184H34.0009Z" fill="white"/>
<path d="M35.807 9.23905C36.0976 9.23905 36.371 9.01518 36.371 8.67506C36.371 8.38876 36.16 8.1283 35.8156 8.1283C35.5035 8.1283 35.2516 8.37154 35.2559 8.69659C35.2559 8.9915 35.4798 9.23905 35.807 9.23905ZM35.8113 8.32418C36.0524 8.32418 36.1449 8.52223 36.1449 8.67721C36.1449 8.88387 36.0007 9.03886 35.8113 9.03886C35.6219 9.03886 35.4819 8.88817 35.4819 8.69444C35.4819 8.51362 35.5917 8.32418 35.8113 8.32418Z" fill="white"/>
<path d="M25.3409 25.4569C25.3301 25.1943 23.5887 24.9855 23.5887 24.9855C23.3346 24.8133 23.3411 24.9274 23.1797 24.7358C22.9924 24.5141 23.0462 24.4431 23.0268 24.1094C23.0182 23.935 23.0118 23.7693 22.9859 23.5949C22.9536 23.3775 22.973 23.2397 22.9816 23.0116C23.0074 22.2646 23.1797 21.4789 23.326 20.7664C23.4251 20.2863 23.4121 19.6018 23.4186 19.2574C23.4229 19.0292 23.6016 18.7192 23.7264 18.3167C23.8125 18.0368 23.989 18.0261 24.2474 17.1844C24.2926 17.038 24.5186 16.375 24.5509 16.2394C24.7446 16.1189 24.9383 15.3482 24.962 14.9887C24.9986 14.4657 24.8544 13.6563 24.835 13.4259C24.7339 12.2592 24.4217 11.5768 24.398 11.325C24.3442 10.7545 24.4949 9.81169 24.4949 9.7837C24.4949 9.77509 24.4949 9.76433 24.4949 9.75357C24.5853 9.69329 24.708 9.63517 24.7769 9.52754C24.8652 9.38977 24.8845 9.15944 24.863 9.09486C24.8458 9.04751 24.6607 8.88391 24.4863 8.67726C24.4605 8.33929 24.4067 8.08529 24.3141 7.92384C24.2409 7.79899 24.0127 7.71288 23.7953 7.53421C23.8082 7.44811 23.7673 7.35124 23.6791 7.30173C23.6705 7.21347 23.6532 7.11876 23.5714 7.06925C23.5865 7.03481 23.5542 6.92933 23.509 6.91641C23.481 6.7808 23.4186 6.64949 23.326 6.60213C23.3024 6.38256 23.2873 6.39763 23.3131 6.13286C23.3605 5.65928 23.6554 5.81642 23.7027 5.68511C23.7264 5.62053 23.7178 5.53658 23.7178 5.42249C23.7178 5.32563 23.7307 5.3041 23.7178 5.20508C23.7135 5.17279 23.6984 5.03072 23.6941 4.99627C23.7372 4.95107 23.7587 4.94031 23.7867 4.8499C23.7975 4.8133 23.7264 4.75088 23.6403 4.65401C23.6317 4.54207 23.6274 4.45166 23.6188 4.41722C23.5542 4.14384 23.3131 3.8683 23.0613 3.71762C23.1969 2.31411 22.028 1.28516 22.028 1.28516C22.028 1.28516 21.9936 1.36911 22.0215 1.41862C22.0388 1.44876 22.1292 1.53701 22.1292 1.53701L22.0302 1.4875C22.0366 1.51333 22.0775 1.65971 22.1356 1.72644L22.2476 1.8147L22.1572 1.7695C22.1873 1.88574 22.2153 1.97184 22.2648 2.04503L22.4262 2.15482L22.282 2.09669C22.3122 2.20002 22.338 2.31411 22.3918 2.43466L22.62 2.56812L22.4241 2.53152C22.4241 2.53152 22.4456 2.66068 22.5274 2.8006L22.7577 2.95559L22.5597 2.8781C22.6609 3.22251 22.8912 3.50881 22.9407 3.65734C22.8266 3.60999 22.7125 3.58416 22.5705 3.59061C22.0259 3.6229 21.5566 4.09217 21.5566 4.65401C21.5566 5.00058 21.7718 5.27396 21.7718 5.27396C21.7718 5.27396 21.7417 5.50429 21.7266 5.64421C21.6685 6.1673 22.0022 6.78295 22.338 7.24361C22.1938 7.07355 22.0409 6.87336 21.9096 6.6581C21.8515 6.91641 21.2423 7.16827 21.1024 7.40721C20.8699 7.8076 20.6632 9.75572 20.6503 10.8729C20.6503 10.9483 20.8268 12.4616 21.1454 13.3721C21.2165 13.5702 21.027 13.8306 21.2703 15.26C21.2703 15.2686 21.2423 15.7594 21.2574 15.7788C21.2122 16.1339 21.1885 16.5171 21.1885 16.9153C21.1885 17.3136 21.182 17.8948 21.1325 18.2629C21.0443 18.9108 20.7989 19.5135 20.8656 20.0302C20.9883 21.0053 21.1196 21.2227 21.2143 21.8771C21.2595 22.1828 21.2574 22.5315 21.2595 22.863C21.2638 23.173 21.0916 23.3624 21.1325 23.511C21.2466 23.9027 21.3994 23.7628 21.5264 24.9898C21.5264 24.9898 19.5912 25.1943 19.5762 25.4526C20.4609 25.4182 21.3865 25.401 22.3423 25.401C23.3799 25.401 24.3851 25.4225 25.3366 25.4634L25.3409 25.4569ZM21.7482 11.6436C21.7245 11.2927 21.6944 10.9655 21.6814 10.6404C21.6771 10.535 21.7137 10.4295 21.7417 10.324C21.8407 10.7588 21.9548 11.1894 21.7482 11.6436Z" fill="white"/>
<path d="M48.2701 28.1562H13.29V28.5825H48.2701V28.1562Z" fill="white"/>
<path d="M23.666 30.1539H23.2699L22.8416 31.3163C22.7339 31.6199 22.65 31.8825 22.5875 32.1257H22.5768C22.5165 31.876 22.4347 31.6113 22.3335 31.3163L21.9224 30.1539H21.5263L21.3584 32.5584H21.6555L21.72 31.5273C21.7416 31.1678 21.7588 30.7631 21.7674 30.4639H21.7739C21.8406 30.7502 21.9375 31.0602 22.0515 31.3981L22.4412 32.5433H22.6758L23.0999 31.3766C23.2204 31.0451 23.3216 30.7459 23.4034 30.4639H23.4142C23.4098 30.7631 23.4314 31.1657 23.4507 31.5015L23.511 32.5584H23.8145L23.6639 30.1539H23.666Z" fill="white"/>
<path d="M25.593 30.4144V30.1539H24.2949V32.5584H25.6468V32.2979H24.6049V31.4326H25.5391V31.1743H24.6049V30.4144H25.593Z" fill="white"/>
<path d="M26.9167 31.764V30.156H26.6067V31.7403C26.6067 32.2118 26.4431 32.3366 26.1633 32.3366C26.06 32.3366 25.9674 32.3151 25.9028 32.2893L25.8555 32.5433C25.933 32.5756 26.0729 32.6014 26.187 32.6014C26.6003 32.6014 26.9146 32.4055 26.9146 31.7662L26.9167 31.764Z" fill="white"/>
<path d="M27.291 31.3787C27.291 32.1063 27.7366 32.5993 28.3716 32.5993C29.0067 32.5993 29.4888 32.1601 29.4888 31.3335C29.4888 30.621 29.0648 30.1173 28.4082 30.1173C27.7517 30.1173 27.291 30.6167 27.291 31.3809V31.3787ZM29.1595 31.3465C29.1595 31.8932 28.8818 32.3453 28.3889 32.3453C27.8959 32.3453 27.6225 31.8846 27.6225 31.3723C27.6225 30.86 27.8787 30.3692 28.3932 30.3692C28.9076 30.3692 29.1595 30.8686 29.1595 31.3465Z" fill="white"/>
<path d="M31.4587 32.5584C31.4092 32.4659 31.3511 32.2334 31.2736 31.8976C31.2176 31.6479 31.1057 31.4756 30.9206 31.4132V31.4025C31.1746 31.3164 31.3726 31.1054 31.3726 30.789C31.3726 30.6038 31.3059 30.4402 31.1832 30.3326C31.0325 30.197 30.8194 30.1367 30.4879 30.1367C30.2748 30.1367 30.0487 30.1539 29.8916 30.1862V32.5584H30.2016V31.5165H30.4943C30.7763 31.5273 30.9055 31.6522 30.9765 31.9837C31.0433 32.2829 31.0971 32.4895 31.138 32.5584H31.4587ZM30.5202 31.2819H30.2037V30.4036C30.2532 30.3886 30.3609 30.3757 30.5094 30.3757C30.8366 30.38 31.0626 30.5156 31.0626 30.8256C31.0626 31.1011 30.8517 31.2819 30.5202 31.2819Z" fill="white"/>
<path d="M33.9017 31.9018C33.9017 31.5488 33.695 31.3529 33.2882 31.1957C32.9567 31.0666 32.8103 30.9568 32.8103 30.7329C32.8103 30.5693 32.9351 30.3734 33.2623 30.3734C33.4797 30.3734 33.6412 30.4445 33.7187 30.4875L33.8048 30.2335C33.6972 30.1732 33.5185 30.1151 33.2731 30.1151C32.806 30.1151 32.496 30.3928 32.496 30.7674C32.496 31.1053 32.7392 31.3098 33.131 31.4497C33.4561 31.5746 33.5831 31.7037 33.5831 31.9276C33.5831 32.1709 33.3979 32.3388 33.0794 32.3388C32.8662 32.3388 32.6617 32.2677 32.524 32.1816L32.4443 32.4421C32.5735 32.5282 32.8254 32.5949 33.0578 32.5949C33.624 32.5949 33.8995 32.2742 33.8995 31.9039L33.9017 31.9018Z" fill="white"/>
<path d="M34.6381 31.4326H35.5723V31.1743H34.6381V30.4144H35.6262V30.1539H34.3281V32.5584H35.68V32.2979H34.6381V31.4326Z" fill="white"/>
<path d="M36.392 31.5165H36.6848C36.9668 31.5273 37.0959 31.6522 37.167 31.9837C37.2358 32.2829 37.2875 32.4895 37.3284 32.5584H37.6491C37.5996 32.4659 37.5415 32.2334 37.464 31.8976C37.4059 31.6479 37.2961 31.4756 37.111 31.4132V31.4025C37.365 31.3164 37.563 31.1054 37.563 30.789C37.563 30.6038 37.4963 30.4402 37.3736 30.3326C37.2229 30.197 37.0098 30.1367 36.6783 30.1367C36.4652 30.1367 36.2392 30.1539 36.082 30.1862V32.5584H36.392V31.5165ZM36.392 30.4036C36.4415 30.3886 36.5492 30.3757 36.6977 30.3757C37.027 30.38 37.2509 30.5156 37.2509 30.8256C37.2509 31.1011 37.0399 31.2819 36.7084 31.2819H36.392V30.4036Z" fill="white"/>
<path d="M38.3119 30.1539H38.002V32.5584H38.3119V30.1539Z" fill="white"/>
<path d="M40.1525 30.4144V30.1539H38.8545V32.5584H40.2063V32.2979H39.1645V31.4326H40.0987V31.1743H39.1645V30.4144H40.1525Z" fill="white"/>
<path d="M19.4099 33.5573C19.1645 33.5573 18.9385 33.5788 18.749 33.6068V35.9725C18.9062 35.9897 19.0913 36.0005 19.313 36.0005C19.7801 36.0005 20.1504 35.8799 20.3764 35.6539C20.6003 35.4322 20.723 35.1114 20.723 34.7197C20.723 34.3279 20.5981 34.0524 20.385 33.8565C20.1741 33.6606 19.8576 33.5573 19.412 33.5573H19.4099ZM19.3733 35.7508C19.2527 35.7508 19.1386 35.7465 19.059 35.7336V33.8349C19.1408 33.8177 19.2613 33.8026 19.4228 33.8026C20.0793 33.8026 20.4001 34.1621 20.3958 34.7304C20.3958 35.3805 20.0363 35.7508 19.3711 35.7508H19.3733Z" fill="white"/>
<path d="M21.436 34.8531H22.3702V34.5948H21.436V33.8349H22.424V33.5745H21.126V35.9789H22.4778V35.7185H21.436V34.8531Z" fill="white"/>
<path d="M23.6377 35.9789H23.9477V34.8919H24.8582V34.6357H23.9477V33.8349H24.9336V33.5745H23.6377V35.9789Z" fill="white"/>
<path d="M25.685 33.5745H25.375V35.9789H25.685V33.5745Z" fill="white"/>
<path d="M27.3517 33.7962C27.5519 33.7962 27.7198 33.8392 27.836 33.8952L27.9114 33.6412C27.8296 33.5981 27.6401 33.5336 27.3409 33.5336C26.5961 33.5336 26.0859 34.0437 26.0859 34.7972C26.0859 35.5506 26.5961 36.0134 27.2742 36.0134C27.5669 36.0134 27.7951 35.9553 27.9092 35.8993L27.8446 35.6539C27.7198 35.7142 27.5282 35.7529 27.3388 35.7529C26.7532 35.7529 26.4153 35.3741 26.4153 34.7864C26.4153 34.1557 26.7898 33.794 27.3538 33.794L27.3517 33.7962Z" fill="white"/>
<path d="M29.3468 33.7962C29.547 33.7962 29.7149 33.8392 29.8311 33.8952L29.9065 33.6412C29.8247 33.5981 29.6352 33.5336 29.336 33.5336C28.5912 33.5336 28.0811 34.0437 28.0811 34.7972C28.0811 35.5506 28.5912 36.0134 29.2693 36.0134C29.5621 36.0134 29.7902 35.9553 29.9043 35.8993L29.8397 35.6539C29.7149 35.7142 29.5233 35.7529 29.3339 35.7529C28.7484 35.7529 28.4104 35.3741 28.4104 34.7864C28.4104 34.1557 28.785 33.794 29.3489 33.794L29.3468 33.7962Z" fill="white"/>
<path d="M30.602 33.5745H30.292V35.9789H30.602V33.5745Z" fill="white"/>
<path d="M32.1192 33.5356C31.4777 33.5356 31.002 34.0351 31.002 34.7992C31.002 35.5634 31.4475 36.0198 32.0826 36.0198C32.7176 36.0198 33.1998 35.5806 33.1998 34.754C33.1998 34.0415 32.7757 33.5378 32.1192 33.5378V33.5356ZM32.1019 35.7658C31.6133 35.7658 31.3356 35.3051 31.3356 34.7928C31.3356 34.2805 31.5918 33.7897 32.1062 33.7897C32.6207 33.7897 32.8726 34.2891 32.8726 34.7669C32.8726 35.3137 32.5949 35.7658 32.1019 35.7658Z" fill="white"/>
<path d="M31.9102 33.4366H32.1685L32.6205 33.0233H32.2438L31.9102 33.4366Z" fill="white"/>
<path d="M35.1154 34.5818C35.1154 34.9564 35.1219 35.2491 35.152 35.5699L35.1456 35.5742C35.0315 35.3288 34.8916 35.0748 34.715 34.7928L33.9444 33.5765H33.6064V35.981H33.8992V34.9542C33.8992 34.5538 33.8927 34.2654 33.8734 33.9619L33.8841 33.9576C34.0047 34.218 34.1661 34.4936 34.334 34.7605L35.0982 35.981H35.4125V33.5765H35.1197V34.5818H35.1154Z" fill="white"/>
<path d="M38.6615 34.7885C38.5862 35.0878 38.5194 35.3547 38.4678 35.6195H38.4613C38.4247 35.3654 38.3623 35.0813 38.2934 34.795L38.0006 33.5745H37.6756L37.3549 34.7864C37.2731 35.0964 37.1977 35.3827 37.159 35.6216H37.1525C37.1095 35.3891 37.0449 35.0899 36.9738 34.7907L36.6875 33.5745H36.3604L36.9695 35.9789H37.2946L37.6369 34.7261C37.7251 34.4161 37.7789 34.1793 37.822 33.9404H37.8284C37.8607 34.1837 37.9102 34.4183 37.9856 34.7261L38.2891 35.9789H38.6141L39.2965 33.5745H38.9801L38.6637 34.7864L38.6615 34.7885Z" fill="white"/>
<path d="M39.9076 34.8531H40.8419V34.5948H39.9076V33.8349H40.8957V33.5745H39.5977V35.9789H40.9495V35.7185H39.9076V34.8531Z" fill="white"/>
<path d="M42.6647 35.7765C42.7852 35.6581 42.867 35.501 42.867 35.2943C42.867 34.937 42.6001 34.7476 42.3719 34.6916V34.6851C42.6259 34.5926 42.7787 34.3881 42.7787 34.1578C42.7787 33.9683 42.7034 33.8263 42.5786 33.7337C42.4279 33.6131 42.2298 33.5593 41.9177 33.5593C41.7003 33.5593 41.4872 33.5809 41.3516 33.6088V35.9746C41.4549 35.9896 41.6185 36.0026 41.8337 36.0026C42.2255 36.0026 42.4968 35.9315 42.6647 35.7787V35.7765ZM41.6615 33.8176C41.711 33.8069 41.7929 33.7961 41.9371 33.7961C42.2514 33.7961 42.4645 33.9059 42.4645 34.1879C42.4645 34.4204 42.2707 34.5904 41.9435 34.5904H41.6615V33.8155V33.8176ZM41.6615 34.8272H41.9177C42.2557 34.8272 42.5377 34.9628 42.5377 35.29C42.5377 35.6388 42.2406 35.7572 41.9199 35.7572C41.8101 35.7572 41.7197 35.7528 41.6594 35.7421V34.8251L41.6615 34.8272Z" fill="white"/>
</g>
<defs>
<clipPath id="clip0_1435_1127">
<rect width="60" height="43.3409" fill="white"/>
</clipPath>
</defs>
</svg>
