<svg width="60" height="52" viewBox="0 0 60 52" fill="none" xmlns="http://www.w3.org/2000/svg">
<g clip-path="url(#clip0_1_830)">
<path d="M1.37543 31.3582C8.15105 28.9117 15.0496 26.8206 22.043 25.0934C28.9924 23.3752 36.0273 22.0242 43.1185 21.0461C47.1323 20.4892 51.1618 20.0532 55.2069 19.738C56.2638 19.6566 56.1743 18.0155 55.1192 18.0996C47.889 18.6715 40.6936 19.6229 33.5628 20.9498C26.4596 22.2659 19.4293 23.9491 12.4999 25.9924C8.58888 27.153 4.71263 28.4257 0.871173 29.8105C-0.121111 30.168 0.38492 31.7303 1.37994 31.371L1.37543 31.3582Z" fill="#DC4138"/>
<path d="M44.3925 7.17408C47.5626 11.6536 51.5802 15.4683 56.2183 18.4027L55.9626 17.1234C51.7082 21.269 47.6505 25.6046 43.7894 30.1302C43.1052 30.9293 44.3389 32.014 45.0268 31.2085C48.8818 26.6896 52.9401 22.3549 57.2018 18.2045C57.6159 17.8006 57.3522 17.1879 56.9433 16.9271C52.5577 14.1354 48.7596 10.5147 45.7621 6.26779C45.1533 5.40723 43.7801 6.30804 44.3925 7.17408Z" fill="#DC4138"/>
</g>
<defs>
<clipPath id="clip0_1_830">
<rect width="54.9773" height="25.6059" fill="white" transform="translate(0 30.3389) rotate(-33.4937)"/>
</clipPath>
</defs>
</svg>
