<svg width="14" height="15" viewBox="0 0 14 15" fill="none" xmlns="http://www.w3.org/2000/svg">
<path d="M2.68646 3.60101C3.78037 2.5071 5.28967 1.83154 6.95861 1.83154C10.295 1.83154 13.0002 4.53675 13.0002 7.87316C13.0002 11.2096 10.295 13.9148 6.95861 13.9148C3.6222 13.9148 0.916992 11.2096 0.916992 7.87316" stroke="white" stroke-width="1.4" stroke-miterlimit="10" stroke-linecap="round"/>
<path d="M5.39605 3.93352L2.4292 3.92465L2.44546 0.981445" stroke="white" stroke-width="1.4" stroke-miterlimit="10" stroke-linecap="round"/>
<path d="M5.61577 10.0497C5.37192 10.0497 5.15412 10.0077 4.96236 9.92365C4.77178 9.83961 4.62086 9.72301 4.50959 9.57386C4.3995 9.42353 4.34032 9.24953 4.33203 9.05185H4.88956C4.89666 9.15956 4.93277 9.25308 4.99787 9.33239C5.06416 9.41051 5.15057 9.47088 5.2571 9.51349C5.36364 9.55611 5.48201 9.57741 5.61222 9.57741C5.75545 9.57741 5.8821 9.55256 5.99219 9.50284C6.10346 9.45312 6.19046 9.38388 6.2532 9.2951C6.31593 9.20514 6.3473 9.10156 6.3473 8.98438C6.3473 8.86245 6.31593 8.75533 6.2532 8.663C6.19164 8.56948 6.10109 8.49609 5.98153 8.44283C5.86316 8.38956 5.71993 8.36293 5.55185 8.36293H5.24467V7.91548H5.55185C5.68679 7.91548 5.80516 7.89122 5.90696 7.84268C6.00994 7.79415 6.09044 7.72668 6.14844 7.64027C6.20644 7.55268 6.23544 7.45028 6.23544 7.3331C6.23544 7.22064 6.20999 7.12299 6.15909 7.04013C6.10938 6.95608 6.03835 6.89039 5.94602 6.84304C5.85488 6.79569 5.74716 6.77202 5.62287 6.77202C5.5045 6.77202 5.39382 6.79392 5.29084 6.83771C5.18904 6.88033 5.10618 6.94188 5.04226 7.02237C4.97834 7.10168 4.94401 7.19697 4.93928 7.30824H4.40838C4.4143 7.11174 4.4723 6.93892 4.58239 6.78977C4.69366 6.64062 4.84044 6.52403 5.02273 6.43999C5.20502 6.35594 5.40743 6.31392 5.62997 6.31392C5.86316 6.31392 6.06439 6.35949 6.23366 6.45064C6.40412 6.5406 6.53551 6.66075 6.62784 6.81108C6.72135 6.96141 6.76752 7.12595 6.76634 7.30469C6.76752 7.50829 6.7107 7.68111 6.59588 7.82315C6.48224 7.9652 6.33073 8.06049 6.14134 8.10902V8.13743C6.38281 8.17412 6.56984 8.27 6.70241 8.42507C6.83617 8.58014 6.90246 8.77249 6.90128 9.00213C6.90246 9.20218 6.84683 9.38151 6.73438 9.54013C6.62311 9.69875 6.471 9.82363 6.27805 9.91477C6.08511 10.0047 5.86435 10.0497 5.61577 10.0497ZM8.83842 10.0604C8.55788 10.0592 8.31818 9.9852 8.11932 9.83842C7.92045 9.69164 7.76835 9.47798 7.663 9.19744C7.55765 8.9169 7.50497 8.57895 7.50497 8.18359C7.50497 7.78942 7.55765 7.45265 7.663 7.1733C7.76953 6.89394 7.92223 6.68087 8.12109 6.53409C8.32114 6.38731 8.56025 6.31392 8.83842 6.31392C9.1166 6.31392 9.35511 6.3879 9.55398 6.53587C9.75284 6.68265 9.90495 6.89571 10.0103 7.17507C10.1168 7.45324 10.1701 7.78942 10.1701 8.18359C10.1701 8.58014 10.1174 8.91868 10.0121 9.19922C9.90672 9.47857 9.75462 9.69223 9.55575 9.8402C9.35689 9.98698 9.11778 10.0604 8.83842 10.0604ZM8.83842 9.58629C9.08464 9.58629 9.27699 9.46615 9.41548 9.22585C9.55516 8.98556 9.625 8.63814 9.625 8.18359C9.625 7.88175 9.59304 7.62666 9.52912 7.41832C9.46638 7.20881 9.37583 7.05019 9.25746 6.94247C9.14027 6.83357 9.00059 6.77912 8.83842 6.77912C8.59339 6.77912 8.40104 6.89986 8.26136 7.14134C8.12169 7.38281 8.05125 7.73023 8.05007 8.18359C8.05007 8.48662 8.08144 8.7429 8.14418 8.95241C8.2081 9.16075 8.29865 9.31877 8.41584 9.42649C8.53303 9.53303 8.67389 9.58629 8.83842 9.58629Z" fill="white"/>
</svg>
