<svg width="48" height="49" viewBox="0 0 48 49" fill="none" xmlns="http://www.w3.org/2000/svg">
<g clip-path="url(#clip0_6203_4646)">
<path d="M27.8417 11.9507H4.42486C2.50586 11.9507 0.950195 13.5063 0.950195 15.4254V43.815C0.950195 45.734 2.50586 47.2897 4.42486 47.2897H27.8417C29.7607 47.2897 31.3163 45.734 31.3163 43.815V15.4254C31.3163 13.5063 29.7607 11.9507 27.8417 11.9507Z" stroke="white" stroke-width="1.90046" stroke-miterlimit="10"/>
<path d="M26.1692 17.2651H6.09717V31.1955H26.1692V17.2651Z" stroke="white" stroke-width="1.58371" stroke-linecap="round" stroke-linejoin="round"/>
<path d="M13.4553 37.2393H5.9517C5.62807 37.2393 5.36572 37.5016 5.36572 37.8252V39.542C5.36572 39.8656 5.62807 40.128 5.9517 40.128H13.4553C13.779 40.128 14.0413 39.8656 14.0413 39.542V37.8252C14.0413 37.5016 13.779 37.2393 13.4553 37.2393Z" fill="white"/>
<path d="M8.26074 34.9299V42.4336C8.26074 42.7572 8.52308 43.0195 8.84671 43.0195H10.5634C10.8871 43.0195 11.1494 42.7572 11.1494 42.4336V34.9299C11.1494 34.6063 10.8871 34.3439 10.5634 34.3439H8.84671C8.52308 34.3439 8.26074 34.6063 8.26074 34.9299Z" fill="white"/>
<path d="M20.9875 43.0228C22.0756 43.0228 22.9576 42.1407 22.9576 41.0527C22.9576 39.9646 22.0756 39.0825 20.9875 39.0825C19.8994 39.0825 19.0173 39.9646 19.0173 41.0527C19.0173 42.1407 19.8994 43.0228 20.9875 43.0228Z" fill="white"/>
<path d="M24.9277 38.2845C26.0157 38.2845 26.8978 37.4025 26.8978 36.3144C26.8978 35.2263 26.0157 34.3442 24.9277 34.3442C23.8396 34.3442 22.9575 35.2263 22.9575 36.3144C22.9575 37.4025 23.8396 38.2845 24.9277 38.2845Z" fill="white"/>
<path d="M14.3896 23.9389V28.2592C14.3896 28.5829 14.652 28.8452 14.9756 28.8452H17.2879C17.6115 28.8452 17.8738 28.5829 17.8738 28.2592V23.9389C17.8738 23.6152 17.6115 23.3529 17.2879 23.3529H14.9756C14.652 23.3529 14.3896 23.6152 14.3896 23.9389Z" fill="white"/>
<path d="M9.24243 25.6844V28.2627C9.24243 28.5863 9.50479 28.8486 9.82842 28.8486H12.1406C12.4643 28.8486 12.7266 28.5863 12.7266 28.2627V25.6844C12.7266 25.3607 12.4643 25.0984 12.1406 25.0984H9.82842C9.50479 25.0984 9.24243 25.3607 9.24243 25.6844Z" fill="white"/>
<path d="M19.5398 20.5212V28.2592C19.5398 28.5829 19.8021 28.8452 20.1258 28.8452H22.438C22.7616 28.8452 23.024 28.5829 23.024 28.2592V20.5212C23.024 20.1976 22.7616 19.9352 22.438 19.9352H20.1258C19.8021 19.9352 19.5398 20.1976 19.5398 20.5212Z" fill="white"/>
</g>
<g filter="url(#filter0_d_6203_4646)">
<g filter="url(#filter1_d_6203_4646)">
<ellipse cx="32.1111" cy="11.1111" rx="11.1111" ry="11.1111" fill="#CB362D"/>
<path d="M30.6297 5.92582C30.6297 5.5329 30.7858 5.15608 31.0636 4.87825C31.3415 4.60042 31.7183 4.44434 32.1112 4.44434C32.5041 4.44434 32.8809 4.60042 33.1588 4.87825C33.4366 5.15608 33.5927 5.5329 33.5927 5.92582C34.4434 6.32806 35.1685 6.95421 35.6905 7.73715C36.2124 8.52009 36.5115 9.43032 36.5556 10.3703V12.5925C36.6114 13.053 36.7745 13.494 37.0318 13.88C37.2891 14.266 37.6334 14.5861 38.0371 14.8147H26.1853C26.589 14.5861 26.9333 14.266 27.1906 13.88C27.4479 13.494 27.611 13.053 27.6668 12.5925V10.3703C27.7109 9.43032 28.01 8.52009 28.5319 7.73715C29.0539 6.95421 29.7791 6.32806 30.6297 5.92582" stroke="white" stroke-width="1.11203" stroke-linecap="round" stroke-linejoin="round"/>
<path d="M29.8887 14.8149V15.5557C29.8887 16.1451 30.1228 16.7103 30.5395 17.127C30.9563 17.5438 31.5215 17.7779 32.1109 17.7779C32.7003 17.7779 33.2655 17.5438 33.6822 17.127C34.099 16.7103 34.3331 16.1451 34.3331 15.5557V14.8149" stroke="white" stroke-width="1.11203" stroke-linecap="round" stroke-linejoin="round"/>
</g>
</g>
<defs>
<filter id="filter0_d_6203_4646" x="17" y="0" width="30.2222" height="30.2222" filterUnits="userSpaceOnUse" color-interpolation-filters="sRGB">
<feFlood flood-opacity="0" result="BackgroundImageFix"/>
<feColorMatrix in="SourceAlpha" type="matrix" values="0 0 0 0 0 0 0 0 0 0 0 0 0 0 0 0 0 0 127 0" result="hardAlpha"/>
<feOffset dy="4"/>
<feGaussianBlur stdDeviation="2"/>
<feComposite in2="hardAlpha" operator="out"/>
<feColorMatrix type="matrix" values="0 0 0 0 0 0 0 0 0 0 0 0 0 0 0 0 0 0 0.25 0"/>
<feBlend mode="normal" in2="BackgroundImageFix" result="effect1_dropShadow_6203_4646"/>
<feBlend mode="normal" in="SourceGraphic" in2="effect1_dropShadow_6203_4646" result="shape"/>
</filter>
<filter id="filter1_d_6203_4646" x="16.5519" y="0" width="31.1184" height="31.1184" filterUnits="userSpaceOnUse" color-interpolation-filters="sRGB">
<feFlood flood-opacity="0" result="BackgroundImageFix"/>
<feColorMatrix in="SourceAlpha" type="matrix" values="0 0 0 0 0 0 0 0 0 0 0 0 0 0 0 0 0 0 127 0" result="hardAlpha"/>
<feOffset dy="4.44813"/>
<feGaussianBlur stdDeviation="2.22407"/>
<feColorMatrix type="matrix" values="0 0 0 0 0 0 0 0 0 0 0 0 0 0 0 0 0 0 0.25 0"/>
<feBlend mode="normal" in2="BackgroundImageFix" result="effect1_dropShadow_6203_4646"/>
<feBlend mode="normal" in="SourceGraphic" in2="effect1_dropShadow_6203_4646" result="shape"/>
</filter>
<clipPath id="clip0_6203_4646">
<rect width="32.2666" height="37.2395" fill="white" transform="translate(0 11)"/>
</clipPath>
</defs>
</svg>
