<svg width="14" height="15" viewBox="0 0 14 15" fill="none" xmlns="http://www.w3.org/2000/svg">
<path d="M11.3135 3.61957C10.2196 2.52566 8.71033 1.8501 7.04139 1.8501C3.70497 1.8501 0.999764 4.5553 0.999764 7.89172C0.999764 11.2281 3.70497 13.9333 7.04139 13.9333C10.3778 13.9333 13.083 11.2281 13.083 7.89172" stroke="white" stroke-width="1.4" stroke-miterlimit="10" stroke-linecap="round"/>
<path d="M8.60443 3.95207L11.5713 3.9432L11.555 1" stroke="white" stroke-width="1.4" stroke-miterlimit="10" stroke-linecap="round"/>
<path d="M5.69877 10.0683C5.45493 10.0683 5.23713 10.0262 5.04537 9.94221C4.85479 9.85816 4.70386 9.74157 4.5926 9.59242C4.48251 9.44209 4.42333 9.26808 4.41504 9.0704H4.97257C4.97967 9.17812 5.01577 9.27163 5.08088 9.35094C5.14717 9.42907 5.23358 9.48944 5.34011 9.53205C5.44664 9.57466 5.56502 9.59597 5.69522 9.59597C5.83845 9.59597 5.96511 9.57111 6.0752 9.5214C6.18646 9.47168 6.27347 9.40243 6.3362 9.31365C6.39894 9.22369 6.43031 9.12012 6.43031 9.00293C6.43031 8.88101 6.39894 8.77388 6.3362 8.68155C6.27465 8.58804 6.1841 8.51465 6.06454 8.46138C5.94617 8.40811 5.80294 8.38148 5.63485 8.38148H5.32768V7.93404H5.63485C5.7698 7.93404 5.88817 7.90977 5.98997 7.86124C6.09295 7.81271 6.17344 7.74524 6.23145 7.65882C6.28945 7.57123 6.31845 7.46884 6.31845 7.35165C6.31845 7.2392 6.293 7.14154 6.2421 7.05868C6.19238 6.97464 6.12136 6.90894 6.02903 6.86159C5.93788 6.81425 5.83017 6.79057 5.70588 6.79057C5.58751 6.79057 5.47683 6.81247 5.37385 6.85627C5.27205 6.89888 5.18919 6.96043 5.12527 7.04093C5.06135 7.12024 5.02702 7.21552 5.02228 7.32679H4.49139C4.49731 7.1303 4.55531 6.95748 4.66539 6.80833C4.77666 6.65918 4.92344 6.54258 5.10574 6.45854C5.28803 6.3745 5.49044 6.33248 5.71298 6.33248C5.94617 6.33248 6.1474 6.37805 6.31667 6.46919C6.48713 6.55916 6.61852 6.6793 6.71085 6.82963C6.80436 6.97997 6.85053 7.1445 6.84934 7.32324C6.85053 7.52684 6.79371 7.69966 6.67889 7.84171C6.56525 7.98375 6.41374 8.07904 6.22434 8.12757V8.15598C6.46582 8.19268 6.65285 8.28856 6.78542 8.44363C6.91918 8.59869 6.98547 8.79105 6.98429 9.02069C6.98547 9.22073 6.92984 9.40007 6.81738 9.55868C6.70611 9.7173 6.55401 9.84218 6.36106 9.93333C6.16812 10.0233 5.94735 10.0683 5.69877 10.0683ZM8.92143 10.0789C8.64089 10.0777 8.40119 10.0038 8.20233 9.85698C8.00346 9.7102 7.85136 9.49654 7.746 9.216C7.64065 8.93546 7.58798 8.59751 7.58798 8.20215C7.58798 7.80797 7.64065 7.47121 7.746 7.19185C7.85254 6.91249 8.00524 6.69943 8.2041 6.55265C8.40415 6.40587 8.64326 6.33248 8.92143 6.33248C9.1996 6.33248 9.43812 6.40646 9.63699 6.55442C9.83585 6.7012 9.98796 6.91427 10.0933 7.19363C10.1998 7.4718 10.2531 7.80797 10.2531 8.20215C10.2531 8.59869 10.2004 8.93723 10.0951 9.21777C9.98973 9.49713 9.83762 9.71079 9.63876 9.85875C9.4399 10.0055 9.20079 10.0789 8.92143 10.0789ZM8.92143 9.60485C9.16764 9.60485 9.36 9.4847 9.49849 9.24441C9.63817 9.00411 9.70801 8.65669 9.70801 8.20215C9.70801 7.9003 9.67605 7.64521 9.61213 7.43688C9.54939 7.22736 9.45884 7.06874 9.34047 6.96103C9.22328 6.85212 9.0836 6.79767 8.92143 6.79767C8.6764 6.79767 8.48405 6.91841 8.34437 7.15989C8.20469 7.40137 8.13426 7.74879 8.13308 8.20215C8.13308 8.50518 8.16445 8.76145 8.22718 8.97097C8.2911 9.1793 8.38166 9.33733 8.49885 9.44505C8.61603 9.55158 8.7569 9.60485 8.92143 9.60485Z" fill="white"/>
</svg>
