<svg width="329" height="45" viewBox="0 0 329 45" fill="none" xmlns="http://www.w3.org/2000/svg">
<path d="M1.39139 20.3208C1.24662 20.3208 1.1274 20.2867 1.03372 20.2186C0.948561 20.142 0.905981 20.0525 0.905981 19.9504V11.3534C0.905981 11.2512 0.948561 11.1661 1.03372 11.0979C1.1274 11.0213 1.24662 10.983 1.39139 10.983H3.6524C4.17188 10.983 4.64026 11.0766 5.05755 11.264C5.47483 11.4428 5.8027 11.7366 6.04115 12.1454C6.28811 12.5457 6.4116 13.0864 6.4116 13.7677V17.5361C6.4116 18.2173 6.28811 18.7624 6.04115 19.1711C5.8027 19.5714 5.47483 19.8652 5.05755 20.0525C4.64026 20.2314 4.17188 20.3208 3.6524 20.3208H1.39139ZM1.979 19.35H3.6524C4.1804 19.35 4.59342 19.2052 4.89148 18.9157C5.18954 18.6176 5.33858 18.1577 5.33858 17.5361V13.7677C5.33858 13.146 5.18954 12.6904 4.89148 12.4009C4.59342 12.1028 4.1804 11.9538 3.6524 11.9538H1.979V19.35ZM10.6067 20.423C10.0531 20.423 9.56346 20.3208 9.13766 20.1164C8.71186 19.9035 8.37547 19.614 8.12851 19.2478C7.88154 18.8731 7.75806 18.4388 7.75806 17.9448V16.6036C7.75806 16.1692 7.87303 15.769 8.10296 15.4028C8.34141 15.0366 8.65224 14.7428 9.03546 14.5214C9.41869 14.3 9.84023 14.1893 10.3001 14.1893C10.7429 14.1893 11.1474 14.2915 11.5136 14.4958C11.8883 14.7002 12.1864 14.977 12.4078 15.3261C12.6377 15.6753 12.7527 16.0798 12.7527 16.5397C12.7527 16.8803 12.6974 17.1273 12.5866 17.2806C12.4759 17.4253 12.3354 17.5148 12.1651 17.5488C11.9948 17.5829 11.8159 17.5999 11.6286 17.5999H8.81831V17.9832C8.81831 18.46 8.98863 18.839 9.32927 19.12C9.66991 19.3926 10.1085 19.5288 10.645 19.5288C10.9601 19.5288 11.2113 19.4862 11.3987 19.4011C11.586 19.3159 11.7393 19.235 11.8585 19.1584C11.9778 19.0732 12.0842 19.0306 12.1779 19.0306C12.2716 19.0306 12.3482 19.0604 12.4078 19.12C12.4759 19.1711 12.527 19.235 12.5611 19.3117C12.5952 19.3883 12.6122 19.4564 12.6122 19.516C12.6122 19.6267 12.5313 19.7545 12.3695 19.8993C12.2077 20.0355 11.9735 20.159 11.6669 20.2697C11.3689 20.3719 11.0154 20.423 10.6067 20.423ZM8.81831 16.8846H11.1815C11.4114 16.8846 11.5605 16.859 11.6286 16.8079C11.7052 16.7483 11.7436 16.6376 11.7436 16.4758C11.7436 16.2203 11.6797 15.9861 11.552 15.7732C11.4327 15.5518 11.2624 15.373 11.041 15.2367C10.8196 15.1005 10.5683 15.0323 10.2873 15.0323C10.0233 15.0323 9.78062 15.0962 9.5592 15.224C9.33778 15.3432 9.15895 15.5092 9.02269 15.7221C8.88643 15.935 8.81831 16.1692 8.81831 16.4247V16.8846ZM15.6632 20.423C15.2544 20.423 14.8925 20.3719 14.5774 20.2697C14.2623 20.159 14.0153 20.0313 13.8365 19.8865C13.6577 19.7417 13.5683 19.5969 13.5683 19.4522C13.5683 19.384 13.5853 19.3159 13.6194 19.2478C13.6534 19.1711 13.696 19.1073 13.7471 19.0562C13.8067 18.9966 13.8706 18.9668 13.9387 18.9668C14.0409 18.9668 14.1516 19.0178 14.2708 19.12C14.3901 19.2137 14.5519 19.3117 14.7562 19.4138C14.9606 19.516 15.2544 19.5671 15.6377 19.5671C16.089 19.5671 16.4041 19.4862 16.5829 19.3244C16.7618 19.1541 16.8512 18.9668 16.8512 18.7624C16.8512 18.4984 16.7745 18.2982 16.6213 18.162C16.468 18.0172 16.2721 17.9065 16.0336 17.8299C15.7952 17.7447 15.544 17.6638 15.28 17.5872C15.016 17.5105 14.7648 17.4168 14.5263 17.3061C14.2879 17.1869 14.092 17.0251 13.9387 16.8207C13.7939 16.6078 13.7215 16.3268 13.7215 15.9776C13.7215 15.6966 13.7897 15.4198 13.9259 15.1473C14.0622 14.8748 14.2836 14.6491 14.5902 14.4703C14.8968 14.2829 15.3055 14.1893 15.8165 14.1893C16.1145 14.1893 16.3998 14.2233 16.6723 14.2915C16.9534 14.3511 17.1791 14.4362 17.3494 14.5469C17.5282 14.6491 17.6176 14.7598 17.6176 14.8791C17.6176 14.9302 17.6006 14.9983 17.5665 15.0834C17.5325 15.1686 17.4856 15.2452 17.426 15.3134C17.3664 15.3815 17.2898 15.4156 17.1961 15.4156C17.128 15.4156 17.03 15.3858 16.9023 15.3261C16.7831 15.258 16.634 15.1941 16.4552 15.1345C16.2849 15.0749 16.0762 15.0451 15.8293 15.0451C15.5482 15.0451 15.3226 15.0962 15.1522 15.1984C14.9819 15.2921 14.8584 15.4071 14.7818 15.5433C14.7051 15.671 14.6668 15.803 14.6668 15.9393C14.6668 16.1522 14.7392 16.3183 14.884 16.4375C15.0373 16.5567 15.2331 16.6546 15.4716 16.7313C15.7186 16.7994 15.974 16.8718 16.238 16.9485C16.502 17.0166 16.7533 17.1188 16.9917 17.255C17.2301 17.3828 17.426 17.5616 17.5793 17.7915C17.7326 18.0215 17.8092 18.328 17.8092 18.7113C17.8092 19.2307 17.6219 19.648 17.2472 19.9631C16.8725 20.2697 16.3445 20.423 15.6632 20.423ZM21.3161 20.423C20.7285 20.423 20.2431 20.3123 19.8599 20.0909C19.4852 19.8695 19.2041 19.5756 19.0168 19.2095C18.8379 18.8348 18.7485 18.4132 18.7485 17.9448V16.6674C18.7485 16.2076 18.8379 15.7903 19.0168 15.4156C19.2041 15.0409 19.4852 14.7428 19.8599 14.5214C20.2431 14.3 20.7243 14.1893 21.3033 14.1893C21.678 14.1893 22.0059 14.2361 22.2869 14.3298C22.568 14.4234 22.7851 14.5384 22.9384 14.6747C23.0917 14.8109 23.1684 14.9429 23.1684 15.0707C23.1684 15.1388 23.1471 15.2154 23.1045 15.3006C23.0704 15.3772 23.0193 15.4454 22.9512 15.505C22.8916 15.5646 22.8192 15.5944 22.734 15.5944C22.6489 15.5944 22.5552 15.5561 22.453 15.4794C22.3593 15.4028 22.2273 15.3304 22.057 15.2623C21.8952 15.1856 21.6653 15.1473 21.3672 15.1473C20.8477 15.1473 20.456 15.2836 20.192 15.5561C19.9365 15.8286 19.8088 16.199 19.8088 16.6674V17.9448C19.8088 18.4132 19.9365 18.7837 20.192 19.0562C20.456 19.3287 20.852 19.4649 21.38 19.4649C21.6866 19.4649 21.925 19.4266 22.0953 19.35C22.2657 19.2648 22.3977 19.1882 22.4913 19.12C22.5935 19.0434 22.6915 19.0051 22.7851 19.0051C22.8788 19.0051 22.9597 19.0349 23.0278 19.0945C23.096 19.1456 23.1471 19.2095 23.1811 19.2861C23.2237 19.3627 23.245 19.4394 23.245 19.516C23.245 19.6438 23.1641 19.78 23.0023 19.9248C22.8405 20.0611 22.6148 20.1803 22.3253 20.2825C22.0357 20.3762 21.6993 20.423 21.3161 20.423ZM26.783 20.423C26.3146 20.423 25.8888 20.308 25.5056 20.0781C25.1224 19.8482 24.8158 19.5458 24.5859 19.1711C24.3559 18.7964 24.241 18.3962 24.241 17.9704V14.6491C24.241 14.5554 24.2921 14.4703 24.3943 14.3936C24.505 14.3085 24.6327 14.2659 24.7775 14.2659C24.9223 14.2659 25.0457 14.3085 25.1479 14.3936C25.2501 14.4703 25.3012 14.5554 25.3012 14.6491V17.9704C25.3012 18.2173 25.3651 18.4558 25.4928 18.6857C25.6291 18.9157 25.8079 19.103 26.0293 19.2478C26.2508 19.3926 26.4977 19.4649 26.7702 19.4649C27.0427 19.4649 27.2897 19.3926 27.5111 19.2478C27.7325 19.103 27.9071 18.9157 28.0349 18.6857C28.1626 18.4558 28.2265 18.2173 28.2265 17.9704V14.6363C28.2265 14.5342 28.2818 14.449 28.3925 14.3809C28.5032 14.3042 28.6267 14.2659 28.763 14.2659C28.9248 14.2659 29.0525 14.3042 29.1462 14.3809C29.2399 14.449 29.2867 14.5342 29.2867 14.6363V17.9704C29.2867 18.4047 29.1718 18.8092 28.9418 19.1839C28.7204 19.5501 28.4181 19.8482 28.0349 20.0781C27.6516 20.308 27.2344 20.423 26.783 20.423ZM26.2593 12.9374C26.1571 12.9374 26.0677 12.8906 25.991 12.7969C25.9144 12.7032 25.876 12.6053 25.876 12.5031C25.876 12.3668 25.9314 12.2732 26.0421 12.2221L27.5367 11.4301C27.5878 11.413 27.6304 11.4045 27.6644 11.4045C27.7751 11.4045 27.8603 11.4514 27.9199 11.545C27.988 11.6302 28.0221 11.7281 28.0221 11.8388C28.0221 11.9751 27.9625 12.0773 27.8433 12.1454L26.3998 12.8863C26.3742 12.8948 26.3487 12.9076 26.3231 12.9246C26.3061 12.9331 26.2848 12.9374 26.2593 12.9374ZM33.5137 20.423C33.122 20.423 32.7643 20.3251 32.4407 20.1292C32.1256 19.9248 31.8999 19.6906 31.7637 19.4266V19.9376C31.7637 20.0313 31.7168 20.1207 31.6232 20.2058C31.5295 20.2825 31.4103 20.3208 31.2655 20.3208C31.1207 20.3208 30.9972 20.2825 30.8951 20.2058C30.8014 20.1207 30.7545 20.0313 30.7545 19.9376V10.983C30.7545 10.8723 30.8014 10.7828 30.8951 10.7147C30.9972 10.6466 31.1207 10.6125 31.2655 10.6125C31.4188 10.6125 31.5465 10.6466 31.6487 10.7147C31.7594 10.7828 31.8148 10.8723 31.8148 10.983V15.1601C31.951 14.9131 32.1597 14.6917 32.4407 14.4958C32.7303 14.2915 33.0794 14.1893 33.4882 14.1893C33.9055 14.1893 34.2844 14.3042 34.6251 14.5342C34.9742 14.7556 35.251 15.0494 35.4554 15.4156C35.6683 15.7818 35.7747 16.1905 35.7747 16.6419V17.9448C35.7747 18.3706 35.6683 18.7751 35.4554 19.1584C35.251 19.5331 34.9785 19.8396 34.6378 20.0781C34.2972 20.308 33.9225 20.423 33.5137 20.423ZM33.2583 19.4649C33.5222 19.4649 33.765 19.3926 33.9864 19.2478C34.2078 19.103 34.3824 18.9114 34.5101 18.6729C34.6464 18.4345 34.7145 18.1918 34.7145 17.9448V16.6419C34.7145 16.3949 34.6464 16.1565 34.5101 15.9265C34.3824 15.6966 34.2078 15.5092 33.9864 15.3645C33.765 15.2197 33.518 15.1473 33.2455 15.1473C33.0155 15.1473 32.7899 15.2112 32.5685 15.3389C32.347 15.4581 32.1639 15.6285 32.0192 15.8499C31.8829 16.0628 31.8148 16.3268 31.8148 16.6419V18.2897C31.8148 18.4004 31.8787 18.5495 32.0064 18.7368C32.1341 18.9242 32.3087 19.0945 32.5301 19.2478C32.7515 19.3926 32.9943 19.4649 33.2583 19.4649ZM37.5649 20.3208C37.4201 20.3208 37.2966 20.2825 37.1945 20.2058C37.1008 20.1207 37.0539 20.0313 37.0539 19.9376V14.6363C37.0539 14.5256 37.1008 14.4362 37.1945 14.3681C37.2966 14.3 37.4201 14.2659 37.5649 14.2659C37.7097 14.2659 37.8289 14.3 37.9226 14.3681C38.0163 14.4362 38.0631 14.5256 38.0631 14.6363V15.2367C38.1568 15.0579 38.2845 14.8918 38.4463 14.7385C38.6081 14.5767 38.7955 14.4447 39.0084 14.3425C39.2298 14.2404 39.4725 14.1893 39.7365 14.1893H40.1708C40.2815 14.1893 40.3752 14.2361 40.4518 14.3298C40.537 14.4234 40.5796 14.5384 40.5796 14.6747C40.5796 14.8024 40.537 14.9131 40.4518 15.0068C40.3752 15.1005 40.2815 15.1473 40.1708 15.1473H39.7365C39.464 15.1473 39.2042 15.224 38.9573 15.3772C38.7103 15.5305 38.5059 15.7477 38.3441 16.0287C38.1908 16.3012 38.1142 16.6334 38.1142 17.0251V19.9376C38.1142 20.0313 38.0588 20.1207 37.9481 20.2058C37.8459 20.2825 37.7182 20.3208 37.5649 20.3208ZM43.8142 20.423C43.2607 20.423 42.771 20.3208 42.3452 20.1164C41.9194 19.9035 41.583 19.614 41.336 19.2478C41.0891 18.8731 40.9656 18.4388 40.9656 17.9448V16.6036C40.9656 16.1692 41.0806 15.769 41.3105 15.4028C41.5489 15.0366 41.8598 14.7428 42.243 14.5214C42.6262 14.3 43.0478 14.1893 43.5076 14.1893C43.9505 14.1893 44.355 14.2915 44.7212 14.4958C45.0959 14.7002 45.3939 14.977 45.6153 15.3261C45.8453 15.6753 45.9602 16.0798 45.9602 16.5397C45.9602 16.8803 45.9049 17.1273 45.7942 17.2806C45.6835 17.4253 45.543 17.5148 45.3726 17.5488C45.2023 17.5829 45.0235 17.5999 44.8361 17.5999H42.0258V17.9832C42.0258 18.46 42.1962 18.839 42.5368 19.12C42.8774 19.3926 43.316 19.5288 43.8525 19.5288C44.1676 19.5288 44.4188 19.4862 44.6062 19.4011C44.7935 19.3159 44.9468 19.235 45.0661 19.1584C45.1853 19.0732 45.2917 19.0306 45.3854 19.0306C45.4791 19.0306 45.5557 19.0604 45.6153 19.12C45.6835 19.1711 45.7346 19.235 45.7686 19.3117C45.8027 19.3883 45.8197 19.4564 45.8197 19.516C45.8197 19.6267 45.7388 19.7545 45.577 19.8993C45.4152 20.0355 45.181 20.159 44.8745 20.2697C44.5764 20.3719 44.223 20.423 43.8142 20.423ZM42.0258 16.8846H44.389C44.619 16.8846 44.768 16.859 44.8361 16.8079C44.9128 16.7483 44.9511 16.6376 44.9511 16.4758C44.9511 16.2203 44.8872 15.9861 44.7595 15.7732C44.6403 15.5518 44.4699 15.373 44.2485 15.2367C44.0271 15.1005 43.7759 15.0323 43.4949 15.0323C43.2309 15.0323 42.9881 15.0962 42.7667 15.224C42.5453 15.3432 42.3665 15.5092 42.2302 15.7221C42.094 15.935 42.0258 16.1692 42.0258 16.4247V16.8846ZM47.7722 20.3208C47.6189 20.3208 47.4911 20.2825 47.3889 20.2058C47.2953 20.1207 47.2484 20.0313 47.2484 19.9376V10.983C47.2484 10.8723 47.2953 10.7828 47.3889 10.7147C47.4911 10.6466 47.6189 10.6125 47.7722 10.6125C47.9169 10.6125 48.0404 10.6466 48.1426 10.7147C48.2533 10.7828 48.3087 10.8723 48.3087 10.983V19.9376C48.3087 20.0313 48.2533 20.1207 48.1426 20.2058C48.0404 20.2825 47.9169 20.3208 47.7722 20.3208ZM52.2143 20.423C51.763 20.423 51.3457 20.308 50.9625 20.0781C50.5793 19.8396 50.2727 19.5331 50.0427 19.1584C49.8128 18.7837 49.6979 18.3791 49.6979 17.9448V16.6419C49.6979 16.2076 49.8086 15.8073 50.03 15.4411C50.2599 15.0664 50.5665 14.7641 50.9497 14.5342C51.3329 14.3042 51.7545 14.1893 52.2143 14.1893C52.6657 14.1893 53.083 14.3042 53.4662 14.5342C53.8494 14.7556 54.156 15.0494 54.3859 15.4156C54.6244 15.7818 54.7436 16.1905 54.7436 16.6419V17.9448C54.7436 18.3706 54.6244 18.7751 54.3859 19.1584C54.156 19.5331 53.8494 19.8396 53.4662 20.0781C53.083 20.308 52.6657 20.423 52.2143 20.423ZM52.2143 19.4649C52.4869 19.4649 52.7296 19.3926 52.9425 19.2478C53.1639 19.103 53.3427 18.9157 53.479 18.6857C53.6152 18.4473 53.6834 18.2003 53.6834 17.9448V16.6419C53.6834 16.3949 53.6152 16.1565 53.479 15.9265C53.3512 15.6966 53.1766 15.5092 52.9552 15.3645C52.7338 15.2197 52.4869 15.1473 52.2143 15.1473C51.9418 15.1473 51.6949 15.2197 51.4734 15.3645C51.252 15.5092 51.0774 15.6966 50.9497 15.9265C50.822 16.1565 50.7581 16.3949 50.7581 16.6419V17.9448C50.7581 18.2003 50.822 18.4473 50.9497 18.6857C51.0774 18.9157 51.252 19.103 51.4734 19.2478C51.6949 19.3926 51.9418 19.4649 52.2143 19.4649ZM61.1914 20.423C60.6379 20.423 60.1482 20.3208 59.7224 20.1164C59.2966 19.9035 58.9602 19.614 58.7132 19.2478C58.4663 18.8731 58.3428 18.4388 58.3428 17.9448V16.6036C58.3428 16.1692 58.4578 15.769 58.6877 15.4028C58.9261 15.0366 59.237 14.7428 59.6202 14.5214C60.0034 14.3 60.425 14.1893 60.8848 14.1893C61.3277 14.1893 61.7322 14.2915 62.0984 14.4958C62.4731 14.7002 62.7711 14.977 62.9925 15.3261C63.2225 15.6753 63.3374 16.0798 63.3374 16.5397C63.3374 16.8803 63.2821 17.1273 63.1714 17.2806C63.0607 17.4253 62.9202 17.5148 62.7498 17.5488C62.5795 17.5829 62.4007 17.5999 62.2133 17.5999H59.403V17.9832C59.403 18.46 59.5734 18.839 59.914 19.12C60.2546 19.3926 60.6932 19.5288 61.2297 19.5288C61.5448 19.5288 61.796 19.4862 61.9834 19.4011C62.1707 19.3159 62.324 19.235 62.4433 19.1584C62.5625 19.0732 62.6689 19.0306 62.7626 19.0306C62.8563 19.0306 62.9329 19.0604 62.9925 19.12C63.0607 19.1711 63.1118 19.235 63.1458 19.3117C63.1799 19.3883 63.1969 19.4564 63.1969 19.516C63.1969 19.6267 63.116 19.7545 62.9542 19.8993C62.7924 20.0355 62.5582 20.159 62.2516 20.2697C61.9536 20.3719 61.6002 20.423 61.1914 20.423ZM59.403 16.8846H61.7662C61.9962 16.8846 62.1452 16.859 62.2133 16.8079C62.29 16.7483 62.3283 16.6376 62.3283 16.4758C62.3283 16.2203 62.2644 15.9861 62.1367 15.7732C62.0175 15.5518 61.8471 15.373 61.6257 15.2367C61.4043 15.1005 61.1531 15.0323 60.872 15.0323C60.6081 15.0323 60.3653 15.0962 60.1439 15.224C59.9225 15.3432 59.7437 15.5092 59.6074 15.7221C59.4712 15.935 59.403 16.1692 59.403 16.4247V16.8846ZM65.0344 20.3208C64.8811 20.3208 64.7534 20.2825 64.6512 20.2058C64.5575 20.1207 64.5107 20.0313 64.5107 19.9376V14.6363C64.5107 14.5256 64.5575 14.4362 64.6512 14.3681C64.7534 14.3 64.8811 14.2659 65.0344 14.2659C65.1706 14.2659 65.2856 14.3 65.3793 14.3681C65.473 14.4362 65.5198 14.5256 65.5198 14.6363V15.1601C65.6561 14.9131 65.869 14.6917 66.1585 14.4958C66.4481 14.2915 66.8057 14.1893 67.2315 14.1893C67.6403 14.1893 68.015 14.3042 68.3556 14.5342C68.6963 14.7556 68.9688 15.0494 69.1732 15.4156C69.3776 15.7818 69.4798 16.1905 69.4798 16.6419V19.9376C69.4798 20.0653 69.4244 20.1633 69.3137 20.2314C69.203 20.291 69.0795 20.3208 68.9432 20.3208C68.8155 20.3208 68.6963 20.291 68.5856 20.2314C68.4749 20.1633 68.4195 20.0653 68.4195 19.9376V16.6419C68.4195 16.3949 68.3514 16.1565 68.2151 15.9265C68.0874 15.6966 67.9128 15.5092 67.6914 15.3645C67.47 15.2197 67.2273 15.1473 66.9633 15.1473C66.7333 15.1473 66.5119 15.2112 66.299 15.3389C66.0861 15.4581 65.9115 15.6285 65.7753 15.8499C65.639 16.0628 65.5709 16.3268 65.5709 16.6419V19.9376C65.5709 20.0313 65.5155 20.1207 65.4048 20.2058C65.3026 20.2825 65.1792 20.3208 65.0344 20.3208Z" fill="white"/>
<path d="M77.7698 38.1022C77.2163 38.1022 76.7266 38 76.3008 37.7956C75.875 37.5827 75.5386 37.2932 75.2916 36.927C75.0447 36.5523 74.9212 36.118 74.9212 35.624V34.2828C74.9212 33.8484 75.0362 33.4482 75.2661 33.082C75.5045 32.7158 75.8154 32.422 76.1986 32.2006C76.5818 31.9792 77.0034 31.8685 77.4632 31.8685C77.9061 31.8685 78.3106 31.9706 78.6768 32.175C79.0515 32.3794 79.3495 32.6562 79.571 33.0053C79.8009 33.3545 79.9158 33.759 79.9158 34.2189C79.9158 34.5595 79.8605 34.8065 79.7498 34.9598C79.6391 35.1045 79.4986 35.194 79.3282 35.228C79.1579 35.2621 78.9791 35.2791 78.7917 35.2791H75.9814V35.6623C75.9814 36.1392 76.1518 36.5182 76.4924 36.7992C76.833 37.0718 77.2716 37.208 77.8081 37.208C78.1232 37.208 78.3744 37.1654 78.5618 37.0803C78.7492 36.9951 78.9024 36.9142 79.0217 36.8376C79.1409 36.7524 79.2473 36.7098 79.341 36.7098C79.4347 36.7098 79.5113 36.7396 79.571 36.7992C79.6391 36.8503 79.6902 36.9142 79.7242 36.9909C79.7583 37.0675 79.7753 37.1356 79.7753 37.1952C79.7753 37.3059 79.6944 37.4337 79.5326 37.5785C79.3708 37.7147 79.1366 37.8382 78.8301 37.9489C78.532 38.0511 78.1786 38.1022 77.7698 38.1022ZM75.9814 34.5638H78.3446C78.5746 34.5638 78.7236 34.5382 78.7917 34.4871C78.8684 34.4275 78.9067 34.3168 78.9067 34.155C78.9067 33.8995 78.8428 33.6653 78.7151 33.4524C78.5959 33.231 78.4255 33.0522 78.2041 32.9159C77.9827 32.7797 77.7315 32.7115 77.4505 32.7115C77.1865 32.7115 76.9438 32.7754 76.7223 32.9032C76.5009 33.0224 76.3221 33.1884 76.1858 33.4013C76.0496 33.6142 75.9814 33.8484 75.9814 34.1039V34.5638ZM81.6128 38C81.4595 38 81.3318 37.9617 81.2296 37.885C81.1359 37.7999 81.0891 37.7105 81.0891 37.6168V32.3155C81.0891 32.2048 81.1359 32.1154 81.2296 32.0473C81.3318 31.9792 81.4595 31.9451 81.6128 31.9451C81.7491 31.9451 81.864 31.9792 81.9577 32.0473C82.0514 32.1154 82.0982 32.2048 82.0982 32.3155V32.8393C82.2345 32.5923 82.4474 32.3709 82.7369 32.175C83.0265 31.9706 83.3841 31.8685 83.8099 31.8685C84.2187 31.8685 84.5934 31.9834 84.9341 32.2134C85.2747 32.4348 85.5472 32.7286 85.7516 33.0948C85.956 33.461 86.0582 33.8697 86.0582 34.3211V37.6168C86.0582 37.7445 86.0028 37.8425 85.8921 37.9106C85.7814 37.9702 85.6579 38 85.5217 38C85.3939 38 85.2747 37.9702 85.164 37.9106C85.0533 37.8425 84.9979 37.7445 84.9979 37.6168V34.3211C84.9979 34.0741 84.9298 33.8357 84.7935 33.6057C84.6658 33.3758 84.4912 33.1884 84.2698 33.0437C84.0484 32.8989 83.8057 32.8265 83.5417 32.8265C83.3117 32.8265 83.0903 32.8904 82.8774 33.0181C82.6645 33.1373 82.49 33.3077 82.3537 33.5291C82.2174 33.742 82.1493 34.006 82.1493 34.3211V37.6168C82.1493 37.7105 82.094 37.7999 81.9832 37.885C81.8811 37.9617 81.7576 38 81.6128 38ZM90.697 38C90.5438 38 90.416 37.9617 90.3138 37.885C90.2201 37.7999 90.1733 37.7105 90.1733 37.6168V28.6622C90.1733 28.5515 90.2201 28.462 90.3138 28.3939C90.416 28.3258 90.5438 28.2917 90.697 28.2917C90.8418 28.2917 90.9653 28.3258 91.0675 28.3939C91.1782 28.462 91.2336 28.5515 91.2336 28.6622V37.6168C91.2336 37.7105 91.1782 37.7999 91.0675 37.885C90.9653 37.9617 90.8418 38 90.697 38ZM94.1812 38.1022C93.7043 38.1022 93.2955 37.9659 92.9549 37.6934C92.6227 37.4124 92.4567 36.9823 92.4567 36.4032C92.4567 35.9349 92.5844 35.5729 92.8399 35.3175C93.0954 35.0535 93.4445 34.8746 93.8874 34.7809C94.3387 34.6787 94.8582 34.6277 95.4458 34.6277H96.059V34.3594C96.059 34.1039 96.0121 33.857 95.9184 33.6185C95.8248 33.3715 95.6757 33.1714 95.4713 33.0181C95.2755 32.8563 95.003 32.7754 94.6538 32.7754C94.3557 32.7754 94.1173 32.8052 93.9385 32.8648C93.7681 32.9244 93.6319 32.9883 93.5297 33.0564C93.4275 33.1161 93.3381 33.1459 93.2614 33.1459C93.1337 33.1459 93.0358 33.0862 92.9676 32.967C92.8995 32.8393 92.8654 32.7201 92.8654 32.6094C92.8654 32.4731 92.9591 32.3496 93.1465 32.2389C93.3338 32.1282 93.568 32.0388 93.849 31.9706C94.1301 31.9025 94.4068 31.8685 94.6794 31.8685C95.2755 31.8685 95.7524 31.9877 96.11 32.2261C96.4677 32.4646 96.7232 32.7712 96.8765 33.1459C97.0383 33.5206 97.1192 33.9208 97.1192 34.3466V37.6168C97.1192 37.719 97.0681 37.8084 96.9659 37.885C96.8722 37.9617 96.7488 38 96.5955 38C96.4592 38 96.3442 37.9617 96.2506 37.885C96.1569 37.8084 96.11 37.719 96.11 37.6168V37.1058C95.8886 37.3613 95.6204 37.5912 95.3053 37.7956C94.9902 38 94.6155 38.1022 94.1812 38.1022ZM94.5133 37.2463C94.7603 37.2463 94.9987 37.1782 95.2286 37.0419C95.4671 36.9057 95.663 36.7354 95.8162 36.531C95.978 36.3266 96.059 36.1307 96.059 35.9434V35.2791H95.6119C95.2542 35.2791 94.9135 35.3004 94.5899 35.343C94.2748 35.3856 94.0194 35.4793 93.8235 35.624C93.6276 35.7603 93.5297 35.9817 93.5297 36.2883C93.5297 36.6204 93.6234 36.8631 93.8107 37.0164C93.9981 37.1697 94.2323 37.2463 94.5133 37.2463ZM105.403 40.9253C105.249 40.9253 105.117 40.8827 105.007 40.7975C104.904 40.7209 104.853 40.6357 104.853 40.542V37.1058C104.726 37.3698 104.504 37.604 104.189 37.8084C103.883 38.0043 103.538 38.1022 103.154 38.1022C102.754 38.1022 102.379 37.9872 102.03 37.7573C101.69 37.5188 101.413 37.2123 101.2 36.8376C100.996 36.4543 100.893 36.0498 100.893 35.624V34.3211C100.893 33.8697 100.996 33.461 101.2 33.0948C101.404 32.7286 101.681 32.4348 102.03 32.2134C102.379 31.9834 102.767 31.8685 103.193 31.8685C103.61 31.8685 103.963 31.9706 104.253 32.175C104.551 32.3709 104.768 32.5923 104.904 32.8393V32.3155C104.904 32.2048 104.951 32.1154 105.045 32.0473C105.147 31.9792 105.266 31.9451 105.403 31.9451C105.556 31.9451 105.679 31.9792 105.773 32.0473C105.867 32.1154 105.914 32.2048 105.914 32.3155V40.542C105.914 40.6357 105.867 40.7209 105.773 40.7975C105.679 40.8827 105.556 40.9253 105.403 40.9253ZM103.41 37.1441C103.691 37.1441 103.938 37.0718 104.151 36.927C104.372 36.7737 104.543 36.6034 104.662 36.416C104.79 36.2287 104.853 36.0796 104.853 35.9689V34.3211C104.853 34.006 104.785 33.742 104.649 33.5291C104.513 33.3077 104.334 33.1373 104.112 33.0181C103.891 32.8904 103.665 32.8265 103.435 32.8265C103.163 32.8265 102.916 32.8989 102.695 33.0437C102.473 33.1884 102.294 33.3758 102.158 33.6057C102.022 33.8357 101.954 34.0741 101.954 34.3211V35.624C101.954 35.871 102.022 36.1137 102.158 36.3521C102.294 36.5906 102.473 36.7822 102.695 36.927C102.916 37.0718 103.154 37.1441 103.41 37.1441ZM109.914 38.1022C109.445 38.1022 109.02 37.9872 108.636 37.7573C108.253 37.5274 107.947 37.225 107.717 36.8503C107.487 36.4756 107.372 36.0754 107.372 35.6496V32.3283C107.372 32.2346 107.423 32.1495 107.525 32.0728C107.636 31.9877 107.763 31.9451 107.908 31.9451C108.053 31.9451 108.176 31.9877 108.279 32.0728C108.381 32.1495 108.432 32.2346 108.432 32.3283V35.6496C108.432 35.8965 108.496 36.135 108.624 36.3649C108.76 36.5949 108.939 36.7822 109.16 36.927C109.381 37.0718 109.628 37.1441 109.901 37.1441C110.173 37.1441 110.42 37.0718 110.642 36.927C110.863 36.7822 111.038 36.5949 111.166 36.3649C111.293 36.135 111.357 35.8965 111.357 35.6496V32.3155C111.357 32.2134 111.413 32.1282 111.523 32.0601C111.634 31.9834 111.757 31.9451 111.894 31.9451C112.055 31.9451 112.183 31.9834 112.277 32.0601C112.371 32.1282 112.417 32.2134 112.417 32.3155V35.6496C112.417 36.0839 112.302 36.4884 112.073 36.8631C111.851 37.2293 111.549 37.5274 111.166 37.7573C110.782 37.9872 110.365 38.1022 109.914 38.1022ZM116.491 38.1022C115.938 38.1022 115.448 38 115.022 37.7956C114.596 37.5827 114.26 37.2932 114.013 36.927C113.766 36.5523 113.643 36.118 113.643 35.624V34.2828C113.643 33.8484 113.757 33.4482 113.987 33.082C114.226 32.7158 114.537 32.422 114.92 32.2006C115.303 31.9792 115.725 31.8685 116.185 31.8685C116.627 31.8685 117.032 31.9706 117.398 32.175C117.773 32.3794 118.071 32.6562 118.292 33.0053C118.522 33.3545 118.637 33.759 118.637 34.2189C118.637 34.5595 118.582 34.8065 118.471 34.9598C118.36 35.1045 118.22 35.194 118.05 35.228C117.879 35.2621 117.7 35.2791 117.513 35.2791H114.703V35.6623C114.703 36.1392 114.873 36.5182 115.214 36.7992C115.554 37.0718 115.993 37.208 116.529 37.208C116.845 37.208 117.096 37.1654 117.283 37.0803C117.47 36.9951 117.624 36.9142 117.743 36.8376C117.862 36.7524 117.969 36.7098 118.062 36.7098C118.156 36.7098 118.233 36.7396 118.292 36.7992C118.36 36.8503 118.412 36.9142 118.446 36.9909C118.48 37.0675 118.497 37.1356 118.497 37.1952C118.497 37.3059 118.416 37.4337 118.254 37.5785C118.092 37.7147 117.858 37.8382 117.551 37.9489C117.253 38.0511 116.9 38.1022 116.491 38.1022ZM114.703 34.5638H117.066C117.296 34.5638 117.445 34.5382 117.513 34.4871C117.59 34.4275 117.628 34.3168 117.628 34.155C117.628 33.8995 117.564 33.6653 117.436 33.4524C117.317 33.231 117.147 33.0522 116.925 32.9159C116.704 32.7797 116.453 32.7115 116.172 32.7115C115.908 32.7115 115.665 32.7754 115.444 32.9032C115.222 33.0224 115.043 33.1884 114.907 33.4013C114.771 33.6142 114.703 33.8484 114.703 34.1039V34.5638ZM124.105 38.1022C123.696 38.1022 123.334 38.0511 123.019 37.9489C122.704 37.8382 122.457 37.7105 122.278 37.5657C122.099 37.4209 122.01 37.2761 122.01 37.1314C122.01 37.0632 122.027 36.9951 122.061 36.927C122.095 36.8503 122.138 36.7865 122.189 36.7354C122.248 36.6758 122.312 36.646 122.38 36.646C122.483 36.646 122.593 36.697 122.713 36.7992C122.832 36.8929 122.994 36.9909 123.198 37.093C123.402 37.1952 123.696 37.2463 124.079 37.2463C124.531 37.2463 124.846 37.1654 125.025 37.0036C125.204 36.8333 125.293 36.646 125.293 36.4416C125.293 36.1776 125.216 35.9774 125.063 35.8412C124.91 35.6964 124.714 35.5857 124.475 35.5091C124.237 35.4239 123.986 35.343 123.722 35.2664C123.458 35.1897 123.207 35.096 122.968 34.9853C122.73 34.8661 122.534 34.7043 122.38 34.4999C122.236 34.287 122.163 34.006 122.163 33.6568C122.163 33.3758 122.231 33.099 122.368 32.8265C122.504 32.554 122.725 32.3283 123.032 32.1495C123.339 31.9621 123.747 31.8685 124.258 31.8685C124.556 31.8685 124.842 31.9025 125.114 31.9706C125.395 32.0303 125.621 32.1154 125.791 32.2261C125.97 32.3283 126.059 32.439 126.059 32.5583C126.059 32.6094 126.042 32.6775 126.008 32.7626C125.974 32.8478 125.927 32.9244 125.868 32.9926C125.808 33.0607 125.732 33.0948 125.638 33.0948C125.57 33.0948 125.472 33.065 125.344 33.0053C125.225 32.9372 125.076 32.8733 124.897 32.8137C124.727 32.7541 124.518 32.7243 124.271 32.7243C123.99 32.7243 123.764 32.7754 123.594 32.8776C123.424 32.9713 123.3 33.0862 123.224 33.2225C123.147 33.3502 123.109 33.4822 123.109 33.6185C123.109 33.8314 123.181 33.9975 123.326 34.1167C123.479 34.2359 123.675 34.3338 123.913 34.4105C124.16 34.4786 124.416 34.551 124.68 34.6277C124.944 34.6958 125.195 34.798 125.433 34.9342C125.672 35.062 125.868 35.2408 126.021 35.4707C126.174 35.7007 126.251 36.0072 126.251 36.3905C126.251 36.9099 126.064 37.3272 125.689 37.6423C125.314 37.9489 124.786 38.1022 124.105 38.1022ZM130.026 38.1022C129.473 38.1022 128.983 38 128.557 37.7956C128.131 37.5827 127.795 37.2932 127.548 36.927C127.301 36.5523 127.178 36.118 127.178 35.624V34.2828C127.178 33.8484 127.292 33.4482 127.522 33.082C127.761 32.7158 128.072 32.422 128.455 32.2006C128.838 31.9792 129.26 31.8685 129.72 31.8685C130.162 31.8685 130.567 31.9706 130.933 32.175C131.308 32.3794 131.606 32.6562 131.827 33.0053C132.057 33.3545 132.172 33.759 132.172 34.2189C132.172 34.5595 132.117 34.8065 132.006 34.9598C131.895 35.1045 131.755 35.194 131.585 35.228C131.414 35.2621 131.235 35.2791 131.048 35.2791H128.238V35.6623C128.238 36.1392 128.408 36.5182 128.749 36.7992C129.089 37.0718 129.528 37.208 130.064 37.208C130.38 37.208 130.631 37.1654 130.818 37.0803C131.005 36.9951 131.159 36.9142 131.278 36.8376C131.397 36.7524 131.504 36.7098 131.597 36.7098C131.691 36.7098 131.768 36.7396 131.827 36.7992C131.895 36.8503 131.947 36.9142 131.981 36.9909C132.015 37.0675 132.032 37.1356 132.032 37.1952C132.032 37.3059 131.951 37.4337 131.789 37.5785C131.627 37.7147 131.393 37.8382 131.086 37.9489C130.788 38.0511 130.435 38.1022 130.026 38.1022ZM128.238 34.5638H130.601C130.831 34.5638 130.98 34.5382 131.048 34.4871C131.125 34.4275 131.163 34.3168 131.163 34.155C131.163 33.8995 131.099 33.6653 130.971 33.4524C130.852 33.231 130.682 33.0522 130.46 32.9159C130.239 32.7797 129.988 32.7115 129.707 32.7115C129.443 32.7115 129.2 32.7754 128.979 32.9032C128.757 33.0224 128.578 33.1884 128.442 33.4013C128.306 33.6142 128.238 33.8484 128.238 34.1039V34.5638ZM133.856 38C133.712 38 133.588 37.9617 133.486 37.885C133.392 37.7999 133.345 37.7105 133.345 37.6168V32.3155C133.345 32.2048 133.392 32.1154 133.486 32.0473C133.588 31.9792 133.712 31.9451 133.856 31.9451C134.001 31.9451 134.12 31.9792 134.214 32.0473C134.308 32.1154 134.355 32.2048 134.355 32.3155V32.9159C134.448 32.7371 134.576 32.571 134.738 32.4177C134.9 32.2559 135.087 32.1239 135.3 32.0217C135.521 31.9196 135.764 31.8685 136.028 31.8685H136.462C136.573 31.8685 136.667 31.9153 136.743 32.009C136.828 32.1026 136.871 32.2176 136.871 32.3539C136.871 32.4816 136.828 32.5923 136.743 32.686C136.667 32.7797 136.573 32.8265 136.462 32.8265H136.028C135.755 32.8265 135.496 32.9032 135.249 33.0564C135.002 33.2097 134.797 33.4269 134.636 33.7079C134.482 33.9804 134.406 34.3126 134.406 34.7043V37.6168C134.406 37.7105 134.35 37.7999 134.24 37.885C134.137 37.9617 134.01 38 133.856 38ZM138.828 38.1022C138.351 38.1022 137.942 37.9659 137.602 37.6934C137.27 37.4124 137.103 36.9823 137.103 36.4032C137.103 35.9349 137.231 35.5729 137.487 35.3175C137.742 35.0535 138.091 34.8746 138.534 34.7809C138.986 34.6787 139.505 34.6277 140.093 34.6277H140.706V34.3594C140.706 34.1039 140.659 33.857 140.565 33.6185C140.472 33.3715 140.323 33.1714 140.118 33.0181C139.922 32.8563 139.65 32.7754 139.301 32.7754C139.003 32.7754 138.764 32.8052 138.585 32.8648C138.415 32.9244 138.279 32.9883 138.176 33.0564C138.074 33.1161 137.985 33.1459 137.908 33.1459C137.78 33.1459 137.683 33.0862 137.614 32.967C137.546 32.8393 137.512 32.7201 137.512 32.6094C137.512 32.4731 137.606 32.3496 137.793 32.2389C137.981 32.1282 138.215 32.0388 138.496 31.9706C138.777 31.9025 139.054 31.8685 139.326 31.8685C139.922 31.8685 140.399 31.9877 140.757 32.2261C141.115 32.4646 141.37 32.7712 141.523 33.1459C141.685 33.5206 141.766 33.9208 141.766 34.3466V37.6168C141.766 37.719 141.715 37.8084 141.613 37.885C141.519 37.9617 141.396 38 141.242 38C141.106 38 140.991 37.9617 140.897 37.885C140.804 37.8084 140.757 37.719 140.757 37.6168V37.1058C140.535 37.3613 140.267 37.5912 139.952 37.7956C139.637 38 139.262 38.1022 138.828 38.1022ZM139.16 37.2463C139.407 37.2463 139.645 37.1782 139.875 37.0419C140.114 36.9057 140.31 36.7354 140.463 36.531C140.625 36.3266 140.706 36.1307 140.706 35.9434V35.2791H140.259C139.901 35.2791 139.56 35.3004 139.237 35.343C138.922 35.3856 138.666 35.4793 138.47 35.624C138.274 35.7603 138.176 35.9817 138.176 36.2883C138.176 36.6204 138.27 36.8631 138.458 37.0164C138.645 37.1697 138.879 37.2463 139.16 37.2463ZM138.994 30.5655C138.892 30.5655 138.802 30.5187 138.726 30.425C138.649 30.3313 138.611 30.2334 138.611 30.1312C138.611 29.9949 138.666 29.9013 138.777 29.8502L140.271 29.0582C140.323 29.0411 140.365 29.0326 140.399 29.0326C140.51 29.0326 140.595 29.0795 140.655 29.1731C140.723 29.2583 140.757 29.3562 140.757 29.4669C140.757 29.6032 140.697 29.7054 140.578 29.7735L139.135 30.5144C139.109 30.5229 139.083 30.5357 139.058 30.5527C139.041 30.5612 139.02 30.5655 138.994 30.5655ZM144.95 38.1022C144.541 38.1022 144.179 38.0511 143.864 37.9489C143.549 37.8382 143.302 37.7105 143.123 37.5657C142.945 37.4209 142.855 37.2761 142.855 37.1314C142.855 37.0632 142.872 36.9951 142.906 36.927C142.94 36.8503 142.983 36.7865 143.034 36.7354C143.094 36.6758 143.157 36.646 143.226 36.646C143.328 36.646 143.439 36.697 143.558 36.7992C143.677 36.8929 143.839 36.9909 144.043 37.093C144.248 37.1952 144.541 37.2463 144.925 37.2463C145.376 37.2463 145.691 37.1654 145.87 37.0036C146.049 36.8333 146.138 36.646 146.138 36.4416C146.138 36.1776 146.061 35.9774 145.908 35.8412C145.755 35.6964 145.559 35.5857 145.321 35.5091C145.082 35.4239 144.831 35.343 144.567 35.2664C144.303 35.1897 144.052 35.096 143.813 34.9853C143.575 34.8661 143.379 34.7043 143.226 34.4999C143.081 34.287 143.008 34.006 143.008 33.6568C143.008 33.3758 143.077 33.099 143.213 32.8265C143.349 32.554 143.571 32.3283 143.877 32.1495C144.184 31.9621 144.592 31.8685 145.103 31.8685C145.401 31.8685 145.687 31.9025 145.959 31.9706C146.24 32.0303 146.466 32.1154 146.636 32.2261C146.815 32.3283 146.905 32.439 146.905 32.5583C146.905 32.6094 146.888 32.6775 146.853 32.7626C146.819 32.8478 146.773 32.9244 146.713 32.9926C146.653 33.0607 146.577 33.0948 146.483 33.0948C146.415 33.0948 146.317 33.065 146.189 33.0053C146.07 32.9372 145.921 32.8733 145.742 32.8137C145.572 32.7541 145.363 32.7243 145.116 32.7243C144.835 32.7243 144.609 32.7754 144.439 32.8776C144.269 32.9713 144.145 33.0862 144.069 33.2225C143.992 33.3502 143.954 33.4822 143.954 33.6185C143.954 33.8314 144.026 33.9975 144.171 34.1167C144.324 34.2359 144.52 34.3338 144.759 34.4105C145.005 34.4786 145.261 34.551 145.525 34.6277C145.789 34.6958 146.04 34.798 146.279 34.9342C146.517 35.062 146.713 35.2408 146.866 35.4707C147.02 35.7007 147.096 36.0072 147.096 36.3905C147.096 36.9099 146.909 37.3272 146.534 37.6423C146.159 37.9489 145.631 38.1022 144.95 38.1022ZM152.138 38.1022C151.662 38.1022 151.253 37.9659 150.912 37.6934C150.58 37.4124 150.414 36.9823 150.414 36.4032C150.414 35.9349 150.542 35.5729 150.797 35.3175C151.053 35.0535 151.402 34.8746 151.845 34.7809C152.296 34.6787 152.815 34.6277 153.403 34.6277H154.016V34.3594C154.016 34.1039 153.969 33.857 153.876 33.6185C153.782 33.3715 153.633 33.1714 153.429 33.0181C153.233 32.8563 152.96 32.7754 152.611 32.7754C152.313 32.7754 152.075 32.8052 151.896 32.8648C151.725 32.9244 151.589 32.9883 151.487 33.0564C151.385 33.1161 151.295 33.1459 151.219 33.1459C151.091 33.1459 150.993 33.0862 150.925 32.967C150.857 32.8393 150.823 32.7201 150.823 32.6094C150.823 32.4731 150.916 32.3496 151.104 32.2389C151.291 32.1282 151.525 32.0388 151.806 31.9706C152.087 31.9025 152.364 31.8685 152.637 31.8685C153.233 31.8685 153.71 31.9877 154.067 32.2261C154.425 32.4646 154.68 32.7712 154.834 33.1459C154.996 33.5206 155.076 33.9208 155.076 34.3466V37.6168C155.076 37.719 155.025 37.8084 154.923 37.885C154.829 37.9617 154.706 38 154.553 38C154.416 38 154.301 37.9617 154.208 37.885C154.114 37.8084 154.067 37.719 154.067 37.6168V37.1058C153.846 37.3613 153.578 37.5912 153.263 37.7956C152.947 38 152.573 38.1022 152.138 38.1022ZM152.471 37.2463C152.718 37.2463 152.956 37.1782 153.186 37.0419C153.424 36.9057 153.62 36.7354 153.773 36.531C153.935 36.3266 154.016 36.1307 154.016 35.9434V35.2791H153.569C153.211 35.2791 152.871 35.3004 152.547 35.343C152.232 35.3856 151.977 35.4793 151.781 35.624C151.585 35.7603 151.487 35.9817 151.487 36.2883C151.487 36.6204 151.581 36.8631 151.768 37.0164C151.955 37.1697 152.19 37.2463 152.471 37.2463ZM157.034 38C156.889 38 156.766 37.9617 156.664 37.885C156.57 37.7999 156.523 37.7105 156.523 37.6168V32.3155C156.523 32.2048 156.57 32.1154 156.664 32.0473C156.766 31.9792 156.889 31.9451 157.034 31.9451C157.179 31.9451 157.298 31.9792 157.392 32.0473C157.486 32.1154 157.532 32.2048 157.532 32.3155V32.9159C157.626 32.7371 157.754 32.571 157.916 32.4177C158.077 32.2559 158.265 32.1239 158.478 32.0217C158.699 31.9196 158.942 31.8685 159.206 31.8685H159.64C159.751 31.8685 159.845 31.9153 159.921 32.009C160.006 32.1026 160.049 32.2176 160.049 32.3539C160.049 32.4816 160.006 32.5923 159.921 32.686C159.845 32.7797 159.751 32.8265 159.64 32.8265H159.206C158.933 32.8265 158.674 32.9032 158.427 33.0564C158.18 33.2097 157.975 33.4269 157.813 33.7079C157.66 33.9804 157.584 34.3126 157.584 34.7043V37.6168C157.584 37.7105 157.528 37.7999 157.417 37.885C157.315 37.9617 157.188 38 157.034 38ZM162.984 38C162.295 38 161.767 37.8467 161.4 37.5401C161.043 37.2336 160.864 36.7439 160.864 36.0711V29.4925C160.864 29.3818 160.919 29.2924 161.03 29.2242C161.141 29.1561 161.26 29.122 161.388 29.122C161.524 29.122 161.647 29.1561 161.758 29.2242C161.869 29.2924 161.924 29.3818 161.924 29.4925V31.9451H163.534C163.636 31.9451 163.712 31.9877 163.764 32.0728C163.823 32.158 163.853 32.2559 163.853 32.3666C163.853 32.4774 163.823 32.5753 163.764 32.6604C163.712 32.7371 163.636 32.7754 163.534 32.7754H161.924V36.0711C161.924 36.4373 162.001 36.697 162.154 36.8503C162.316 36.9951 162.593 37.0675 162.984 37.0675H163.38C163.534 37.0675 163.649 37.1143 163.725 37.208C163.802 37.3017 163.84 37.4081 163.84 37.5274C163.84 37.6466 163.802 37.7573 163.725 37.8595C163.649 37.9532 163.534 38 163.38 38H162.984ZM167.338 38.1022C166.784 38.1022 166.295 38 165.869 37.7956C165.443 37.5827 165.107 37.2932 164.86 36.927C164.613 36.5523 164.489 36.118 164.489 35.624V34.2828C164.489 33.8484 164.604 33.4482 164.834 33.082C165.073 32.7158 165.383 32.422 165.767 32.2006C166.15 31.9792 166.571 31.8685 167.031 31.8685C167.474 31.8685 167.879 31.9706 168.245 32.175C168.619 32.3794 168.918 32.6562 169.139 33.0053C169.369 33.3545 169.484 33.759 169.484 34.2189C169.484 34.5595 169.429 34.8065 169.318 34.9598C169.207 35.1045 169.067 35.194 168.896 35.228C168.726 35.2621 168.547 35.2791 168.36 35.2791H165.549V35.6623C165.549 36.1392 165.72 36.5182 166.06 36.7992C166.401 37.0718 166.84 37.208 167.376 37.208C167.691 37.208 167.942 37.1654 168.13 37.0803C168.317 36.9951 168.47 36.9142 168.59 36.8376C168.709 36.7524 168.815 36.7098 168.909 36.7098C169.003 36.7098 169.079 36.7396 169.139 36.7992C169.207 36.8503 169.258 36.9142 169.292 36.9909C169.326 37.0675 169.343 37.1356 169.343 37.1952C169.343 37.3059 169.262 37.4337 169.101 37.5785C168.939 37.7147 168.705 37.8382 168.398 37.9489C168.1 38.0511 167.747 38.1022 167.338 38.1022ZM165.549 34.5638H167.913C168.143 34.5638 168.292 34.5382 168.36 34.4871C168.436 34.4275 168.475 34.3168 168.475 34.155C168.475 33.8995 168.411 33.6653 168.283 33.4524C168.164 33.231 167.994 33.0522 167.772 32.9159C167.551 32.7797 167.3 32.7115 167.018 32.7115C166.754 32.7115 166.512 32.7754 166.29 32.9032C166.069 33.0224 165.89 33.1884 165.754 33.4013C165.618 33.6142 165.549 33.8484 165.549 34.1039V34.5638ZM173.099 40.9253C172.963 40.9253 172.848 40.8912 172.755 40.8231C172.661 40.7635 172.614 40.64 172.614 40.4526C172.614 40.3334 172.635 40.2269 172.678 40.1333C172.729 40.0396 172.81 39.9928 172.921 39.9928C173.108 39.9928 173.295 39.9374 173.483 39.8267C173.67 39.7245 173.849 39.5669 174.019 39.354C174.198 39.1497 174.351 38.907 174.479 38.6259C174.607 38.3449 174.7 38.0341 174.76 37.6934L172.64 32.5199C172.614 32.4688 172.601 32.422 172.601 32.3794C172.601 32.2857 172.64 32.2006 172.716 32.1239C172.793 32.0473 172.882 31.9877 172.984 31.9451C173.095 31.894 173.197 31.8685 173.291 31.8685C173.359 31.8685 173.427 31.8855 173.495 31.9196C173.564 31.9536 173.606 32.009 173.623 32.0856L175.322 36.531L176.842 32.0856C176.868 32.009 176.91 31.9536 176.97 31.9196C177.038 31.8855 177.106 31.8685 177.174 31.8685C177.26 31.8685 177.353 31.894 177.455 31.9451C177.566 31.9877 177.66 32.0473 177.736 32.1239C177.813 32.2006 177.851 32.29 177.851 32.3922C177.851 32.4433 177.843 32.4859 177.826 32.5199L175.871 37.719C175.744 38.0681 175.607 38.4301 175.463 38.8048C175.318 39.1795 175.143 39.5244 174.939 39.8395C174.743 40.1631 174.496 40.4228 174.198 40.6187C173.9 40.8231 173.534 40.9253 173.099 40.9253ZM181.847 40.9253C181.702 40.9253 181.578 40.8827 181.476 40.7975C181.383 40.7209 181.336 40.6357 181.336 40.542V32.3155C181.336 32.2048 181.383 32.1154 181.476 32.0473C181.578 31.9792 181.702 31.9451 181.847 31.9451C181.991 31.9451 182.111 31.9792 182.204 32.0473C182.298 32.1154 182.345 32.2048 182.345 32.3155V32.8393C182.49 32.5923 182.707 32.3709 182.996 32.175C183.286 31.9706 183.639 31.8685 184.057 31.8685C184.482 31.8685 184.87 31.9834 185.219 32.2134C185.568 32.4348 185.845 32.7286 186.049 33.0948C186.254 33.461 186.356 33.8697 186.356 34.3211V35.624C186.356 36.0498 186.249 36.4543 186.037 36.8376C185.832 37.2123 185.56 37.5188 185.219 37.7573C184.878 37.9872 184.504 38.1022 184.095 38.1022C183.712 38.1022 183.367 38.0043 183.06 37.8084C182.754 37.604 182.532 37.3698 182.396 37.1058V40.542C182.396 40.6357 182.341 40.7209 182.23 40.7975C182.128 40.8827 182 40.9253 181.847 40.9253ZM183.839 37.1441C184.095 37.1441 184.333 37.0718 184.555 36.927C184.776 36.7822 184.955 36.5906 185.091 36.3521C185.228 36.1137 185.296 35.871 185.296 35.624V34.3211C185.296 34.0741 185.228 33.8357 185.091 33.6057C184.955 33.3758 184.776 33.1884 184.555 33.0437C184.333 32.8989 184.086 32.8265 183.814 32.8265C183.584 32.8265 183.358 32.8904 183.137 33.0181C182.924 33.1373 182.745 33.3077 182.6 33.5291C182.464 33.742 182.396 34.006 182.396 34.3211V35.9689C182.396 36.0796 182.456 36.2287 182.575 36.416C182.703 36.6034 182.873 36.7737 183.086 36.927C183.307 37.0718 183.558 37.1441 183.839 37.1441ZM188.964 38.1022C188.487 38.1022 188.078 37.9659 187.737 37.6934C187.405 37.4124 187.239 36.9823 187.239 36.4032C187.239 35.9349 187.367 35.5729 187.622 35.3175C187.878 35.0535 188.227 34.8746 188.67 34.7809C189.121 34.6787 189.641 34.6277 190.228 34.6277H190.841V34.3594C190.841 34.1039 190.795 33.857 190.701 33.6185C190.607 33.3715 190.458 33.1714 190.254 33.0181C190.058 32.8563 189.785 32.7754 189.436 32.7754C189.138 32.7754 188.9 32.8052 188.721 32.8648C188.551 32.9244 188.414 32.9883 188.312 33.0564C188.21 33.1161 188.121 33.1459 188.044 33.1459C187.916 33.1459 187.818 33.0862 187.75 32.967C187.682 32.8393 187.648 32.7201 187.648 32.6094C187.648 32.4731 187.742 32.3496 187.929 32.2389C188.116 32.1282 188.35 32.0388 188.631 31.9706C188.912 31.9025 189.189 31.8685 189.462 31.8685C190.058 31.8685 190.535 31.9877 190.892 32.2261C191.25 32.4646 191.506 32.7712 191.659 33.1459C191.821 33.5206 191.902 33.9208 191.902 34.3466V37.6168C191.902 37.719 191.851 37.8084 191.748 37.885C191.655 37.9617 191.531 38 191.378 38C191.242 38 191.127 37.9617 191.033 37.885C190.939 37.8084 190.892 37.719 190.892 37.6168V37.1058C190.671 37.3613 190.403 37.5912 190.088 37.7956C189.773 38 189.398 38.1022 188.964 38.1022ZM189.296 37.2463C189.543 37.2463 189.781 37.1782 190.011 37.0419C190.25 36.9057 190.445 36.7354 190.599 36.531C190.76 36.3266 190.841 36.1307 190.841 35.9434V35.2791H190.394C190.037 35.2791 189.696 35.3004 189.372 35.343C189.057 35.3856 188.802 35.4793 188.606 35.624C188.41 35.7603 188.312 35.9817 188.312 36.2883C188.312 36.6204 188.406 36.8631 188.593 37.0164C188.78 37.1697 189.015 37.2463 189.296 37.2463ZM193.859 38C193.715 38 193.591 37.9617 193.489 37.885C193.395 37.7999 193.348 37.7105 193.348 37.6168V32.3155C193.348 32.2048 193.395 32.1154 193.489 32.0473C193.591 31.9792 193.715 31.9451 193.859 31.9451C194.004 31.9451 194.123 31.9792 194.217 32.0473C194.311 32.1154 194.358 32.2048 194.358 32.3155V32.9159C194.451 32.7371 194.579 32.571 194.741 32.4177C194.903 32.2559 195.09 32.1239 195.303 32.0217C195.524 31.9196 195.767 31.8685 196.031 31.8685H196.465C196.576 31.8685 196.67 31.9153 196.746 32.009C196.832 32.1026 196.874 32.2176 196.874 32.3539C196.874 32.4816 196.832 32.5923 196.746 32.686C196.67 32.7797 196.576 32.8265 196.465 32.8265H196.031C195.759 32.8265 195.499 32.9032 195.252 33.0564C195.005 33.2097 194.8 33.4269 194.639 33.7079C194.485 33.9804 194.409 34.3126 194.409 34.7043V37.6168C194.409 37.7105 194.353 37.7999 194.243 37.885C194.14 37.9617 194.013 38 193.859 38ZM199.81 38C199.12 38 198.592 37.8467 198.226 37.5401C197.868 37.2336 197.689 36.7439 197.689 36.0711V29.4925C197.689 29.3818 197.744 29.2924 197.855 29.2242C197.966 29.1561 198.085 29.122 198.213 29.122C198.349 29.122 198.473 29.1561 198.583 29.2242C198.694 29.2924 198.749 29.3818 198.749 29.4925V31.9451H200.359C200.461 31.9451 200.538 31.9877 200.589 32.0728C200.648 32.158 200.678 32.2559 200.678 32.3666C200.678 32.4774 200.648 32.5753 200.589 32.6604C200.538 32.7371 200.461 32.7754 200.359 32.7754H198.749V36.0711C198.749 36.4373 198.826 36.697 198.979 36.8503C199.141 36.9951 199.418 37.0675 199.81 37.0675H200.206C200.359 37.0675 200.474 37.1143 200.55 37.208C200.627 37.3017 200.665 37.4081 200.665 37.5274C200.665 37.6466 200.627 37.7573 200.55 37.8595C200.474 37.9532 200.359 38 200.206 38H199.81ZM204.163 38.1022C203.609 38.1022 203.12 38 202.694 37.7956C202.268 37.5827 201.932 37.2932 201.685 36.927C201.438 36.5523 201.314 36.118 201.314 35.624V34.2828C201.314 33.8484 201.429 33.4482 201.659 33.082C201.898 32.7158 202.209 32.422 202.592 32.2006C202.975 31.9792 203.397 31.8685 203.856 31.8685C204.299 31.8685 204.704 31.9706 205.07 32.175C205.445 32.3794 205.743 32.6562 205.964 33.0053C206.194 33.3545 206.309 33.759 206.309 34.2189C206.309 34.5595 206.254 34.8065 206.143 34.9598C206.032 35.1045 205.892 35.194 205.721 35.228C205.551 35.2621 205.372 35.2791 205.185 35.2791H202.375V35.6623C202.375 36.1392 202.545 36.5182 202.886 36.7992C203.226 37.0718 203.665 37.208 204.201 37.208C204.516 37.208 204.768 37.1654 204.955 37.0803C205.142 36.9951 205.296 36.9142 205.415 36.8376C205.534 36.7524 205.641 36.7098 205.734 36.7098C205.828 36.7098 205.905 36.7396 205.964 36.7992C206.032 36.8503 206.083 36.9142 206.117 36.9909C206.152 37.0675 206.169 37.1356 206.169 37.1952C206.169 37.3059 206.088 37.4337 205.926 37.5785C205.764 37.7147 205.53 37.8382 205.223 37.9489C204.925 38.0511 204.572 38.1022 204.163 38.1022ZM202.375 34.5638H204.738C204.968 34.5638 205.117 34.5382 205.185 34.4871C205.262 34.4275 205.3 34.3168 205.3 34.155C205.3 33.8995 205.236 33.6653 205.108 33.4524C204.989 33.231 204.819 33.0522 204.597 32.9159C204.376 32.7797 204.125 32.7115 203.844 32.7115C203.58 32.7115 203.337 32.7754 203.116 32.9032C202.894 33.0224 202.715 33.1884 202.579 33.4013C202.443 33.6142 202.375 33.8484 202.375 34.1039V34.5638Z" fill="white"/>
<path d="M74.9496 7.60319H81.9768V9.94559H77.5263V14.279H81.0633V16.6214H77.5263V21.6576H81.9768V24H74.9496V7.60319ZM83.4591 7.60319H86.0358V21.6576H90.2755V24H83.4591V7.60319ZM98.8934 24.2342C97.6597 24.2342 96.7149 23.8829 96.0591 23.1802C95.4188 22.4774 95.0987 21.4858 95.0987 20.2053V11.3979C95.0987 10.1174 95.4188 9.12575 96.0591 8.42303C96.7149 7.72031 97.6597 7.36895 98.8934 7.36895C100.127 7.36895 101.064 7.72031 101.704 8.42303C102.36 9.12575 102.688 10.1174 102.688 11.3979V13.1313H100.252V11.2339C100.252 10.2189 99.8225 9.71135 98.9637 9.71135C98.1048 9.71135 97.6753 10.2189 97.6753 11.2339V20.3927C97.6753 21.3921 98.1048 21.8918 98.9637 21.8918C99.8225 21.8918 100.252 21.3921 100.252 20.3927V17.8863H102.688V20.2053C102.688 21.4858 102.36 22.4774 101.704 23.1802C101.064 23.8829 100.127 24.2342 98.8934 24.2342ZM107.978 24.2342C106.728 24.2342 105.776 23.8829 105.12 23.1802C104.464 22.4618 104.136 21.439 104.136 20.1116V7.60319H106.713V20.299C106.713 20.8612 106.822 21.2672 107.041 21.5171C107.275 21.7669 107.603 21.8918 108.024 21.8918C108.446 21.8918 108.766 21.7669 108.985 21.5171C109.219 21.2672 109.336 20.8612 109.336 20.299V7.60319H111.819V20.1116C111.819 21.439 111.491 22.4618 110.835 23.1802C110.179 23.8829 109.227 24.2342 107.978 24.2342ZM113.654 7.60319H117.543C118.87 7.60319 119.838 7.91551 120.447 8.54015C121.056 9.14917 121.361 10.0939 121.361 11.3745V12.0303C121.361 12.8736 121.22 13.5607 120.939 14.0916C120.674 14.6226 120.26 15.0052 119.698 15.2394V15.2863C120.978 15.7235 121.618 16.8635 121.618 18.7062V20.1116C121.618 21.3765 121.283 22.3447 120.611 23.0162C119.955 23.6721 118.987 24 117.707 24H113.654V7.60319ZM117.238 14.279C117.753 14.279 118.136 14.1463 118.386 13.8808C118.651 13.6154 118.784 13.1703 118.784 12.5457V11.6321C118.784 11.0387 118.675 10.6093 118.456 10.3438C118.253 10.0783 117.925 9.94559 117.472 9.94559H116.231V14.279H117.238ZM117.707 21.6576C118.159 21.6576 118.495 21.5405 118.714 21.3062C118.932 21.0564 119.042 20.6347 119.042 20.0413V18.6125C119.042 17.8629 118.909 17.3476 118.643 17.0665C118.394 16.7698 117.972 16.6214 117.379 16.6214H116.231V21.6576H117.707ZM126.849 24.2342C125.584 24.2342 124.616 23.8751 123.944 23.1567C123.273 22.4384 122.937 21.4234 122.937 20.1116V11.4916C122.937 10.1798 123.273 9.16479 123.944 8.44645C124.616 7.72812 125.584 7.36895 126.849 7.36895C128.114 7.36895 129.082 7.72812 129.753 8.44645C130.425 9.16479 130.761 10.1798 130.761 11.4916V20.1116C130.761 21.4234 130.425 22.4384 129.753 23.1567C129.082 23.8751 128.114 24.2342 126.849 24.2342ZM126.849 21.8918C127.739 21.8918 128.184 21.3531 128.184 20.2756V11.3276C128.184 10.2501 127.739 9.71135 126.849 9.71135C125.959 9.71135 125.514 10.2501 125.514 11.3276V20.2756C125.514 21.3531 125.959 21.8918 126.849 21.8918ZM133.209 24H132.366V21.5171H134.849V23.7423L133.561 26.8109H132.366L133.209 24Z" fill="#56BEC9"/>
<path d="M144.106 24.2342C142.856 24.2342 141.904 23.8829 141.248 23.1802C140.592 22.4618 140.264 21.439 140.264 20.1116V7.60319H142.841V20.299C142.841 20.8612 142.95 21.2672 143.169 21.5171C143.403 21.7669 143.731 21.8918 144.153 21.8918C144.574 21.8918 144.894 21.7669 145.113 21.5171C145.347 21.2672 145.464 20.8612 145.464 20.299V7.60319H147.947V20.1116C147.947 21.439 147.619 22.4618 146.963 23.1802C146.308 23.8829 145.355 24.2342 144.106 24.2342ZM149.782 7.60319H153.015L155.521 17.4179H155.568V7.60319H157.864V24H155.217L152.125 12.0303H152.078V24H149.782V7.60319ZM161.77 7.60319H165.26L167.93 24H165.354L164.885 20.7441V20.7909H161.957L161.489 24H159.099L161.77 7.60319ZM164.581 18.5656L163.433 10.4609H163.386L162.262 18.5656H164.581ZM172.932 7.60319H179.959V9.94559H175.509V14.279H179.046V16.6214H175.509V21.6576H179.959V24H172.932V7.60319ZM183.759 15.6142L180.925 7.60319H183.642L185.376 12.897H185.422L187.203 7.60319H189.639L186.804 15.6142L189.779 24H187.062L185.188 18.2845H185.141L183.22 24H180.784L183.759 15.6142ZM191.003 7.60319H194.798C196.078 7.60319 197.039 7.94674 197.679 8.63385C198.319 9.32095 198.639 10.3282 198.639 11.6555V13.2718C198.639 14.5992 198.319 15.6064 197.679 16.2935C197.039 16.9806 196.078 17.3242 194.798 17.3242H193.58V24H191.003V7.60319ZM194.798 14.9818C195.219 14.9818 195.532 14.8646 195.735 14.6304C195.953 14.3962 196.063 13.9979 196.063 13.4358V11.4916C196.063 10.9294 195.953 10.5312 195.735 10.297C195.532 10.0627 195.219 9.94559 194.798 9.94559H193.58V14.9818H194.798ZM200.039 7.60319H207.066V9.94559H202.615V14.279H206.152V16.6214H202.615V21.6576H207.066V24H200.039V7.60319ZM208.548 7.60319H212.366C213.694 7.60319 214.662 7.91551 215.271 8.54015C215.88 9.14917 216.184 10.0939 216.184 11.3745V12.3817C216.184 14.0838 215.622 15.1613 214.498 15.6142V15.6611C215.123 15.8484 215.56 16.231 215.81 16.8088C216.075 17.3866 216.208 18.1596 216.208 19.1278V22.009C216.208 22.4774 216.224 22.86 216.255 23.1567C216.286 23.4378 216.364 23.7189 216.489 24H213.866C213.772 23.7345 213.709 23.4847 213.678 23.2504C213.647 23.0162 213.631 22.5946 213.631 21.9855V18.9873C213.631 18.2377 213.506 17.7146 213.256 17.4179C213.022 17.1211 212.608 16.9728 212.015 16.9728H211.125V24H208.548V7.60319ZM212.062 14.6304C212.577 14.6304 212.96 14.4977 213.21 14.2322C213.475 13.9667 213.608 13.5217 213.608 12.897V11.6321C213.608 11.0387 213.499 10.6093 213.28 10.3438C213.077 10.0783 212.749 9.94559 212.296 9.94559H211.125V14.6304H212.062ZM217.996 7.60319H220.572V24H217.996V7.60319ZM222.502 7.60319H229.529V9.94559H225.079V14.279H228.616V16.6214H225.079V21.6576H229.529V24H222.502V7.60319ZM231.012 7.60319H234.244L236.75 17.4179H236.797V7.60319H239.093V24H236.446L233.354 12.0303H233.307V24H231.012V7.60319ZM244.639 24.2342C243.405 24.2342 242.46 23.8829 241.804 23.1802C241.164 22.4774 240.844 21.4858 240.844 20.2053V11.3979C240.844 10.1174 241.164 9.12575 241.804 8.42303C242.46 7.72031 243.405 7.36895 244.639 7.36895C245.872 7.36895 246.809 7.72031 247.45 8.42303C248.105 9.12575 248.433 10.1174 248.433 11.3979V13.1313H245.997V11.2339C245.997 10.2189 245.568 9.71135 244.709 9.71135C243.85 9.71135 243.421 10.2189 243.421 11.2339V20.3927C243.421 21.3921 243.85 21.8918 244.709 21.8918C245.568 21.8918 245.997 21.3921 245.997 20.3927V17.8863H248.433V20.2053C248.433 21.4858 248.105 22.4774 247.45 23.1802C246.809 23.8829 245.872 24.2342 244.639 24.2342ZM249.975 7.60319H252.552V24H249.975V7.60319ZM256.472 7.60319H259.963L262.633 24H260.056L259.588 20.7441V20.7909H256.66L256.191 24H253.802L256.472 7.60319ZM259.283 18.5656L258.135 10.4609H258.089L256.964 18.5656H259.283ZM267.634 7.60319H271.57C272.85 7.60319 273.811 7.94674 274.451 8.63385C275.091 9.32095 275.411 10.3282 275.411 11.6555V19.9476C275.411 21.275 275.091 22.2822 274.451 22.9693C273.811 23.6564 272.85 24 271.57 24H267.634V7.60319ZM271.523 21.6576C271.944 21.6576 272.265 21.5327 272.483 21.2828C272.717 21.033 272.835 20.6269 272.835 20.0648V11.5384C272.835 10.9762 272.717 10.5702 272.483 10.3204C272.265 10.0705 271.944 9.94559 271.523 9.94559H270.211V21.6576H271.523ZM277.15 7.60319H279.727V24H277.15V7.60319ZM285.311 24.2342C284.062 24.2342 283.109 23.8829 282.453 23.1802C281.797 22.4618 281.469 21.439 281.469 20.1116V11.4916C281.469 10.1642 281.797 9.14917 282.453 8.44645C283.109 7.72812 284.062 7.36895 285.311 7.36895C286.56 7.36895 287.513 7.72812 288.169 8.44645C288.825 9.14917 289.152 10.1642 289.152 11.4916V12.897H286.716V11.3276C286.716 10.2501 286.271 9.71135 285.381 9.71135C284.491 9.71135 284.046 10.2501 284.046 11.3276V20.299C284.046 21.3609 284.491 21.8918 285.381 21.8918C286.271 21.8918 286.716 21.3609 286.716 20.299V17.0899H285.428V14.7475H289.152V20.1116C289.152 21.439 288.825 22.4618 288.169 23.1802C287.513 23.8829 286.56 24.2342 285.311 24.2342ZM290.807 7.60319H293.383V24H290.807V7.60319ZM297.328 9.94559H294.634V7.60319H302.598V9.94559H299.904V24H297.328V9.94559ZM304.761 7.60319H308.252L310.922 24H308.345L307.877 20.7441V20.7909H304.949L304.48 24H302.091L304.761 7.60319ZM307.572 18.5656L306.425 10.4609H306.378L305.253 18.5656H307.572ZM312.172 7.60319H314.749V21.6576H318.988V24H312.172V7.60319Z" fill="white"/>
<circle cx="282.555" cy="34.4874" r="1.48724" transform="rotate(180 282.555 34.4874)" fill="#C4C4C4"/>
<line x1="213.397" y1="34.4876" x2="282.554" y2="34.4876" stroke="#C4C4C4" stroke-width="0.743619"/>
</svg>
