<svg width="278" height="37" viewBox="0 0 278 37" fill="none" xmlns="http://www.w3.org/2000/svg">
<path d="M3.68764 14.2807C3.15964 14.2807 2.70829 14.1828 2.33359 13.9869C1.9674 13.7826 1.69063 13.5143 1.50328 13.1822C1.31592 12.8415 1.22225 12.4626 1.22225 12.0453C1.22225 11.6621 1.28612 11.3257 1.41386 11.0361C1.5416 10.7466 1.69489 10.4911 1.87372 10.2697C2.06108 10.0483 2.24417 9.85667 2.42301 9.69486C2.61036 9.53306 2.75939 9.38829 2.8701 9.26055C3.0319 9.09874 3.14687 8.93268 3.215 8.76236C3.28313 8.58352 3.32571 8.38339 3.34274 8.16198C3.35977 7.94056 3.36829 7.68082 3.36829 7.38276C3.36829 7.28908 3.39809 7.21244 3.4577 7.15283C3.52583 7.0847 3.63654 7.05064 3.78983 7.05064C3.92609 7.05064 4.02828 7.0847 4.09641 7.15283C4.17305 7.22096 4.21137 7.34444 4.21137 7.52328C4.21137 7.97462 4.18157 8.34081 4.12195 8.62184C4.06234 8.89436 3.9857 9.11151 3.89202 9.27332C3.80686 9.43512 3.70893 9.57138 3.59822 9.68209C3.47048 9.81835 3.32145 9.95886 3.15113 10.1036C2.98932 10.2399 2.82752 10.3974 2.66571 10.5763C2.51242 10.7466 2.38468 10.9425 2.28249 11.1639C2.1803 11.3853 2.1292 11.645 2.1292 11.9431C2.1292 12.4115 2.26972 12.7777 2.55075 13.0417C2.83178 13.2971 3.22777 13.4249 3.73873 13.4249C4.02828 13.4249 4.25821 13.3908 4.42853 13.3227C4.59885 13.2546 4.73085 13.1737 4.82453 13.08C4.92672 12.9863 5.01614 12.9054 5.09278 12.8373C5.16943 12.7692 5.25459 12.7351 5.34826 12.7351C5.44194 12.7351 5.53562 12.7692 5.62929 12.8373C5.72297 12.9054 5.76981 13.0119 5.76981 13.1566C5.76981 13.3099 5.68039 13.476 5.50155 13.6548C5.33123 13.8251 5.08852 13.9742 4.77343 14.1019C4.46685 14.2211 4.10492 14.2807 3.68764 14.2807ZM3.78983 6.07981C3.61099 6.07981 3.45345 6.01594 3.31719 5.8882C3.18945 5.75194 3.12558 5.59014 3.12558 5.40278C3.12558 5.22395 3.18945 5.07066 3.31719 4.94292C3.44493 4.80666 3.60248 4.73853 3.78983 4.73853C3.97718 4.73853 4.13473 4.80666 4.26247 4.94292C4.39021 5.07066 4.45408 5.22395 4.45408 5.40278C4.45408 5.59014 4.39021 5.75194 4.26247 5.8882C4.13473 6.01594 3.97718 6.07981 3.78983 6.07981ZM7.45768 14.2041C7.3129 14.2041 7.19368 14.17 7.1 14.1019C7.01484 14.0253 6.97226 13.9358 6.97226 13.8337V5.23672C6.97226 5.13453 7.01484 5.04937 7.1 4.98124C7.19368 4.9046 7.3129 4.86627 7.45768 4.86627H9.71868C10.2382 4.86627 10.7065 4.95995 11.1238 5.1473C11.5411 5.32614 11.869 5.61994 12.1074 6.02871C12.3544 6.42896 12.4779 6.96973 12.4779 7.65102V11.4194C12.4779 12.1006 12.3544 12.6457 12.1074 13.0544C11.869 13.4547 11.5411 13.7485 11.1238 13.9358C10.7065 14.1147 10.2382 14.2041 9.71868 14.2041H7.45768ZM8.04528 13.2333H9.71868C10.2467 13.2333 10.6597 13.0885 10.9578 12.799C11.2558 12.5009 11.4049 12.041 11.4049 11.4194V7.65102C11.4049 7.02934 11.2558 6.57374 10.9578 6.28419C10.6597 5.98613 10.2467 5.8371 9.71868 5.8371H8.04528V13.2333ZM16.673 14.3063C16.1194 14.3063 15.6297 14.2041 15.2039 13.9997C14.7781 13.7868 14.4418 13.4973 14.1948 13.1311C13.9478 12.7564 13.8243 12.3221 13.8243 11.8281V10.4869C13.8243 10.0525 13.9393 9.65228 14.1692 9.28609C14.4077 8.9199 14.7185 8.6261 15.1017 8.40468C15.485 8.18327 15.9065 8.07256 16.3664 8.07256C16.8092 8.07256 17.2137 8.17475 17.5799 8.37914C17.9546 8.58352 18.2527 8.86029 18.4741 9.20945C18.704 9.55861 18.819 9.96312 18.819 10.423C18.819 10.7636 18.7636 11.0106 18.6529 11.1639C18.5422 11.3087 18.4017 11.3981 18.2314 11.4321C18.0611 11.4662 17.8822 11.4832 17.6949 11.4832H14.8846V11.8665C14.8846 12.3433 15.0549 12.7223 15.3955 13.0033C15.7362 13.2759 16.1748 13.4121 16.7113 13.4121C17.0264 13.4121 17.2776 13.3695 17.4649 13.2844C17.6523 13.1992 17.8056 13.1183 17.9248 13.0417C18.044 12.9565 18.1505 12.9139 18.2442 12.9139C18.3378 12.9139 18.4145 12.9437 18.4741 13.0033C18.5422 13.0544 18.5933 13.1183 18.6274 13.195C18.6614 13.2716 18.6785 13.3397 18.6785 13.3993C18.6785 13.51 18.5976 13.6378 18.4358 13.7826C18.274 13.9188 18.0398 14.0423 17.7332 14.153C17.4351 14.2552 17.0817 14.3063 16.673 14.3063ZM14.8846 10.7679H17.2478C17.4777 10.7679 17.6267 10.7423 17.6949 10.6912C17.7715 10.6316 17.8098 10.5209 17.8098 10.3591C17.8098 10.1036 17.746 9.86944 17.6182 9.65654C17.499 9.43512 17.3287 9.25629 17.1073 9.12003C16.8859 8.98377 16.6346 8.91565 16.3536 8.91565C16.0896 8.91565 15.8469 8.97952 15.6255 9.10726C15.4041 9.22648 15.2252 9.39254 15.089 9.60544C14.9527 9.81835 14.8846 10.0525 14.8846 10.308V10.7679ZM26.8288 17.1294C26.6755 17.1294 26.5435 17.0868 26.4328 17.0016C26.3306 16.925 26.2795 16.8398 26.2795 16.7461V13.3099C26.1518 13.5739 25.9304 13.8081 25.6153 14.0125C25.3087 14.2084 24.9638 14.3063 24.5806 14.3063C24.1803 14.3063 23.8056 14.1913 23.4565 13.9614C23.1158 13.7229 22.8391 13.4164 22.6262 13.0417C22.4218 12.6584 22.3196 12.2539 22.3196 11.8281V10.5252C22.3196 10.0738 22.4218 9.66506 22.6262 9.29887C22.8305 8.93268 23.1073 8.63887 23.4565 8.41746C23.8056 8.18753 24.1931 8.07256 24.6189 8.07256C25.0362 8.07256 25.3896 8.17475 25.6792 8.37914C25.9772 8.575 26.1944 8.79642 26.3306 9.04339V8.51965C26.3306 8.40894 26.3775 8.31952 26.4711 8.2514C26.5733 8.18327 26.6926 8.1492 26.8288 8.1492C26.9821 8.1492 27.1056 8.18327 27.1993 8.2514C27.2929 8.31952 27.3398 8.40894 27.3398 8.51965V16.7461C27.3398 16.8398 27.2929 16.925 27.1993 17.0016C27.1056 17.0868 26.9821 17.1294 26.8288 17.1294ZM24.8361 13.3482C25.1171 13.3482 25.3641 13.2759 25.577 13.1311C25.7984 12.9778 25.9687 12.8075 26.0879 12.6201C26.2157 12.4328 26.2795 12.2837 26.2795 12.173V10.5252C26.2795 10.2101 26.2114 9.94609 26.0752 9.73318C25.9389 9.51177 25.7601 9.34145 25.5386 9.22222C25.3172 9.09448 25.0916 9.03061 24.8616 9.03061C24.5891 9.03061 24.3421 9.103 24.1207 9.24777C23.8993 9.39254 23.7205 9.5799 23.5842 9.80983C23.448 10.0398 23.3798 10.2782 23.3798 10.5252V11.8281C23.3798 12.0751 23.448 12.3178 23.5842 12.5562C23.7205 12.7947 23.8993 12.9863 24.1207 13.1311C24.3421 13.2759 24.5806 13.3482 24.8361 13.3482ZM31.3399 14.3063C30.8715 14.3063 30.4457 14.1913 30.0625 13.9614C29.6792 13.7315 29.3727 13.4291 29.1427 13.0544C28.9128 12.6797 28.7978 12.2795 28.7978 11.8537V8.53242C28.7978 8.43875 28.8489 8.35359 28.9511 8.27694C29.0618 8.19178 29.1896 8.1492 29.3343 8.1492C29.4791 8.1492 29.6026 8.19178 29.7048 8.27694C29.807 8.35359 29.8581 8.43875 29.8581 8.53242V11.8537C29.8581 12.1006 29.9219 12.3391 30.0497 12.569C30.1859 12.799 30.3648 12.9863 30.5862 13.1311C30.8076 13.2759 31.0546 13.3482 31.3271 13.3482C31.5996 13.3482 31.8466 13.2759 32.068 13.1311C32.2894 12.9863 32.464 12.799 32.5917 12.569C32.7195 12.3391 32.7833 12.1006 32.7833 11.8537V8.51965C32.7833 8.41746 32.8387 8.3323 32.9494 8.26417C33.0601 8.18753 33.1836 8.1492 33.3198 8.1492C33.4816 8.1492 33.6094 8.18753 33.7031 8.26417C33.7967 8.3323 33.8436 8.41746 33.8436 8.51965V11.8537C33.8436 12.288 33.7286 12.6925 33.4987 13.0672C33.2773 13.4334 32.9749 13.7315 32.5917 13.9614C32.2085 14.1913 31.7912 14.3063 31.3399 14.3063ZM37.9173 14.3063C37.3638 14.3063 36.8741 14.2041 36.4483 13.9997C36.0225 13.7868 35.6861 13.4973 35.4391 13.1311C35.1922 12.7564 35.0687 12.3221 35.0687 11.8281V10.4869C35.0687 10.0525 35.1836 9.65228 35.4136 9.28609C35.652 8.9199 35.9629 8.6261 36.3461 8.40468C36.7293 8.18327 37.1509 8.07256 37.6107 8.07256C38.0535 8.07256 38.4581 8.17475 38.8243 8.37914C39.199 8.58352 39.497 8.86029 39.7184 9.20945C39.9484 9.55861 40.0633 9.96312 40.0633 10.423C40.0633 10.7636 40.008 11.0106 39.8973 11.1639C39.7866 11.3087 39.646 11.3981 39.4757 11.4321C39.3054 11.4662 39.1266 11.4832 38.9392 11.4832H36.1289V11.8665C36.1289 12.3433 36.2992 12.7223 36.6399 13.0033C36.9805 13.2759 37.4191 13.4121 37.9556 13.4121C38.2707 13.4121 38.5219 13.3695 38.7093 13.2844C38.8966 13.1992 39.0499 13.1183 39.1691 13.0417C39.2884 12.9565 39.3948 12.9139 39.4885 12.9139C39.5822 12.9139 39.6588 12.9437 39.7184 13.0033C39.7866 13.0544 39.8377 13.1183 39.8717 13.195C39.9058 13.2716 39.9228 13.3397 39.9228 13.3993C39.9228 13.51 39.8419 13.6378 39.6801 13.7826C39.5183 13.9188 39.2841 14.0423 38.9775 14.153C38.6795 14.2552 38.3261 14.3063 37.9173 14.3063ZM36.1289 10.7679H38.4921C38.7221 10.7679 38.8711 10.7423 38.9392 10.6912C39.0159 10.6316 39.0542 10.5209 39.0542 10.3591C39.0542 10.1036 38.9903 9.86944 38.8626 9.65654C38.7433 9.43512 38.573 9.25629 38.3516 9.12003C38.1302 8.98377 37.879 8.91565 37.5979 8.91565C37.3339 8.91565 37.0912 8.97952 36.8698 9.10726C36.6484 9.22648 36.4696 9.39254 36.3333 9.60544C36.1971 9.81835 36.1289 10.0525 36.1289 10.308V10.7679ZM37.0998 6.74406C36.9976 6.74406 36.9081 6.69722 36.8315 6.60354C36.7549 6.50987 36.7165 6.41193 36.7165 6.30974C36.7165 6.17348 36.7719 6.07981 36.8826 6.02871L38.3772 5.23672C38.4283 5.21969 38.4708 5.21117 38.5049 5.21117C38.6156 5.21117 38.7008 5.25801 38.7604 5.35169C38.8285 5.43685 38.8626 5.53478 38.8626 5.64549C38.8626 5.78175 38.803 5.88394 38.6837 5.95207L37.2403 6.69296C37.2147 6.70148 37.1892 6.71425 37.1636 6.73128C37.1466 6.7398 37.1253 6.74406 37.0998 6.74406ZM46.4125 14.3063C45.859 14.3063 45.3693 14.2041 44.9435 13.9997C44.5177 13.7868 44.1813 13.4973 43.9344 13.1311C43.6874 12.7564 43.5639 12.3221 43.5639 11.8281V10.4869C43.5639 10.0525 43.6789 9.65228 43.9088 9.28609C44.1473 8.9199 44.4581 8.6261 44.8413 8.40468C45.2245 8.18327 45.6461 8.07256 46.106 8.07256C46.5488 8.07256 46.9533 8.17475 47.3195 8.37914C47.6942 8.58352 47.9923 8.86029 48.2137 9.20945C48.4436 9.55861 48.5586 9.96312 48.5586 10.423C48.5586 10.7636 48.5032 11.0106 48.3925 11.1639C48.2818 11.3087 48.1413 11.3981 47.971 11.4321C47.8006 11.4662 47.6218 11.4832 47.4345 11.4832H44.6242V11.8665C44.6242 12.3433 44.7945 12.7223 45.1351 13.0033C45.4758 13.2759 45.9143 13.4121 46.4509 13.4121C46.7659 13.4121 47.0172 13.3695 47.2045 13.2844C47.3919 13.1992 47.5452 13.1183 47.6644 13.0417C47.7836 12.9565 47.8901 12.9139 47.9837 12.9139C48.0774 12.9139 48.1541 12.9437 48.2137 13.0033C48.2818 13.0544 48.3329 13.1183 48.367 13.195C48.401 13.2716 48.4181 13.3397 48.4181 13.3993C48.4181 13.51 48.3372 13.6378 48.1754 13.7826C48.0135 13.9188 47.7794 14.0423 47.4728 14.153C47.1747 14.2552 46.8213 14.3063 46.4125 14.3063ZM44.6242 10.7679H46.9874C47.2173 10.7679 47.3663 10.7423 47.4345 10.6912C47.5111 10.6316 47.5494 10.5209 47.5494 10.3591C47.5494 10.1036 47.4856 9.86944 47.3578 9.65654C47.2386 9.43512 47.0683 9.25629 46.8469 9.12003C46.6254 8.98377 46.3742 8.91565 46.0932 8.91565C45.8292 8.91565 45.5865 8.97952 45.3651 9.10726C45.1436 9.22648 44.9648 9.39254 44.8286 9.60544C44.6923 9.81835 44.6242 10.0525 44.6242 10.308V10.7679ZM51.4691 14.3063C51.0603 14.3063 50.6984 14.2552 50.3833 14.153C50.0682 14.0423 49.8212 13.9146 49.6424 13.7698C49.4635 13.625 49.3741 13.4802 49.3741 13.3355C49.3741 13.2673 49.3911 13.1992 49.4252 13.1311C49.4593 13.0544 49.5019 12.9906 49.553 12.9395C49.6126 12.8799 49.6764 12.8501 49.7446 12.8501C49.8468 12.8501 49.9575 12.9011 50.0767 13.0033C50.1959 13.097 50.3577 13.195 50.5621 13.2971C50.7665 13.3993 51.0603 13.4504 51.4435 13.4504C51.8949 13.4504 52.21 13.3695 52.3888 13.2077C52.5676 13.0374 52.657 12.8501 52.657 12.6457C52.657 12.3817 52.5804 12.1815 52.4271 12.0453C52.2738 11.9005 52.078 11.7898 51.8395 11.7132C51.6011 11.628 51.3498 11.5471 51.0858 11.4705C50.8218 11.3938 50.5706 11.3001 50.3322 11.1894C50.0937 11.0702 49.8979 10.9084 49.7446 10.704C49.5998 10.4911 49.5274 10.2101 49.5274 9.86093C49.5274 9.5799 49.5955 9.30313 49.7318 9.03061C49.868 8.7581 50.0895 8.53242 50.396 8.35359C50.7026 8.16624 51.1114 8.07256 51.6223 8.07256C51.9204 8.07256 52.2057 8.10662 52.4782 8.17475C52.7592 8.23436 52.9849 8.31952 53.1552 8.43023C53.3341 8.53242 53.4235 8.64313 53.4235 8.76236C53.4235 8.81345 53.4065 8.88158 53.3724 8.96674C53.3383 9.0519 53.2915 9.12855 53.2319 9.19667C53.1723 9.2648 53.0956 9.29887 53.0019 9.29887C52.9338 9.29887 52.8359 9.26906 52.7081 9.20945C52.5889 9.14132 52.4399 9.07745 52.261 9.01784C52.0907 8.95823 51.8821 8.92842 51.6351 8.92842C51.3541 8.92842 51.1284 8.97952 50.9581 9.08171C50.7878 9.17538 50.6643 9.29035 50.5876 9.42661C50.511 9.55435 50.4727 9.68635 50.4727 9.8226C50.4727 10.0355 50.5451 10.2016 50.6898 10.3208C50.8431 10.44 51.039 10.5379 51.2774 10.6146C51.5244 10.6827 51.7799 10.7551 52.0439 10.8318C52.3079 10.8999 52.5591 11.0021 52.7976 11.1383C53.036 11.2661 53.2319 11.4449 53.3852 11.6748C53.5385 11.9048 53.6151 12.2114 53.6151 12.5946C53.6151 13.114 53.4277 13.5313 53.053 13.8464C52.6783 14.153 52.1503 14.3063 51.4691 14.3063ZM56.8665 14.2041C56.1767 14.2041 55.6487 14.0508 55.2825 13.7442C54.9248 13.4377 54.746 12.948 54.746 12.2752V5.69659C54.746 5.58588 54.8014 5.49646 54.9121 5.42833C55.0228 5.3602 55.142 5.32614 55.2697 5.32614C55.406 5.32614 55.5295 5.3602 55.6402 5.42833C55.7509 5.49646 55.8062 5.58588 55.8062 5.69659V8.1492H57.4158C57.518 8.1492 57.5946 8.19178 57.6457 8.27694C57.7053 8.3621 57.7351 8.46004 57.7351 8.57075C57.7351 8.68145 57.7053 8.77939 57.6457 8.86455C57.5946 8.94119 57.518 8.97952 57.4158 8.97952H55.8062V12.2752C55.8062 12.6414 55.8829 12.9011 56.0362 13.0544C56.198 13.1992 56.4748 13.2716 56.8665 13.2716H57.2625C57.4158 13.2716 57.5307 13.3184 57.6074 13.4121C57.684 13.5058 57.7224 13.6122 57.7224 13.7315C57.7224 13.8507 57.684 13.9614 57.6074 14.0636C57.5307 14.1573 57.4158 14.2041 57.2625 14.2041H56.8665ZM60.042 14.3063C59.5651 14.3063 59.1564 14.17 58.8157 13.8975C58.4836 13.6165 58.3175 13.1864 58.3175 12.6073C58.3175 12.139 58.4453 11.777 58.7008 11.5216C58.9562 11.2576 59.3054 11.0787 59.7482 10.985C60.1996 10.8828 60.7191 10.8318 61.3067 10.8318H61.9198V10.5635C61.9198 10.308 61.873 10.0611 61.7793 9.8226C61.6856 9.57564 61.5366 9.37551 61.3322 9.22222C61.1364 9.06042 60.8638 8.97952 60.5147 8.97952C60.2166 8.97952 59.9782 9.00932 59.7993 9.06893C59.629 9.12855 59.4928 9.19242 59.3906 9.26055C59.2884 9.32016 59.199 9.34996 59.1223 9.34996C58.9946 9.34996 58.8966 9.29035 58.8285 9.17113C58.7604 9.04339 58.7263 8.92416 58.7263 8.81345C58.7263 8.6772 58.82 8.55371 59.0073 8.44301C59.1947 8.3323 59.4289 8.24288 59.7099 8.17475C59.9909 8.10662 60.2677 8.07256 60.5402 8.07256C61.1364 8.07256 61.6133 8.19178 61.9709 8.43023C62.3286 8.66868 62.5841 8.97526 62.7374 9.34996C62.8992 9.72467 62.9801 10.1249 62.9801 10.5507V13.8209C62.9801 13.9231 62.929 14.0125 62.8268 14.0891C62.7331 14.1658 62.6096 14.2041 62.4563 14.2041C62.3201 14.2041 62.2051 14.1658 62.1114 14.0891C62.0178 14.0125 61.9709 13.9231 61.9709 13.8209V13.3099C61.7495 13.5654 61.4813 13.7953 61.1662 13.9997C60.8511 14.2041 60.4764 14.3063 60.042 14.3063ZM60.3742 13.4504C60.6211 13.4504 60.8596 13.3823 61.0895 13.246C61.328 13.1098 61.5238 12.9395 61.6771 12.7351C61.8389 12.5307 61.9198 12.3348 61.9198 12.1475V11.4832H61.4727C61.1151 11.4832 60.7744 11.5045 60.4508 11.5471C60.1357 11.5897 59.8802 11.6834 59.6844 11.8281C59.4885 11.9644 59.3906 12.1858 59.3906 12.4924C59.3906 12.8245 59.4842 13.0672 59.6716 13.2205C59.8589 13.3738 60.0931 13.4504 60.3742 13.4504ZM60.2081 6.76961C60.1059 6.76961 60.0165 6.72277 59.9399 6.62909C59.8632 6.53541 59.8249 6.43748 59.8249 6.33529C59.8249 6.19903 59.8802 6.10536 59.9909 6.05426L61.4855 5.26227C61.5366 5.24524 61.5792 5.23672 61.6133 5.23672C61.724 5.23672 61.8091 5.28356 61.8687 5.37723C61.9369 5.46239 61.9709 5.56033 61.9709 5.67104C61.9709 5.80729 61.9113 5.90949 61.7921 5.97761L60.3486 6.71851C60.3231 6.72703 60.2975 6.7398 60.272 6.75683C60.2549 6.76535 60.2337 6.76961 60.2081 6.76961ZM64.9507 14.2041C64.7974 14.2041 64.6696 14.1658 64.5674 14.0891C64.4738 14.004 64.4269 13.9146 64.4269 13.8209V8.51965C64.4269 8.40894 64.4738 8.31952 64.5674 8.2514C64.6696 8.18327 64.7974 8.1492 64.9507 8.1492C65.0869 8.1492 65.2019 8.18327 65.2956 8.2514C65.3892 8.31952 65.4361 8.40894 65.4361 8.51965V9.04339C65.5723 8.79642 65.7852 8.575 66.0748 8.37914C66.3643 8.17475 66.722 8.07256 67.1478 8.07256C67.5566 8.07256 67.9313 8.18753 68.2719 8.41746C68.6126 8.63887 68.8851 8.93268 69.0895 9.29887C69.2938 9.66506 69.396 10.0738 69.396 10.5252V13.8209C69.396 13.9486 69.3407 14.0466 69.23 14.1147C69.1193 14.1743 68.9958 14.2041 68.8595 14.2041C68.7318 14.2041 68.6126 14.1743 68.5019 14.1147C68.3911 14.0466 68.3358 13.9486 68.3358 13.8209V10.5252C68.3358 10.2782 68.2677 10.0398 68.1314 9.80983C68.0037 9.5799 67.8291 9.39254 67.6077 9.24777C67.3863 9.103 67.1435 9.03061 66.8795 9.03061C66.6496 9.03061 66.4282 9.09448 66.2153 9.22222C66.0024 9.34145 65.8278 9.51177 65.6916 9.73318C65.5553 9.94609 65.4872 10.2101 65.4872 10.5252V13.8209C65.4872 13.9146 65.4318 14.004 65.3211 14.0891C65.2189 14.1658 65.0954 14.2041 64.9507 14.2041ZM73.9327 14.2041C73.7794 14.2041 73.6517 14.1658 73.5495 14.0891C73.4558 14.004 73.409 13.9146 73.409 13.8209V4.86627C73.409 4.75556 73.4558 4.66615 73.5495 4.59802C73.6517 4.52989 73.7794 4.49583 73.9327 4.49583C74.0775 4.49583 74.201 4.52989 74.3032 4.59802C74.4139 4.66615 74.4692 4.75556 74.4692 4.86627V9.04339C74.6055 8.79642 74.8099 8.575 75.0824 8.37914C75.3634 8.17475 75.7126 8.07256 76.1299 8.07256C76.5386 8.07256 76.9133 8.18753 77.254 8.41746C77.5946 8.63887 77.8671 8.93268 78.0715 9.29887C78.2759 9.66506 78.3781 10.0738 78.3781 10.5252V13.8209C78.3781 13.9486 78.3227 14.0466 78.212 14.1147C78.1013 14.1743 77.9778 14.2041 77.8416 14.2041C77.7138 14.2041 77.5946 14.1743 77.4839 14.1147C77.3732 14.0466 77.3178 13.9486 77.3178 13.8209V10.5252C77.3178 10.2782 77.2497 10.0398 77.1135 9.80983C76.9772 9.5799 76.7984 9.39254 76.5769 9.24777C76.364 9.103 76.1256 9.03061 75.8616 9.03061C75.6317 9.03061 75.4103 9.09448 75.1973 9.22222C74.9844 9.34145 74.8099 9.51177 74.6736 9.73318C74.5374 9.94609 74.4692 10.2101 74.4692 10.5252V13.8209C74.4692 13.9146 74.4139 14.004 74.3032 14.0891C74.201 14.1658 74.0775 14.2041 73.9327 14.2041ZM82.4393 14.3063C81.8858 14.3063 81.3961 14.2041 80.9703 13.9997C80.5445 13.7868 80.2081 13.4973 79.9612 13.1311C79.7142 12.7564 79.5907 12.3221 79.5907 11.8281V10.4869C79.5907 10.0525 79.7057 9.65228 79.9356 9.28609C80.1741 8.9199 80.4849 8.6261 80.8681 8.40468C81.2513 8.18327 81.6729 8.07256 82.1328 8.07256C82.5756 8.07256 82.9801 8.17475 83.3463 8.37914C83.721 8.58352 84.0191 8.86029 84.2405 9.20945C84.4704 9.55861 84.5854 9.96312 84.5854 10.423C84.5854 10.7636 84.53 11.0106 84.4193 11.1639C84.3086 11.3087 84.1681 11.3981 83.9978 11.4321C83.8274 11.4662 83.6486 11.4832 83.4613 11.4832H80.651V11.8665C80.651 12.3433 80.8213 12.7223 81.1619 13.0033C81.5026 13.2759 81.9411 13.4121 82.4777 13.4121C82.7928 13.4121 83.044 13.3695 83.2313 13.2844C83.4187 13.1992 83.572 13.1183 83.6912 13.0417C83.8104 12.9565 83.9169 12.9139 84.0105 12.9139C84.1042 12.9139 84.1809 12.9437 84.2405 13.0033C84.3086 13.0544 84.3597 13.1183 84.3938 13.195C84.4278 13.2716 84.4449 13.3397 84.4449 13.3993C84.4449 13.51 84.364 13.6378 84.2022 13.7826C84.0403 13.9188 83.8062 14.0423 83.4996 14.153C83.2015 14.2552 82.8481 14.3063 82.4393 14.3063ZM80.651 10.7679H83.0142C83.2441 10.7679 83.3931 10.7423 83.4613 10.6912C83.5379 10.6316 83.5762 10.5209 83.5762 10.3591C83.5762 10.1036 83.5124 9.86944 83.3846 9.65654C83.2654 9.43512 83.0951 9.25629 82.8737 9.12003C82.6522 8.98377 82.401 8.91565 82.12 8.91565C81.856 8.91565 81.6133 8.97952 81.3919 9.10726C81.1704 9.22648 80.9916 9.39254 80.8554 9.60544C80.7191 9.81835 80.651 10.0525 80.651 10.308V10.7679ZM88.109 14.3063C87.5214 14.3063 87.036 14.1956 86.6528 13.9742C86.2781 13.7528 85.997 13.4589 85.8097 13.0928C85.6308 12.7181 85.5414 12.2965 85.5414 11.8281V10.5507C85.5414 10.0909 85.6308 9.67357 85.8097 9.29887C85.997 8.92416 86.2781 8.6261 86.6528 8.40468C87.036 8.18327 87.5172 8.07256 88.0962 8.07256C88.4709 8.07256 88.7988 8.1194 89.0798 8.21307C89.3609 8.30675 89.578 8.42172 89.7313 8.55797C89.8846 8.69423 89.9613 8.82623 89.9613 8.95397C89.9613 9.0221 89.94 9.09874 89.8974 9.1839C89.8633 9.26055 89.8122 9.32867 89.7441 9.38829C89.6845 9.4479 89.6121 9.4777 89.5269 9.4777C89.4418 9.4777 89.3481 9.43938 89.2459 9.36274C89.1522 9.28609 89.0202 9.21371 88.8499 9.14558C88.6881 9.06893 88.4582 9.03061 88.1601 9.03061C87.6406 9.03061 87.2489 9.16687 86.9849 9.43938C86.7294 9.71189 86.6017 10.0823 86.6017 10.5507V11.8281C86.6017 12.2965 86.7294 12.667 86.9849 12.9395C87.2489 13.212 87.6449 13.3482 88.1729 13.3482C88.4795 13.3482 88.7179 13.3099 88.8882 13.2333C89.0586 13.1481 89.1906 13.0715 89.2842 13.0033C89.3864 12.9267 89.4844 12.8884 89.578 12.8884C89.6717 12.8884 89.7526 12.9182 89.8207 12.9778C89.8889 13.0289 89.94 13.0928 89.974 13.1694C90.0166 13.246 90.0379 13.3227 90.0379 13.3993C90.0379 13.5271 89.957 13.6633 89.7952 13.8081C89.6334 13.9444 89.4077 14.0636 89.1182 14.1658C88.8286 14.2595 88.4922 14.3063 88.109 14.3063ZM91.6343 14.2041C91.481 14.2041 91.3532 14.1658 91.251 14.0891C91.1574 14.004 91.1105 13.9146 91.1105 13.8209V4.86627C91.1105 4.75556 91.1574 4.66615 91.251 4.59802C91.3532 4.52989 91.481 4.49583 91.6343 4.49583C91.779 4.49583 91.9025 4.52989 92.0047 4.59802C92.1154 4.66615 92.1708 4.75556 92.1708 4.86627V9.04339C92.307 8.79642 92.5114 8.575 92.7839 8.37914C93.065 8.17475 93.4141 8.07256 93.8314 8.07256C94.2402 8.07256 94.6149 8.18753 94.9555 8.41746C95.2962 8.63887 95.5687 8.93268 95.773 9.29887C95.9774 9.66506 96.0796 10.0738 96.0796 10.5252V13.8209C96.0796 13.9486 96.0243 14.0466 95.9136 14.1147C95.8029 14.1743 95.6794 14.2041 95.5431 14.2041C95.4154 14.2041 95.2962 14.1743 95.1854 14.1147C95.0747 14.0466 95.0194 13.9486 95.0194 13.8209V10.5252C95.0194 10.2782 94.9513 10.0398 94.815 9.80983C94.6787 9.5799 94.4999 9.39254 94.2785 9.24777C94.0656 9.103 93.8271 9.03061 93.5631 9.03061C93.3332 9.03061 93.1118 9.09448 92.8989 9.22222C92.686 9.34145 92.5114 9.51177 92.3752 9.73318C92.2389 9.94609 92.1708 10.2101 92.1708 10.5252V13.8209C92.1708 13.9146 92.1154 14.004 92.0047 14.0891C91.9025 14.1658 91.779 14.2041 91.6343 14.2041ZM98.8507 14.3063C98.3738 14.3063 97.965 14.17 97.6244 13.8975C97.2923 13.6165 97.1262 13.1864 97.1262 12.6073C97.1262 12.139 97.2539 11.777 97.5094 11.5216C97.7649 11.2576 98.1141 11.0787 98.5569 10.985C99.0082 10.8828 99.5277 10.8318 100.115 10.8318H100.728V10.5635C100.728 10.308 100.682 10.0611 100.588 9.8226C100.494 9.57564 100.345 9.37551 100.141 9.22222C99.945 9.06042 99.6725 8.97952 99.3233 8.97952C99.0253 8.97952 98.7868 9.00932 98.608 9.06893C98.4377 9.12855 98.3014 9.19242 98.1992 9.26055C98.097 9.32016 98.0076 9.34996 97.931 9.34996C97.8032 9.34996 97.7053 9.29035 97.6372 9.17113C97.569 9.04339 97.535 8.92416 97.535 8.81345C97.535 8.6772 97.6286 8.55371 97.816 8.44301C98.0033 8.3323 98.2375 8.24288 98.5186 8.17475C98.7996 8.10662 99.0764 8.07256 99.3489 8.07256C99.945 8.07256 100.422 8.19178 100.78 8.43023C101.137 8.66868 101.393 8.97526 101.546 9.34996C101.708 9.72467 101.789 10.1249 101.789 10.5507V13.8209C101.789 13.9231 101.738 14.0125 101.635 14.0891C101.542 14.1658 101.418 14.2041 101.265 14.2041C101.129 14.2041 101.014 14.1658 100.92 14.0891C100.826 14.0125 100.78 13.9231 100.78 13.8209V13.3099C100.558 13.5654 100.29 13.7953 99.9748 13.9997C99.6597 14.2041 99.285 14.3063 98.8507 14.3063ZM99.1828 13.4504C99.4298 13.4504 99.6682 13.3823 99.8982 13.246C100.137 13.1098 100.332 12.9395 100.486 12.7351C100.648 12.5307 100.728 12.3348 100.728 12.1475V11.4832H100.281C99.9237 11.4832 99.5831 11.5045 99.2595 11.5471C98.9444 11.5897 98.6889 11.6834 98.493 11.8281C98.2972 11.9644 98.1992 12.1858 98.1992 12.4924C98.1992 12.8245 98.2929 13.0672 98.4802 13.2205C98.6676 13.3738 98.9018 13.4504 99.1828 13.4504ZM104.973 14.3063C104.564 14.3063 104.202 14.2552 103.887 14.153C103.572 14.0423 103.325 13.9146 103.146 13.7698C102.967 13.625 102.878 13.4802 102.878 13.3355C102.878 13.2673 102.895 13.1992 102.929 13.1311C102.963 13.0544 103.006 12.9906 103.057 12.9395C103.116 12.8799 103.18 12.8501 103.248 12.8501C103.351 12.8501 103.461 12.9011 103.58 13.0033C103.7 13.097 103.862 13.195 104.066 13.2971C104.27 13.3993 104.564 13.4504 104.947 13.4504C105.399 13.4504 105.714 13.3695 105.893 13.2077C106.071 13.0374 106.161 12.8501 106.161 12.6457C106.161 12.3817 106.084 12.1815 105.931 12.0453C105.778 11.9005 105.582 11.7898 105.343 11.7132C105.105 11.628 104.854 11.5471 104.59 11.4705C104.326 11.3938 104.074 11.3001 103.836 11.1894C103.598 11.0702 103.402 10.9084 103.248 10.704C103.104 10.4911 103.031 10.2101 103.031 9.86093C103.031 9.5799 103.099 9.30313 103.236 9.03061C103.372 8.7581 103.593 8.53242 103.9 8.35359C104.206 8.16624 104.615 8.07256 105.126 8.07256C105.424 8.07256 105.709 8.10662 105.982 8.17475C106.263 8.23436 106.489 8.31952 106.659 8.43023C106.838 8.53242 106.927 8.64313 106.927 8.76236C106.927 8.81345 106.91 8.88158 106.876 8.96674C106.842 9.0519 106.795 9.12855 106.736 9.19667C106.676 9.2648 106.599 9.29887 106.506 9.29887C106.438 9.29887 106.34 9.26906 106.212 9.20945C106.093 9.14132 105.944 9.07745 105.765 9.01784C105.595 8.95823 105.386 8.92842 105.139 8.92842C104.858 8.92842 104.632 8.97952 104.462 9.08171C104.292 9.17538 104.168 9.29035 104.091 9.42661C104.015 9.55435 103.976 9.68635 103.976 9.8226C103.976 10.0355 104.049 10.2016 104.194 10.3208C104.347 10.44 104.543 10.5379 104.781 10.6146C105.028 10.6827 105.284 10.7551 105.548 10.8318C105.812 10.8999 106.063 11.0021 106.301 11.1383C106.54 11.2661 106.736 11.4449 106.889 11.6748C107.042 11.9048 107.119 12.2114 107.119 12.5946C107.119 13.114 106.932 13.5313 106.557 13.8464C106.182 14.153 105.654 14.3063 104.973 14.3063ZM111.471 14.2041C111.318 14.2041 111.19 14.1658 111.088 14.0891C110.994 14.004 110.948 13.9146 110.948 13.8209V4.86627C110.948 4.75556 110.994 4.66615 111.088 4.59802C111.19 4.52989 111.318 4.49583 111.471 4.49583C111.616 4.49583 111.74 4.52989 111.842 4.59802C111.953 4.66615 112.008 4.75556 112.008 4.86627V13.8209C112.008 13.9146 111.953 14.004 111.842 14.0891C111.74 14.1658 111.616 14.2041 111.471 14.2041ZM114.955 14.3063C114.479 14.3063 114.07 14.17 113.729 13.8975C113.397 13.6165 113.231 13.1864 113.231 12.6073C113.231 12.139 113.359 11.777 113.614 11.5216C113.87 11.2576 114.219 11.0787 114.662 10.985C115.113 10.8828 115.633 10.8318 116.22 10.8318H116.833V10.5635C116.833 10.308 116.786 10.0611 116.693 9.8226C116.599 9.57564 116.45 9.37551 116.246 9.22222C116.05 9.06042 115.777 8.97952 115.428 8.97952C115.13 8.97952 114.892 9.00932 114.713 9.06893C114.542 9.12855 114.406 9.19242 114.304 9.26055C114.202 9.32016 114.112 9.34996 114.036 9.34996C113.908 9.34996 113.81 9.29035 113.742 9.17113C113.674 9.04339 113.64 8.92416 113.64 8.81345C113.64 8.6772 113.733 8.55371 113.921 8.44301C114.108 8.3323 114.342 8.24288 114.623 8.17475C114.904 8.10662 115.181 8.07256 115.454 8.07256C116.05 8.07256 116.527 8.19178 116.884 8.43023C117.242 8.66868 117.498 8.97526 117.651 9.34996C117.813 9.72467 117.894 10.1249 117.894 10.5507V13.8209C117.894 13.9231 117.842 14.0125 117.74 14.0891C117.647 14.1658 117.523 14.2041 117.37 14.2041C117.234 14.2041 117.119 14.1658 117.025 14.0891C116.931 14.0125 116.884 13.9231 116.884 13.8209V13.3099C116.663 13.5654 116.395 13.7953 116.08 13.9997C115.764 14.2041 115.39 14.3063 114.955 14.3063ZM115.288 13.4504C115.535 13.4504 115.773 13.3823 116.003 13.246C116.241 13.1098 116.437 12.9395 116.591 12.7351C116.752 12.5307 116.833 12.3348 116.833 12.1475V11.4832H116.386C116.028 11.4832 115.688 11.5045 115.364 11.5471C115.049 11.5897 114.794 11.6834 114.598 11.8281C114.402 11.9644 114.304 12.1858 114.304 12.4924C114.304 12.8245 114.398 13.0672 114.585 13.2205C114.772 13.3738 115.007 13.4504 115.288 13.4504ZM121.078 14.3063C120.669 14.3063 120.307 14.2552 119.992 14.153C119.677 14.0423 119.43 13.9146 119.251 13.7698C119.072 13.625 118.983 13.4802 118.983 13.3355C118.983 13.2673 119 13.1992 119.034 13.1311C119.068 13.0544 119.11 12.9906 119.162 12.9395C119.221 12.8799 119.285 12.8501 119.353 12.8501C119.455 12.8501 119.566 12.9011 119.685 13.0033C119.804 13.097 119.966 13.195 120.171 13.2971C120.375 13.3993 120.669 13.4504 121.052 13.4504C121.503 13.4504 121.819 13.3695 121.997 13.2077C122.176 13.0374 122.266 12.8501 122.266 12.6457C122.266 12.3817 122.189 12.1815 122.036 12.0453C121.882 11.9005 121.687 11.7898 121.448 11.7132C121.21 11.628 120.958 11.5471 120.694 11.4705C120.43 11.3938 120.179 11.3001 119.941 11.1894C119.702 11.0702 119.506 10.9084 119.353 10.704C119.208 10.4911 119.136 10.2101 119.136 9.86093C119.136 9.5799 119.204 9.30313 119.34 9.03061C119.477 8.7581 119.698 8.53242 120.005 8.35359C120.311 8.16624 120.72 8.07256 121.231 8.07256C121.529 8.07256 121.814 8.10662 122.087 8.17475C122.368 8.23436 122.593 8.31952 122.764 8.43023C122.943 8.53242 123.032 8.64313 123.032 8.76236C123.032 8.81345 123.015 8.88158 122.981 8.96674C122.947 9.0519 122.9 9.12855 122.84 9.19667C122.781 9.2648 122.704 9.29887 122.611 9.29887C122.542 9.29887 122.444 9.26906 122.317 9.20945C122.197 9.14132 122.048 9.07745 121.87 9.01784C121.699 8.95823 121.491 8.92842 121.244 8.92842C120.963 8.92842 120.737 8.97952 120.567 9.08171C120.396 9.17538 120.273 9.29035 120.196 9.42661C120.12 9.55435 120.081 9.68635 120.081 9.8226C120.081 10.0355 120.154 10.2016 120.298 10.3208C120.452 10.44 120.648 10.5379 120.886 10.6146C121.133 10.6827 121.388 10.7551 121.652 10.8318C121.916 10.8999 122.168 11.0021 122.406 11.1383C122.645 11.2661 122.84 11.4449 122.994 11.6748C123.147 11.9048 123.224 12.2114 123.224 12.5946C123.224 13.114 123.036 13.5313 122.662 13.8464C122.287 14.153 121.759 14.3063 121.078 14.3063Z" fill="white"/>
<path d="M36.352 20.0671H40.1701C41.4975 20.0671 42.4657 20.3794 43.0747 21.004C43.6837 21.613 43.9882 22.5578 43.9882 23.8383V24.8456C43.9882 26.5477 43.426 27.6252 42.3017 28.0781V28.1249C42.9263 28.3123 43.3636 28.6949 43.6134 29.2727C43.8789 29.8505 44.0116 30.6235 44.0116 31.5917V34.4728C44.0116 34.9413 44.0273 35.3239 44.0585 35.6206C44.0897 35.9017 44.1678 36.1828 44.2927 36.4639H41.6692C41.5755 36.1984 41.5131 35.9485 41.4818 35.7143C41.4506 35.4801 41.435 35.0584 41.435 34.4494V31.4511C41.435 30.7016 41.3101 30.1784 41.0602 29.8817C40.826 29.585 40.4121 29.4367 39.8187 29.4367H38.9286V36.4639H36.352V20.0671ZM39.8656 27.0943C40.3809 27.0943 40.7635 26.9615 41.0134 26.6961C41.2788 26.4306 41.4116 25.9855 41.4116 25.3609V24.096C41.4116 23.5026 41.3023 23.0731 41.0836 22.8077C40.8806 22.5422 40.5527 22.4095 40.0998 22.4095H38.9286V27.0943H39.8656ZM45.7994 20.0671H52.8266V22.4095H48.376V26.7429H51.913V29.0853H48.376V34.1215H52.8266V36.4639H45.7994V20.0671ZM54.3089 20.0671H56.8855V34.1215H61.1253V36.4639H54.3089V20.0671ZM64.4434 20.0671H67.9336L70.6039 36.4639H68.0273L67.5588 33.2079V33.2548H64.6308L64.1623 36.4639H61.7731L64.4434 20.0671ZM67.2543 31.0295L66.1065 22.9248H66.0597L64.9353 31.0295H67.2543ZM75.439 36.6981C74.2053 36.6981 73.2605 36.3467 72.6047 35.644C71.9644 34.9413 71.6443 33.9497 71.6443 32.6692V23.8617C71.6443 22.5812 71.9644 21.5896 72.6047 20.8869C73.2605 20.1842 74.2053 19.8328 75.439 19.8328C76.6726 19.8328 77.6096 20.1842 78.2499 20.8869C78.9057 21.5896 79.2337 22.5812 79.2337 23.8617V25.5951H76.7976V23.6978C76.7976 22.6827 76.3681 22.1752 75.5093 22.1752C74.6504 22.1752 74.2209 22.6827 74.2209 23.6978V32.8566C74.2209 33.856 74.6504 34.3557 75.5093 34.3557C76.3681 34.3557 76.7976 33.856 76.7976 32.8566V30.3502H79.2337V32.6692C79.2337 33.9497 78.9057 34.9413 78.2499 35.644C77.6096 36.3467 76.6726 36.6981 75.439 36.6981ZM80.7753 20.0671H83.3519V36.4639H80.7753V20.0671ZM89.0061 36.6981C87.7412 36.6981 86.773 36.3389 86.1015 35.6206C85.43 34.9023 85.0943 33.8872 85.0943 32.5755V23.9554C85.0943 22.6437 85.43 21.6287 86.1015 20.9103C86.773 20.192 87.7412 19.8328 89.0061 19.8328C90.271 19.8328 91.2392 20.192 91.9106 20.9103C92.5821 21.6287 92.9179 22.6437 92.9179 23.9554V32.5755C92.9179 33.8872 92.5821 34.9023 91.9106 35.6206C91.2392 36.3389 90.271 36.6981 89.0061 36.6981ZM89.0061 34.3557C89.8962 34.3557 90.3412 33.817 90.3412 32.7394V23.7915C90.3412 22.714 89.8962 22.1752 89.0061 22.1752C88.1159 22.1752 87.6709 22.714 87.6709 23.7915V32.7394C87.6709 33.817 88.1159 34.3557 89.0061 34.3557ZM94.6604 20.0671H97.8929L100.399 29.8817H100.446V20.0671H102.742V36.4639H100.095L97.0028 24.4942H96.956V36.4639H94.6604V20.0671ZM104.657 20.0671H111.684V22.4095H107.233V26.7429H110.77V29.0853H107.233V34.1215H111.684V36.4639H104.657V20.0671ZM116.562 36.6981C115.312 36.6981 114.368 36.3467 113.727 35.644C113.087 34.9257 112.767 33.9028 112.767 32.5755V31.6385H115.203V32.7629C115.203 33.8248 115.648 34.3557 116.538 34.3557C116.975 34.3557 117.303 34.2308 117.522 33.9809C117.756 33.7154 117.873 33.2938 117.873 32.716C117.873 32.0289 117.717 31.4277 117.405 30.9124C117.093 30.3814 116.515 29.749 115.672 29.015C114.61 28.0781 113.868 27.2348 113.446 26.4852C113.025 25.7201 112.814 24.8612 112.814 23.9086C112.814 22.6125 113.142 21.613 113.798 20.9103C114.454 20.192 115.406 19.8328 116.655 19.8328C117.889 19.8328 118.818 20.192 119.443 20.9103C120.083 21.613 120.403 22.6281 120.403 23.9554V24.6347H117.967V23.7915C117.967 23.2293 117.858 22.8233 117.639 22.5734C117.421 22.308 117.1 22.1752 116.679 22.1752C115.82 22.1752 115.39 22.6984 115.39 23.7446C115.39 24.338 115.547 24.8924 115.859 25.4077C116.187 25.9231 116.772 26.5477 117.616 27.2817C118.693 28.2186 119.435 29.0697 119.841 29.8349C120.247 30.6001 120.45 31.498 120.45 32.5286C120.45 33.8716 120.114 34.9023 119.443 35.6206C118.787 36.3389 117.827 36.6981 116.562 36.6981ZM125.679 20.0671H128.256V26.7429H131.02V20.0671H133.596V36.4639H131.02V29.0853H128.256V36.4639H125.679V20.0671ZM139.263 36.6981C138.014 36.6981 137.061 36.3467 136.405 35.644C135.749 34.9257 135.421 33.9028 135.421 32.5755V20.0671H137.998V32.7629C137.998 33.325 138.107 33.7311 138.326 33.9809C138.56 34.2308 138.888 34.3557 139.31 34.3557C139.731 34.3557 140.052 34.2308 140.27 33.9809C140.504 33.7311 140.622 33.325 140.622 32.7629V20.0671H143.105V32.5755C143.105 33.9028 142.777 34.9257 142.121 35.644C141.465 36.3467 140.512 36.6981 139.263 36.6981ZM144.94 20.0671H148.617L150.257 31.8025H150.304L151.943 20.0671H155.621V36.4639H153.185V24.0491H153.138L151.264 36.4639H149.109L147.235 24.0491H147.188V36.4639H144.94V20.0671ZM159.535 20.0671H163.025L165.695 36.4639H163.119L162.65 33.2079V33.2548H159.722L159.254 36.4639H156.865L159.535 20.0671ZM162.346 31.0295L161.198 22.9248H161.151L160.027 31.0295H162.346ZM166.945 20.0671H170.178L172.684 29.8817H172.731V20.0671H175.027V36.4639H172.38L169.288 24.4942H169.241V36.4639H166.945V20.0671ZM178.933 20.0671H182.423L185.093 36.4639H182.517L182.048 33.2079V33.2548H179.12L178.652 36.4639H176.263L178.933 20.0671ZM181.744 31.0295L180.596 22.9248H180.549L179.425 31.0295H181.744ZM189.624 36.6981C188.375 36.6981 187.43 36.3467 186.79 35.644C186.15 34.9257 185.83 33.9028 185.83 32.5755V31.6385H188.266V32.7629C188.266 33.8248 188.711 34.3557 189.601 34.3557C190.038 34.3557 190.366 34.2308 190.585 33.9809C190.819 33.7154 190.936 33.2938 190.936 32.716C190.936 32.0289 190.78 31.4277 190.468 30.9124C190.155 30.3814 189.578 29.749 188.734 29.015C187.672 28.0781 186.931 27.2348 186.509 26.4852C186.087 25.7201 185.877 24.8612 185.877 23.9086C185.877 22.6125 186.205 21.613 186.86 20.9103C187.516 20.192 188.469 19.8328 189.718 19.8328C190.952 19.8328 191.881 20.192 192.506 20.9103C193.146 21.613 193.466 22.6281 193.466 23.9554V24.6347H191.03V23.7915C191.03 23.2293 190.921 22.8233 190.702 22.5734C190.483 22.308 190.163 22.1752 189.742 22.1752C188.883 22.1752 188.453 22.6984 188.453 23.7446C188.453 24.338 188.609 24.8924 188.922 25.4077C189.25 25.9231 189.835 26.5477 190.679 27.2817C191.756 28.2186 192.498 29.0697 192.904 29.8349C193.31 30.6001 193.513 31.498 193.513 32.5286C193.513 33.8716 193.177 34.9023 192.506 35.6206C191.85 36.3389 190.889 36.6981 189.624 36.6981ZM196.77 31.1466C196.77 30.5688 196.856 30.0223 197.028 29.5069C197.215 28.976 197.551 28.367 198.035 27.6799C198.598 26.8834 198.98 26.1963 199.183 25.6185C199.386 25.0408 199.488 24.4317 199.488 23.7915C199.488 23.2293 199.378 22.8233 199.16 22.5734C198.941 22.308 198.621 22.1752 198.199 22.1752C197.778 22.1752 197.458 22.308 197.239 22.5734C197.02 22.8233 196.911 23.2293 196.911 23.7915V25.5717H194.475V23.9554C194.475 22.6281 194.795 21.613 195.435 20.9103C196.076 20.192 197.012 19.8328 198.246 19.8328C199.495 19.8328 200.44 20.192 201.08 20.9103C201.736 21.613 202.064 22.6281 202.064 23.9554C202.064 24.6738 201.932 25.3687 201.666 26.0402C201.416 26.6961 200.979 27.4378 200.354 28.2655C199.855 28.9369 199.503 29.4991 199.3 29.952C199.113 30.3892 199.019 30.8187 199.019 31.2403V32.1304H196.77V31.1466ZM196.653 33.9809H199.136V36.4639H196.653V33.9809Z" fill="#56BEC9"/>
<circle cx="207.911" cy="26.5927" r="1.48724" fill="#C4C4C4"/>
<line x1="277.068" y1="26.5925" x2="207.912" y2="26.5925" stroke="#C4C4C4" stroke-width="0.743619"/>
<line x1="196.757" y1="13.5793" x2="127.6" y2="13.5793" stroke="#C4C4C4" stroke-width="0.743619"/>
</svg>
