<svg width="283" height="44" viewBox="0 0 283 44" fill="none" xmlns="http://www.w3.org/2000/svg">
<path d="M2.87318 20.3974C2.34519 20.3974 1.89384 20.2995 1.51914 20.1036C1.15295 19.8993 0.876175 19.631 0.688822 19.2989C0.501469 18.9582 0.407793 18.5793 0.407793 18.162C0.407793 17.7788 0.471663 17.4424 0.599404 17.1528C0.727144 16.8633 0.880433 16.6078 1.05927 16.3864C1.24662 16.165 1.42972 15.9734 1.60855 15.8116C1.79591 15.6498 1.94494 15.505 2.05565 15.3772C2.21745 15.2154 2.33242 15.0494 2.40054 14.8791C2.46867 14.7002 2.51125 14.5001 2.52828 14.2787C2.54532 14.0573 2.55383 13.7975 2.55383 13.4995C2.55383 13.4058 2.58364 13.3291 2.64325 13.2695C2.71138 13.2014 2.82209 13.1673 2.97538 13.1673C3.11163 13.1673 3.21383 13.2014 3.28195 13.2695C3.3586 13.3377 3.39692 13.4611 3.39692 13.64C3.39692 14.0913 3.36711 14.4575 3.3075 14.7385C3.24789 15.0111 3.17125 15.2282 3.07757 15.39C2.99241 15.5518 2.89447 15.6881 2.78377 15.7988C2.65603 15.935 2.50699 16.0756 2.33667 16.2203C2.17487 16.3566 2.01306 16.5141 1.85126 16.693C1.69797 16.8633 1.57023 17.0592 1.46804 17.2806C1.36585 17.502 1.31475 17.7617 1.31475 18.0598C1.31475 18.5282 1.45526 18.8944 1.73629 19.1584C2.01732 19.4138 2.41332 19.5416 2.92428 19.5416C3.21383 19.5416 3.44376 19.5075 3.61408 19.4394C3.7844 19.3713 3.9164 19.2904 4.01007 19.1967C4.11227 19.103 4.20168 19.0221 4.27833 18.954C4.35497 18.8858 4.44013 18.8518 4.53381 18.8518C4.62749 18.8518 4.72116 18.8858 4.81484 18.954C4.90852 19.0221 4.95535 19.1286 4.95535 19.2733C4.95535 19.4266 4.86594 19.5927 4.6871 19.7715C4.51678 19.9418 4.27407 20.0909 3.95898 20.2186C3.6524 20.3378 3.29047 20.3974 2.87318 20.3974ZM2.97538 12.1965C2.79654 12.1965 2.63899 12.1326 2.50274 12.0049C2.375 11.8686 2.31113 11.7068 2.31113 11.5195C2.31113 11.3406 2.375 11.1874 2.50274 11.0596C2.63048 10.9234 2.78802 10.8552 2.97538 10.8552C3.16273 10.8552 3.32028 10.9234 3.44802 11.0596C3.57576 11.1874 3.63963 11.3406 3.63963 11.5195C3.63963 11.7068 3.57576 11.8686 3.44802 12.0049C3.32028 12.1326 3.16273 12.1965 2.97538 12.1965ZM8.80204 20.3974C8.30811 20.3974 7.8525 20.308 7.43522 20.1292C7.01793 19.9418 6.6858 19.6438 6.43884 19.235C6.19187 18.8262 6.06839 18.2855 6.06839 17.6127V13.7677C6.06839 13.0949 6.19187 12.5542 6.43884 12.1454C6.69432 11.7366 7.0307 11.4428 7.44799 11.264C7.86527 11.0766 8.32088 10.983 8.81481 10.983C9.3939 10.983 9.88783 11.0809 10.2966 11.2768C10.7054 11.4726 11.0205 11.7409 11.2419 12.0815C11.4633 12.4137 11.574 12.7884 11.574 13.2057C11.574 13.4441 11.5272 13.6017 11.4335 13.6783C11.3483 13.7549 11.2163 13.7933 11.0375 13.7933C10.8672 13.7933 10.7352 13.7592 10.6415 13.6911C10.5563 13.6229 10.5095 13.5335 10.501 13.4228C10.4925 13.2951 10.4669 13.1503 10.4243 12.9885C10.3903 12.8182 10.3136 12.6564 10.1944 12.5031C10.0837 12.3413 9.91764 12.2093 9.69622 12.1071C9.48332 12.0049 9.19803 11.9538 8.84036 11.9538C8.29533 11.9538 7.87379 12.1028 7.57573 12.4009C7.28618 12.6904 7.14141 13.146 7.14141 13.7677V17.6127C7.14141 18.2344 7.29044 18.6942 7.5885 18.9923C7.88656 19.2818 8.31662 19.4266 8.87868 19.4266C9.23636 19.4266 9.51738 19.3755 9.72177 19.2733C9.93467 19.1711 10.0922 19.0434 10.1944 18.8901C10.2966 18.7368 10.369 18.575 10.4116 18.4047C10.4541 18.2259 10.484 18.0598 10.501 17.9065C10.5095 17.7788 10.5606 17.6851 10.6543 17.6255C10.748 17.5659 10.8757 17.5361 11.0375 17.5361C11.2163 17.5361 11.3483 17.5786 11.4335 17.6638C11.5272 17.7404 11.574 17.898 11.574 18.1364C11.574 18.5537 11.459 18.9369 11.2291 19.2861C11.0077 19.6267 10.6883 19.8993 10.2711 20.1036C9.86228 20.2995 9.37261 20.3974 8.80204 20.3974ZM15.2315 20.423C14.7631 20.423 14.3373 20.308 13.9541 20.0781C13.5708 19.8482 13.2643 19.5458 13.0343 19.1711C12.8044 18.7964 12.6894 18.3962 12.6894 17.9704V14.6491C12.6894 14.5554 12.7405 14.4703 12.8427 14.3936C12.9534 14.3085 13.0812 14.2659 13.2259 14.2659C13.3707 14.2659 13.4942 14.3085 13.5964 14.3936C13.6986 14.4703 13.7497 14.5554 13.7497 14.6491V17.9704C13.7497 18.2173 13.8136 18.4558 13.9413 18.6857C14.0776 18.9157 14.2564 19.103 14.4778 19.2478C14.6992 19.3926 14.9462 19.4649 15.2187 19.4649C15.4912 19.4649 15.7382 19.3926 15.9596 19.2478C16.181 19.103 16.3556 18.9157 16.4833 18.6857C16.6111 18.4558 16.6749 18.2173 16.6749 17.9704V14.6363C16.6749 14.5342 16.7303 14.449 16.841 14.3809C16.9517 14.3042 17.0752 14.2659 17.2115 14.2659C17.3733 14.2659 17.501 14.3042 17.5947 14.3809C17.6884 14.449 17.7352 14.5342 17.7352 14.6363V17.9704C17.7352 18.4047 17.6202 18.8092 17.3903 19.1839C17.1689 19.5501 16.8666 19.8482 16.4833 20.0781C16.1001 20.308 15.6828 20.423 15.2315 20.423ZM20.5187 20.423C20.0418 20.423 19.6331 20.2867 19.2924 20.0142C18.9603 19.7332 18.7942 19.3031 18.7942 18.724C18.7942 18.2557 18.922 17.8937 19.1775 17.6383C19.4329 17.3743 19.7821 17.1954 20.2249 17.1017C20.6763 16.9995 21.1958 16.9485 21.7834 16.9485H22.3965V16.6802C22.3965 16.4247 22.3497 16.1778 22.256 15.9393C22.1623 15.6923 22.0133 15.4922 21.8089 15.3389C21.613 15.1771 21.3405 15.0962 20.9914 15.0962C20.6933 15.0962 20.4549 15.126 20.276 15.1856C20.1057 15.2452 19.9694 15.3091 19.8673 15.3772C19.7651 15.4369 19.6756 15.4667 19.599 15.4667C19.4713 15.4667 19.3733 15.4071 19.3052 15.2878C19.2371 15.1601 19.203 15.0409 19.203 14.9302C19.203 14.7939 19.2967 14.6704 19.484 14.5597C19.6714 14.449 19.9056 14.3596 20.1866 14.2915C20.4676 14.2233 20.7444 14.1893 21.0169 14.1893C21.613 14.1893 22.0899 14.3085 22.4476 14.5469C22.8053 14.7854 23.0608 15.092 23.2141 15.4667C23.3759 15.8414 23.4568 16.2416 23.4568 16.6674V19.9376C23.4568 20.0398 23.4057 20.1292 23.3035 20.2058C23.2098 20.2825 23.0863 20.3208 22.933 20.3208C22.7968 20.3208 22.6818 20.2825 22.5881 20.2058C22.4945 20.1292 22.4476 20.0398 22.4476 19.9376V19.4266C22.2262 19.6821 21.9579 19.912 21.6428 20.1164C21.3278 20.3208 20.9531 20.423 20.5187 20.423ZM20.8509 19.5671C21.0978 19.5671 21.3363 19.499 21.5662 19.3627C21.8047 19.2265 22.0005 19.0562 22.1538 18.8518C22.3156 18.6474 22.3965 18.4515 22.3965 18.2642V17.5999H21.9494C21.5918 17.5999 21.2511 17.6212 20.9275 17.6638C20.6124 17.7064 20.3569 17.8001 20.1611 17.9448C19.9652 18.0811 19.8673 18.3025 19.8673 18.6091C19.8673 18.9412 19.9609 19.1839 20.1483 19.3372C20.3356 19.4905 20.5698 19.5671 20.8509 19.5671ZM20.6848 12.8863C20.5826 12.8863 20.4932 12.8395 20.4165 12.7458C20.3399 12.6521 20.3016 12.5542 20.3016 12.452C20.3016 12.3157 20.3569 12.2221 20.4676 12.171L21.9622 11.379C22.0133 11.3619 22.0559 11.3534 22.0899 11.3534C22.2006 11.3534 22.2858 11.4003 22.3454 11.4939C22.4136 11.5791 22.4476 11.677 22.4476 11.7877C22.4476 11.924 22.388 12.0262 22.2688 12.0943L20.8253 12.8352C20.7998 12.8437 20.7742 12.8565 20.7487 12.8735C20.7316 12.882 20.7103 12.8863 20.6848 12.8863ZM25.4274 20.3208C25.2741 20.3208 25.1463 20.2825 25.0441 20.2058C24.9505 20.1207 24.9036 20.0313 24.9036 19.9376V14.6363C24.9036 14.5256 24.9505 14.4362 25.0441 14.3681C25.1463 14.3 25.2741 14.2659 25.4274 14.2659C25.5636 14.2659 25.6786 14.3 25.7723 14.3681C25.8659 14.4362 25.9128 14.5256 25.9128 14.6363V15.1601C26.049 14.9131 26.2619 14.6917 26.5515 14.4958C26.841 14.2915 27.1987 14.1893 27.6245 14.1893C28.0333 14.1893 28.408 14.3042 28.7486 14.5342C29.0893 14.7556 29.3618 15.0494 29.5662 15.4156C29.7705 15.7818 29.8727 16.1905 29.8727 16.6419V19.9376C29.8727 20.0653 29.8174 20.1633 29.7067 20.2314C29.596 20.291 29.4725 20.3208 29.3362 20.3208C29.2085 20.3208 29.0893 20.291 28.9785 20.2314C28.8678 20.1633 28.8125 20.0653 28.8125 19.9376V16.6419C28.8125 16.3949 28.7444 16.1565 28.6081 15.9265C28.4804 15.6966 28.3058 15.5092 28.0844 15.3645C27.8629 15.2197 27.6202 15.1473 27.3562 15.1473C27.1263 15.1473 26.9049 15.2112 26.692 15.3389C26.4791 15.4581 26.3045 15.6285 26.1683 15.8499C26.032 16.0628 25.9639 16.3268 25.9639 16.6419V19.9376C25.9639 20.0313 25.9085 20.1207 25.7978 20.2058C25.6956 20.2825 25.5721 20.3208 25.4274 20.3208ZM33.4105 20.3208C32.7207 20.3208 32.1927 20.1675 31.8266 19.8609C31.4689 19.5544 31.29 19.0647 31.29 18.3919V11.8133C31.29 11.7026 31.3454 11.6132 31.4561 11.545C31.5668 11.4769 31.686 11.4428 31.8138 11.4428C31.95 11.4428 32.0735 11.4769 32.1842 11.545C32.2949 11.6132 32.3503 11.7026 32.3503 11.8133V14.2659H33.9598C34.062 14.2659 34.1387 14.3085 34.1898 14.3936C34.2494 14.4788 34.2792 14.5767 34.2792 14.6874C34.2792 14.7982 34.2494 14.8961 34.1898 14.9812C34.1387 15.0579 34.062 15.0962 33.9598 15.0962H32.3503V18.3919C32.3503 18.7581 32.4269 19.0178 32.5802 19.1711C32.742 19.3159 33.0188 19.3883 33.4105 19.3883H33.8065C33.9598 19.3883 34.0748 19.4351 34.1514 19.5288C34.2281 19.6225 34.2664 19.7289 34.2664 19.8482C34.2664 19.9674 34.2281 20.0781 34.1514 20.1803C34.0748 20.274 33.9598 20.3208 33.8065 20.3208H33.4105ZM36.5861 20.423C36.1092 20.423 35.7004 20.2867 35.3598 20.0142C35.0277 19.7332 34.8616 19.3031 34.8616 18.724C34.8616 18.2557 34.9893 17.8937 35.2448 17.6383C35.5003 17.3743 35.8495 17.1954 36.2923 17.1017C36.7436 16.9995 37.2631 16.9485 37.8507 16.9485H38.4639V16.6802C38.4639 16.4247 38.417 16.1778 38.3234 15.9393C38.2297 15.6923 38.0807 15.4922 37.8763 15.3389C37.6804 15.1771 37.4079 15.0962 37.0587 15.0962C36.7607 15.0962 36.5222 15.126 36.3434 15.1856C36.1731 15.2452 36.0368 15.3091 35.9346 15.3772C35.8324 15.4369 35.743 15.4667 35.6664 15.4667C35.5386 15.4667 35.4407 15.4071 35.3726 15.2878C35.3044 15.1601 35.2704 15.0409 35.2704 14.9302C35.2704 14.7939 35.364 14.6704 35.5514 14.5597C35.7387 14.449 35.9729 14.3596 36.254 14.2915C36.535 14.2233 36.8118 14.1893 37.0843 14.1893C37.6804 14.1893 38.1573 14.3085 38.515 14.5469C38.8726 14.7854 39.1281 15.092 39.2814 15.4667C39.4432 15.8414 39.5241 16.2416 39.5241 16.6674V19.9376C39.5241 20.0398 39.473 20.1292 39.3708 20.2058C39.2772 20.2825 39.1537 20.3208 39.0004 20.3208C38.8641 20.3208 38.7492 20.2825 38.6555 20.2058C38.5618 20.1292 38.515 20.0398 38.515 19.9376V19.4266C38.2936 19.6821 38.0253 19.912 37.7102 20.1164C37.3951 20.3208 37.0204 20.423 36.5861 20.423ZM36.9182 19.5671C37.1652 19.5671 37.4036 19.499 37.6336 19.3627C37.872 19.2265 38.0679 19.0562 38.2212 18.8518C38.383 18.6474 38.4639 18.4515 38.4639 18.2642V17.5999H38.0168C37.6591 17.5999 37.3185 17.6212 36.9949 17.6638C36.6798 17.7064 36.4243 17.8001 36.2284 17.9448C36.0325 18.0811 35.9346 18.3025 35.9346 18.6091C35.9346 18.9412 36.0283 19.1839 36.2156 19.3372C36.403 19.4905 36.6372 19.5671 36.9182 19.5671ZM42.7083 20.423C42.2995 20.423 41.9376 20.3719 41.6225 20.2697C41.3074 20.159 41.0604 20.0313 40.8816 19.8865C40.7027 19.7417 40.6133 19.5969 40.6133 19.4522C40.6133 19.384 40.6303 19.3159 40.6644 19.2478C40.6985 19.1711 40.741 19.1073 40.7921 19.0562C40.8518 18.9966 40.9156 18.9668 40.9838 18.9668C41.0859 18.9668 41.1967 19.0178 41.3159 19.12C41.4351 19.2137 41.5969 19.3117 41.8013 19.4138C42.0057 19.516 42.2995 19.5671 42.6827 19.5671C43.1341 19.5671 43.4491 19.4862 43.628 19.3244C43.8068 19.1541 43.8962 18.9668 43.8962 18.7624C43.8962 18.4984 43.8196 18.2982 43.6663 18.162C43.513 18.0172 43.3171 17.9065 43.0787 17.8299C42.8402 17.7447 42.589 17.6638 42.325 17.5872C42.061 17.5105 41.8098 17.4168 41.5714 17.3061C41.3329 17.1869 41.137 17.0251 40.9838 16.8207C40.839 16.6078 40.7666 16.3268 40.7666 15.9776C40.7666 15.6966 40.8347 15.4198 40.971 15.1473C41.1072 14.8748 41.3287 14.6491 41.6352 14.4703C41.9418 14.2829 42.3506 14.1893 42.8615 14.1893C43.1596 14.1893 43.4449 14.2233 43.7174 14.2915C43.9984 14.3511 44.2241 14.4362 44.3944 14.5469C44.5733 14.6491 44.6627 14.7598 44.6627 14.8791C44.6627 14.9302 44.6456 14.9983 44.6116 15.0834C44.5775 15.1686 44.5307 15.2452 44.4711 15.3134C44.4115 15.3815 44.3348 15.4156 44.2411 15.4156C44.173 15.4156 44.0751 15.3858 43.9473 15.3261C43.8281 15.258 43.6791 15.1941 43.5002 15.1345C43.3299 15.0749 43.1213 15.0451 42.8743 15.0451C42.5933 15.0451 42.3676 15.0962 42.1973 15.1984C42.027 15.2921 41.9035 15.4071 41.8268 15.5433C41.7502 15.671 41.7119 15.803 41.7119 15.9393C41.7119 16.1522 41.7843 16.3183 41.929 16.4375C42.0823 16.5567 42.2782 16.6546 42.5166 16.7313C42.7636 16.7994 43.0191 16.8718 43.2831 16.9485C43.5471 17.0166 43.7983 17.1188 44.0368 17.255C44.2752 17.3828 44.4711 17.5616 44.6244 17.7915C44.7776 18.0215 44.8543 18.328 44.8543 18.7113C44.8543 19.2307 44.6669 19.648 44.2922 19.9631C43.9175 20.2697 43.3895 20.423 42.7083 20.423Z" fill="white"/>
<path d="M52.2139 39.9775C52.0692 39.9775 51.9457 39.9349 51.8435 39.8498C51.7498 39.7731 51.703 39.688 51.703 39.5943V31.3678C51.703 31.2571 51.7498 31.1677 51.8435 31.0995C51.9457 31.0314 52.0692 30.9973 52.2139 30.9973C52.3587 30.9973 52.4779 31.0314 52.5716 31.0995C52.6653 31.1677 52.7121 31.2571 52.7121 31.3678V31.8915C52.8569 31.6446 53.074 31.4231 53.3636 31.2273C53.6531 31.0229 54.0066 30.9207 54.4238 30.9207C54.8496 30.9207 55.2371 31.0357 55.5863 31.2656C55.9354 31.487 56.2122 31.7808 56.4166 32.147C56.621 32.5132 56.7232 32.922 56.7232 33.3733V34.6763C56.7232 35.1021 56.6167 35.5066 56.4038 35.8898C56.1994 36.2645 55.9269 36.5711 55.5863 36.8095C55.2456 37.0395 54.8709 37.1544 54.4622 37.1544C54.0789 37.1544 53.734 37.0565 53.4275 36.8606C53.1209 36.6563 52.8995 36.4221 52.7632 36.1581V39.5943C52.7632 39.688 52.7079 39.7731 52.5971 39.8498C52.495 39.9349 52.3672 39.9775 52.2139 39.9775ZM54.2067 36.1964C54.4622 36.1964 54.7006 36.124 54.922 35.9792C55.1434 35.8345 55.3223 35.6428 55.4585 35.4044C55.5948 35.1659 55.6629 34.9232 55.6629 34.6763V33.3733C55.6629 33.1264 55.5948 32.8879 55.4585 32.658C55.3223 32.428 55.1434 32.2407 54.922 32.0959C54.7006 31.9511 54.4536 31.8788 54.1811 31.8788C53.9512 31.8788 53.7255 31.9426 53.5041 32.0704C53.2912 32.1896 53.1124 32.3599 52.9676 32.5813C52.8313 32.7942 52.7632 33.0582 52.7632 33.3733V35.0212C52.7632 35.1319 52.8228 35.2809 52.942 35.4683C53.0698 35.6556 53.2401 35.8259 53.453 35.9792C53.6744 36.124 53.9257 36.1964 54.2067 36.1964ZM60.4805 37.1544C60.0122 37.1544 59.5863 37.0395 59.2031 36.8095C58.8199 36.5796 58.5133 36.2773 58.2834 35.9026C58.0535 35.5279 57.9385 35.1276 57.9385 34.7018V31.3806C57.9385 31.2869 57.9896 31.2017 58.0918 31.1251C58.2025 31.0399 58.3302 30.9973 58.475 30.9973C58.6198 30.9973 58.7433 31.0399 58.8455 31.1251C58.9476 31.2017 58.9987 31.2869 58.9987 31.3806V34.7018C58.9987 34.9488 59.0626 35.1872 59.1904 35.4172C59.3266 35.6471 59.5054 35.8345 59.7269 35.9792C59.9483 36.124 60.1952 36.1964 60.4678 36.1964C60.7403 36.1964 60.9872 36.124 61.2087 35.9792C61.4301 35.8345 61.6046 35.6471 61.7324 35.4172C61.8601 35.1872 61.924 34.9488 61.924 34.7018V31.3678C61.924 31.2656 61.9794 31.1804 62.0901 31.1123C62.2008 31.0357 62.3243 30.9973 62.4605 30.9973C62.6223 30.9973 62.7501 31.0357 62.8437 31.1123C62.9374 31.1804 62.9842 31.2656 62.9842 31.3678V34.7018C62.9842 35.1361 62.8693 35.5407 62.6393 35.9154C62.4179 36.2815 62.1156 36.5796 61.7324 36.8095C61.3492 37.0395 60.9319 37.1544 60.4805 37.1544ZM67.058 37.1544C66.5044 37.1544 66.0148 37.0522 65.589 36.8479C65.1632 36.635 64.8268 36.3454 64.5798 35.9792C64.3328 35.6045 64.2094 35.1702 64.2094 34.6763V33.335C64.2094 32.9007 64.3243 32.5004 64.5543 32.1342C64.7927 31.768 65.1035 31.4742 65.4868 31.2528C65.87 31.0314 66.2915 30.9207 66.7514 30.9207C67.1942 30.9207 67.5987 31.0229 67.9649 31.2273C68.3396 31.4317 68.6377 31.7084 68.8591 32.0576C69.089 32.4068 69.204 32.8113 69.204 33.2711C69.204 33.6118 69.1487 33.8587 69.0379 34.012C68.9272 34.1568 68.7867 34.2462 68.6164 34.2803C68.4461 34.3143 68.2672 34.3314 68.0799 34.3314H65.2696V34.7146C65.2696 35.1915 65.4399 35.5705 65.7806 35.8515C66.1212 36.124 66.5598 36.2603 67.0963 36.2603C67.4114 36.2603 67.6626 36.2177 67.85 36.1325C68.0373 36.0474 68.1906 35.9665 68.3098 35.8898C68.4291 35.8046 68.5355 35.7621 68.6292 35.7621C68.7229 35.7621 68.7995 35.7919 68.8591 35.8515C68.9272 35.9026 68.9783 35.9665 69.0124 36.0431C69.0465 36.1197 69.0635 36.1879 69.0635 36.2475C69.0635 36.3582 68.9826 36.4859 68.8208 36.6307C68.659 36.767 68.4248 36.8904 68.1182 37.0011C67.8202 37.1033 67.4667 37.1544 67.058 37.1544ZM65.2696 33.616H67.6328C67.8627 33.616 68.0118 33.5905 68.0799 33.5394C68.1565 33.4798 68.1949 33.3691 68.1949 33.2073C68.1949 32.9518 68.131 32.7176 68.0032 32.5047C67.884 32.2833 67.7137 32.1044 67.4923 31.9682C67.2709 31.8319 67.0196 31.7638 66.7386 31.7638C66.4746 31.7638 66.2319 31.8277 66.0105 31.9554C65.7891 32.0746 65.6102 32.2407 65.474 32.4536C65.3377 32.6665 65.2696 32.9007 65.2696 33.1562V33.616ZM72.4083 37.1544C72.008 37.1544 71.6333 37.0395 71.2842 36.8095C70.9435 36.5711 70.6668 36.2645 70.4539 35.8898C70.2495 35.5066 70.1473 35.1021 70.1473 34.6763V33.3733C70.1473 32.922 70.2495 32.5132 70.4539 32.147C70.6668 31.7808 70.9435 31.487 71.2842 31.2656C71.6333 31.0357 72.0166 30.9207 72.4338 30.9207C72.8426 30.9207 73.1875 31.0229 73.4685 31.2273C73.7581 31.4231 73.971 31.6446 74.1072 31.8915V27.7144C74.1072 27.6037 74.1583 27.5143 74.2605 27.4462C74.3712 27.378 74.5032 27.344 74.6565 27.344C74.8098 27.344 74.9333 27.378 75.027 27.4462C75.1207 27.5143 75.1675 27.6037 75.1675 27.7144V36.669C75.1675 36.7627 75.1207 36.8521 75.027 36.9373C74.9333 37.0139 74.8098 37.0522 74.6565 37.0522C74.5203 37.0522 74.4011 37.0139 74.2989 36.9373C74.2052 36.8521 74.1583 36.7627 74.1583 36.669V36.1581C74.0306 36.4221 73.8049 36.6563 73.4813 36.8606C73.1577 37.0565 72.8 37.1544 72.4083 37.1544ZM72.6638 36.1964C72.9363 36.1964 73.179 36.124 73.3919 35.9792C73.6133 35.8259 73.7879 35.6556 73.9156 35.4683C74.0434 35.2809 74.1072 35.1319 74.1072 35.0212V33.3733C74.1072 33.0582 74.0349 32.7942 73.8901 32.5813C73.7538 32.3599 73.575 32.1896 73.3536 32.0704C73.1322 31.9426 72.9065 31.8788 72.6766 31.8788C72.404 31.8788 72.1571 31.9511 71.9357 32.0959C71.7142 32.2407 71.5354 32.428 71.3992 32.658C71.2714 32.8879 71.2075 33.1264 71.2075 33.3733V34.6763C71.2075 34.9232 71.2714 35.1659 71.3992 35.4044C71.5354 35.6428 71.7142 35.8345 71.9357 35.9792C72.1571 36.124 72.3998 36.1964 72.6638 36.1964ZM79.3081 37.1544C78.7545 37.1544 78.2649 37.0522 77.8391 36.8479C77.4133 36.635 77.0769 36.3454 76.8299 35.9792C76.583 35.6045 76.4595 35.1702 76.4595 34.6763V33.335C76.4595 32.9007 76.5744 32.5004 76.8044 32.1342C77.0428 31.768 77.3537 31.4742 77.7369 31.2528C78.1201 31.0314 78.5416 30.9207 79.0015 30.9207C79.4443 30.9207 79.8489 31.0229 80.215 31.2273C80.5897 31.4317 80.8878 31.7084 81.1092 32.0576C81.3392 32.4068 81.4541 32.8113 81.4541 33.2711C81.4541 33.6118 81.3988 33.8587 81.2881 34.012C81.1774 34.1568 81.0368 34.2462 80.8665 34.2803C80.6962 34.3143 80.5174 34.3314 80.33 34.3314H77.5197V34.7146C77.5197 35.1915 77.69 35.5705 78.0307 35.8515C78.3713 36.124 78.8099 36.2603 79.3464 36.2603C79.6615 36.2603 79.9127 36.2177 80.1001 36.1325C80.2874 36.0474 80.4407 35.9665 80.5599 35.8898C80.6792 35.8046 80.7856 35.7621 80.8793 35.7621C80.973 35.7621 81.0496 35.7919 81.1092 35.8515C81.1774 35.9026 81.2284 35.9665 81.2625 36.0431C81.2966 36.1197 81.3136 36.1879 81.3136 36.2475C81.3136 36.3582 81.2327 36.4859 81.0709 36.6307C80.9091 36.767 80.6749 36.8904 80.3683 37.0011C80.0703 37.1033 79.7169 37.1544 79.3081 37.1544ZM77.5197 33.616H79.8829C80.1128 33.616 80.2619 33.5905 80.33 33.5394C80.4067 33.4798 80.445 33.3691 80.445 33.2073C80.445 32.9518 80.3811 32.7176 80.2534 32.5047C80.1341 32.2833 79.9638 32.1044 79.7424 31.9682C79.521 31.8319 79.2698 31.7638 78.9887 31.7638C78.7247 31.7638 78.482 31.8277 78.2606 31.9554C78.0392 32.0746 77.8604 32.2407 77.7241 32.4536C77.5878 32.6665 77.5197 32.9007 77.5197 33.1562V33.616ZM83.1511 37.0522C82.9978 37.0522 82.87 37.0139 82.7679 36.9373C82.6742 36.8521 82.6273 36.7627 82.6273 36.669V31.3678C82.6273 31.2571 82.6742 31.1677 82.7679 31.0995C82.87 31.0314 82.9978 30.9973 83.1511 30.9973C83.2873 30.9973 83.4023 31.0314 83.496 31.0995C83.5896 31.1677 83.6365 31.2571 83.6365 31.3678V31.8915C83.7727 31.6446 83.9856 31.4231 84.2752 31.2273C84.5647 31.0229 84.9224 30.9207 85.3482 30.9207C85.757 30.9207 86.1317 31.0357 86.4723 31.2656C86.813 31.487 87.0855 31.7808 87.2899 32.147C87.4942 32.5132 87.5964 32.922 87.5964 33.3733V36.669C87.5964 36.7968 87.5411 36.8947 87.4304 36.9628C87.3197 37.0224 87.1962 37.0522 87.0599 37.0522C86.9322 37.0522 86.813 37.0224 86.7023 36.9628C86.5916 36.8947 86.5362 36.7968 86.5362 36.669V33.3733C86.5362 33.1264 86.4681 32.8879 86.3318 32.658C86.2041 32.428 86.0295 32.2407 85.8081 32.0959C85.5867 31.9511 85.344 31.8788 85.08 31.8788C84.85 31.8788 84.6286 31.9426 84.4157 32.0704C84.2028 32.1896 84.0282 32.3599 83.892 32.5813C83.7557 32.7942 83.6876 33.0582 83.6876 33.3733V36.669C83.6876 36.7627 83.6322 36.8521 83.5215 36.9373C83.4193 37.0139 83.2958 37.0522 83.1511 37.0522ZM93.947 37.1544C93.3594 37.1544 92.874 37.0437 92.4908 36.8223C92.1161 36.6009 91.8351 36.3071 91.6477 35.9409C91.4689 35.5662 91.3795 35.1447 91.3795 34.6763V33.3989C91.3795 32.939 91.4689 32.5217 91.6477 32.147C91.8351 31.7723 92.1161 31.4742 92.4908 31.2528C92.874 31.0314 93.3552 30.9207 93.9343 30.9207C94.309 30.9207 94.6368 30.9675 94.9179 31.0612C95.1989 31.1549 95.4161 31.2699 95.5693 31.4061C95.7226 31.5424 95.7993 31.6744 95.7993 31.8021C95.7993 31.8702 95.778 31.9469 95.7354 32.032C95.7013 32.1087 95.6502 32.1768 95.5821 32.2364C95.5225 32.296 95.4501 32.3258 95.365 32.3258C95.2798 32.3258 95.1861 32.2875 95.0839 32.2109C94.9903 32.1342 94.8583 32.0619 94.6879 31.9937C94.5261 31.9171 94.2962 31.8788 93.9981 31.8788C93.4787 31.8788 93.0869 32.015 92.8229 32.2875C92.5674 32.56 92.4397 32.9305 92.4397 33.3989V34.6763C92.4397 35.1447 92.5674 35.5151 92.8229 35.7876C93.0869 36.0601 93.4829 36.1964 94.0109 36.1964C94.3175 36.1964 94.5559 36.1581 94.7263 36.0814C94.8966 35.9963 95.0286 35.9196 95.1223 35.8515C95.2244 35.7748 95.3224 35.7365 95.4161 35.7365C95.5097 35.7365 95.5906 35.7663 95.6588 35.8259C95.7269 35.877 95.778 35.9409 95.812 36.0175C95.8546 36.0942 95.8759 36.1708 95.8759 36.2475C95.8759 36.3752 95.795 36.5115 95.6332 36.6563C95.4714 36.7925 95.2457 36.9117 94.9562 37.0139C94.6666 37.1076 94.3303 37.1544 93.947 37.1544ZM99.1475 37.1544C98.6961 37.1544 98.2788 37.0395 97.8956 36.8095C97.5124 36.5711 97.2058 36.2645 96.9759 35.8898C96.746 35.5151 96.631 35.1106 96.631 34.6763V33.3733C96.631 32.939 96.7417 32.5387 96.9631 32.1726C97.193 31.7979 97.4996 31.4955 97.8828 31.2656C98.2661 31.0357 98.6876 30.9207 99.1475 30.9207C99.5988 30.9207 100.016 31.0357 100.399 31.2656C100.783 31.487 101.089 31.7808 101.319 32.147C101.558 32.5132 101.677 32.922 101.677 33.3733V34.6763C101.677 35.1021 101.558 35.5066 101.319 35.8898C101.089 36.2645 100.783 36.5711 100.399 36.8095C100.016 37.0395 99.5988 37.1544 99.1475 37.1544ZM99.1475 36.1964C99.42 36.1964 99.6627 36.124 99.8756 35.9792C100.097 35.8345 100.276 35.6471 100.412 35.4172C100.548 35.1787 100.616 34.9318 100.616 34.6763V33.3733C100.616 33.1264 100.548 32.8879 100.412 32.658C100.284 32.428 100.11 32.2407 99.8884 32.0959C99.667 31.9511 99.42 31.8788 99.1475 31.8788C98.875 31.8788 98.628 31.9511 98.4066 32.0959C98.1852 32.2407 98.0106 32.428 97.8828 32.658C97.7551 32.8879 97.6912 33.1264 97.6912 33.3733V34.6763C97.6912 34.9318 97.7551 35.1787 97.8828 35.4172C98.0106 35.6471 98.1852 35.8345 98.4066 35.9792C98.628 36.124 98.875 36.1964 99.1475 36.1964ZM103.472 37.0522C103.319 37.0522 103.191 37.0139 103.089 36.9373C102.995 36.8521 102.949 36.7627 102.949 36.669V31.3678C102.949 31.2571 102.995 31.1677 103.089 31.0995C103.191 31.0314 103.319 30.9973 103.472 30.9973C103.609 30.9973 103.724 31.0314 103.817 31.0995C103.911 31.1677 103.958 31.2571 103.958 31.3678V31.8915C104.094 31.6446 104.307 31.4231 104.596 31.2273C104.886 31.0229 105.244 30.9207 105.669 30.9207C106.078 30.9207 106.453 31.0357 106.794 31.2656C107.134 31.487 107.407 31.7808 107.611 32.147C107.815 32.5132 107.918 32.922 107.918 33.3733V36.669C107.918 36.7968 107.862 36.8947 107.752 36.9628C107.641 37.0224 107.517 37.0522 107.381 37.0522C107.253 37.0522 107.134 37.0224 107.023 36.9628C106.913 36.8947 106.857 36.7968 106.857 36.669V33.3733C106.857 33.1264 106.789 32.8879 106.653 32.658C106.525 32.428 106.351 32.2407 106.129 32.0959C105.908 31.9511 105.665 31.8788 105.401 31.8788C105.171 31.8788 104.95 31.9426 104.737 32.0704C104.524 32.1896 104.349 32.3599 104.213 32.5813C104.077 32.7942 104.009 33.0582 104.009 33.3733V36.669C104.009 36.7627 103.953 36.8521 103.843 36.9373C103.741 37.0139 103.617 37.0522 103.472 37.0522ZM111.455 37.0522C110.766 37.0522 110.238 36.899 109.871 36.5924C109.514 36.2858 109.335 35.7961 109.335 35.1234V28.5447C109.335 28.434 109.39 28.3446 109.501 28.2765C109.612 28.2083 109.731 28.1743 109.859 28.1743C109.995 28.1743 110.118 28.2083 110.229 28.2765C110.34 28.3446 110.395 28.434 110.395 28.5447V30.9973H112.005C112.107 30.9973 112.184 31.0399 112.235 31.1251C112.294 31.2102 112.324 31.3082 112.324 31.4189C112.324 31.5296 112.294 31.6275 112.235 31.7127C112.184 31.7893 112.107 31.8277 112.005 31.8277H110.395V35.1234C110.395 35.4896 110.472 35.7493 110.625 35.9026C110.787 36.0474 111.064 36.1197 111.455 36.1197H111.851C112.005 36.1197 112.12 36.1666 112.196 36.2603C112.273 36.3539 112.311 36.4604 112.311 36.5796C112.311 36.6988 112.273 36.8095 112.196 36.9117C112.12 37.0054 112.005 37.0522 111.851 37.0522H111.455ZM114.631 37.1544C114.154 37.1544 113.745 37.0182 113.405 36.7457C113.073 36.4646 112.907 36.0346 112.907 35.4555C112.907 34.9871 113.034 34.6252 113.29 34.3697C113.545 34.1057 113.894 33.9269 114.337 33.8332C114.789 33.731 115.308 33.6799 115.896 33.6799H116.509V33.4116C116.509 33.1562 116.462 32.9092 116.368 32.6707C116.275 32.4238 116.126 32.2237 115.921 32.0704C115.725 31.9086 115.453 31.8277 115.104 31.8277C114.806 31.8277 114.567 31.8575 114.388 31.9171C114.218 31.9767 114.082 32.0406 113.98 32.1087C113.877 32.1683 113.788 32.1981 113.711 32.1981C113.584 32.1981 113.486 32.1385 113.417 32.0193C113.349 31.8915 113.315 31.7723 113.315 31.6616C113.315 31.5253 113.409 31.4019 113.596 31.2912C113.784 31.1804 114.018 31.091 114.299 31.0229C114.58 30.9548 114.857 30.9207 115.129 30.9207C115.725 30.9207 116.202 31.0399 116.56 31.2784C116.918 31.5168 117.173 31.8234 117.326 32.1981C117.488 32.5728 117.569 32.9731 117.569 33.3989V36.669C117.569 36.7712 117.518 36.8606 117.416 36.9373C117.322 37.0139 117.199 37.0522 117.045 37.0522C116.909 37.0522 116.794 37.0139 116.7 36.9373C116.607 36.8606 116.56 36.7712 116.56 36.669V36.1581C116.338 36.4135 116.07 36.6435 115.755 36.8479C115.44 37.0522 115.065 37.1544 114.631 37.1544ZM114.963 36.2986C115.21 36.2986 115.449 36.2304 115.678 36.0942C115.917 35.9579 116.113 35.7876 116.266 35.5832C116.428 35.3788 116.509 35.183 116.509 34.9956V34.3314H116.062C115.704 34.3314 115.363 34.3527 115.04 34.3952C114.725 34.4378 114.469 34.5315 114.273 34.6763C114.077 34.8125 113.98 35.0339 113.98 35.3405C113.98 35.6726 114.073 35.9154 114.261 36.0686C114.448 36.2219 114.682 36.2986 114.963 36.2986ZM119.527 37.0522C119.382 37.0522 119.259 37.0139 119.156 36.9373C119.063 36.8521 119.016 36.7627 119.016 36.669V31.3678C119.016 31.2571 119.063 31.1677 119.156 31.0995C119.259 31.0314 119.382 30.9973 119.527 30.9973C119.672 30.9973 119.791 31.0314 119.885 31.0995C119.978 31.1677 120.025 31.2571 120.025 31.3678V31.9682C120.119 31.7893 120.246 31.6233 120.408 31.47C120.57 31.3082 120.757 31.1762 120.97 31.074C121.192 30.9718 121.434 30.9207 121.698 30.9207H122.133C122.243 30.9207 122.337 30.9675 122.414 31.0612C122.499 31.1549 122.542 31.2699 122.542 31.4061C122.542 31.5339 122.499 31.6446 122.414 31.7382C122.337 31.8319 122.243 31.8788 122.133 31.8788H121.698C121.426 31.8788 121.166 31.9554 120.919 32.1087C120.672 32.262 120.468 32.4791 120.306 32.7602C120.153 33.0327 120.076 33.3648 120.076 33.7565V36.669C120.076 36.7627 120.021 36.8521 119.91 36.9373C119.808 37.0139 119.68 37.0522 119.527 37.0522ZM125.069 37.1544C124.661 37.1544 124.299 37.1033 123.984 37.0011C123.669 36.8904 123.422 36.7627 123.243 36.6179C123.064 36.4732 122.974 36.3284 122.974 36.1836C122.974 36.1155 122.991 36.0474 123.026 35.9792C123.06 35.9026 123.102 35.8387 123.153 35.7876C123.213 35.728 123.277 35.6982 123.345 35.6982C123.447 35.6982 123.558 35.7493 123.677 35.8515C123.796 35.9452 123.958 36.0431 124.162 36.1453C124.367 36.2475 124.661 36.2986 125.044 36.2986C125.495 36.2986 125.81 36.2177 125.989 36.0559C126.168 35.8855 126.257 35.6982 126.257 35.4938C126.257 35.2298 126.181 35.0297 126.027 34.8934C125.874 34.7487 125.678 34.638 125.44 34.5613C125.201 34.4761 124.95 34.3952 124.686 34.3186C124.422 34.242 124.171 34.1483 123.933 34.0376C123.694 33.9183 123.498 33.7565 123.345 33.5522C123.2 33.3393 123.128 33.0582 123.128 32.7091C123.128 32.428 123.196 32.1513 123.332 31.8788C123.468 31.6062 123.69 31.3806 123.996 31.2017C124.303 31.0144 124.712 30.9207 125.223 30.9207C125.521 30.9207 125.806 30.9548 126.079 31.0229C126.36 31.0825 126.585 31.1677 126.756 31.2784C126.934 31.3806 127.024 31.4913 127.024 31.6105C127.024 31.6616 127.007 31.7297 126.973 31.8149C126.939 31.9 126.892 31.9767 126.832 32.0448C126.773 32.1129 126.696 32.147 126.602 32.147C126.534 32.147 126.436 32.1172 126.308 32.0576C126.189 31.9895 126.04 31.9256 125.861 31.866C125.691 31.8064 125.482 31.7766 125.235 31.7766C124.954 31.7766 124.729 31.8277 124.558 31.9299C124.388 32.0235 124.265 32.1385 124.188 32.2748C124.111 32.4025 124.073 32.5345 124.073 32.6707C124.073 32.8836 124.145 33.0497 124.29 33.1689C124.443 33.2882 124.639 33.3861 124.878 33.4627C125.125 33.5309 125.38 33.6033 125.644 33.6799C125.908 33.748 126.159 33.8502 126.398 33.9865C126.636 34.1142 126.832 34.2931 126.986 34.523C127.139 34.7529 127.215 35.0595 127.215 35.4427C127.215 35.9622 127.028 36.3795 126.653 36.6946C126.279 37.0011 125.751 37.1544 125.069 37.1544ZM130.991 37.1544C130.437 37.1544 129.947 37.0522 129.522 36.8479C129.096 36.635 128.759 36.3454 128.512 35.9792C128.265 35.6045 128.142 35.1702 128.142 34.6763V33.335C128.142 32.9007 128.257 32.5004 128.487 32.1342C128.725 31.768 129.036 31.4742 129.419 31.2528C129.803 31.0314 130.224 30.9207 130.684 30.9207C131.127 30.9207 131.531 31.0229 131.898 31.2273C132.272 31.4317 132.57 31.7084 132.792 32.0576C133.022 32.4068 133.137 32.8113 133.137 33.2711C133.137 33.6118 133.081 33.8587 132.971 34.012C132.86 34.1568 132.719 34.2462 132.549 34.2803C132.379 34.3143 132.2 34.3314 132.013 34.3314H129.202V34.7146C129.202 35.1915 129.373 35.5705 129.713 35.8515C130.054 36.124 130.492 36.2603 131.029 36.2603C131.344 36.2603 131.595 36.2177 131.783 36.1325C131.97 36.0474 132.123 35.9665 132.242 35.8898C132.362 35.8046 132.468 35.7621 132.562 35.7621C132.655 35.7621 132.732 35.7919 132.792 35.8515C132.86 35.9026 132.911 35.9665 132.945 36.0431C132.979 36.1197 132.996 36.1879 132.996 36.2475C132.996 36.3582 132.915 36.4859 132.753 36.6307C132.592 36.767 132.357 36.8904 132.051 37.0011C131.753 37.1033 131.399 37.1544 130.991 37.1544ZM129.202 33.616H131.565C131.795 33.616 131.944 33.5905 132.013 33.5394C132.089 33.4798 132.127 33.3691 132.127 33.2073C132.127 32.9518 132.064 32.7176 131.936 32.5047C131.817 32.2833 131.646 32.1044 131.425 31.9682C131.203 31.8319 130.952 31.7638 130.671 31.7638C130.407 31.7638 130.165 31.8277 129.943 31.9554C129.722 32.0746 129.543 32.2407 129.407 32.4536C129.27 32.6665 129.202 32.9007 129.202 33.1562V33.616ZM139.486 37.1544C138.932 37.1544 138.443 37.0522 138.017 36.8479C137.591 36.635 137.255 36.3454 137.008 35.9792C136.761 35.6045 136.637 35.1702 136.637 34.6763V33.335C136.637 32.9007 136.752 32.5004 136.982 32.1342C137.221 31.768 137.531 31.4742 137.915 31.2528C138.298 31.0314 138.719 30.9207 139.179 30.9207C139.622 30.9207 140.027 31.0229 140.393 31.2273C140.767 31.4317 141.066 31.7084 141.287 32.0576C141.517 32.4068 141.632 32.8113 141.632 33.2711C141.632 33.6118 141.577 33.8587 141.466 34.012C141.355 34.1568 141.215 34.2462 141.044 34.2803C140.874 34.3143 140.695 34.3314 140.508 34.3314H137.697V34.7146C137.697 35.1915 137.868 35.5705 138.208 35.8515C138.549 36.124 138.988 36.2603 139.524 36.2603C139.839 36.2603 140.09 36.2177 140.278 36.1325C140.465 36.0474 140.618 35.9665 140.738 35.8898C140.857 35.8046 140.963 35.7621 141.057 35.7621C141.151 35.7621 141.227 35.7919 141.287 35.8515C141.355 35.9026 141.406 35.9665 141.44 36.0431C141.474 36.1197 141.491 36.1879 141.491 36.2475C141.491 36.3582 141.41 36.4859 141.249 36.6307C141.087 36.767 140.853 36.8904 140.546 37.0011C140.248 37.1033 139.895 37.1544 139.486 37.1544ZM137.697 33.616H140.061C140.291 33.616 140.44 33.5905 140.508 33.5394C140.584 33.4798 140.623 33.3691 140.623 33.2073C140.623 32.9518 140.559 32.7176 140.431 32.5047C140.312 32.2833 140.142 32.1044 139.92 31.9682C139.699 31.8319 139.447 31.7638 139.166 31.7638C138.902 31.7638 138.66 31.8277 138.438 31.9554C138.217 32.0746 138.038 32.2407 137.902 32.4536C137.766 32.6665 137.697 32.9007 137.697 33.1562V33.616ZM143.329 37.0522C143.176 37.0522 143.048 37.0139 142.946 36.9373C142.852 36.8521 142.805 36.7627 142.805 36.669V31.3678C142.805 31.2571 142.852 31.1677 142.946 31.0995C143.048 31.0314 143.176 30.9973 143.329 30.9973C143.465 30.9973 143.58 31.0314 143.674 31.0995C143.767 31.1677 143.814 31.2571 143.814 31.3678V31.8915C143.95 31.6446 144.163 31.4231 144.453 31.2273C144.742 31.0229 145.1 30.9207 145.526 30.9207C145.935 30.9207 146.309 31.0357 146.65 31.2656C146.991 31.487 147.263 31.7808 147.468 32.147C147.672 32.5132 147.774 32.922 147.774 33.3733V36.669C147.774 36.7968 147.719 36.8947 147.608 36.9628C147.497 37.0224 147.374 37.0522 147.238 37.0522C147.11 37.0522 146.991 37.0224 146.88 36.9628C146.769 36.8947 146.714 36.7968 146.714 36.669V33.3733C146.714 33.1264 146.646 32.8879 146.51 32.658C146.382 32.428 146.207 32.2407 145.986 32.0959C145.764 31.9511 145.522 31.8788 145.258 31.8788C145.028 31.8788 144.806 31.9426 144.593 32.0704C144.381 32.1896 144.206 32.3599 144.07 32.5813C143.933 32.7942 143.865 33.0582 143.865 33.3733V36.669C143.865 36.7627 143.81 36.8521 143.699 36.9373C143.597 37.0139 143.474 37.0522 143.329 37.0522ZM154.253 37.1544C153.784 37.1544 153.358 37.0395 152.975 36.8095C152.592 36.5796 152.285 36.2773 152.055 35.9026C151.825 35.5279 151.71 35.1276 151.71 34.7018V31.3806C151.71 31.2869 151.762 31.2017 151.864 31.1251C151.974 31.0399 152.102 30.9973 152.247 30.9973C152.392 30.9973 152.515 31.0399 152.617 31.1251C152.72 31.2017 152.771 31.2869 152.771 31.3806V34.7018C152.771 34.9488 152.835 35.1872 152.962 35.4172C153.099 35.6471 153.277 35.8345 153.499 35.9792C153.72 36.124 153.967 36.1964 154.24 36.1964C154.512 36.1964 154.759 36.124 154.981 35.9792C155.202 35.8345 155.377 35.6471 155.504 35.4172C155.632 35.1872 155.696 34.9488 155.696 34.7018V31.3678C155.696 31.2656 155.751 31.1804 155.862 31.1123C155.973 31.0357 156.096 30.9973 156.232 30.9973C156.394 30.9973 156.522 31.0357 156.616 31.1123C156.709 31.1804 156.756 31.2656 156.756 31.3678V34.7018C156.756 35.1361 156.641 35.5407 156.411 35.9154C156.19 36.2815 155.888 36.5796 155.504 36.8095C155.121 37.0395 154.704 37.1544 154.253 37.1544ZM158.735 37.0522C158.582 37.0522 158.454 37.0139 158.352 36.9373C158.258 36.8521 158.211 36.7627 158.211 36.669V31.3678C158.211 31.2571 158.258 31.1677 158.352 31.0995C158.454 31.0314 158.582 30.9973 158.735 30.9973C158.871 30.9973 158.986 31.0314 159.08 31.0995C159.174 31.1677 159.22 31.2571 159.22 31.3678V31.8915C159.357 31.6446 159.57 31.4231 159.859 31.2273C160.149 31.0229 160.506 30.9207 160.932 30.9207C161.341 30.9207 161.716 31.0357 162.056 31.2656C162.397 31.487 162.669 31.7808 162.874 32.147C163.078 32.5132 163.18 32.922 163.18 33.3733V36.669C163.18 36.7968 163.125 36.8947 163.014 36.9628C162.904 37.0224 162.78 37.0522 162.644 37.0522C162.516 37.0522 162.397 37.0224 162.286 36.9628C162.175 36.8947 162.12 36.7968 162.12 36.669V33.3733C162.12 33.1264 162.052 32.8879 161.916 32.658C161.788 32.428 161.613 32.2407 161.392 32.0959C161.171 31.9511 160.928 31.8788 160.664 31.8788C160.434 31.8788 160.213 31.9426 160 32.0704C159.787 32.1896 159.612 32.3599 159.476 32.5813C159.34 32.7942 159.272 33.0582 159.272 33.3733V36.669C159.272 36.7627 159.216 36.8521 159.105 36.9373C159.003 37.0139 158.88 37.0522 158.735 37.0522ZM165.952 37.1544C165.475 37.1544 165.066 37.0182 164.725 36.7457C164.393 36.4646 164.227 36.0346 164.227 35.4555C164.227 34.9871 164.355 34.6252 164.61 34.3697C164.866 34.1057 165.215 33.9269 165.658 33.8332C166.109 33.731 166.629 33.6799 167.216 33.6799H167.83V33.4116C167.83 33.1562 167.783 32.9092 167.689 32.6707C167.595 32.4238 167.446 32.2237 167.242 32.0704C167.046 31.9086 166.774 31.8277 166.424 31.8277C166.126 31.8277 165.888 31.8575 165.709 31.9171C165.539 31.9767 165.402 32.0406 165.3 32.1087C165.198 32.1683 165.109 32.1981 165.032 32.1981C164.904 32.1981 164.806 32.1385 164.738 32.0193C164.67 31.8915 164.636 31.7723 164.636 31.6616C164.636 31.5253 164.73 31.4019 164.917 31.2912C165.104 31.1804 165.339 31.091 165.62 31.0229C165.901 30.9548 166.177 30.9207 166.45 30.9207C167.046 30.9207 167.523 31.0399 167.881 31.2784C168.238 31.5168 168.494 31.8234 168.647 32.1981C168.809 32.5728 168.89 32.9731 168.89 33.3989V36.669C168.89 36.7712 168.839 36.8606 168.736 36.9373C168.643 37.0139 168.519 37.0522 168.366 37.0522C168.23 37.0522 168.115 37.0139 168.021 36.9373C167.927 36.8606 167.881 36.7712 167.881 36.669V36.1581C167.659 36.4135 167.391 36.6435 167.076 36.8479C166.761 37.0522 166.386 37.1544 165.952 37.1544ZM166.284 36.2986C166.531 36.2986 166.769 36.2304 166.999 36.0942C167.238 35.9579 167.434 35.7876 167.587 35.5832C167.749 35.3788 167.83 35.183 167.83 34.9956V34.3314H167.382C167.025 34.3314 166.684 34.3527 166.361 34.3952C166.045 34.4378 165.79 34.5315 165.594 34.6763C165.398 34.8125 165.3 35.0339 165.3 35.3405C165.3 35.6726 165.394 35.9154 165.581 36.0686C165.769 36.2219 166.003 36.2986 166.284 36.2986ZM173.418 37.0522C173.264 37.0522 173.137 37.0139 173.034 36.9373C172.941 36.8521 172.894 36.7627 172.894 36.669V31.3678C172.894 31.2571 172.941 31.1677 173.034 31.0995C173.137 31.0314 173.264 30.9973 173.418 30.9973C173.554 30.9973 173.669 31.0314 173.763 31.0995C173.856 31.1677 173.903 31.2571 173.903 31.3678V31.8915C174.048 31.6446 174.261 31.4231 174.542 31.2273C174.823 31.0229 175.176 30.9207 175.602 30.9207C176.011 30.9207 176.368 31.0399 176.675 31.2784C176.982 31.5168 177.207 31.8234 177.352 32.1981C177.574 31.7638 177.859 31.4444 178.208 31.2401C178.557 31.0272 178.915 30.9207 179.281 30.9207C179.656 30.9207 180.009 31.0186 180.341 31.2145C180.682 31.4019 180.954 31.6786 181.159 32.0448C181.372 32.411 181.478 32.8538 181.478 33.3733V36.669C181.478 36.7627 181.423 36.8521 181.312 36.9373C181.21 37.0139 181.086 37.0522 180.942 37.0522C180.797 37.0522 180.673 37.0139 180.571 36.9373C180.469 36.8521 180.418 36.7627 180.418 36.669V33.3733C180.418 33.0497 180.35 32.7772 180.213 32.5558C180.086 32.3344 179.915 32.1683 179.703 32.0576C179.498 31.9384 179.289 31.8788 179.077 31.8788C178.847 31.8788 178.629 31.9384 178.425 32.0576C178.221 32.1768 178.05 32.3429 177.914 32.5558C177.778 32.7687 177.71 33.0284 177.71 33.335V36.6818C177.71 36.8095 177.654 36.9032 177.544 36.9628C177.433 37.0224 177.31 37.0522 177.173 37.0522C177.054 37.0522 176.935 37.0224 176.816 36.9628C176.705 36.9032 176.65 36.8095 176.65 36.6818V33.3478C176.65 33.0582 176.586 32.8027 176.458 32.5813C176.339 32.3599 176.177 32.1896 175.972 32.0704C175.777 31.9426 175.559 31.8788 175.321 31.8788C175.091 31.8788 174.87 31.9384 174.657 32.0576C174.452 32.1768 174.282 32.3471 174.146 32.5686C174.018 32.7815 173.954 33.0497 173.954 33.3733V36.669C173.954 36.7627 173.899 36.8521 173.788 36.9373C173.686 37.0139 173.562 37.0522 173.418 37.0522ZM183.447 29.3367C183.268 29.3367 183.111 29.2771 182.975 29.1579C182.847 29.0301 182.783 28.8854 182.783 28.7236C182.783 28.5618 182.847 28.4212 182.975 28.302C183.111 28.1828 183.268 28.1232 183.447 28.1232C183.635 28.1232 183.788 28.1828 183.907 28.302C184.035 28.4212 184.099 28.5618 184.099 28.7236C184.099 28.8854 184.035 29.0301 183.907 29.1579C183.788 29.2771 183.635 29.3367 183.447 29.3367ZM183.447 37.0522C183.294 37.0522 183.166 37.0139 183.064 36.9373C182.97 36.8521 182.924 36.7627 182.924 36.669V31.3678C182.924 31.2571 182.97 31.1677 183.064 31.0995C183.166 31.0314 183.294 30.9973 183.447 30.9973C183.592 30.9973 183.716 31.0314 183.818 31.0995C183.928 31.1677 183.984 31.2571 183.984 31.3678V36.669C183.984 36.7627 183.928 36.8521 183.818 36.9373C183.716 37.0139 183.592 37.0522 183.447 37.0522ZM187.218 37.1544C186.809 37.1544 186.447 37.1033 186.132 37.0011C185.817 36.8904 185.57 36.7627 185.391 36.6179C185.213 36.4732 185.123 36.3284 185.123 36.1836C185.123 36.1155 185.14 36.0474 185.174 35.9792C185.208 35.9026 185.251 35.8387 185.302 35.7876C185.362 35.728 185.426 35.6982 185.494 35.6982C185.596 35.6982 185.707 35.7493 185.826 35.8515C185.945 35.9452 186.107 36.0431 186.311 36.1453C186.516 36.2475 186.809 36.2986 187.193 36.2986C187.644 36.2986 187.959 36.2177 188.138 36.0559C188.317 35.8855 188.406 35.6982 188.406 35.4938C188.406 35.2298 188.329 35.0297 188.176 34.8934C188.023 34.7487 187.827 34.638 187.589 34.5613C187.35 34.4761 187.099 34.3952 186.835 34.3186C186.571 34.242 186.32 34.1483 186.081 34.0376C185.843 33.9183 185.647 33.7565 185.494 33.5522C185.349 33.3393 185.276 33.0582 185.276 32.7091C185.276 32.428 185.345 32.1513 185.481 31.8788C185.617 31.6062 185.839 31.3806 186.145 31.2017C186.452 31.0144 186.86 30.9207 187.371 30.9207C187.669 30.9207 187.955 30.9548 188.227 31.0229C188.508 31.0825 188.734 31.1677 188.904 31.2784C189.083 31.3806 189.173 31.4913 189.173 31.6105C189.173 31.6616 189.156 31.7297 189.121 31.8149C189.087 31.9 189.041 31.9767 188.981 32.0448C188.921 32.1129 188.845 32.147 188.751 32.147C188.683 32.147 188.585 32.1172 188.457 32.0576C188.338 31.9895 188.189 31.9256 188.01 31.866C187.84 31.8064 187.631 31.7766 187.384 31.7766C187.103 31.7766 186.878 31.8277 186.707 31.9299C186.537 32.0235 186.413 32.1385 186.337 32.2748C186.26 32.4025 186.222 32.5345 186.222 32.6707C186.222 32.8836 186.294 33.0497 186.439 33.1689C186.592 33.2882 186.788 33.3861 187.027 33.4627C187.273 33.5309 187.529 33.6033 187.793 33.6799C188.057 33.748 188.308 33.8502 188.547 33.9865C188.785 34.1142 188.981 34.2931 189.134 34.523C189.288 34.7529 189.364 35.0595 189.364 35.4427C189.364 35.9622 189.177 36.3795 188.802 36.6946C188.427 37.0011 187.899 37.1544 187.218 37.1544ZM191.044 37.0522C190.891 37.0522 190.763 37.0139 190.661 36.9373C190.567 36.8521 190.521 36.7627 190.521 36.669V31.3678C190.521 31.2571 190.567 31.1677 190.661 31.0995C190.763 31.0314 190.891 30.9973 191.044 30.9973C191.181 30.9973 191.296 31.0314 191.389 31.0995C191.483 31.1677 191.53 31.2571 191.53 31.3678V31.8915C191.675 31.6446 191.887 31.4231 192.168 31.2273C192.45 31.0229 192.803 30.9207 193.229 30.9207C193.638 30.9207 193.995 31.0399 194.302 31.2784C194.608 31.5168 194.834 31.8234 194.979 32.1981C195.2 31.7638 195.485 31.4444 195.835 31.2401C196.184 31.0272 196.541 30.9207 196.908 30.9207C197.282 30.9207 197.636 31.0186 197.968 31.2145C198.309 31.4019 198.581 31.6786 198.785 32.0448C198.998 32.411 199.105 32.8538 199.105 33.3733V36.669C199.105 36.7627 199.049 36.8521 198.939 36.9373C198.837 37.0139 198.713 37.0522 198.568 37.0522C198.424 37.0522 198.3 37.0139 198.198 36.9373C198.096 36.8521 198.045 36.7627 198.045 36.669V33.3733C198.045 33.0497 197.976 32.7772 197.84 32.5558C197.712 32.3344 197.542 32.1683 197.329 32.0576C197.125 31.9384 196.916 31.8788 196.703 31.8788C196.473 31.8788 196.256 31.9384 196.052 32.0576C195.847 32.1768 195.677 32.3429 195.541 32.5558C195.405 32.7687 195.336 33.0284 195.336 33.335V36.6818C195.336 36.8095 195.281 36.9032 195.17 36.9628C195.06 37.0224 194.936 37.0522 194.8 37.0522C194.681 37.0522 194.561 37.0224 194.442 36.9628C194.332 36.9032 194.276 36.8095 194.276 36.6818V33.3478C194.276 33.0582 194.212 32.8027 194.085 32.5813C193.965 32.3599 193.804 32.1896 193.599 32.0704C193.403 31.9426 193.186 31.8788 192.948 31.8788C192.718 31.8788 192.496 31.9384 192.283 32.0576C192.079 32.1768 191.909 32.3471 191.772 32.5686C191.645 32.7815 191.581 33.0497 191.581 33.3733V36.669C191.581 36.7627 191.526 36.8521 191.415 36.9373C191.313 37.0139 191.189 37.0522 191.044 37.0522ZM201.879 37.1544C201.402 37.1544 200.993 37.0182 200.652 36.7457C200.32 36.4646 200.154 36.0346 200.154 35.4555C200.154 34.9871 200.282 34.6252 200.537 34.3697C200.793 34.1057 201.142 33.9269 201.585 33.8332C202.036 33.731 202.556 33.6799 203.143 33.6799H203.757V33.4116C203.757 33.1562 203.71 32.9092 203.616 32.6707C203.522 32.4238 203.373 32.2237 203.169 32.0704C202.973 31.9086 202.701 31.8277 202.351 31.8277C202.053 31.8277 201.815 31.8575 201.636 31.9171C201.466 31.9767 201.329 32.0406 201.227 32.1087C201.125 32.1683 201.036 32.1981 200.959 32.1981C200.831 32.1981 200.733 32.1385 200.665 32.0193C200.597 31.8915 200.563 31.7723 200.563 31.6616C200.563 31.5253 200.657 31.4019 200.844 31.2912C201.031 31.1804 201.266 31.091 201.547 31.0229C201.828 30.9548 202.104 30.9207 202.377 30.9207C202.973 30.9207 203.45 31.0399 203.808 31.2784C204.165 31.5168 204.421 31.8234 204.574 32.1981C204.736 32.5728 204.817 32.9731 204.817 33.3989V36.669C204.817 36.7712 204.766 36.8606 204.663 36.9373C204.57 37.0139 204.446 37.0522 204.293 37.0522C204.157 37.0522 204.042 37.0139 203.948 36.9373C203.854 36.8606 203.808 36.7712 203.808 36.669V36.1581C203.586 36.4135 203.318 36.6435 203.003 36.8479C202.688 37.0522 202.313 37.1544 201.879 37.1544ZM202.211 36.2986C202.458 36.2986 202.696 36.2304 202.926 36.0942C203.165 35.9579 203.361 35.7876 203.514 35.5832C203.676 35.3788 203.757 35.183 203.757 34.9956V34.3314H203.309C202.952 34.3314 202.611 34.3527 202.288 34.3952C201.972 34.4378 201.717 34.5315 201.521 34.6763C201.325 34.8125 201.227 35.0339 201.227 35.3405C201.227 35.6726 201.321 35.9154 201.508 36.0686C201.696 36.2219 201.93 36.2986 202.211 36.2986ZM209.332 37.0522C209.187 37.0522 209.064 37.0139 208.961 36.9373C208.868 36.8521 208.821 36.7627 208.821 36.669V31.3678C208.821 31.2571 208.868 31.1677 208.961 31.0995C209.064 31.0314 209.187 30.9973 209.332 30.9973C209.477 30.9973 209.596 31.0314 209.69 31.0995C209.783 31.1677 209.83 31.2571 209.83 31.3678V31.9682C209.924 31.7893 210.052 31.6233 210.213 31.47C210.375 31.3082 210.562 31.1762 210.775 31.074C210.997 30.9718 211.239 30.9207 211.503 30.9207H211.938C212.049 30.9207 212.142 30.9675 212.219 31.0612C212.304 31.1549 212.347 31.2699 212.347 31.4061C212.347 31.5339 212.304 31.6446 212.219 31.7382C212.142 31.8319 212.049 31.8788 211.938 31.8788H211.503C211.231 31.8788 210.971 31.9554 210.724 32.1087C210.477 32.262 210.273 32.4791 210.111 32.7602C209.958 33.0327 209.881 33.3648 209.881 33.7565V36.669C209.881 36.7627 209.826 36.8521 209.715 36.9373C209.613 37.0139 209.485 37.0522 209.332 37.0522ZM215.581 37.1544C215.028 37.1544 214.538 37.0522 214.112 36.8479C213.686 36.635 213.35 36.3454 213.103 35.9792C212.856 35.6045 212.733 35.1702 212.733 34.6763V33.335C212.733 32.9007 212.848 32.5004 213.077 32.1342C213.316 31.768 213.627 31.4742 214.01 31.2528C214.393 31.0314 214.815 30.9207 215.275 30.9207C215.717 30.9207 216.122 31.0229 216.488 31.2273C216.863 31.4317 217.161 31.7084 217.382 32.0576C217.612 32.4068 217.727 32.8113 217.727 33.2711C217.727 33.6118 217.672 33.8587 217.561 34.012C217.45 34.1568 217.31 34.2462 217.14 34.2803C216.969 34.3143 216.79 34.3314 216.603 34.3314H213.793V34.7146C213.793 35.1915 213.963 35.5705 214.304 35.8515C214.644 36.124 215.083 36.2603 215.62 36.2603C215.935 36.2603 216.186 36.2177 216.373 36.1325C216.561 36.0474 216.714 35.9665 216.833 35.8898C216.952 35.8046 217.059 35.7621 217.152 35.7621C217.246 35.7621 217.323 35.7919 217.382 35.8515C217.45 35.9026 217.502 35.9665 217.536 36.0431C217.57 36.1197 217.587 36.1879 217.587 36.2475C217.587 36.3582 217.506 36.4859 217.344 36.6307C217.182 36.767 216.948 36.8904 216.641 37.0011C216.343 37.1033 215.99 37.1544 215.581 37.1544ZM213.793 33.616H216.156C216.386 33.616 216.535 33.5905 216.603 33.5394C216.68 33.4798 216.718 33.3691 216.718 33.2073C216.718 32.9518 216.654 32.7176 216.526 32.5047C216.407 32.2833 216.237 32.1044 216.016 31.9682C215.794 31.8319 215.543 31.7638 215.262 31.7638C214.998 31.7638 214.755 31.8277 214.534 31.9554C214.312 32.0746 214.133 32.2407 213.997 32.4536C213.861 32.6665 213.793 32.9007 213.793 33.1562V33.616ZM220.229 37.1544C219.752 37.1544 219.343 37.0182 219.003 36.7457C218.671 36.4646 218.504 36.0346 218.504 35.4555C218.504 34.9871 218.632 34.6252 218.888 34.3697C219.143 34.1057 219.492 33.9269 219.935 33.8332C220.387 33.731 220.906 33.6799 221.494 33.6799H222.107V33.4116C222.107 33.1562 222.06 32.9092 221.966 32.6707C221.873 32.4238 221.724 32.2237 221.519 32.0704C221.323 31.9086 221.051 31.8277 220.702 31.8277C220.404 31.8277 220.165 31.8575 219.986 31.9171C219.816 31.9767 219.68 32.0406 219.577 32.1087C219.475 32.1683 219.386 32.1981 219.309 32.1981C219.182 32.1981 219.084 32.1385 219.015 32.0193C218.947 31.8915 218.913 31.7723 218.913 31.6616C218.913 31.5253 219.007 31.4019 219.194 31.2912C219.382 31.1804 219.616 31.091 219.897 31.0229C220.178 30.9548 220.455 30.9207 220.727 30.9207C221.323 30.9207 221.8 31.0399 222.158 31.2784C222.516 31.5168 222.771 31.8234 222.924 32.1981C223.086 32.5728 223.167 32.9731 223.167 33.3989V36.669C223.167 36.7712 223.116 36.8606 223.014 36.9373C222.92 37.0139 222.797 37.0522 222.643 37.0522C222.507 37.0522 222.392 37.0139 222.298 36.9373C222.205 36.8606 222.158 36.7712 222.158 36.669V36.1581C221.936 36.4135 221.668 36.6435 221.353 36.8479C221.038 37.0522 220.663 37.1544 220.229 37.1544ZM220.561 36.2986C220.808 36.2986 221.047 36.2304 221.276 36.0942C221.515 35.9579 221.711 35.7876 221.864 35.5832C222.026 35.3788 222.107 35.183 222.107 34.9956V34.3314H221.66C221.302 34.3314 220.961 34.3527 220.638 34.3952C220.323 34.4378 220.067 34.5315 219.871 34.6763C219.675 34.8125 219.577 35.0339 219.577 35.3405C219.577 35.6726 219.671 35.9154 219.859 36.0686C220.046 36.2219 220.28 36.2986 220.561 36.2986ZM225.253 37.0522C225.099 37.0522 224.972 37.0139 224.869 36.9373C224.776 36.8521 224.729 36.7627 224.729 36.669V27.7144C224.729 27.6037 224.776 27.5143 224.869 27.4462C224.972 27.378 225.099 27.344 225.253 27.344C225.397 27.344 225.521 27.378 225.623 27.4462C225.734 27.5143 225.789 27.6037 225.789 27.7144V36.669C225.789 36.7627 225.734 36.8521 225.623 36.9373C225.521 37.0139 225.397 37.0522 225.253 37.0522ZM227.932 29.3367C227.753 29.3367 227.596 29.2771 227.459 29.1579C227.332 29.0301 227.268 28.8854 227.268 28.7236C227.268 28.5618 227.332 28.4212 227.459 28.302C227.596 28.1828 227.753 28.1232 227.932 28.1232C228.119 28.1232 228.273 28.1828 228.392 28.302C228.52 28.4212 228.583 28.5618 228.583 28.7236C228.583 28.8854 228.52 29.0301 228.392 29.1579C228.273 29.2771 228.119 29.3367 227.932 29.3367ZM227.932 37.0522C227.779 37.0522 227.651 37.0139 227.549 36.9373C227.455 36.8521 227.408 36.7627 227.408 36.669V31.3678C227.408 31.2571 227.455 31.1677 227.549 31.0995C227.651 31.0314 227.779 30.9973 227.932 30.9973C228.077 30.9973 228.2 31.0314 228.302 31.0995C228.413 31.1677 228.468 31.2571 228.468 31.3678V36.669C228.468 36.7627 228.413 36.8521 228.302 36.9373C228.2 37.0139 228.077 37.0522 227.932 37.0522ZM231.997 37.1544C231.596 37.1544 231.222 37.0395 230.872 36.8095C230.532 36.5711 230.255 36.2645 230.042 35.8898C229.838 35.5066 229.736 35.1021 229.736 34.6763V33.3733C229.736 32.922 229.838 32.5132 230.042 32.147C230.255 31.7808 230.532 31.487 230.872 31.2656C231.222 31.0357 231.605 30.9207 232.022 30.9207C232.431 30.9207 232.776 31.0229 233.057 31.2273C233.346 31.4231 233.559 31.6446 233.696 31.8915V27.7144C233.696 27.6037 233.747 27.5143 233.849 27.4462C233.96 27.378 234.092 27.344 234.245 27.344C234.398 27.344 234.522 27.378 234.615 27.4462C234.709 27.5143 234.756 27.6037 234.756 27.7144V36.669C234.756 36.7627 234.709 36.8521 234.615 36.9373C234.522 37.0139 234.398 37.0522 234.245 37.0522C234.109 37.0522 233.989 37.0139 233.887 36.9373C233.793 36.8521 233.747 36.7627 233.747 36.669V36.1581C233.619 36.4221 233.393 36.6563 233.07 36.8606C232.746 37.0565 232.388 37.1544 231.997 37.1544ZM232.252 36.1964C232.525 36.1964 232.767 36.124 232.98 35.9792C233.202 35.8259 233.376 35.6556 233.504 35.4683C233.632 35.2809 233.696 35.1319 233.696 35.0212V33.3733C233.696 33.0582 233.623 32.7942 233.478 32.5813C233.342 32.3599 233.163 32.1896 232.942 32.0704C232.72 31.9426 232.495 31.8788 232.265 31.8788C231.992 31.8788 231.745 31.9511 231.524 32.0959C231.303 32.2407 231.124 32.428 230.987 32.658C230.86 32.8879 230.796 33.1264 230.796 33.3733V34.6763C230.796 34.9232 230.86 35.1659 230.987 35.4044C231.124 35.6428 231.303 35.8345 231.524 35.9792C231.745 36.124 231.988 36.1964 232.252 36.1964ZM237.606 37.1544C237.129 37.1544 236.721 37.0182 236.38 36.7457C236.048 36.4646 235.882 36.0346 235.882 35.4555C235.882 34.9871 236.009 34.6252 236.265 34.3697C236.52 34.1057 236.87 33.9269 237.312 33.8332C237.764 33.731 238.283 33.6799 238.871 33.6799H239.484V33.4116C239.484 33.1562 239.437 32.9092 239.343 32.6707C239.25 32.4238 239.101 32.2237 238.896 32.0704C238.7 31.9086 238.428 31.8277 238.079 31.8277C237.781 31.8277 237.542 31.8575 237.363 31.9171C237.193 31.9767 237.057 32.0406 236.955 32.1087C236.853 32.1683 236.763 32.1981 236.686 32.1981C236.559 32.1981 236.461 32.1385 236.393 32.0193C236.325 31.8915 236.29 31.7723 236.29 31.6616C236.29 31.5253 236.384 31.4019 236.571 31.2912C236.759 31.1804 236.993 31.091 237.274 31.0229C237.555 30.9548 237.832 30.9207 238.104 30.9207C238.7 30.9207 239.177 31.0399 239.535 31.2784C239.893 31.5168 240.148 31.8234 240.301 32.1981C240.463 32.5728 240.544 32.9731 240.544 33.3989V36.669C240.544 36.7712 240.493 36.8606 240.391 36.9373C240.297 37.0139 240.174 37.0522 240.02 37.0522C239.884 37.0522 239.769 37.0139 239.676 36.9373C239.582 36.8606 239.535 36.7712 239.535 36.669V36.1581C239.314 36.4135 239.045 36.6435 238.73 36.8479C238.415 37.0522 238.04 37.1544 237.606 37.1544ZM237.938 36.2986C238.185 36.2986 238.424 36.2304 238.654 36.0942C238.892 35.9579 239.088 35.7876 239.241 35.5832C239.403 35.3788 239.484 35.183 239.484 34.9956V34.3314H239.037C238.679 34.3314 238.339 34.3527 238.015 34.3952C237.7 34.4378 237.444 34.5315 237.248 34.6763C237.053 34.8125 236.955 35.0339 236.955 35.3405C236.955 35.6726 237.048 35.9154 237.236 36.0686C237.423 36.2219 237.657 36.2986 237.938 36.2986ZM244.022 37.1544C243.622 37.1544 243.247 37.0395 242.898 36.8095C242.557 36.5711 242.281 36.2645 242.068 35.8898C241.863 35.5066 241.761 35.1021 241.761 34.6763V33.3733C241.761 32.922 241.863 32.5132 242.068 32.147C242.281 31.7808 242.557 31.487 242.898 31.2656C243.247 31.0357 243.63 30.9207 244.048 30.9207C244.456 30.9207 244.801 31.0229 245.082 31.2273C245.372 31.4231 245.585 31.6446 245.721 31.8915V27.7144C245.721 27.6037 245.772 27.5143 245.874 27.4462C245.985 27.378 246.117 27.344 246.27 27.344C246.424 27.344 246.547 27.378 246.641 27.4462C246.734 27.5143 246.781 27.6037 246.781 27.7144V36.669C246.781 36.7627 246.734 36.8521 246.641 36.9373C246.547 37.0139 246.424 37.0522 246.27 37.0522C246.134 37.0522 246.015 37.0139 245.913 36.9373C245.819 36.8521 245.772 36.7627 245.772 36.669V36.1581C245.644 36.4221 245.419 36.6563 245.095 36.8606C244.772 37.0565 244.414 37.1544 244.022 37.1544ZM244.278 36.1964C244.55 36.1964 244.793 36.124 245.006 35.9792C245.227 35.8259 245.402 35.6556 245.529 35.4683C245.657 35.2809 245.721 35.1319 245.721 35.0212V33.3733C245.721 33.0582 245.649 32.7942 245.504 32.5813C245.368 32.3599 245.189 32.1896 244.967 32.0704C244.746 31.9426 244.52 31.8788 244.29 31.8788C244.018 31.8788 243.771 31.9511 243.549 32.0959C243.328 32.2407 243.149 32.428 243.013 32.658C242.885 32.8879 242.821 33.1264 242.821 33.3733V34.6763C242.821 34.9232 242.885 35.1659 243.013 35.4044C243.149 35.6428 243.328 35.8345 243.549 35.9792C243.771 36.124 244.014 36.1964 244.278 36.1964ZM249.811 34.8168C249.674 34.8168 249.572 34.7827 249.504 34.7146C249.436 34.6465 249.402 34.523 249.402 34.3441C249.402 33.8928 249.427 33.5309 249.478 33.2584C249.538 32.9773 249.615 32.7559 249.708 32.5941C249.811 32.4323 249.913 32.296 250.015 32.1853C250.143 32.0491 250.287 31.9128 250.449 31.7766C250.62 31.6318 250.781 31.4742 250.935 31.3039C251.096 31.1251 251.228 30.925 251.331 30.7035C251.433 30.4736 251.484 30.2096 251.484 29.9116C251.484 29.4517 251.343 29.0898 251.062 28.8258C250.781 28.5618 250.385 28.4298 249.874 28.4298C249.585 28.4298 249.351 28.4681 249.172 28.5447C249.002 28.6129 248.87 28.6938 248.776 28.7874C248.682 28.8811 248.597 28.962 248.52 29.0301C248.444 29.0983 248.354 29.1323 248.252 29.1323C248.167 29.1323 248.078 29.0983 247.984 29.0301C247.89 28.9535 247.843 28.847 247.843 28.7108C247.843 28.5575 247.929 28.3957 248.099 28.2254C248.278 28.0465 248.52 27.8975 248.827 27.7783C249.142 27.6505 249.504 27.5867 249.913 27.5867C250.449 27.5867 250.901 27.6846 251.267 27.8805C251.633 28.0763 251.91 28.3446 252.097 28.6852C252.293 29.0259 252.391 29.4048 252.391 29.8221C252.391 30.2054 252.327 30.5417 252.199 30.8313C252.072 31.1123 251.914 31.3678 251.727 31.5977C251.548 31.8191 251.365 32.0108 251.177 32.1726C250.999 32.3344 250.854 32.4791 250.743 32.6069C250.581 32.7602 250.466 32.9262 250.398 33.1051C250.33 33.2754 250.287 33.4713 250.27 33.6927C250.253 33.9141 250.245 34.1738 250.245 34.4719C250.245 34.5656 250.211 34.6465 250.143 34.7146C250.083 34.7827 249.972 34.8168 249.811 34.8168ZM249.823 37.1289C249.627 37.1289 249.466 37.0608 249.338 36.9245C249.219 36.7882 249.159 36.635 249.159 36.4646C249.159 36.2773 249.223 36.1197 249.351 35.992C249.478 35.8557 249.636 35.7876 249.823 35.7876C250.002 35.7876 250.155 35.8557 250.283 35.992C250.411 36.1197 250.475 36.2773 250.475 36.4646C250.475 36.635 250.411 36.7882 250.283 36.9245C250.155 37.0608 250.002 37.1289 249.823 37.1289Z" fill="white"/>
<path d="M50.1034 7.60319H52.7034L54.3899 20.3224H54.4368L56.1233 7.60319H58.4892L56.0062 24H52.5863L50.1034 7.60319ZM59.7268 7.60319H66.754V9.94559H62.3034V14.279H65.8404V16.6214H62.3034V21.6576H66.754V24H59.7268V7.60319ZM68.2363 7.60319H72.0544C73.3818 7.60319 74.35 7.91551 74.959 8.54015C75.568 9.14917 75.8725 10.0939 75.8725 11.3745V12.3817C75.8725 14.0838 75.3103 15.1613 74.186 15.6142V15.6611C74.8106 15.8484 75.2479 16.231 75.4977 16.8088C75.7632 17.3866 75.8959 18.1596 75.8959 19.1278V22.009C75.8959 22.4774 75.9116 22.86 75.9428 23.1567C75.974 23.4378 76.0521 23.7189 76.177 24H73.5535C73.4598 23.7345 73.3974 23.4847 73.3661 23.2504C73.3349 23.0162 73.3193 22.5946 73.3193 21.9855V18.9873C73.3193 18.2377 73.1944 17.7146 72.9445 17.4179C72.7103 17.1211 72.2964 16.9728 71.703 16.9728H70.8129V24H68.2363V7.60319ZM71.7499 14.6304C72.2652 14.6304 72.6478 14.4977 72.8977 14.2322C73.1631 13.9667 73.2959 13.5217 73.2959 12.897V11.6321C73.2959 11.0387 73.1866 10.6093 72.9679 10.3438C72.7649 10.0783 72.437 9.94559 71.9841 9.94559H70.8129V14.6304H71.7499ZM77.6837 7.60319H81.6189C82.8994 7.60319 83.8598 7.94674 84.5001 8.63385C85.1403 9.32095 85.4604 10.3282 85.4604 11.6555V19.9476C85.4604 21.275 85.1403 22.2822 84.5001 22.9693C83.8598 23.6564 82.8994 24 81.6189 24H77.6837V7.60319ZM81.5721 21.6576C81.9937 21.6576 82.3138 21.5327 82.5324 21.2828C82.7667 21.033 82.8838 20.6269 82.8838 20.0648V11.5384C82.8838 10.9762 82.7667 10.5702 82.5324 10.3204C82.3138 10.0705 81.9937 9.94559 81.5721 9.94559H80.2603V21.6576H81.5721ZM89.145 7.60319H92.6351L95.3055 24H92.7288L92.2604 20.7441V20.7909H89.3324L88.8639 24H86.4746L89.145 7.60319ZM91.9558 18.5656L90.8081 10.4609H90.7612L89.6369 18.5656H91.9558ZM96.5556 7.60319H100.491C101.771 7.60319 102.732 7.94674 103.372 8.63385C104.012 9.32095 104.332 10.3282 104.332 11.6555V19.9476C104.332 21.275 104.012 22.2822 103.372 22.9693C102.732 23.6564 101.771 24 100.491 24H96.5556V7.60319ZM100.444 21.6576C100.866 21.6576 101.186 21.5327 101.404 21.2828C101.639 21.033 101.756 20.6269 101.756 20.0648V11.5384C101.756 10.9762 101.639 10.5702 101.404 10.3204C101.186 10.0705 100.866 9.94559 100.444 9.94559H99.1322V21.6576H100.444ZM106.072 7.60319H113.099V9.94559H108.648V14.279H112.185V16.6214H108.648V21.6576H113.099V24H106.072V7.60319ZM117.976 24.2342C116.727 24.2342 115.782 23.8829 115.142 23.1802C114.502 22.4618 114.182 21.439 114.182 20.1116V19.1747H116.618V20.299C116.618 21.3609 117.063 21.8918 117.953 21.8918C118.39 21.8918 118.718 21.7669 118.937 21.5171C119.171 21.2516 119.288 20.8299 119.288 20.2522C119.288 19.5651 119.132 18.9638 118.82 18.4485C118.507 17.9176 117.93 17.2851 117.086 16.5512C116.024 15.6142 115.283 14.7709 114.861 14.0214C114.439 13.2562 114.229 12.3973 114.229 11.4447C114.229 10.1486 114.557 9.14917 115.212 8.44645C115.868 7.72812 116.821 7.36895 118.07 7.36895C119.304 7.36895 120.233 7.72812 120.858 8.44645C121.498 9.14917 121.818 10.1642 121.818 11.4916V12.1709H119.382V11.3276C119.382 10.7654 119.273 10.3594 119.054 10.1096C118.835 9.84409 118.515 9.71135 118.094 9.71135C117.235 9.71135 116.805 10.2345 116.805 11.2808C116.805 11.8742 116.961 12.4285 117.274 12.9439C117.602 13.4592 118.187 14.0838 119.031 14.8178C120.108 15.7547 120.85 16.6058 121.256 17.371C121.662 18.1362 121.865 19.0341 121.865 20.0648C121.865 21.4077 121.529 22.4384 120.858 23.1567C120.202 23.8751 119.241 24.2342 117.976 24.2342Z" fill="white"/>
</svg>
