<svg width="247" height="31" viewBox="0 0 247 31" fill="none" xmlns="http://www.w3.org/2000/svg">
<path d="M2.87318 20.6011C2.34519 20.6011 1.89384 20.5031 1.51914 20.3073C1.15295 20.1029 0.876175 19.8346 0.688822 19.5025C0.501469 19.1618 0.407793 18.7829 0.407793 18.3656C0.407793 17.9824 0.471663 17.646 0.599404 17.3565C0.727144 17.0669 0.880433 16.8114 1.05927 16.59C1.24662 16.3686 1.42972 16.177 1.60855 16.0152C1.79591 15.8534 1.94494 15.7086 2.05565 15.5809C2.21745 15.4191 2.33242 15.253 2.40054 15.0827C2.46867 14.9038 2.51125 14.7037 2.52828 14.4823C2.54532 14.2609 2.55383 14.0011 2.55383 13.7031C2.55383 13.6094 2.58364 13.5328 2.64325 13.4731C2.71138 13.405 2.82209 13.3709 2.97538 13.3709C3.11163 13.3709 3.21383 13.405 3.28195 13.4731C3.3586 13.5413 3.39692 13.6648 3.39692 13.8436C3.39692 14.2949 3.36711 14.6611 3.3075 14.9422C3.24789 15.2147 3.17125 15.4318 3.07757 15.5936C2.99241 15.7554 2.89447 15.8917 2.78377 16.0024C2.65603 16.1387 2.50699 16.2792 2.33667 16.4239C2.17487 16.5602 2.01306 16.7177 1.85126 16.8966C1.69797 17.0669 1.57023 17.2628 1.46804 17.4842C1.36585 17.7056 1.31475 17.9653 1.31475 18.2634C1.31475 18.7318 1.45526 19.098 1.73629 19.362C2.01732 19.6175 2.41332 19.7452 2.92428 19.7452C3.21383 19.7452 3.44376 19.7111 3.61408 19.643C3.7844 19.5749 3.9164 19.494 4.01007 19.4003C4.11227 19.3066 4.20168 19.2257 4.27833 19.1576C4.35497 19.0895 4.44013 19.0554 4.53381 19.0554C4.62749 19.0554 4.72116 19.0895 4.81484 19.1576C4.90852 19.2257 4.95535 19.3322 4.95535 19.4769C4.95535 19.6302 4.86594 19.7963 4.6871 19.9751C4.51678 20.1455 4.27407 20.2945 3.95898 20.4222C3.6524 20.5414 3.29047 20.6011 2.87318 20.6011ZM2.97538 12.4001C2.79654 12.4001 2.63899 12.3362 2.50274 12.2085C2.375 12.0723 2.31113 11.9104 2.31113 11.7231C2.31113 11.5443 2.375 11.391 2.50274 11.2632C2.63048 11.127 2.78802 11.0588 2.97538 11.0588C3.16273 11.0588 3.32028 11.127 3.44802 11.2632C3.57576 11.391 3.63963 11.5443 3.63963 11.7231C3.63963 11.9104 3.57576 12.0723 3.44802 12.2085C3.32028 12.3362 3.16273 12.4001 2.97538 12.4001ZM8.80204 20.6011C8.30811 20.6011 7.8525 20.5116 7.43522 20.3328C7.01793 20.1455 6.6858 19.8474 6.43884 19.4386C6.19187 19.0299 6.06839 18.4891 6.06839 17.8163V13.9713C6.06839 13.2986 6.19187 12.7578 6.43884 12.349C6.69432 11.9403 7.0307 11.6465 7.44799 11.4676C7.86527 11.2803 8.32088 11.1866 8.81481 11.1866C9.3939 11.1866 9.88783 11.2845 10.2966 11.4804C10.7054 11.6763 11.0205 11.9445 11.2419 12.2852C11.4633 12.6173 11.574 12.992 11.574 13.4093C11.574 13.6477 11.5272 13.8053 11.4335 13.8819C11.3483 13.9586 11.2163 13.9969 11.0375 13.9969C10.8672 13.9969 10.7352 13.9628 10.6415 13.8947C10.5563 13.8266 10.5095 13.7371 10.501 13.6264C10.4925 13.4987 10.4669 13.3539 10.4243 13.1921C10.3903 13.0218 10.3136 12.86 10.1944 12.7067C10.0837 12.5449 9.91764 12.4129 9.69622 12.3107C9.48332 12.2085 9.19803 12.1574 8.84036 12.1574C8.29533 12.1574 7.87379 12.3064 7.57573 12.6045C7.28618 12.894 7.14141 13.3497 7.14141 13.9713V17.8163C7.14141 18.438 7.29044 18.8979 7.5885 19.1959C7.88656 19.4855 8.31662 19.6302 8.87868 19.6302C9.23636 19.6302 9.51738 19.5791 9.72177 19.4769C9.93467 19.3747 10.0922 19.247 10.1944 19.0937C10.2966 18.9404 10.369 18.7786 10.4116 18.6083C10.4541 18.4295 10.484 18.2634 10.501 18.1101C10.5095 17.9824 10.5606 17.8887 10.6543 17.8291C10.748 17.7695 10.8757 17.7397 11.0375 17.7397C11.2163 17.7397 11.3483 17.7823 11.4335 17.8674C11.5272 17.9441 11.574 18.1016 11.574 18.3401C11.574 18.7573 11.459 19.1406 11.2291 19.4897C11.0077 19.8304 10.6883 20.1029 10.2711 20.3073C9.86228 20.5031 9.37261 20.6011 8.80204 20.6011ZM15.0898 20.6266C14.6384 20.6266 14.2211 20.5116 13.8379 20.2817C13.4547 20.0433 13.1481 19.7367 12.9182 19.362C12.6882 18.9873 12.5733 18.5828 12.5733 18.1484V16.8455C12.5733 16.4112 12.684 16.0109 12.9054 15.6447C13.1353 15.27 13.4419 14.9677 13.8251 14.7378C14.2084 14.5078 14.6299 14.3929 15.0898 14.3929C15.5411 14.3929 15.9584 14.5078 16.3416 14.7378C16.7248 14.9592 17.0314 15.253 17.2614 15.6192C17.4998 15.9854 17.619 16.3941 17.619 16.8455V18.1484C17.619 18.5742 17.4998 18.9788 17.2614 19.362C17.0314 19.7367 16.7248 20.0433 16.3416 20.2817C15.9584 20.5116 15.5411 20.6266 15.0898 20.6266ZM15.0898 19.6686C15.3623 19.6686 15.605 19.5962 15.8179 19.4514C16.0393 19.3066 16.2181 19.1193 16.3544 18.8893C16.4907 18.6509 16.5588 18.4039 16.5588 18.1484V16.8455C16.5588 16.5985 16.4907 16.3601 16.3544 16.1301C16.2267 15.9002 16.0521 15.7129 15.8307 15.5681C15.6092 15.4233 15.3623 15.3509 15.0898 15.3509C14.8172 15.3509 14.5703 15.4233 14.3489 15.5681C14.1275 15.7129 13.9529 15.9002 13.8251 16.1301C13.6974 16.3601 13.6335 16.5985 13.6335 16.8455V18.1484C13.6335 18.4039 13.6974 18.6509 13.8251 18.8893C13.9529 19.1193 14.1275 19.3066 14.3489 19.4514C14.5703 19.5962 14.8172 19.6686 15.0898 19.6686ZM19.4146 20.5244C19.2613 20.5244 19.1335 20.4861 19.0314 20.4094C18.9377 20.3243 18.8908 20.2349 18.8908 20.1412V14.84C18.8908 14.7293 18.9377 14.6398 19.0314 14.5717C19.1335 14.5036 19.2613 14.4695 19.4146 14.4695C19.5508 14.4695 19.6658 14.5036 19.7595 14.5717C19.8532 14.6398 19.9 14.7293 19.9 14.84V15.3637C20.0362 15.1167 20.2491 14.8953 20.5387 14.6994C20.8282 14.4951 21.1859 14.3929 21.6117 14.3929C22.0205 14.3929 22.3952 14.5078 22.7358 14.7378C23.0765 14.9592 23.349 15.253 23.5534 15.6192C23.7578 15.9854 23.8599 16.3941 23.8599 16.8455V20.1412C23.8599 20.2689 23.8046 20.3669 23.6939 20.435C23.5832 20.4946 23.4597 20.5244 23.3234 20.5244C23.1957 20.5244 23.0765 20.4946 22.9658 20.435C22.8551 20.3669 22.7997 20.2689 22.7997 20.1412V16.8455C22.7997 16.5985 22.7316 16.3601 22.5953 16.1301C22.4676 15.9002 22.293 15.7129 22.0716 15.5681C21.8502 15.4233 21.6075 15.3509 21.3435 15.3509C21.1135 15.3509 20.8921 15.4148 20.6792 15.5425C20.4663 15.6618 20.2917 15.8321 20.1555 16.0535C20.0192 16.2664 19.9511 16.5304 19.9511 16.8455V20.1412C19.9511 20.2349 19.8957 20.3243 19.785 20.4094C19.6828 20.4861 19.5593 20.5244 19.4146 20.5244ZM30.2105 20.6266C29.6229 20.6266 29.1375 20.5159 28.7543 20.2945C28.3796 20.0731 28.0986 19.7793 27.9112 19.4131C27.7324 19.0384 27.643 18.6168 27.643 18.1484V16.871C27.643 16.4112 27.7324 15.9939 27.9112 15.6192C28.0986 15.2445 28.3796 14.9464 28.7543 14.725C29.1375 14.5036 29.6187 14.3929 30.1978 14.3929C30.5725 14.3929 30.9003 14.4397 31.1814 14.5334C31.4624 14.6271 31.6796 14.742 31.8328 14.8783C31.9861 15.0145 32.0628 15.1465 32.0628 15.2743C32.0628 15.3424 32.0415 15.4191 31.9989 15.5042C31.9648 15.5809 31.9137 15.649 31.8456 15.7086C31.786 15.7682 31.7136 15.798 31.6285 15.798C31.5433 15.798 31.4496 15.7597 31.3474 15.6831C31.2538 15.6064 31.1218 15.534 30.9514 15.4659C30.7896 15.3892 30.5597 15.3509 30.2616 15.3509C29.7422 15.3509 29.3504 15.4872 29.0864 15.7597C28.8309 16.0322 28.7032 16.4027 28.7032 16.871V18.1484C28.7032 18.6168 28.8309 18.9873 29.0864 19.2598C29.3504 19.5323 29.7464 19.6686 30.2744 19.6686C30.581 19.6686 30.8194 19.6302 30.9898 19.5536C31.1601 19.4684 31.2921 19.3918 31.3858 19.3237C31.4879 19.247 31.5859 19.2087 31.6796 19.2087C31.7732 19.2087 31.8541 19.2385 31.9223 19.2981C31.9904 19.3492 32.0415 19.4131 32.0756 19.4897C32.1181 19.5664 32.1394 19.643 32.1394 19.7196C32.1394 19.8474 32.0585 19.9836 31.8967 20.1284C31.7349 20.2647 31.5092 20.3839 31.2197 20.4861C30.9301 20.5798 30.5938 20.6266 30.2105 20.6266ZM35.6774 20.6266C35.2091 20.6266 34.7833 20.5116 34.4 20.2817C34.0168 20.0518 33.7102 19.7495 33.4803 19.3747C33.2504 19 33.1354 18.5998 33.1354 18.174V14.8527C33.1354 14.7591 33.1865 14.6739 33.2887 14.5973C33.3994 14.5121 33.5271 14.4695 33.6719 14.4695C33.8167 14.4695 33.9402 14.5121 34.0424 14.5973C34.1446 14.6739 34.1956 14.7591 34.1956 14.8527V18.174C34.1956 18.421 34.2595 18.6594 34.3873 18.8893C34.5235 19.1193 34.7024 19.3066 34.9238 19.4514C35.1452 19.5962 35.3921 19.6686 35.6647 19.6686C35.9372 19.6686 36.1841 19.5962 36.4056 19.4514C36.627 19.3066 36.8016 19.1193 36.9293 18.8893C37.057 18.6594 37.1209 18.421 37.1209 18.174V14.84C37.1209 14.7378 37.1763 14.6526 37.287 14.5845C37.3977 14.5078 37.5212 14.4695 37.6574 14.4695C37.8192 14.4695 37.947 14.5078 38.0406 14.5845C38.1343 14.6526 38.1811 14.7378 38.1811 14.84V18.174C38.1811 18.6083 38.0662 19.0128 37.8363 19.3875C37.6148 19.7537 37.3125 20.0518 36.9293 20.2817C36.5461 20.5116 36.1288 20.6266 35.6774 20.6266ZM40.9647 20.6266C40.4878 20.6266 40.079 20.4903 39.7384 20.2178C39.4063 19.9368 39.2402 19.5067 39.2402 18.9277C39.2402 18.4593 39.3679 18.0973 39.6234 17.8419C39.8789 17.5779 40.2281 17.399 40.6709 17.3054C41.1222 17.2032 41.6417 17.1521 42.2293 17.1521H42.8425V16.8838C42.8425 16.6283 42.7956 16.3814 42.702 16.1429C42.6083 15.896 42.4593 15.6958 42.2549 15.5425C42.059 15.3807 41.7865 15.2998 41.4373 15.2998C41.1393 15.2998 40.9008 15.3296 40.722 15.3892C40.5517 15.4489 40.4154 15.5127 40.3132 15.5809C40.211 15.6405 40.1216 15.6703 40.045 15.6703C39.9172 15.6703 39.8193 15.6107 39.7512 15.4914C39.683 15.3637 39.649 15.2445 39.649 15.1338C39.649 14.9975 39.7426 14.874 39.93 14.7633C40.1173 14.6526 40.3515 14.5632 40.6326 14.4951C40.9136 14.4269 41.1904 14.3929 41.4629 14.3929C42.059 14.3929 42.5359 14.5121 42.8936 14.7505C43.2512 14.989 43.5067 15.2956 43.66 15.6703C43.8218 16.045 43.9027 16.4452 43.9027 16.871V20.1412C43.9027 20.2434 43.8516 20.3328 43.7494 20.4094C43.6558 20.4861 43.5323 20.5244 43.379 20.5244C43.2427 20.5244 43.1278 20.4861 43.0341 20.4094C42.9404 20.3328 42.8936 20.2434 42.8936 20.1412V19.6302C42.6722 19.8857 42.4039 20.1156 42.0888 20.32C41.7737 20.5244 41.399 20.6266 40.9647 20.6266ZM41.2968 19.7707C41.5438 19.7707 41.7822 19.7026 42.0122 19.5664C42.2506 19.4301 42.4465 19.2598 42.5998 19.0554C42.7616 18.851 42.8425 18.6551 42.8425 18.4678V17.8035H42.3954C42.0377 17.8035 41.6971 17.8248 41.3735 17.8674C41.0584 17.91 40.8029 18.0037 40.607 18.1484C40.4112 18.2847 40.3132 18.5061 40.3132 18.8127C40.3132 19.1448 40.4069 19.3875 40.5942 19.5408C40.7816 19.6941 41.0158 19.7707 41.2968 19.7707ZM41.1308 13.0899C41.0286 13.0899 40.9391 13.0431 40.8625 12.9494C40.7859 12.8557 40.7475 12.7578 40.7475 12.6556C40.7475 12.5193 40.8029 12.4257 40.9136 12.3746L42.4082 11.5826C42.4593 11.5655 42.5018 11.557 42.5359 11.557C42.6466 11.557 42.7318 11.6039 42.7914 11.6975C42.8595 11.7827 42.8936 11.8806 42.8936 11.9914C42.8936 12.1276 42.834 12.2298 42.7147 12.2979L41.2713 13.0388C41.2457 13.0473 41.2202 13.0601 41.1946 13.0771C41.1776 13.0857 41.1563 13.0899 41.1308 13.0899ZM45.8733 20.5244C45.72 20.5244 45.5923 20.4861 45.4901 20.4094C45.3964 20.3243 45.3496 20.2349 45.3496 20.1412V14.84C45.3496 14.7293 45.3964 14.6398 45.4901 14.5717C45.5923 14.5036 45.72 14.4695 45.8733 14.4695C46.0096 14.4695 46.1245 14.5036 46.2182 14.5717C46.3119 14.6398 46.3587 14.7293 46.3587 14.84V15.3637C46.495 15.1167 46.7079 14.8953 46.9974 14.6994C47.287 14.4951 47.6447 14.3929 48.0705 14.3929C48.4792 14.3929 48.8539 14.5078 49.1946 14.7378C49.5352 14.9592 49.8077 15.253 50.0121 15.6192C50.2165 15.9854 50.3187 16.3941 50.3187 16.8455V20.1412C50.3187 20.2689 50.2633 20.3669 50.1526 20.435C50.0419 20.4946 49.9184 20.5244 49.7822 20.5244C49.6544 20.5244 49.5352 20.4946 49.4245 20.435C49.3138 20.3669 49.2584 20.2689 49.2584 20.1412V16.8455C49.2584 16.5985 49.1903 16.3601 49.0541 16.1301C48.9263 15.9002 48.7517 15.7129 48.5303 15.5681C48.3089 15.4233 48.0662 15.3509 47.8022 15.3509C47.5723 15.3509 47.3509 15.4148 47.138 15.5425C46.9251 15.6618 46.7505 15.8321 46.6142 16.0535C46.478 16.2664 46.4098 16.5304 46.4098 16.8455V20.1412C46.4098 20.2349 46.3545 20.3243 46.2438 20.4094C46.1416 20.4861 46.0181 20.5244 45.8733 20.5244ZM53.8565 20.5244C53.1667 20.5244 52.6387 20.3711 52.2725 20.0645C51.9148 19.758 51.736 19.2683 51.736 18.5955V12.0169C51.736 11.9062 51.7914 11.8168 51.9021 11.7486C52.0128 11.6805 52.132 11.6465 52.2597 11.6465C52.396 11.6465 52.5195 11.6805 52.6302 11.7486C52.7409 11.8168 52.7963 11.9062 52.7963 12.0169V14.4695H54.4058C54.508 14.4695 54.5846 14.5121 54.6357 14.5973C54.6953 14.6824 54.7251 14.7804 54.7251 14.8911C54.7251 15.0018 54.6953 15.0997 54.6357 15.1849C54.5846 15.2615 54.508 15.2998 54.4058 15.2998H52.7963V18.5955C52.7963 18.9617 52.8729 19.2215 53.0262 19.3747C53.188 19.5195 53.4648 19.5919 53.8565 19.5919H54.2525C54.4058 19.5919 54.5208 19.6387 54.5974 19.7324C54.674 19.8261 54.7124 19.9325 54.7124 20.0518C54.7124 20.171 54.674 20.2817 54.5974 20.3839C54.5208 20.4776 54.4058 20.5244 54.2525 20.5244H53.8565ZM57.8778 20.6266C57.4265 20.6266 57.0092 20.5116 56.626 20.2817C56.2428 20.0433 55.9362 19.7367 55.7062 19.362C55.4763 18.9873 55.3613 18.5828 55.3613 18.1484V16.8455C55.3613 16.4112 55.4721 16.0109 55.6935 15.6447C55.9234 15.27 56.23 14.9677 56.6132 14.7378C56.9964 14.5078 57.418 14.3929 57.8778 14.3929C58.3292 14.3929 58.7465 14.5078 59.1297 14.7378C59.5129 14.9592 59.8195 15.253 60.0494 15.6192C60.2879 15.9854 60.4071 16.3941 60.4071 16.8455V18.1484C60.4071 18.5742 60.2879 18.9788 60.0494 19.362C59.8195 19.7367 59.5129 20.0433 59.1297 20.2817C58.7465 20.5116 58.3292 20.6266 57.8778 20.6266ZM57.8778 19.6686C58.1503 19.6686 58.3931 19.5962 58.606 19.4514C58.8274 19.3066 59.0062 19.1193 59.1425 18.8893C59.2787 18.6509 59.3468 18.4039 59.3468 18.1484V16.8455C59.3468 16.5985 59.2787 16.3601 59.1425 16.1301C59.0147 15.9002 58.8401 15.7129 58.6187 15.5681C58.3973 15.4233 58.1503 15.3509 57.8778 15.3509C57.6053 15.3509 57.3584 15.4233 57.1369 15.5681C56.9155 15.7129 56.7409 15.9002 56.6132 16.1301C56.4855 16.3601 56.4216 16.5985 56.4216 16.8455V18.1484C56.4216 18.4039 56.4855 18.6509 56.6132 18.8893C56.7409 19.1193 56.9155 19.3066 57.1369 19.4514C57.3584 19.5962 57.6053 19.6686 57.8778 19.6686ZM63.4162 20.6266C63.0074 20.6266 62.6455 20.5755 62.3304 20.4733C62.0153 20.3626 61.7683 20.2349 61.5895 20.0901C61.4107 19.9453 61.3212 19.8006 61.3212 19.6558C61.3212 19.5877 61.3383 19.5195 61.3723 19.4514C61.4064 19.3747 61.449 19.3109 61.5001 19.2598C61.5597 19.2002 61.6236 19.1704 61.6917 19.1704C61.7939 19.1704 61.9046 19.2215 62.0238 19.3237C62.143 19.4173 62.3048 19.5153 62.5092 19.6175C62.7136 19.7196 63.0074 19.7707 63.3906 19.7707C63.842 19.7707 64.1571 19.6898 64.3359 19.528C64.5147 19.3577 64.6042 19.1704 64.6042 18.966C64.6042 18.702 64.5275 18.5019 64.3742 18.3656C64.2209 18.2208 64.0251 18.1101 63.7866 18.0335C63.5482 17.9483 63.297 17.8674 63.033 17.7908C62.769 17.7141 62.5177 17.6204 62.2793 17.5097C62.0408 17.3905 61.845 17.2287 61.6917 17.0243C61.5469 16.8114 61.4745 16.5304 61.4745 16.1812C61.4745 15.9002 61.5427 15.6234 61.6789 15.3509C61.8152 15.0784 62.0366 14.8527 62.3432 14.6739C62.6497 14.4865 63.0585 14.3929 63.5695 14.3929C63.8675 14.3929 64.1528 14.4269 64.4253 14.4951C64.7064 14.5547 64.932 14.6398 65.1024 14.7505C65.2812 14.8527 65.3706 14.9634 65.3706 15.0827C65.3706 15.1338 65.3536 15.2019 65.3195 15.2871C65.2854 15.3722 65.2386 15.4489 65.179 15.517C65.1194 15.5851 65.0427 15.6192 64.9491 15.6192C64.8809 15.6192 64.783 15.5894 64.6553 15.5298C64.536 15.4616 64.387 15.3978 64.2082 15.3382C64.0378 15.2785 63.8292 15.2487 63.5822 15.2487C63.3012 15.2487 63.0755 15.2998 62.9052 15.402C62.7349 15.4957 62.6114 15.6107 62.5348 15.7469C62.4581 15.8747 62.4198 16.0067 62.4198 16.1429C62.4198 16.3558 62.4922 16.5219 62.637 16.6411C62.7903 16.7603 62.9861 16.8583 63.2246 16.9349C63.4715 17.003 63.727 17.0754 63.991 17.1521C64.255 17.2202 64.5062 17.3224 64.7447 17.4586C64.9831 17.5864 65.179 17.7652 65.3323 17.9952C65.4856 18.2251 65.5622 18.5317 65.5622 18.9149C65.5622 19.4344 65.3749 19.8516 65.0002 20.1667C64.6255 20.4733 64.0975 20.6266 63.4162 20.6266Z" fill="white"/>
<path d="M116.263 20.6266C115.855 20.6266 115.493 20.5755 115.178 20.4733C114.863 20.3626 114.616 20.2349 114.437 20.0901C114.258 19.9453 114.168 19.8006 114.168 19.6558C114.168 19.5877 114.185 19.5195 114.22 19.4514C114.254 19.3747 114.296 19.3109 114.347 19.2598C114.407 19.2002 114.471 19.1704 114.539 19.1704C114.641 19.1704 114.752 19.2215 114.871 19.3237C114.99 19.4173 115.152 19.5153 115.356 19.6175C115.561 19.7196 115.855 19.7707 116.238 19.7707C116.689 19.7707 117.004 19.6898 117.183 19.528C117.362 19.3577 117.451 19.1704 117.451 18.966C117.451 18.702 117.375 18.5019 117.221 18.3656C117.068 18.2208 116.872 18.1101 116.634 18.0335C116.395 17.9483 116.144 17.8674 115.88 17.7908C115.616 17.7141 115.365 17.6204 115.127 17.5097C114.888 17.3905 114.692 17.2287 114.539 17.0243C114.394 16.8114 114.322 16.5304 114.322 16.1812C114.322 15.9002 114.39 15.6234 114.526 15.3509C114.662 15.0784 114.884 14.8527 115.19 14.6739C115.497 14.4865 115.906 14.3929 116.417 14.3929C116.715 14.3929 117 14.4269 117.273 14.4951C117.554 14.5547 117.779 14.6398 117.95 14.7505C118.128 14.8527 118.218 14.9634 118.218 15.0827C118.218 15.1338 118.201 15.2019 118.167 15.2871C118.133 15.3722 118.086 15.4489 118.026 15.517C117.967 15.5851 117.89 15.6192 117.796 15.6192C117.728 15.6192 117.63 15.5894 117.502 15.5298C117.383 15.4616 117.234 15.3978 117.055 15.3382C116.885 15.2785 116.676 15.2487 116.429 15.2487C116.148 15.2487 115.923 15.2998 115.752 15.402C115.582 15.4957 115.459 15.6107 115.382 15.7469C115.305 15.8747 115.267 16.0067 115.267 16.1429C115.267 16.3558 115.339 16.5219 115.484 16.6411C115.637 16.7603 115.833 16.8583 116.072 16.9349C116.319 17.003 116.574 17.0754 116.838 17.1521C117.102 17.2202 117.353 17.3224 117.592 17.4586C117.83 17.5864 118.026 17.7652 118.18 17.9952C118.333 18.2251 118.409 18.5317 118.409 18.9149C118.409 19.4344 118.222 19.8516 117.847 20.1667C117.473 20.4733 116.945 20.6266 116.263 20.6266ZM122.185 20.6266C121.631 20.6266 121.141 20.5244 120.716 20.32C120.29 20.1071 119.953 19.8176 119.706 19.4514C119.459 19.0767 119.336 18.6424 119.336 18.1484V16.8072C119.336 16.3728 119.451 15.9726 119.681 15.6064C119.919 15.2402 120.23 14.9464 120.613 14.725C120.997 14.5036 121.418 14.3929 121.878 14.3929C122.321 14.3929 122.725 14.4951 123.092 14.6994C123.466 14.9038 123.764 15.1806 123.986 15.5298C124.216 15.8789 124.331 16.2834 124.331 16.7433C124.331 17.0839 124.275 17.3309 124.165 17.4842C124.054 17.629 123.913 17.7184 123.743 17.7524C123.573 17.7865 123.394 17.8035 123.206 17.8035H120.396V18.1868C120.396 18.6637 120.567 19.0426 120.907 19.3237C121.248 19.5962 121.686 19.7324 122.223 19.7324C122.538 19.7324 122.789 19.6898 122.977 19.6047C123.164 19.5195 123.317 19.4386 123.436 19.362C123.556 19.2768 123.662 19.2342 123.756 19.2342C123.849 19.2342 123.926 19.264 123.986 19.3237C124.054 19.3747 124.105 19.4386 124.139 19.5153C124.173 19.5919 124.19 19.66 124.19 19.7196C124.19 19.8304 124.109 19.9581 123.947 20.1029C123.786 20.2391 123.551 20.3626 123.245 20.4733C122.947 20.5755 122.593 20.6266 122.185 20.6266ZM120.396 17.0882H122.759C122.989 17.0882 123.138 17.0626 123.206 17.0116C123.283 16.9519 123.321 16.8412 123.321 16.6794C123.321 16.4239 123.258 16.1898 123.13 15.9769C123.011 15.7554 122.84 15.5766 122.619 15.4403C122.397 15.3041 122.146 15.236 121.865 15.236C121.601 15.236 121.359 15.2998 121.137 15.4276C120.916 15.5468 120.737 15.7129 120.601 15.9258C120.464 16.1387 120.396 16.3728 120.396 16.6283V17.0882ZM130.156 20.5244C129.466 20.5244 128.938 20.3711 128.572 20.0645C128.214 19.758 128.036 19.2683 128.036 18.5955V12.0169C128.036 11.9062 128.091 11.8168 128.202 11.7486C128.312 11.6805 128.432 11.6465 128.559 11.6465C128.696 11.6465 128.819 11.6805 128.93 11.7486C129.04 11.8168 129.096 11.9062 129.096 12.0169V14.4695H130.705C130.808 14.4695 130.884 14.5121 130.935 14.5973C130.995 14.6824 131.025 14.7804 131.025 14.8911C131.025 15.0018 130.995 15.0997 130.935 15.1849C130.884 15.2615 130.808 15.2998 130.705 15.2998H129.096V18.5955C129.096 18.9617 129.172 19.2215 129.326 19.3747C129.488 19.5195 129.764 19.5919 130.156 19.5919H130.552C130.705 19.5919 130.82 19.6387 130.897 19.7324C130.974 19.8261 131.012 19.9325 131.012 20.0518C131.012 20.171 130.974 20.2817 130.897 20.3839C130.82 20.4776 130.705 20.5244 130.552 20.5244H130.156ZM134.51 20.6266C133.956 20.6266 133.466 20.5244 133.041 20.32C132.615 20.1071 132.278 19.8176 132.031 19.4514C131.784 19.0767 131.661 18.6424 131.661 18.1484V16.8072C131.661 16.3728 131.776 15.9726 132.006 15.6064C132.244 15.2402 132.555 14.9464 132.938 14.725C133.322 14.5036 133.743 14.3929 134.203 14.3929C134.646 14.3929 135.05 14.4951 135.416 14.6994C135.791 14.9038 136.089 15.1806 136.311 15.5298C136.541 15.8789 136.656 16.2834 136.656 16.7433C136.656 17.0839 136.6 17.3309 136.49 17.4842C136.379 17.629 136.238 17.7184 136.068 17.7524C135.898 17.7865 135.719 17.8035 135.531 17.8035H132.721V18.1868C132.721 18.6637 132.891 19.0426 133.232 19.3237C133.573 19.5962 134.011 19.7324 134.548 19.7324C134.863 19.7324 135.114 19.6898 135.302 19.6047C135.489 19.5195 135.642 19.4386 135.761 19.362C135.881 19.2768 135.987 19.2342 136.081 19.2342C136.174 19.2342 136.251 19.264 136.311 19.3237C136.379 19.3747 136.43 19.4386 136.464 19.5153C136.498 19.5919 136.515 19.66 136.515 19.7196C136.515 19.8304 136.434 19.9581 136.272 20.1029C136.111 20.2391 135.876 20.3626 135.57 20.4733C135.272 20.5755 134.918 20.6266 134.51 20.6266ZM132.721 17.0882H135.084C135.314 17.0882 135.463 17.0626 135.531 17.0116C135.608 16.9519 135.646 16.8412 135.646 16.6794C135.646 16.4239 135.583 16.1898 135.455 15.9769C135.336 15.7554 135.165 15.5766 134.944 15.4403C134.722 15.3041 134.471 15.236 134.19 15.236C133.926 15.236 133.683 15.2998 133.462 15.4276C133.241 15.5468 133.062 15.7129 132.926 15.9258C132.789 16.1387 132.721 16.3728 132.721 16.6283V17.0882ZM137.152 23.4497C136.947 23.4497 136.803 23.3986 136.717 23.2964C136.632 23.2027 136.59 23.1005 136.59 22.9898C136.59 22.845 136.637 22.7301 136.73 22.6449C136.815 22.5597 136.913 22.5172 137.024 22.5172C137.271 22.5172 137.45 22.4533 137.561 22.3256C137.68 22.1978 137.752 22.019 137.778 21.789C137.812 21.5676 137.829 21.3164 137.829 21.0354V14.84C137.829 14.7293 137.88 14.6398 137.982 14.5717C138.084 14.5036 138.208 14.4695 138.353 14.4695C138.506 14.4695 138.634 14.5036 138.736 14.5717C138.838 14.6398 138.889 14.7293 138.889 14.84V21.0354C138.889 21.5038 138.829 21.921 138.71 22.2872C138.591 22.6534 138.404 22.9387 138.148 23.1431C137.893 23.3475 137.561 23.4497 137.152 23.4497ZM138.353 12.8089C138.174 12.8089 138.016 12.7493 137.88 12.6301C137.752 12.5023 137.688 12.3575 137.688 12.1957C137.688 12.0339 137.752 11.8934 137.88 11.7742C138.016 11.655 138.174 11.5954 138.353 11.5954C138.54 11.5954 138.693 11.655 138.812 11.7742C138.94 11.8934 139.004 12.0339 139.004 12.1957C139.004 12.3575 138.94 12.5023 138.812 12.6301C138.693 12.7493 138.54 12.8089 138.353 12.8089ZM143.03 20.6266C142.476 20.6266 141.987 20.5244 141.561 20.32C141.135 20.1071 140.799 19.8176 140.552 19.4514C140.305 19.0767 140.181 18.6424 140.181 18.1484V16.8072C140.181 16.3728 140.296 15.9726 140.526 15.6064C140.764 15.2402 141.075 14.9464 141.459 14.725C141.842 14.5036 142.263 14.3929 142.723 14.3929C143.166 14.3929 143.57 14.4951 143.937 14.6994C144.311 14.9038 144.609 15.1806 144.831 15.5298C145.061 15.8789 145.176 16.2834 145.176 16.7433C145.176 17.0839 145.12 17.3309 145.01 17.4842C144.899 17.629 144.758 17.7184 144.588 17.7524C144.418 17.7865 144.239 17.8035 144.052 17.8035H141.241V18.1868C141.241 18.6637 141.412 19.0426 141.752 19.3237C142.093 19.5962 142.532 19.7324 143.068 19.7324C143.383 19.7324 143.634 19.6898 143.822 19.6047C144.009 19.5195 144.162 19.4386 144.282 19.362C144.401 19.2768 144.507 19.2342 144.601 19.2342C144.695 19.2342 144.771 19.264 144.831 19.3237C144.899 19.3747 144.95 19.4386 144.984 19.5153C145.018 19.5919 145.035 19.66 145.035 19.7196C145.035 19.8304 144.954 19.9581 144.793 20.1029C144.631 20.2391 144.397 20.3626 144.09 20.4733C143.792 20.5755 143.438 20.6266 143.03 20.6266ZM141.241 17.0882H143.605C143.834 17.0882 143.984 17.0626 144.052 17.0116C144.128 16.9519 144.167 16.8412 144.167 16.6794C144.167 16.4239 144.103 16.1898 143.975 15.9769C143.856 15.7554 143.685 15.5766 143.464 15.4403C143.243 15.3041 142.991 15.236 142.71 15.236C142.446 15.236 142.204 15.2998 141.982 15.4276C141.761 15.5468 141.582 15.7129 141.446 15.9258C141.309 16.1387 141.241 16.3728 141.241 16.6283V17.0882ZM151.384 20.6266C150.916 20.6266 150.49 20.5116 150.107 20.2817C149.724 20.0518 149.417 19.7495 149.187 19.3747C148.957 19 148.842 18.5998 148.842 18.174V14.8527C148.842 14.7591 148.894 14.6739 148.996 14.5973C149.106 14.5121 149.234 14.4695 149.379 14.4695C149.524 14.4695 149.647 14.5121 149.749 14.5973C149.852 14.6739 149.903 14.7591 149.903 14.8527V18.174C149.903 18.421 149.967 18.6594 150.094 18.8893C150.231 19.1193 150.409 19.3066 150.631 19.4514C150.852 19.5962 151.099 19.6686 151.372 19.6686C151.644 19.6686 151.891 19.5962 152.113 19.4514C152.334 19.3066 152.509 19.1193 152.636 18.8893C152.764 18.6594 152.828 18.421 152.828 18.174V14.84C152.828 14.7378 152.883 14.6526 152.994 14.5845C153.105 14.5078 153.228 14.4695 153.364 14.4695C153.526 14.4695 153.654 14.5078 153.748 14.5845C153.841 14.6526 153.888 14.7378 153.888 14.84V18.174C153.888 18.6083 153.773 19.0128 153.543 19.3875C153.322 19.7537 153.02 20.0518 152.636 20.2817C152.253 20.5116 151.836 20.6266 151.384 20.6266ZM155.867 20.5244C155.714 20.5244 155.586 20.4861 155.484 20.4094C155.39 20.3243 155.343 20.2349 155.343 20.1412V14.84C155.343 14.7293 155.39 14.6398 155.484 14.5717C155.586 14.5036 155.714 14.4695 155.867 14.4695C156.003 14.4695 156.118 14.5036 156.212 14.5717C156.306 14.6398 156.352 14.7293 156.352 14.84V15.3637C156.489 15.1167 156.702 14.8953 156.991 14.6994C157.281 14.4951 157.638 14.3929 158.064 14.3929C158.473 14.3929 158.848 14.5078 159.188 14.7378C159.529 14.9592 159.801 15.253 160.006 15.6192C160.21 15.9854 160.312 16.3941 160.312 16.8455V20.1412C160.312 20.2689 160.257 20.3669 160.146 20.435C160.036 20.4946 159.912 20.5244 159.776 20.5244C159.648 20.5244 159.529 20.4946 159.418 20.435C159.307 20.3669 159.252 20.2689 159.252 20.1412V16.8455C159.252 16.5985 159.184 16.3601 159.048 16.1301C158.92 15.9002 158.745 15.7129 158.524 15.5681C158.303 15.4233 158.06 15.3509 157.796 15.3509C157.566 15.3509 157.344 15.4148 157.132 15.5425C156.919 15.6618 156.744 15.8321 156.608 16.0535C156.472 16.2664 156.403 16.5304 156.403 16.8455V20.1412C156.403 20.2349 156.348 20.3243 156.237 20.4094C156.135 20.4861 156.012 20.5244 155.867 20.5244ZM163.084 20.6266C162.607 20.6266 162.198 20.4903 161.857 20.2178C161.525 19.9368 161.359 19.5067 161.359 18.9277C161.359 18.4593 161.487 18.0973 161.742 17.8419C161.998 17.5779 162.347 17.399 162.79 17.3054C163.241 17.2032 163.761 17.1521 164.348 17.1521H164.961V16.8838C164.961 16.6283 164.915 16.3814 164.821 16.1429C164.727 15.896 164.578 15.6958 164.374 15.5425C164.178 15.3807 163.905 15.2998 163.556 15.2998C163.258 15.2998 163.02 15.3296 162.841 15.3892C162.671 15.4489 162.534 15.5127 162.432 15.5809C162.33 15.6405 162.241 15.6703 162.164 15.6703C162.036 15.6703 161.938 15.6107 161.87 15.4914C161.802 15.3637 161.768 15.2445 161.768 15.1338C161.768 14.9975 161.862 14.874 162.049 14.7633C162.236 14.6526 162.471 14.5632 162.752 14.4951C163.033 14.4269 163.309 14.3929 163.582 14.3929C164.178 14.3929 164.655 14.5121 165.013 14.7505C165.37 14.989 165.626 15.2956 165.779 15.6703C165.941 16.045 166.022 16.4452 166.022 16.871V20.1412C166.022 20.2434 165.971 20.3328 165.868 20.4094C165.775 20.4861 165.651 20.5244 165.498 20.5244C165.362 20.5244 165.247 20.4861 165.153 20.4094C165.059 20.3328 165.013 20.2434 165.013 20.1412V19.6302C164.791 19.8857 164.523 20.1156 164.208 20.32C163.893 20.5244 163.518 20.6266 163.084 20.6266ZM163.416 19.7707C163.663 19.7707 163.901 19.7026 164.131 19.5664C164.37 19.4301 164.565 19.2598 164.719 19.0554C164.881 18.851 164.961 18.6551 164.961 18.4678V17.8035H164.514C164.157 17.8035 163.816 17.8248 163.492 17.8674C163.177 17.91 162.922 18.0037 162.726 18.1484C162.53 18.2847 162.432 18.5061 162.432 18.8127C162.432 19.1448 162.526 19.3875 162.713 19.5408C162.901 19.6941 163.135 19.7707 163.416 19.7707Z" fill="white"/>
<path d="M71.6039 7.80729H74.1806V14.4831H76.9446V7.80729H79.5213V24.2041H76.9446V16.8255H74.1806V24.2041H71.6039V7.80729ZM81.4402 7.80729H84.0168V24.2041H81.4402V7.80729ZM85.9466 7.80729H88.5232V21.8617H92.763V24.2041H85.9466V7.80729ZM97.6315 24.4383C96.3666 24.4383 95.3984 24.0792 94.7269 23.3608C94.0554 22.6425 93.7197 21.6275 93.7197 20.3157V11.6957C93.7197 10.3839 94.0554 9.36889 94.7269 8.65055C95.3984 7.93222 96.3666 7.57305 97.6315 7.57305C98.8964 7.57305 99.8646 7.93222 100.536 8.65055C101.208 9.36889 101.543 10.3839 101.543 11.6957V20.3157C101.543 21.6275 101.208 22.6425 100.536 23.3608C99.8646 24.0792 98.8964 24.4383 97.6315 24.4383ZM97.6315 22.0959C98.5216 22.0959 98.9667 21.5572 98.9667 20.4797V11.5317C98.9667 10.4542 98.5216 9.91545 97.6315 9.91545C96.7414 9.91545 96.2963 10.4542 96.2963 11.5317V20.4797C96.2963 21.5572 96.7414 22.0959 97.6315 22.0959ZM106.635 24.4383C105.386 24.4383 104.441 24.087 103.801 23.3843C103.161 22.6659 102.841 21.6431 102.841 20.3157V19.3788H105.277V20.5031C105.277 21.565 105.722 22.0959 106.612 22.0959C107.049 22.0959 107.377 21.971 107.596 21.7212C107.83 21.4557 107.947 21.0341 107.947 20.4563C107.947 19.7692 107.791 19.1679 107.479 18.6526C107.166 18.1217 106.589 17.4892 105.745 16.7553C104.683 15.8183 103.942 14.975 103.52 14.2255C103.098 13.4603 102.888 12.6014 102.888 11.6488C102.888 10.3527 103.216 9.35328 103.871 8.65055C104.527 7.93222 105.48 7.57305 106.729 7.57305C107.963 7.57305 108.892 7.93222 109.517 8.65055C110.157 9.35328 110.477 10.3683 110.477 11.6957V12.375H108.041V11.5317C108.041 10.9695 107.932 10.5635 107.713 10.3137C107.494 10.0482 107.174 9.91545 106.753 9.91545C105.894 9.91545 105.464 10.4386 105.464 11.4849C105.464 12.0783 105.62 12.6326 105.933 13.148C106.261 13.6633 106.846 14.2879 107.69 15.0219C108.767 15.9588 109.509 16.8099 109.915 17.5751C110.321 18.3403 110.524 19.2382 110.524 20.2689C110.524 21.6118 110.188 22.6425 109.517 23.3608C108.861 24.0792 107.9 24.4383 106.635 24.4383Z" fill="white"/>
<path d="M171.776 7.60319H174.352V14.279H177.116V7.60319H179.693V24H177.116V16.6214H174.352V24H171.776V7.60319ZM181.612 7.60319H184.189V24H181.612V7.60319ZM189.468 24.2342C188.219 24.2342 187.274 23.8829 186.634 23.1802C185.994 22.4618 185.673 21.439 185.673 20.1116V19.1747H188.109V20.299C188.109 21.3609 188.555 21.8918 189.445 21.8918C189.882 21.8918 190.21 21.7669 190.428 21.5171C190.663 21.2516 190.78 20.8299 190.78 20.2522C190.78 19.5651 190.624 18.9638 190.311 18.4485C189.999 17.9176 189.421 17.2851 188.578 16.5512C187.516 15.6142 186.774 14.7709 186.353 14.0214C185.931 13.2562 185.72 12.3973 185.72 11.4447C185.72 10.1486 186.048 9.14917 186.704 8.44645C187.36 7.72812 188.312 7.36895 189.562 7.36895C190.795 7.36895 191.725 7.72812 192.349 8.44645C192.989 9.14917 193.31 10.1642 193.31 11.4916V12.1709H190.874V11.3276C190.874 10.7654 190.764 10.3594 190.546 10.1096C190.327 9.84409 190.007 9.71135 189.585 9.71135C188.726 9.71135 188.297 10.2345 188.297 11.2808C188.297 11.8742 188.453 12.4285 188.765 12.9439C189.093 13.4592 189.679 14.0838 190.522 14.8178C191.6 15.7547 192.341 16.6058 192.747 17.371C193.153 18.1362 193.356 19.0341 193.356 20.0648C193.356 21.4077 193.021 22.4384 192.349 23.1567C191.693 23.8751 190.733 24.2342 189.468 24.2342ZM196.848 9.94559H194.155V7.60319H202.119V9.94559H199.425V24H196.848V9.94559ZM206.999 24.2342C205.734 24.2342 204.766 23.8751 204.095 23.1567C203.423 22.4384 203.087 21.4234 203.087 20.1116V11.4916C203.087 10.1798 203.423 9.16479 204.095 8.44645C204.766 7.72812 205.734 7.36895 206.999 7.36895C208.264 7.36895 209.232 7.72812 209.904 8.44645C210.575 9.16479 210.911 10.1798 210.911 11.4916V20.1116C210.911 21.4234 210.575 22.4384 209.904 23.1567C209.232 23.8751 208.264 24.2342 206.999 24.2342ZM206.999 21.8918C207.889 21.8918 208.334 21.3531 208.334 20.2756V11.3276C208.334 10.2501 207.889 9.71135 206.999 9.71135C206.109 9.71135 205.664 10.2501 205.664 11.3276V20.2756C205.664 21.3531 206.109 21.8918 206.999 21.8918ZM212.653 7.60319H216.472C217.799 7.60319 218.767 7.91551 219.376 8.54015C219.985 9.14917 220.29 10.0939 220.29 11.3745V12.3817C220.29 14.0838 219.728 15.1613 218.603 15.6142V15.6611C219.228 15.8484 219.665 16.231 219.915 16.8088C220.18 17.3866 220.313 18.1596 220.313 19.1278V22.009C220.313 22.4774 220.329 22.86 220.36 23.1567C220.391 23.4378 220.469 23.7189 220.594 24H217.971C217.877 23.7345 217.815 23.4847 217.783 23.2504C217.752 23.0162 217.736 22.5946 217.736 21.9855V18.9873C217.736 18.2377 217.612 17.7146 217.362 17.4179C217.127 17.1211 216.714 16.9728 216.12 16.9728H215.23V24H212.653V7.60319ZM216.167 14.6304C216.682 14.6304 217.065 14.4977 217.315 14.2322C217.58 13.9667 217.713 13.5217 217.713 12.897V11.6321C217.713 11.0387 217.604 10.6093 217.385 10.3438C217.182 10.0783 216.854 9.94559 216.401 9.94559H215.23V14.6304H216.167ZM222.101 7.60319H224.677V24H222.101V7.60319ZM228.598 7.60319H232.088L234.759 24H232.182L231.714 20.7441V20.7909H228.786L228.317 24H225.928L228.598 7.60319ZM231.409 18.5656L230.261 10.4609H230.215L229.09 18.5656H231.409ZM237.08 18.6827C237.08 18.105 237.166 17.5584 237.338 17.0431C237.525 16.5121 237.861 15.9031 238.345 15.216C238.907 14.4196 239.29 13.7325 239.493 13.1547C239.696 12.5769 239.797 11.9679 239.797 11.3276C239.797 10.7654 239.688 10.3594 239.469 10.1096C239.251 9.84409 238.93 9.71135 238.509 9.71135C238.087 9.71135 237.767 9.84409 237.548 10.1096C237.33 10.3594 237.22 10.7654 237.22 11.3276V13.1078H234.784V11.4916C234.784 10.1642 235.105 9.14917 235.745 8.44645C236.385 7.72812 237.322 7.36895 238.556 7.36895C239.805 7.36895 240.75 7.72812 241.39 8.44645C242.046 9.14917 242.374 10.1642 242.374 11.4916C242.374 12.2099 242.241 12.9048 241.976 13.5763C241.726 14.2322 241.288 14.9739 240.664 15.8016C240.164 16.4731 239.813 17.0353 239.61 17.4881C239.422 17.9254 239.329 18.3548 239.329 18.7764V19.6666H237.08V18.6827ZM236.963 21.5171H239.446V24H236.963V21.5171Z" fill="#56BEC9"/>
<line x1="110.798" y1="29.949" x2="71.386" y2="29.949" stroke="#56BEC9" stroke-width="0.743619"/>
</svg>
