<?xml version="1.0" standalone="no"?>
<!DOCTYPE svg PUBLIC "-//W3C//DTD SVG 20010904//EN"
 "http://www.w3.org/TR/2001/REC-SVG-20010904/DTD/svg10.dtd">
<svg version="1.0" xmlns="http://www.w3.org/2000/svg"
 width="3259.000000pt" height="3259.000000pt" viewBox="0 0 3259.000000 3259.000000"
 preserveAspectRatio="xMidYMid meet">
<metadata>
Created by potrace 1.11, written by Peter Selinger 2001-2013
</metadata>
<g transform="translate(0.000000,3259.000000) scale(0.100000,-0.100000)"
fill="#000000" stroke="none">
<path d="M12028 32585 c-1 -1 -59 -6 -128 -9 -69 -4 -138 -9 -155 -11 -16 -3
-53 -7 -80 -9 -202 -18 -525 -72 -755 -127 -69 -17 -132 -32 -140 -34 -162
-36 -592 -184 -768 -266 -35 -16 -66 -29 -68 -29 -9 0 -305 -147 -374 -186
-286 -159 -541 -335 -802 -553 -169 -140 -494 -469 -599 -606 -13 -16 -30 -36
-37 -44 -7 -8 -46 -57 -86 -110 -345 -456 -617 -982 -792 -1535 -37 -116 -104
-355 -119 -424 -24 -108 -66 -323 -71 -360 -3 -26 -8 -50 -10 -53 -2 -3 -6
-32 -10 -64 -3 -32 -7 -66 -9 -74 -5 -29 -16 -117 -20 -157 -2 -21 -6 -75 -10
-119 -4 -44 -9 -91 -11 -105 -14 -85 -17 -680 -18 -3157 0 -1925 -3 -2773 -11
-2776 -5 -2 -327 -3 -715 -3 l-705 1 -3 2308 c-2 2188 -3 2307 -20 2308 -22 1
-785 1 -793 0 -3 -1 -5 -1213 -5 -2693 l1 -2693 1125 0 1125 0 2 -2755 c0
-1515 1 -6240 2 -10500 l1 -7745 317 2 c175 2 1553 4 3063 6 1510 2 2768 6
2795 10 28 3 82 9 120 12 39 3 86 8 105 10 19 2 60 7 90 10 63 7 173 23 210
29 14 3 54 10 90 16 36 5 74 12 85 14 24 4 98 19 105 21 3 0 21 4 40 8 64 13
75 15 125 27 28 6 58 13 67 15 35 7 215 57 293 81 492 153 972 379 1359 641
108 73 336 240 346 254 3 3 34 30 70 59 229 188 516 492 723 767 278 368 492
761 682 1253 49 127 167 505 181 580 3 14 14 59 24 100 23 94 75 359 90 465 6
44 13 91 15 105 2 14 7 52 11 85 3 33 8 67 9 75 2 8 6 56 10 105 4 50 9 103
11 120 25 221 26 2521 0 2760 -2 17 -7 64 -10 105 -4 41 -9 91 -11 110 -3 19
-7 55 -10 80 -3 25 -7 56 -10 70 -3 14 -7 43 -10 65 -3 22 -7 51 -9 65 -3 14
-7 43 -11 65 -10 69 -56 285 -86 405 -267 1048 -818 1897 -1624 2503 -46 35
-148 108 -183 131 -24 16 -44 32 -46 35 -2 3 43 44 101 91 198 161 487 453
628 634 17 21 35 44 40 50 22 24 116 156 179 251 36 55 70 105 74 110 4 6 19
30 32 55 13 25 30 52 36 60 25 32 142 259 204 395 98 213 241 617 274 775 3
14 15 61 26 105 31 122 74 335 84 418 3 21 10 63 15 95 6 31 13 82 16 112 4
30 8 66 10 80 2 14 7 61 11 105 4 44 8 94 10 110 25 263 25 2058 0 2191 -2 11
-7 60 -10 110 -4 50 -8 99 -10 110 -2 10 -7 44 -10 74 -4 30 -8 66 -10 80 -3
14 -7 45 -10 70 -4 25 -8 56 -11 70 -2 14 -11 68 -20 120 -9 52 -18 97 -20
100 -2 3 -6 23 -9 44 -36 228 -208 796 -305 1011 -5 11 -32 72 -60 135 -117
271 -302 594 -488 858 -43 61 -173 231 -198 258 -5 7 -32 38 -60 70 -175 205
-448 471 -613 598 -15 11 -29 23 -32 26 -3 3 -43 34 -90 69 -47 34 -92 68
-100 74 -109 87 -406 266 -625 377 -533 271 -1099 448 -1710 535 -166 23 -208
28 -450 50 -143 13 -429 17 -1175 19 l-795 1 0 2800 c0 1540 4 2841 8 2892 7
73 35 235 61 344 29 120 119 315 204 444 208 314 556 518 960 562 84 10 316
10 403 1 217 -23 447 -104 619 -217 76 -50 102 -72 205 -176 240 -241 381
-592 411 -1020 4 -55 7 -756 7 -1558 l0 -1457 1946 2 1946 3 -1 1490 c0 1326
-5 1762 -18 1845 -2 14 -7 63 -11 110 -3 47 -8 99 -10 115 -2 17 -6 55 -9 85
-4 30 -8 62 -11 70 -2 8 -7 40 -10 70 -3 30 -8 62 -10 70 -2 8 -7 35 -10 60
-22 157 -145 665 -182 750 -3 8 -7 17 -8 20 -37 125 -115 335 -161 438 -13 29
-24 54 -24 57 0 16 -170 360 -219 443 -17 29 -31 54 -31 56 0 2 -28 50 -63
107 -583 961 -1454 1672 -2534 2069 -214 79 -626 197 -778 223 -16 3 -66 12
-110 21 -44 8 -93 17 -110 20 -16 2 -59 9 -95 15 -72 11 -120 18 -195 26 -27
3 -61 8 -75 10 -14 2 -68 7 -120 11 -52 3 -111 8 -130 10 -40 6 -736 14 -742
9z m742 -788 c25 -3 76 -8 115 -12 65 -6 196 -21 255 -30 14 -2 43 -6 65 -10
38 -5 120 -19 175 -30 562 -108 1074 -303 1530 -583 92 -56 301 -198 348 -237
237 -193 257 -211 425 -380 464 -468 824 -1089 1025 -1770 73 -246 137 -552
162 -770 6 -55 13 -111 15 -125 2 -14 7 -61 10 -105 4 -44 9 -96 12 -115 3
-19 7 -583 9 -1252 l3 -1218 -37 0 c-62 -1 -2276 -1 -2292 0 -13 0 -15 132
-15 1123 0 617 -3 1163 -8 1212 -50 592 -271 1109 -629 1476 -46 46 -105 102
-133 124 -27 22 -59 48 -70 58 -89 80 -351 226 -524 292 -84 32 -291 92 -346
100 -11 2 -47 8 -80 14 -101 17 -126 20 -230 27 -444 32 -857 -43 -1220 -221
-395 -194 -693 -489 -913 -907 -62 -117 -160 -376 -187 -495 -20 -89 -54 -269
-59 -313 -3 -30 -8 -66 -11 -80 -15 -72 -17 -554 -19 -3065 l-1 -2740 -1200 0
-1200 0 0 2840 c0 2524 4 3031 19 3125 2 14 7 63 11 110 4 46 8 87 10 90 1 3
6 33 9 68 4 34 11 84 16 110 4 26 11 65 15 87 9 59 70 338 94 430 234 885 726
1657 1411 2211 286 231 643 443 995 591 126 53 157 65 165 68 25 6 59 18 75
25 86 39 539 165 657 184 21 3 57 10 80 15 24 5 65 12 91 15 27 3 52 8 56 10
4 3 34 7 66 11 33 3 71 8 85 10 23 4 106 14 175 21 17 1 75 6 130 9 55 4 102
9 104 11 5 5 710 -3 761 -9z m-2622 -13581 c0 -1524 3 -2805 6 -2846 7 -87 10
-107 31 -254 9 -60 17 -112 19 -115 2 -3 7 -22 10 -41 3 -19 14 -69 25 -110
233 -882 866 -1458 1751 -1595 183 -28 558 -28 748 1 810 121 1420 628 1691
1404 57 163 110 399 126 555 4 39 10 79 13 90 3 11 6 657 8 1435 2 778 3 1427
3 1441 l1 27 1051 -2 1052 -1 29 -90 c69 -205 139 -481 173 -675 10 -52 20
-111 24 -130 3 -19 6 -467 6 -995 0 -848 -5 -1158 -20 -1245 -2 -14 -6 -55
-10 -93 -31 -364 -151 -875 -288 -1227 -23 -58 -42 -107 -42 -110 -15 -58
-181 -395 -276 -557 -92 -156 -287 -434 -364 -519 -5 -6 -26 -31 -46 -55 -235
-283 -574 -576 -917 -792 -464 -292 -1030 -511 -1587 -612 -91 -17 -210 -36
-251 -40 -27 -3 -56 -8 -64 -10 -8 -2 -53 -7 -100 -11 -47 -3 -87 -8 -90 -9
-3 -2 -66 -7 -140 -12 -246 -14 -778 -8 -915 11 -16 3 -59 7 -95 11 -126 12
-159 17 -475 71 -76 13 -374 90 -505 131 -251 78 -580 216 -785 331 -63 35
-88 49 -166 94 -12 7 -28 16 -33 20 -6 4 -67 44 -136 90 -69 45 -127 84 -130
87 -3 3 -32 26 -65 51 -84 63 -89 67 -174 140 -645 548 -1103 1296 -1330 2170
-43 166 -59 242 -89 415 -20 114 -23 134 -37 245 -3 30 -8 66 -10 80 -2 14 -7
61 -10 105 -3 44 -8 100 -11 125 -6 45 -13 5770 -8 5781 2 3 543 6 1203 6
l1199 0 0 -2771z m2632 2760 c25 -2 83 -7 130 -11 47 -3 99 -8 115 -10 27 -4
147 -20 235 -30 216 -27 594 -116 835 -197 270 -91 622 -247 774 -342 22 -14
43 -26 47 -26 3 0 31 -16 62 -37 162 -104 258 -167 262 -173 3 -3 21 -17 40
-30 192 -132 483 -405 680 -639 100 -119 350 -471 350 -494 0 -3 -530 -5
-1177 -5 -648 -1 -1212 -1 -1254 -1 l-76 -1 0 -1717 c0 -1529 -3 -1876 -19
-1971 -67 -411 -189 -678 -409 -897 -256 -256 -594 -385 -1005 -385 -179 0
-256 9 -410 46 -139 35 -344 121 -415 176 -226 173 -335 298 -434 495 -81 162
-147 380 -167 551 -3 31 -9 66 -12 77 -3 11 -6 1283 -7 2826 l-2 2807 906 -4
c498 -1 926 -5 951 -8z m-4973 -8426 c19 -39 222 -324 303 -424 109 -137 196
-232 355 -391 117 -118 177 -173 311 -290 24 -21 53 -44 130 -103 43 -34 84
-65 89 -70 6 -4 48 -35 95 -68 557 -397 1237 -689 1950 -839 121 -26 376 -69
470 -81 30 -3 66 -8 80 -9 14 -2 59 -7 100 -10 41 -4 89 -9 105 -11 198 -24
835 -24 1080 1 22 2 67 7 100 10 237 23 581 80 790 131 33 8 68 17 78 19 10 2
84 23 165 46 328 93 614 204 939 366 l132 66 48 -23 c123 -57 459 -255 548
-323 5 -4 53 -39 105 -79 52 -39 97 -74 100 -77 3 -3 32 -28 65 -55 137 -113
406 -398 500 -530 11 -16 29 -40 41 -55 112 -141 316 -499 399 -703 14 -35 30
-72 35 -83 104 -223 233 -729 284 -1110 38 -288 41 -388 41 -1605 0 -1012 -4
-1276 -20 -1405 -3 -16 -7 -64 -10 -105 -4 -41 -8 -82 -10 -90 -3 -8 -7 -33
-9 -55 -13 -99 -17 -127 -42 -259 -14 -78 -28 -152 -30 -165 -17 -88 -94 -363
-144 -511 -138 -415 -344 -825 -564 -1125 -54 -73 -150 -200 -161 -211 -5 -6
-28 -33 -50 -60 -111 -134 -310 -334 -450 -449 -33 -28 -62 -52 -65 -55 -3 -3
-50 -39 -105 -81 -501 -381 -1129 -655 -1805 -788 -85 -16 -171 -33 -190 -35
-19 -3 -46 -8 -60 -10 -14 -3 -52 -7 -85 -11 -32 -4 -62 -8 -65 -10 -3 -1 -43
-6 -90 -10 -47 -4 -101 -9 -120 -10 -175 -16 -647 -19 -2870 -20 l-2555 0 -1
5920 c0 3256 2 5924 4 5929 4 7 37 -41 59 -84z"/>
<path d="M19708 32278 c-7 -20 -1 -27274 6 -27368 11 -155 18 -245 21 -275 3
-16 7 -59 11 -95 3 -36 8 -74 10 -85 2 -11 7 -45 10 -75 3 -30 7 -57 9 -60 2
-3 6 -34 10 -70 4 -36 9 -68 11 -71 2 -4 6 -24 9 -45 4 -22 8 -46 10 -54 2 -8
7 -30 10 -47 41 -246 197 -767 295 -988 5 -11 28 -65 51 -120 41 -96 165 -345
224 -450 391 -696 994 -1312 1670 -1709 55 -32 120 -71 145 -85 47 -28 300
-154 381 -190 289 -128 702 -265 983 -326 150 -32 203 -44 231 -48 511 -86
701 -102 1210 -102 330 0 537 9 695 30 19 2 58 7 85 10 82 9 152 18 265 36 36
6 79 13 95 16 79 12 374 78 490 110 110 29 369 113 521 167 185 67 615 275
761 369 24 15 45 27 48 27 11 0 246 157 355 238 200 148 339 270 535 466 242
243 427 469 590 721 32 50 68 106 80 125 106 162 280 514 378 760 116 296 229
673 273 920 2 14 11 59 19 100 16 86 42 244 50 310 3 25 7 61 10 80 3 19 7 60
10 90 3 30 7 75 10 100 6 58 15 218 20 345 3 78 9 26860 6 27178 l-1 77 -1942
-2 -1943 -3 -3 -5309 -2 -5308 -26 6 c-33 9 -209 44 -254 51 -19 3 -46 7 -60
10 -14 3 -38 7 -55 9 -16 2 -50 7 -75 11 -81 12 -94 14 -150 20 -30 3 -71 8
-90 10 -163 22 -355 30 -695 30 -286 0 -598 -10 -615 -20 -3 -1 -43 -6 -90
-10 -46 -3 -87 -8 -90 -10 -3 -1 -34 -6 -70 -9 -87 -9 -115 -13 -250 -38 -63
-11 -128 -22 -145 -25 -16 -2 -45 -8 -62 -13 l-33 -8 0 5304 0 5304 -1974 0
c-1574 0 -1975 -2 -1978 -12z m3169 -5793 l3 -5030 -88 -34 c-84 -32 -114 -45
-267 -114 -491 -221 -975 -557 -1364 -948 -246 -246 -470 -524 -627 -776 l-49
-78 -3 6000 c-1 3573 2 6001 7 6004 5 3 544 6 1198 6 l1188 -1 2 -5029z m6648
5023 c7 -4 9 -2073 8 -5990 0 -3290 -2 -5990 -2 -5997 -1 -8 -33 34 -72 95
-58 89 -134 197 -182 259 -4 6 -21 28 -38 50 -36 47 -90 114 -104 129 -5 6
-35 40 -65 76 -58 70 -335 350 -410 415 -115 100 -172 147 -291 236 -109 83
-231 168 -290 204 -9 6 -68 41 -130 79 -145 88 -437 237 -599 304 -69 29 -132
56 -140 61 -13 7 -15 578 -16 5044 0 4449 2 5037 15 5039 30 6 2307 2 2316 -4z
m-4115 -10451 c19 -3 73 -8 120 -11 84 -6 127 -12 325 -41 125 -18 153 -23
240 -40 73 -15 277 -62 308 -71 17 -5 17 -133 14 -2817 -2 -1984 -6 -2825 -14
-2857 -6 -25 -14 -63 -17 -85 -26 -180 -116 -420 -217 -574 -109 -168 -273
-315 -454 -408 -58 -30 -182 -79 -221 -88 -10 -2 -46 -11 -80 -19 -152 -37
-396 -51 -559 -32 -484 58 -825 286 -1019 681 -60 122 -60 122 -90 216 -22 70
-48 184 -62 273 -3 21 -9 48 -12 60 -4 11 -8 1291 -9 2842 l-3 2822 37 7 c21
5 43 10 48 12 6 2 89 19 185 38 196 38 301 55 455 70 39 4 81 9 95 11 14 2 77
7 140 10 63 4 116 8 118 9 5 5 633 -3 672 -8z m-2529 -3029 c0 -1432 2 -2634
4 -2673 4 -74 13 -170 20 -220 3 -16 7 -46 9 -65 17 -121 75 -349 117 -461 11
-30 24 -67 29 -82 5 -16 14 -35 21 -43 6 -8 9 -14 5 -14 -14 0 158 -320 176
-328 5 -2 8 -8 8 -14 0 -17 148 -203 227 -285 43 -44 112 -108 153 -142 41
-34 80 -66 87 -71 6 -5 51 -35 99 -66 259 -169 593 -285 929 -321 138 -15 593
-7 624 11 3 2 30 7 60 10 29 4 56 8 60 10 3 2 24 7 46 10 22 4 87 20 145 37
478 138 870 433 1134 853 46 73 136 246 156 301 5 11 15 37 24 57 30 69 84
245 109 359 25 112 29 133 42 234 4 28 8 61 10 73 15 97 18 528 20 2807 1
1419 3 2583 3 2588 4 18 318 -156 494 -274 128 -85 180 -121 188 -129 3 -3 43
-35 90 -71 47 -37 102 -82 122 -100 20 -19 52 -47 70 -62 220 -189 489 -503
670 -782 126 -194 285 -490 333 -620 10 -27 22 -55 26 -60 9 -12 18 -36 93
-247 117 -333 198 -688 243 -1078 16 -138 6 -1936 -12 -2115 -2 -22 -6 -67
-10 -100 -5 -60 -23 -198 -30 -245 -18 -112 -26 -159 -31 -185 -77 -418 -232
-888 -407 -1230 -88 -173 -277 -491 -306 -515 -4 -3 -23 -30 -44 -60 -20 -30
-47 -67 -59 -82 -13 -15 -34 -42 -48 -60 -68 -88 -167 -197 -309 -338 -146
-146 -186 -182 -270 -248 -18 -15 -59 -47 -90 -72 -31 -25 -70 -54 -85 -65
-16 -11 -33 -25 -40 -30 -19 -17 -225 -149 -316 -203 -380 -222 -811 -388
-1285 -493 -77 -17 -151 -32 -165 -34 -14 -2 -36 -6 -50 -9 -27 -5 -70 -12
-140 -21 -25 -3 -54 -8 -65 -9 -11 -2 -49 -7 -85 -11 -36 -4 -81 -8 -100 -11
-235 -26 -886 -26 -1105 1 -16 2 -55 6 -85 9 -30 4 -66 8 -80 10 -14 2 -50 7
-80 11 -30 4 -62 8 -70 10 -8 1 -33 6 -55 10 -22 3 -62 11 -90 16 -27 5 -64
11 -81 14 -79 12 -404 99 -542 145 -232 76 -420 153 -622 255 -126 63 -155 79
-158 88 -2 4 -8 7 -14 7 -20 0 -373 227 -452 291 -322 259 -579 514 -751 744
-16 22 -32 42 -36 45 -25 23 -220 320 -289 442 -32 56 -155 303 -188 378 -127
285 -259 718 -313 1028 -5 28 -13 78 -19 110 -5 31 -12 77 -15 102 -3 25 -8
54 -10 65 -2 11 -7 54 -10 95 -4 41 -9 86 -11 100 -19 118 -29 2060 -12 2205
12 96 21 159 33 225 1 8 6 35 10 60 4 25 9 54 12 65 2 11 5 32 7 46 3 15 25
109 50 210 151 609 388 1115 742 1584 46 61 93 122 106 136 13 15 43 51 68 80
61 72 290 302 369 369 35 30 69 60 75 66 59 57 323 243 512 361 65 41 380 209
397 212 4 0 7 -1170 8 -2601z m-2310 -5550 c283 -426 584 -758 994 -1097 11
-9 38 -30 60 -46 22 -16 42 -32 45 -36 11 -13 132 -98 235 -167 61 -40 117
-77 125 -83 113 -77 518 -289 675 -353 39 -16 88 -37 110 -47 250 -109 767
-260 1075 -313 14 -2 52 -9 85 -15 33 -6 92 -15 130 -20 39 -6 86 -12 105 -15
74 -11 137 -18 195 -22 33 -2 74 -6 90 -8 176 -26 799 -26 1080 -1 61 5 166
16 200 20 17 2 53 7 80 10 28 3 75 10 105 15 30 5 73 12 95 15 39 5 362 71
398 80 33 9 95 24 122 30 11 3 81 23 155 46 74 22 150 45 168 51 50 14 284
103 397 150 135 57 476 230 603 306 178 107 530 352 562 392 3 3 18 16 34 28
98 75 434 399 535 516 99 113 182 217 258 320 29 39 57 76 62 82 5 6 49 72 97
146 49 75 94 144 101 155 9 14 12 -831 10 -3862 -2 -2134 -5 -3891 -9 -3905
-3 -14 -9 -59 -12 -100 -4 -41 -8 -86 -11 -100 -2 -14 -6 -47 -9 -75 -4 -44
-11 -91 -30 -215 -9 -57 -16 -92 -26 -140 -5 -25 -12 -56 -14 -70 -11 -69 -94
-372 -137 -501 -111 -335 -228 -590 -417 -904 -36 -60 -69 -111 -74 -113 -4
-2 -8 -10 -8 -18 0 -8 -4 -14 -10 -14 -5 0 -10 -5 -10 -10 0 -6 -5 -16 -10
-23 -6 -7 -47 -61 -92 -122 -75 -101 -125 -165 -203 -254 -43 -49 -260 -267
-325 -326 -84 -76 -155 -135 -260 -214 -52 -39 -99 -74 -105 -79 -29 -22 -294
-192 -300 -192 -2 0 -26 -13 -52 -28 -105 -62 -341 -176 -483 -235 -207 -84
-570 -199 -705 -223 -16 -3 -46 -9 -66 -14 -31 -9 -77 -18 -164 -35 -40 -8
-211 -34 -260 -40 -27 -3 -61 -8 -75 -10 -190 -32 -665 -47 -995 -32 -82 4
-161 9 -175 11 -14 3 -59 7 -100 11 -41 4 -86 8 -100 10 -14 1 -50 6 -80 9
-30 4 -62 9 -70 11 -8 3 -35 7 -60 10 -233 29 -663 143 -955 253 -193 72 -503
220 -627 298 -21 13 -42 24 -48 24 -5 0 -10 5 -10 10 0 6 -5 10 -10 10 -6 0
-57 30 -113 67 -304 200 -565 423 -787 673 -41 47 -77 87 -81 90 -5 5 -100
124 -159 200 -71 92 -216 317 -292 455 -100 180 -298 627 -298 672 0 7 -4 21
-10 31 -17 30 -68 202 -109 367 -56 227 -100 464 -117 630 -2 28 -7 66 -10 85
-2 19 -7 67 -10 105 -2 39 -7 95 -11 125 -7 67 -12 7711 -5 7725 3 5 8 2 10
-5 3 -8 49 -81 103 -162z"/>
<path d="M2280 26392 c-7 -3 -10 -910 -10 -2695 l0 -2692 1153 1 c633 1 1155
2 1158 3 4 0 7 172 7 380 0 279 -3 381 -11 383 -7 2 -345 4 -752 4 l-740 -1 1
782 c0 431 3 785 6 789 4 3 272 5 597 5 l591 0 0 385 0 384 -595 0 c-560 0
-595 1 -596 18 -1 9 -2 347 -2 749 l-2 733 75 1 c41 0 378 0 748 0 369 0 673
3 673 7 7 40 2 755 -5 759 -10 6 -2278 11 -2296 5z"/>
</g>
</svg>
