<svg width="1249" height="669" viewBox="0 0 1249 669" fill="none" xmlns="http://www.w3.org/2000/svg">
<g clip-path="url(#clip0_2101_1409)">
<path d="M574.187 228.623C573.301 237.057 568.129 241.053 561.628 243.716C562.219 227.883 560.003 214.713 559.116 200.359C575.961 201.691 579.95 193.256 587.929 183.194C590.293 180.087 592.657 177.275 595.465 173.576C597.829 170.468 601.079 165.141 603.444 164.549C606.694 163.661 609.649 165.733 612.457 164.549C613.934 163.957 616.594 161.146 617.037 159.518C618.663 153.155 614.082 148.864 611.423 146.496C608.024 143.389 604.035 141.169 600.341 138.949C599.306 129.479 591.623 125.483 584.678 121.34C578.916 117.789 572.71 114.681 567.538 111.722C566.061 103.879 560.446 101.363 554.388 96.0361C550.398 92.6327 546.704 88.6373 543.306 85.9738C512.129 60.078 478.44 39.8052 441.944 19.8285C432.783 14.7973 423.77 9.0262 413.722 6.21465C396.287 1.33144 374.714 4.73489 358.313 8.28631C352.698 9.47012 345.901 10.358 341.616 12.8736C334.967 16.721 330.977 26.1914 330.977 34.4781C331.125 47.648 340.582 55.0468 345.606 63.7774C347.083 66.4409 350.629 70.8802 345.015 73.3958C340.877 63.7774 328.318 60.5219 314.724 63.3334C309.7 60.6699 313.394 54.1589 312.212 49.7196C311.03 44.8364 307.484 43.3567 303.199 41.137C302.756 31.2226 290.344 35.3659 284.581 37.5856C293.447 8.13834 264.93 -0.296299 241.436 -0.000347048C219.716 0.295605 199.62 8.43429 181.446 16.573C148.053 31.6665 116.137 53.1231 88.6541 73.0999C81.2661 78.427 74.026 83.7541 67.5246 89.2292C64.1262 92.1888 61.171 95.2963 58.5114 98.8477C55.8517 102.251 53.3398 106.542 49.9414 109.502C41.8147 116.457 28.5165 119.712 22.7539 127.111C21.1286 129.331 20.9808 132.29 19.2077 134.658C16.9913 137.617 13.1496 139.393 10.6377 141.761C7.68257 144.424 4.57965 147.384 4.13637 151.379C2.51103 164.105 16.9913 162.625 23.7882 157.89C31.9149 167.213 41.667 179.643 50.5324 190.297C53.0443 193.404 57.6248 199.323 60.58 200.359C64.7172 201.839 68.7067 200.063 72.6962 200.803C72.1051 215.601 69.4455 228.327 70.1843 244.308C66.3426 242.237 62.5009 240.165 60.1367 236.761C59.989 226.847 51.5667 226.551 43.5878 223.592C30.8806 218.856 19.5032 214.861 7.23929 210.422C3.6931 209.09 2.36327 207.758 0.737932 209.83C-0.887408 212.049 1.47672 213.233 3.6931 215.897C15.8093 230.25 27.4822 245.196 40.4849 256.886C44.7699 257.182 50.5324 256.146 54.0786 257.478C50.828 291.513 50.828 328.063 51.5667 363.429C51.8623 374.675 53.6354 385.625 55.1129 396.28C58.3636 417.736 61.6143 437.713 67.2291 456.358C72.6962 474.855 80.5274 492.02 89.3929 506.818C107.715 537.005 130.174 562.605 167.114 573.999C186.322 579.918 209.668 579.03 229.172 572.963C246.903 567.34 263.304 557.278 277.489 549.731C268.624 571.039 259.758 593.384 248.233 611.289C246.608 613.805 243.948 615.728 243.652 618.836C251.04 621.647 264.043 618.836 271.874 621.351C270.397 627.418 267.441 632.154 267.294 639.552C270.84 645.767 281.035 645.323 290.048 646.063C289.901 649.911 289.162 653.166 288.571 656.57C289.901 658.493 291.526 662.341 294.186 664.116C304.086 671.071 338.218 670.627 341.025 659.529C341.912 655.682 339.252 650.651 339.547 645.915C349.004 646.507 359.938 644.14 361.268 638.369C362.746 632.006 356.983 626.826 356.687 619.576C365.701 618.688 376.191 619.28 385.944 619.132C382.988 613.805 379.885 608.773 376.93 603.446C367.622 587.317 360.234 569.856 353.732 551.359C366.144 559.349 378.556 565.86 393.036 570.596C407.812 575.479 424.952 579.474 444.456 578.142C477.258 575.923 502.672 557.722 521.142 537.301C539.169 517.324 553.797 491.872 563.992 462.573C569.016 448.367 573.301 431.794 575.665 415.073C576.847 406.342 577.143 397.464 578.177 388.289C579.063 379.558 580.689 370.384 581.132 361.505C582.905 325.547 580.541 288.553 578.62 255.998C581.871 255.11 587.338 257.182 591.18 255.998C593.987 255.258 598.863 248.6 601.818 245.492C609.649 236.761 615.116 230.694 621.913 222.704C625.164 218.856 630.336 214.861 627.971 209.09C609.797 215.157 592.509 222.112 574.483 228.179L574.187 228.623ZM603.444 157.89C598.715 162.921 593.544 169.284 588.372 176.091C583.496 182.454 578.916 190.001 573.301 194.292C569.902 196.808 563.697 196.66 557.195 196.364C570.346 185.118 584.235 174.611 597.533 163.513C597.385 162.181 596.056 162.033 596.056 160.406C598.272 159.074 601.079 158.334 603.148 156.854C604.478 156.854 603.739 157.15 603.591 157.89H603.444ZM510.208 253.779C510.947 251.263 515.084 248.304 517.744 245.788C523.211 240.313 526.757 235.43 531.929 229.659C533.702 227.587 539.021 224.775 535.031 221.52C527.348 228.623 520.847 237.945 512.868 245.196C512.129 245.936 511.39 248.156 509.913 247.268C511.39 241.941 507.696 237.353 509.322 232.174C510.06 229.659 517.448 225.515 519.96 223.592C524.245 220.484 527.791 217.968 531.042 215.601C539.464 209.238 546.261 204.355 552.171 198.88C549.216 194.44 544.34 200.951 541.681 202.875C517.596 221.076 490.852 240.609 466.472 258.366C467.654 253.927 473.121 251.411 476.519 248.747C497.944 232.322 519.369 215.157 542.124 198.288C545.966 195.476 550.694 192.517 552.763 189.705C553.354 188.965 553.649 188.077 554.092 187.189C555.127 184.23 555.422 180.531 556.752 178.163C559.264 173.872 568.129 170.912 573.892 168.544C580.984 165.733 587.929 164.253 593.1 161.442C588.077 166.029 581.132 170.172 574.335 174.463C567.982 178.755 561.628 183.786 555.274 187.633C554.831 190.593 555.127 194.144 554.24 196.66C556.309 200.655 556.013 207.462 556.752 215.749C557.047 220.78 558.082 226.107 558.23 230.398C558.377 234.098 559.264 242.385 558.23 245.492C557.343 248.452 549.807 252.151 546.113 254.519C533.554 262.805 520.699 272.276 509.322 278.639C511.833 269.612 508.14 261.326 510.356 253.335L510.208 253.779ZM467.949 289.145C468.984 285.446 472.678 285.594 474.451 283.078C476.076 290.773 472.382 297.58 471.939 304.83H467.358C468.688 299.799 466.62 293.436 467.949 289.145ZM467.358 279.083C468.393 273.903 465.585 268.132 466.915 263.989C467.949 260.734 471.643 259.106 475.485 258.514V277.751C474.303 279.527 470.018 280.562 467.358 279.231V279.083ZM395.252 505.782C393.184 505.19 396.287 503.71 396.287 503.71C401.163 498.235 407.812 490.984 412.392 484.621C419.78 485.213 429.975 483.142 435.147 486.101C431.896 493.5 427.316 499.567 423.031 505.782H395.252ZM420.519 509.333C417.859 514.069 414.018 517.62 411.506 522.503C406.039 518.656 400.719 514.661 396.878 509.333H420.519ZM354.471 511.849C354.176 508.15 355.505 506.226 355.505 502.822C352.846 501.195 348.561 501.343 345.901 499.863C342.798 500.751 341.173 503.266 338.365 504.45C337.479 503.414 337.183 501.935 335.854 501.343C342.059 500.011 346.788 497.051 351.959 494.832C361.12 500.455 370.133 506.226 373.68 517.62C375.157 516.732 377.521 516.732 378.703 515.548C377.374 518.656 373.68 521.319 370.577 524.131C367.474 527.091 364.371 530.198 361.563 532.714C357.722 530.938 360.972 523.095 361.12 519.1C359.199 516.436 356.392 514.809 354.619 511.997L354.471 511.849ZM208.338 505.782C204.349 499.123 199.916 493.056 196.222 486.101C198.734 484.917 213.214 483.142 217.942 484.621C221.636 485.657 224.592 491.872 227.547 495.128C231.241 499.271 234.787 502.231 237.151 505.19C228.581 506.374 217.795 505.338 208.486 505.782H208.338ZM235.082 509.333C231.093 514.661 225.774 518.656 220.454 522.503C217.795 517.768 213.953 514.217 211.441 509.333H235.23H235.082ZM156.475 279.674C155.736 273.164 155.736 264.877 156.475 258.514C161.647 258.514 162.976 262.065 166.079 263.989C165.341 268.872 165.488 274.495 165.045 279.674H156.475ZM165.045 283.67C163.567 290.329 165.488 297.432 165.045 304.83H160.021C158.691 298.024 157.066 291.217 156.475 283.67C157.953 283.374 162.09 283.966 165.045 283.67ZM84.3691 202.875C96.4852 212.049 110.522 222.112 122.638 231.582C121.604 246.676 120.865 264.729 122.638 279.527C106.09 268.724 90.1316 257.626 73.7305 246.676C73.1394 229.363 75.7991 215.157 76.6856 199.176C76.6856 197.104 76.8334 197.992 78.1632 198.14C77.5722 194.884 76.6856 191.777 76.6856 188.077C65.8993 180.235 54.6697 172.836 43.44 165.289C53.1921 167.953 64.5695 173.428 74.617 177.423C75.6513 179.643 74.9125 183.194 76.0946 186.006C76.2424 186.598 76.6856 187.041 77.1289 187.633C79.1975 190.297 83.4825 192.961 86.7332 195.624C110.522 216.193 135.198 234.246 160.908 252.743C162.681 254.075 165.784 255.11 165.932 257.774C165.636 259.106 163.567 257.33 163.42 257.33C157.509 253.335 150.86 247.712 144.654 243.124C127.071 230.103 109.192 216.637 91.3137 203.171C89.6884 201.987 87.6198 200.359 85.6989 199.176C84.2213 198.14 82.1527 195.476 80.0841 197.696C79.0498 200.507 82.7437 201.691 84.0736 202.727L84.3691 202.875ZM98.9971 138.801C104.907 142.205 108.601 146.94 115.546 147.828C125.741 149.308 135.346 141.169 144.802 142.353C149.087 142.945 154.259 146.792 156.918 149.456C162.238 154.635 166.079 161.59 169.035 168.101C164.158 166.917 159.578 163.217 153.963 162.625C138.153 160.998 123.821 175.351 108.158 173.132C103.578 172.54 98.7016 170.172 95.4509 167.657C90.1316 163.365 85.8466 157.298 82.4482 151.971C88.6541 152.563 95.3032 152.563 101.066 153.451C100.918 148.124 99.8837 143.536 98.9971 138.801ZM212.919 108.91C211.146 109.65 207.599 109.65 205.826 108.91C200.211 100.475 207.304 90.4131 212.328 86.1217C213.214 85.9738 213.214 86.5657 213.362 87.1576C212.18 91.005 209.077 96.0361 209.372 100.771C209.52 104.175 212.032 105.803 212.919 108.762V108.91ZM198.291 110.982C194.449 112.461 190.607 110.982 189.721 107.874C187.209 99.2916 198.586 89.5252 203.905 88.1934C200.507 94.2604 192.824 102.103 198.291 110.982ZM189.721 122.08C192.676 122.82 195.779 121.044 199.768 120.008C203.462 119.12 207.452 119.86 209.372 117.049C212.328 118.085 215.874 117.345 216.908 114.977C220.159 117.493 225.478 116.309 227.99 113.941C226.808 119.268 231.388 124.448 237.003 128.591C242.47 132.586 247.79 136.434 254.143 133.178C254.882 135.99 256.803 137.617 258.724 139.245C256.507 149.456 257.098 163.513 263.748 167.953C261.531 172.836 259.463 177.867 257.246 182.602C249.563 181.27 243.652 179.051 236.117 178.607C211.293 176.831 191.494 189.853 168 190.741C170.512 184.526 174.797 180.383 174.058 172.096C173.319 162.773 164.011 149.899 156.475 143.832C153.963 141.761 149.826 139.245 146.428 138.801C136.675 137.174 126.48 145.164 117.171 144.276C113.182 143.98 110.522 141.169 106.681 139.689C117.615 139.097 125.889 135.694 131.947 130.071C144.95 133.918 152.633 124.891 160.169 120.008C170.955 120.304 174.354 113.053 181.889 109.946H182.924C185.288 114.681 184.697 120.748 190.016 122.08H189.721ZM237.151 88.1934C232.718 91.8928 232.571 98.6997 227.103 101.215C224.444 90.561 234.048 83.7541 244.243 82.5703C243.948 85.8258 239.811 85.8258 237.151 88.1934ZM243.209 99.7355C243.652 107.726 238.481 110.094 238.185 117.345C230.945 113.497 236.412 100.623 242.175 99.1436C242.766 99.1436 243.061 99.1436 243.209 99.5876V99.7355ZM225.626 82.5703C224.148 72.36 234.491 69.6964 243.8 68.3646C238.481 73.8397 233.457 79.4628 225.626 82.5703ZM236.264 51.3474C237.003 56.0826 232.423 55.3427 229.172 55.9346C224.444 56.8225 219.272 59.0421 216.465 59.486C212.771 50.9034 229.32 46.6121 236.117 51.4953L236.264 51.3474ZM229.172 37.7336C232.718 36.6977 238.333 35.9578 240.254 38.1775C236.56 42.1728 229.763 43.0607 223.114 44.2445C221.489 40.8411 225.774 38.6214 229.172 37.7336ZM232.718 64.5172C230.945 67.3288 227.251 68.0687 224.592 69.5484C221.932 71.1762 219.42 73.8397 215.578 73.5438C209.225 67.7727 226.512 61.7057 232.718 64.5172ZM354.767 105.507C361.859 106.247 365.553 126.815 355.801 129.183C354.323 121.932 359.643 113.497 354.767 105.507ZM359.347 96.924C357.278 94.2604 354.619 91.1529 353.289 88.7853C352.846 88.0454 352.993 88.0454 353.289 87.3056C362.746 85.3819 368.951 96.0362 366.883 104.027C363.78 103.435 361.416 99.7356 359.347 96.924ZM353.88 136.286C357.278 138.653 360.529 135.102 362.893 135.25C364.371 135.25 365.553 137.174 367.474 137.321C372.202 137.617 375.453 134.806 378.112 131.698C378.851 130.811 379.59 128.591 380.624 128.147C382.102 127.555 384.023 128.591 385.205 128.147C389.194 126.519 390.524 121.784 391.263 117.493C396.434 118.676 401.606 118.529 405.448 116.013C406.482 117.493 409.437 117.937 411.506 117.049C417.564 127.555 439.284 128.591 438.693 112.018C439.432 112.018 440.171 112.018 440.171 111.426C450.071 116.753 466.472 132.438 480.509 134.214C482.873 134.51 484.941 134.214 487.01 133.178C493.364 136.434 497.796 141.613 506.219 142.797C497.205 143.389 489.374 138.505 480.952 138.801C467.949 139.245 453.174 159.222 451.696 170.616C450.514 180.383 455.685 184.822 459.232 191.333C432.192 189.113 411.21 173.872 380.624 180.235C378.851 179.495 378.703 177.127 377.669 175.647C373.384 177.719 373.384 183.786 367.03 183.786C367.03 180.531 366.587 179.791 367.03 176.683C364.075 176.979 360.825 181.27 358.461 183.786C358.313 185.858 359.79 187.041 357.869 187.781C355.801 186.302 356.096 182.454 353.289 181.714C351.811 183.194 350.482 184.674 349.743 186.745C347.231 186.154 346.492 183.49 344.719 182.158C346.492 176.683 347.674 173.132 347.231 167.953C346.64 162.625 342.65 158.186 342.207 153.303C341.616 148.124 344.128 144.868 345.31 139.689C348.265 139.985 352.402 138.801 353.88 136.138V136.286ZM397.764 56.5265C393.036 53.567 387.717 51.0514 380.624 50.4595C379.885 49.1277 378.851 46.1682 379.59 44.8364C388.603 43.2087 401.458 46.9081 397.764 56.5265ZM380.624 35.8099C388.455 36.1058 396.287 36.4018 396.73 43.9486C389.49 43.9486 385.944 40.5451 380.033 39.3613C378.703 38.0295 380.624 37.4376 380.476 35.8099H380.624ZM408.403 87.7495C412.983 89.5252 418.45 96.924 418.007 104.471C417.712 108.022 415.495 112.609 410.915 110.538C412.836 101.807 411.358 94.2604 408.403 87.7495ZM402.788 69.1045C398.06 66.5889 392.888 65.2571 387.717 63.4814C398.503 59.0421 412.983 65.5531 415.938 74.1357C410.915 77.9831 407.073 71.1762 402.788 69.1045ZM401.31 104.471C399.685 103.139 398.503 99.8835 397.321 96.924C395.843 93.2246 393.331 89.3772 395.252 86.8616C402.492 87.4535 408.994 99.5876 401.31 104.471ZM400.719 83.3102C396.434 83.1622 393.036 79.1669 389.638 76.2074C385.796 72.9519 381.659 69.8444 379.147 65.701C388.16 66.293 403.822 72.6559 400.719 83.3102ZM390.229 89.8212C390.524 92.6327 389.637 99.2916 387.717 99.4396C383.875 99.7355 384.023 87.7495 382.693 84.346C380.92 79.3148 377.521 78.7229 376.635 74.2837C382.693 73.3958 389.342 83.6062 390.229 89.9691V89.8212ZM381.215 118.085C379.294 117.049 379.294 114.237 378.26 112.018C377.078 109.502 374.123 107.282 375.748 103.879C382.25 103.879 386.387 113.941 381.363 118.085H381.215ZM375.157 100.475C372.498 95.2963 370.872 88.9333 369.542 82.2744C376.783 83.7541 378.703 93.6685 375.157 100.475ZM375.157 124.152C370.133 125.039 369.099 115.273 369.099 111.13C375.748 108.91 376.783 118.381 375.157 124.152ZM418.598 93.8165C418.598 93.8165 419.485 93.3726 420.076 93.3726C423.77 95.8882 432.044 105.803 429.68 114.089C428.793 117.197 424.804 119.564 420.667 117.197C420.371 114.829 423.179 113.941 423.77 111.13C424.952 104.915 420.962 97.8119 418.746 93.9645L418.598 93.8165ZM542.567 152.859C534.884 163.365 527.496 174.168 512.277 174.611C505.628 174.759 498.535 172.392 492.182 170.024C486.124 167.805 480.065 163.809 474.598 163.513C466.915 163.069 461.152 166.769 456.424 170.024C457.015 164.401 460.561 158.63 464.403 153.895C467.654 149.899 473.269 143.832 478.588 142.797C487.453 141.169 498.24 147.088 506.81 147.384C516.266 147.532 521.142 141.317 526.018 134.806C528.678 139.985 525.87 147.384 524.984 152.415C529.86 153.599 536.952 152.563 542.567 152.859ZM529.564 149.308C529.121 147.828 530.303 147.976 530.008 146.792C533.406 146.792 534.588 149.012 538.134 148.864C536.214 150.047 532.224 149.012 529.564 149.308ZM137.266 189.261C145.393 193.996 159.43 195.328 172.581 194.292C194.744 192.517 211.884 180.826 238.185 182.602C249.415 183.342 261.236 187.485 270.397 192.665C273.943 194.588 278.671 196.956 280.001 199.767C281.774 203.615 281.922 209.09 283.547 213.381C284.877 217.081 286.798 221.668 291.526 221.964C294.924 219.152 292.117 211.458 291.526 207.758C295.368 208.498 292.413 210.57 293.595 213.233C294.777 216.489 296.993 218.56 298.175 221.816C290.935 226.107 281.774 220.04 273.5 217.82C260.94 214.417 247.051 213.381 230.65 214.269C212.328 215.305 198.586 223 181.298 226.403C175.684 227.439 169.182 229.363 163.715 228.919C144.654 227.735 135.198 204.207 133.425 187.041C134.164 184.674 136.38 188.373 137.414 189.113L137.266 189.261ZM138.744 178.163C143.177 174.611 150.565 170.172 153.815 166.621C160.612 167.953 165.932 170.616 170.955 173.724C170.217 180.974 166.818 185.71 163.863 190.889C154.997 190.889 145.836 190.149 139.631 186.302C134.607 183.194 133.425 182.306 138.596 178.163H138.744ZM260.201 109.502C265.225 114.089 263.747 129.775 260.792 135.25C256.655 128.591 257.689 117.049 260.201 109.502ZM256.655 107.43C255.03 106.986 255.473 103.139 255.621 100.919C256.064 93.9645 259.463 87.1576 261.679 81.6825C265.077 85.6778 262.27 93.9645 260.645 98.8477C259.463 102.251 258.724 105.951 256.655 107.43ZM262.27 145.756C262.418 143.093 263.009 140.281 264.339 138.653C268.919 143.389 268.476 156.41 266.85 164.401C262.713 162.181 261.827 152.415 262.27 145.756ZM273.352 124.596C267.737 119.564 265.077 110.242 265.225 100.919C271.135 105.655 273.352 113.941 273.352 124.596ZM268.328 72.064C272.613 76.6513 273.5 88.6373 271.283 96.3321C266.703 91.8928 265.373 79.3148 268.328 72.064ZM311.621 172.096C307.188 166.029 307.927 154.635 310.144 146.792C310.735 146.792 311.03 146.792 311.178 147.384C313.099 153.895 315.611 165.733 311.621 172.096ZM314.133 173.132C316.349 174.907 317.088 178.903 317.236 182.158C317.384 188.077 315.315 195.18 313.247 198.88C309.405 191.481 312.064 180.383 314.281 173.132H314.133ZM321.669 217.525C325.51 220.78 331.273 222.112 334.819 225.663C324.328 224.775 310.439 224.775 300.096 225.663C304.233 221.52 315.611 220.928 321.669 217.525ZM320.191 183.638C325.51 188.225 326.545 198.732 325.658 207.906C320.93 202.875 318.861 192.96 320.191 183.638ZM374.123 217.968C390.524 215.453 408.107 218.264 419.485 224.035C401.606 235.134 364.814 233.802 345.458 225.071C351.073 222.112 358.165 220.632 365.11 219.004C368.213 220.336 369.395 223.444 373.236 224.035C376.044 223.148 374.862 220.336 374.271 217.968H374.123ZM359.052 233.062C375.305 236.761 397.173 236.17 411.949 230.99C424.952 226.403 444.751 230.103 460.857 230.99C461.3 233.21 462.187 237.353 461.448 239.129H334.376C334.671 236.17 337.036 235.282 337.479 232.618C331.421 233.062 325.067 235.134 323.294 229.659C323.294 229.215 323.442 229.215 323.885 229.067C331.273 229.807 338.365 228.179 345.015 229.067C350.038 229.807 354.767 232.174 359.199 233.062H359.052ZM463.369 266.357H431.158C432.044 263.693 433.669 259.846 432.192 256.294H462.926C463.664 259.106 463.369 262.953 463.517 266.357H463.369ZM463.812 269.908C463.812 273.607 464.699 276.123 464.403 279.97H435.147C434.113 277.159 435.147 272.276 433.078 270.352C442.387 269.168 453.765 270.204 463.812 269.908ZM398.798 274.495C421.553 261.03 438.693 306.31 412.392 309.862C416.825 294.62 409.437 279.674 398.798 274.495ZM353.88 317.408C354.914 310.897 364.814 311.193 367.474 315.337C371.907 322.588 362.45 332.65 354.914 324.955C355.949 320.96 353.585 319.48 353.88 317.408ZM319.6 324.511C317.531 324.659 318.123 322.292 316.054 322.44C316.645 310.158 319.157 293.584 312.951 285.594C316.349 286.925 317.384 295.064 319.452 299.207C323.59 300.243 323.59 295.804 324.476 293.732C327.727 286.038 333.194 280.414 341.173 277.011C337.331 288.701 332.307 299.207 319.452 301.723C320.339 308.974 319.896 317.112 319.452 324.511H319.6ZM279.262 320.516C283.547 318.74 287.241 315.633 291.822 319.036C290.196 322.44 282.661 321.996 279.262 320.516ZM290.344 328.063C289.901 329.542 288.719 327.767 287.832 328.063C287.98 326.879 290.048 327.767 290.344 328.063ZM219.272 309.862C195.04 306.606 207.599 263.545 232.866 273.46C231.388 275.827 228.286 276.715 226.365 278.935C220.011 286.038 216.022 298.763 219.272 309.714V309.862ZM214.692 229.067C218.829 229.659 222.671 232.026 226.365 233.062C236.117 235.874 249.119 236.613 263.156 235.578C274.829 234.69 284.729 228.179 297.88 229.067C298.027 232.47 300.392 236.17 299.357 239.129C256.803 238.833 212.919 239.869 171.399 238.537C170.955 235.874 172.137 234.69 171.842 232.026C181.151 229.659 188.391 228.919 200.507 228.919C205.235 228.919 210.259 228.327 214.692 228.919V229.067ZM205.679 225.515C201.098 225.515 204.496 222.704 205.679 225.515V225.515ZM242.027 231.582C232.127 231.73 224.296 228.475 216.76 225.515C214.396 224.627 211.441 224.331 210.259 221.964C221.045 218.708 233.457 217.229 248.085 217.968C247.051 223.444 243.8 226.699 242.027 231.582ZM251.631 231.582C251.336 232.766 248.824 231.73 247.642 232.174V229.659C249.119 230.25 250.597 230.694 251.631 231.73V231.582ZM257.689 230.103C259.61 230.103 262.418 229.511 261.679 232.174C259.463 232.174 257.394 232.47 257.689 230.103ZM266.259 227.587C266.259 227.587 268.033 226.995 269.362 227.143C269.362 228.623 270.84 229.067 271.431 230.103C270.544 230.842 268.771 230.842 267.441 231.138C267.294 229.659 265.373 228.623 266.407 227.587H266.259ZM274.829 229.659C274.977 226.995 276.455 225.515 276.307 222.556C279.41 222.852 282.07 223.444 282.808 226.107C281.774 228.919 277.194 228.327 274.682 229.659H274.829ZM336.445 262.509C335.41 271.684 328.909 277.603 321.816 280.71C322.112 278.491 323.737 276.715 324.919 274.199C329.057 264.581 328.613 247.12 321.816 239.425C330.978 242.385 337.627 251.411 336.445 262.657V262.509ZM327.875 237.797C327.875 236.761 329.648 237.649 330.386 237.353C330.386 239.573 328.613 238.685 327.875 237.797ZM339.991 256.442C363.189 256.738 387.717 255.85 410.028 257.034C408.846 258.958 406.63 258.514 405.004 259.55C402.345 261.326 401.606 264.433 399.537 266.653C380.033 266.653 357.869 266.653 339.991 266.653C339.252 263.989 341.025 259.994 339.991 256.59V256.442ZM397.912 270.056C397.173 271.24 395.4 271.24 394.809 272.572C388.012 270.056 380.329 274.199 374.714 270.5C381.363 269.316 390.376 270.352 397.912 270.056ZM344.423 280.118C345.015 276.419 346.492 273.755 346.935 270.056H363.632C357.426 272.128 352.107 274.939 349.004 280.118H344.423ZM346.492 283.67C345.015 286.777 343.389 289.589 342.946 293.732H338.365C339.843 290.329 341.912 287.517 342.946 283.67H346.492ZM345.901 270.056C342.207 272.572 337.183 273.755 334.228 277.159C333.637 275.087 337.479 273.016 337.774 270.056H345.901ZM310.144 276.123C307.484 273.903 306.597 270.204 306.154 266.061C310.144 263.841 311.178 268.132 314.133 269.612C314.724 273.607 312.36 274.939 310.144 276.123ZM312.212 293.732C306.302 292.105 304.824 286.038 299.062 284.114C307.188 281.598 312.064 286.629 312.212 293.732ZM305.711 254.371C307.484 253.927 307.632 255.11 309.257 254.963C310.587 258.514 308.814 261.325 306.302 262.509C305.12 260.734 306.154 256.886 305.711 254.371ZM311.769 262.953C313.69 261.178 313.099 255.85 313.247 253.927C315.906 254.815 316.645 257.626 320.339 257.478C324.033 263.545 315.167 268.132 311.769 262.953ZM322.851 265.469C323.885 268.132 321.669 271.684 320.782 274.051C318.566 273.903 318.861 271.24 317.679 270.056C318.418 267.54 322.112 267.984 322.703 265.469H322.851ZM318.27 278.047C316.793 278.935 316.202 280.71 314.281 281.154C313.838 280.414 312.951 280.118 312.212 279.674C313.985 278.639 317.236 273.903 318.27 278.195V278.047ZM326.397 283.67C324.624 286.185 322.851 288.849 321.816 292.253C319.896 290.773 320.191 287.221 318.27 285.742C320.191 284.41 322.999 283.818 326.397 283.67ZM320.339 234.69C320.634 232.914 322.112 234.098 322.851 234.69C322.408 236.17 321.225 234.394 320.339 234.69ZM316.793 232.618C315.167 232.174 315.315 230.103 313.838 229.659C315.02 228.475 318.418 229.511 320.339 229.067C319.6 230.694 317.679 231.138 316.793 232.618ZM316.793 239.129C320.043 241.201 322.555 248.156 323.294 252.743C321.225 254.075 317.827 253.039 316.793 251.707C318.566 247.416 318.418 239.869 313.838 239.129C314.429 237.353 316.349 238.833 316.793 239.129ZM306.745 250.227C307.041 246.528 309.257 244.604 310.291 241.645C317.975 242.385 312.803 254.963 306.745 250.227ZM308.223 232.618C305.268 231.878 303.051 230.398 300.244 229.659C302.756 228.475 307.484 229.511 310.735 229.067C309.996 230.398 309.405 231.878 308.223 232.618ZM305.12 235.726C305.12 237.057 303.494 235.874 303.051 235.726C303.051 234.394 304.824 235.578 305.12 235.726ZM306.154 239.277H307.632C299.653 248.156 299.505 271.98 308.223 280.266C295.22 278.639 288.128 258.81 296.55 246.972C299.062 243.42 302.608 242.089 306.154 239.425V239.277ZM285.025 280.266C279.114 277.603 276.898 271.24 268.919 270.648C275.42 269.464 284.138 270.5 291.674 270.204C292.265 274.791 297.436 277.603 298.175 280.266C292.56 281.006 288.866 278.491 285.172 280.266H285.025ZM290.048 293.88C289.014 293.14 288.866 291.661 288.571 290.329C289.31 291.217 290.048 292.105 290.048 293.88ZM287.98 287.369C287.98 287.369 286.355 285.002 285.911 283.818C287.98 283.67 286.946 286.481 287.98 287.369ZM247.051 266.653C242.47 266.653 236.412 267.688 233.457 266.653C230.797 265.765 230.206 261.769 227.99 260.142C225.478 258.218 223.705 259.402 221.932 257.034C243.357 255.85 266.85 256.886 289.014 256.442C288.423 260.29 289.901 264.433 289.605 266.505H247.199L247.051 266.653ZM257.689 270.204C252.666 274.643 244.243 270.204 237.594 272.72C236.56 271.832 235.821 270.944 234.048 270.648C240.993 269.464 250.006 270.5 257.689 270.204ZM294.038 242.976C295.959 243.864 292.856 245.936 291.969 247.564C290.935 249.635 290.639 251.855 289.457 253.039H238.038C232.423 253.039 226.069 253.927 221.341 253.039C219.125 252.595 214.987 249.043 211.737 249.043C207.895 249.043 204.201 252.447 201.246 253.039C191.789 254.815 180.855 251.707 170.955 253.039C170.069 250.523 170.955 245.788 171.546 242.976H294.038ZM218.386 257.626C212.18 257.922 207.304 259.698 204.349 263.101C197.995 255.258 216.022 248.008 218.386 257.626ZM199.768 256.59C197.995 260.586 201.098 264.433 200.803 266.653C192.528 266.653 178.343 266.653 170.069 266.653C169.921 262.953 170.069 259.698 170.512 256.59H199.768ZM198.734 270.204C198.291 273.608 196.961 276.123 197.256 280.266H169.478V270.204H198.734ZM196.665 283.818C198.882 284.41 198.438 287.369 200.211 288.405C201.541 290.033 203.167 289.885 202.28 292.992C200.507 294.916 197.256 294.028 194.744 294.028C186.913 294.028 177.309 294.028 169.035 294.028V283.966H196.665V283.818ZM229.024 268.132C218.09 268.28 210.998 273.016 206.27 280.266C205.235 282.042 204.94 284.558 202.723 285.742C192.676 269.464 220.011 250.671 228.877 268.132H229.024ZM221.932 298.467C223.262 286.481 231.388 274.939 246.164 275.679C247.79 276.863 244.982 277.899 244.687 278.195C240.993 282.782 236.708 290.625 236.708 299.947C236.56 310.306 241.584 318 245.278 323.623C232.571 320.96 220.454 313.561 222.08 298.32L221.932 298.467ZM259.758 273.755C266.703 272.868 273.795 275.531 277.489 278.787C283.104 283.67 286.502 292.4 286.502 303.055C285.025 292.548 281.626 280.266 271.874 277.307C265.373 275.235 259.019 277.603 255.178 280.858C242.175 292.252 245.278 323.475 263.304 326.879C258.428 327.767 253.7 325.547 250.745 323.327C234.491 311.341 238.924 276.715 259.758 273.903V273.755ZM286.059 306.014C285.468 307.642 285.468 304.682 285.468 303.943C286.059 302.315 286.059 305.274 286.059 306.014ZM272.465 309.122C269.362 311.489 261.088 312.229 259.315 308.086C263.895 308.53 267.441 310.454 272.465 309.122ZM261.383 300.095C264.486 298.32 272.17 297.58 274.534 300.687C272.613 304.091 262.713 304.239 261.383 300.095ZM262.418 317.704C264.191 316.669 266.703 317.408 267.885 317.704C266.703 319.036 263.895 317.704 262.418 317.704ZM274.977 321.256C274.977 322.736 274.534 324.659 276.011 324.807C273.5 326.139 269.067 325.103 267.441 323.771C268.033 320.96 271.579 321.256 274.977 321.256ZM257.394 299.503C258.871 304.387 255.325 306.902 255.325 310.602C255.325 313.117 257.689 314.153 257.394 317.704C256.655 319.628 255.325 316.669 255.325 316.669C249.415 308.974 249.267 289.737 258.871 282.782C269.362 275.087 282.365 286.481 282.07 299.355C277.194 296.248 262.418 290.773 257.394 299.355V299.503ZM278.523 302.019C278.523 302.019 280.296 302.611 281.035 303.055C281.183 304.978 279.262 304.682 278.523 305.57C277.194 304.978 279.262 303.647 278.523 302.019ZM283.547 311.045C283.252 313.857 277.785 313.857 276.011 313.561C277.194 311.637 281.479 310.454 283.547 311.045ZM287.537 313.561V310.602C290.787 310.602 294.038 310.454 294.629 313.117C292.56 314.597 290.048 314.745 287.537 313.561ZM289.605 306.458C290.048 303.795 290.196 300.687 290.196 297.432H292.265C295.959 300.835 298.766 305.126 303.938 307.05C299.948 308.234 293.299 307.642 289.753 306.606L289.605 306.458ZM302.608 320.072C301.721 321.996 297.141 322.588 295.516 322.144C294.777 316.817 300.687 318 302.608 320.072ZM298.618 314.449V310.897H313.247C313.542 314.597 312.36 316.669 312.655 320.516C311.326 321.552 308.37 320.812 306.154 320.96C306.45 315.929 302.608 315.041 298.618 314.449ZM291.083 284.114C302.017 288.257 308.814 296.544 314.281 306.31C301.426 304.091 294.186 296.248 291.083 284.114ZM327.431 307.346H323.885V305.274C324.919 303.203 327.579 303.351 329.352 302.167C331.569 300.835 333.637 298.763 335.41 297.136H342.503C342.355 300.243 342.059 299.503 342.503 302.167C335.706 300.539 329.943 303.055 327.431 307.198V307.346ZM329.943 320.516C328.761 321.404 325.954 320.812 323.885 320.96C324.181 317.704 323.294 313.265 324.328 310.897H326.397C325.806 315.929 329.057 316.965 329.943 320.516ZM345.606 311.933C338.809 311.193 335.115 313.561 331.421 315.929C325.215 305.274 345.162 301.279 345.606 311.933ZM341.025 315.929C345.015 315.485 350.777 316.817 351.664 321.552C353.584 333.39 332.898 332.946 332.898 323.032C332.898 319.628 335.115 316.669 341.025 315.929ZM350.629 295.212C354.028 279.379 372.645 273.903 379.294 290.625C378.999 292.4 375.6 288.553 374.271 288.109C360.234 283.522 351.811 298.467 352.55 312.377C350.482 307.642 349.152 301.575 350.482 295.212H350.629ZM356.687 309.27C356.835 301.871 359.052 295.952 363.189 293.14C370.281 288.257 379.59 293.584 380.772 302.759C381.954 310.897 377.521 317.26 372.202 320.96C372.793 311.637 365.701 307.346 356.54 309.27H356.687ZM381.363 317.408C389.194 304.387 384.318 281.006 371.315 277.011C357.131 272.72 348.561 285.15 346.64 297.728V301.723C346.197 309.418 345.901 298.467 346.049 296.692C347.083 286.037 355.062 274.939 365.257 273.46C380.92 271.24 392.593 285.298 392.002 301.279C391.411 315.485 383.727 324.659 370.281 327.027C374.123 323.919 378.408 322.292 381.363 317.408ZM389.49 319.924C398.207 307.494 397.616 286.629 385.5 275.531C401.163 273.164 411.062 289.441 410.767 301.723C410.471 315.041 398.798 320.516 387.569 323.475C385.796 322.884 388.751 321.108 389.638 319.924H389.49ZM403.675 268.428C404.118 266.061 405.3 263.841 406.63 262.805C418.746 254.075 438.398 271.832 429.384 285.594C423.77 277.011 419.041 267.392 403.675 268.428ZM414.165 257.33C416.382 248.6 432.931 253.483 428.793 262.805C424.952 259.994 420.667 257.33 414.165 257.33ZM462.63 252.743C452.73 251.115 441.353 254.815 431.453 252.743C427.611 252.003 425.395 248.747 421.258 248.747C417.416 248.747 414.609 252.003 410.767 252.743C405.743 253.779 398.946 252.743 392.593 252.743C375.748 252.743 356.835 253.187 340.139 252.299C337.627 249.783 337.183 245.048 334.08 243.272C375.896 242.089 419.928 243.124 462.63 242.68C462.039 246.38 463.517 250.375 462.63 252.743ZM306.893 146.2C303.79 139.837 300.392 129.479 302.903 120.896C307.632 125.483 309.257 137.765 306.893 146.2ZM304.381 218.412C303.347 219.448 302.017 220.04 300.392 220.484C298.323 218.708 297.436 215.601 295.811 213.381C299.21 212.641 301.869 216.785 304.381 218.412ZM298.323 204.355C294.038 204.207 291.083 199.915 288.719 196.808C286.207 193.404 283.99 189.261 282.217 185.71V184.23C288.719 189.853 295.516 195.032 298.323 204.355ZM290.787 95.7402C296.845 100.771 299.653 109.058 299.801 119.86C293.447 115.125 290.935 106.542 290.787 95.7402ZM273.647 157.298C278.819 162.181 282.661 168.396 285.32 175.943C280.296 170.912 276.307 164.845 273.647 157.298ZM277.637 190.149C275.716 190.445 274.091 186.893 273.056 184.082C271.579 179.939 270.544 173.724 271.579 168.396C275.273 174.02 277.341 181.122 277.637 190.149ZM291.674 218.856C285.468 213.677 282.217 205.834 281.626 195.18C285.911 199.767 292.56 208.054 291.674 218.856ZM279.558 89.0813C277.637 84.79 276.011 79.6108 275.568 74.4316C281.626 80.3507 286.207 87.7495 287.684 98.2558C283.547 98.1078 281.331 93.2246 279.558 89.2292V89.0813ZM278.523 151.231C272.465 145.756 268.033 138.801 267.441 127.999C268.033 127.999 268.328 127.999 268.476 128.591C272.613 135.25 277.932 140.873 278.523 151.379V151.231ZM169.182 297.136H203.019C203.314 301.131 206.565 304.978 207.008 307.198H169.182V297.136ZM169.626 310.75C183.072 312.229 198.143 308.826 210.555 310.75C214.692 311.489 218.09 314.745 222.08 313.857C223.41 316.521 227.695 319.036 228.138 320.96H169.626V310.897V310.75ZM170.66 324.363H203.019C213.805 324.363 225.035 323.032 234.787 324.363C237.447 324.659 239.958 326.583 242.766 326.879C244.982 327.175 247.642 326.583 249.858 326.879C252.961 327.471 255.916 329.986 258.871 330.43C261.236 330.726 264.043 330.134 266.407 330.43C268.18 330.578 269.806 331.318 271.431 331.466C273.943 331.614 277.046 330.43 279.558 330.874C281.331 331.17 282.808 333.538 284.877 333.982C247.79 335.018 208.634 333.982 170.66 334.426C171.103 331.022 169.182 327.323 170.66 324.363ZM324.476 337.977C307.779 341.824 293.89 348.631 282.217 357.658C281.922 364.021 280.74 369.644 280.149 375.859C281.922 376.895 285.468 376.155 287.241 377.339C285.025 386.661 282.513 395.836 279.705 404.566C284.581 410.041 292.413 412.409 300.392 414.629C300.687 418.92 296.55 424.099 296.845 428.243C297.141 432.978 302.608 434.901 302.903 438.897H196.074C184.697 408.414 174.945 376.155 171.399 337.977H324.624H324.476ZM286.207 405.602C290.64 404.122 298.914 403.974 303.347 404.122C302.46 406.342 302.017 409.006 301.278 411.225C295.959 409.598 290.787 407.822 286.207 405.602ZM300.835 428.391C303.051 420.104 304.824 411.669 307.336 403.678H311.917C310.882 415.221 310.882 427.799 309.405 439.045C305.12 436.973 303.642 431.942 300.835 428.391ZM284.729 401.607C286.946 393.172 288.866 384.59 291.822 376.895C295.22 373.343 301.574 370.384 307.927 366.832C313.69 363.577 320.191 358.546 326.101 359.286C329.352 359.73 331.125 362.245 332.603 364.317C333.933 366.093 334.671 370.236 338.07 369.348C338.661 368.46 338.661 367.572 338.365 366.832C337.922 364.613 335.854 362.541 334.524 360.765C325.954 350.555 315.463 358.25 304.824 364.317C301.574 366.241 298.323 368.016 295.22 369.792C291.822 371.864 288.275 374.379 284.138 372.899C284.729 368.608 285.468 364.465 285.616 359.73C290.344 355.586 296.698 352.775 303.199 349.667C314.133 344.488 330.83 336.645 338.956 349.667C341.616 353.811 343.241 359.434 344.423 365.501C345.458 370.236 346.197 375.415 346.935 380.446C348.265 388.585 349.3 397.759 350.038 406.638C350.334 409.598 349.891 413.593 350.629 415.665C352.107 420.4 358.017 422.176 361.12 426.319C357.574 430.61 349.152 431.942 343.98 428.834C341.468 427.355 339.695 423.211 338.365 419.808C337.036 416.256 337.036 411.521 335.41 408.118C332.898 403.235 324.181 400.571 317.236 399.979C306.893 399.091 294.924 400.571 284.434 401.459L284.729 401.607ZM334.08 417.292C331.125 417.44 329.204 416.7 326.988 416.256C326.101 412.853 325.363 409.154 324.476 405.602C331.125 405.898 333.194 411.077 334.08 417.292ZM320.487 404.122C322.26 412.261 323.885 420.548 325.954 428.391C323.146 432.09 321.521 436.973 316.94 439.045C317.384 426.911 316.202 416.256 316.497 404.122H320.487ZM326.545 434.458C327.727 432.83 329.204 431.202 330.091 429.87C329.352 426.615 328.466 423.803 328.022 420.252C330.682 420.548 332.603 421.436 335.706 421.288C336.445 429.87 346.788 436.973 358.313 433.422C362.45 432.09 363.928 427.947 366.883 426.911C363.041 422.471 358.313 418.92 354.323 414.777C352.402 393.912 351.22 363.725 342.65 348.631C339.695 343.452 335.41 339.013 328.022 338.569C369.395 337.385 418.007 338.421 462.187 338.125C458.345 376.155 448.741 408.414 437.511 439.045H324.624C322.999 438.305 325.658 435.789 326.693 434.458H326.545ZM342.059 334.426H294.186C297.584 333.39 300.392 331.466 301.278 327.915C303.494 327.175 305.12 326.139 306.302 324.363C315.463 322.884 317.531 328.655 322.408 331.466C323.885 329.986 322.703 326.139 323.885 324.363C324.624 324.807 326.988 323.919 328.466 324.363C330.83 325.251 330.386 328.655 333.046 330.874C335.41 332.946 338.809 333.982 342.059 333.982C346.492 333.982 351.073 332.206 353.732 328.951C357.574 331.91 360.972 331.022 366.292 330.43C371.168 329.986 374.123 330.43 377.965 328.951C379.294 328.359 380.772 327.175 381.954 326.879C384.17 326.435 386.682 327.175 389.046 326.879C391.706 326.583 394.366 324.807 397.173 324.363C407.221 322.884 419.189 324.363 430.419 324.363H463.221C463.517 328.211 462.926 331.17 462.778 334.426H342.207H342.059ZM404.709 320.812C402.936 320.22 406.186 318.74 407.221 317.852C408.698 316.373 409.733 314.745 410.767 313.857C415.2 313.857 418.746 312.673 421.258 310.75H464.108C464.551 314.745 463.517 317.112 463.664 320.812H404.709ZM426.429 307.198C424.804 306.902 426.725 304.682 427.464 303.203C428.202 301.575 429.089 300.095 429.532 298.615V297.136H464.846C464.551 300.391 465.437 304.83 464.255 307.198H426.429ZM464.699 293.584C453.321 293.288 440.466 294.324 429.975 292.992C429.532 287.665 434.408 287.665 434.999 283.374H465.29C464.994 286.629 465.881 291.069 464.699 293.436V293.584ZM465.29 231.434C480.213 229.807 487.601 219.596 493.068 206.722C498.683 193.108 501.343 179.051 489.227 172.836C496.614 174.759 505.923 178.755 515.232 177.867C532.667 176.239 541.828 160.998 549.512 150.047C556.604 153.747 569.902 160.998 578.177 154.043C582.019 155.375 584.974 157.298 588.815 158.63C583.496 162.181 576.847 163.217 570.641 165.733C565.765 167.805 557.934 170.616 554.979 174.759C552.763 177.719 553.501 182.454 551.433 185.858C549.955 188.373 544.636 191.629 540.942 194.44C530.156 202.283 518.63 210.866 508.583 218.708C494.102 229.955 480.952 241.941 466.767 250.967C466.324 244.308 465.881 237.649 465.29 231.286V231.434ZM493.068 182.454C487.601 188.965 478.883 192.517 465.881 191.481C461.3 187.485 458.345 181.862 455.833 175.795C460.709 171.504 466.619 165.733 474.451 167.213C477.554 167.805 481.395 171.948 484.498 174.316C488.192 176.979 492.034 179.347 493.068 182.454ZM363.041 184.97V183.934C363.041 183.934 363.484 183.786 363.632 183.342C364.519 183.194 364.371 185.71 363.041 184.822V184.97ZM346.935 194.588C341.321 194.588 336.74 189.409 332.307 186.598C332.751 184.526 333.933 183.046 335.854 182.602C339.695 186.598 344.423 189.557 346.935 194.736V194.588ZM340.434 197.104C338.513 200.951 333.785 201.839 330.83 204.651C329.057 201.099 329.352 195.328 328.761 190.445C332.751 192.517 336.149 195.18 340.434 196.956V197.104ZM351.073 194.144C352.993 194.144 352.993 196.216 354.619 196.66C354.914 194.736 354.028 194.292 354.028 192.665C355.21 192.369 356.244 191.925 357.426 191.481C372.35 186.302 384.318 180.974 400.867 182.01C422.883 183.49 444.899 195.624 468.984 195.624C477.849 195.624 485.533 193.552 491.147 189.557C492.034 188.965 494.103 185.858 494.694 187.485C491.886 204.059 484.646 221.668 470.461 226.847C468.393 227.587 462.63 227.587 459.379 227.291C453.912 226.995 447.706 226.107 441.796 225.219C429.975 223.592 421.258 219.892 411.506 216.637C397.469 212.049 377.965 212.641 362.154 215.749C358.904 216.489 355.949 217.229 353.141 218.116C348.561 219.596 343.389 222.26 340.582 222.112C335.262 222.112 330.534 216.193 324.919 214.565C331.864 205.834 341.321 199.619 351.22 193.848L351.073 194.144ZM320.339 170.912C318.714 166.177 316.94 160.702 317.827 155.227C321.964 161.886 326.988 167.953 326.84 179.051C323.146 179.051 321.521 174.463 320.339 170.912ZM310.735 127.999C316.054 134.214 321.964 139.689 322.851 150.195C317.679 143.98 312.36 137.913 310.735 127.999ZM306.745 114.385C304.086 110.982 300.392 107.874 300.244 102.251C303.199 104.471 307.188 108.466 309.848 111.87C312.064 114.829 315.02 118.824 314.872 122.968C311.621 121.34 309.553 117.789 306.893 114.385H306.745ZM288.128 80.4987C288.128 80.4987 288.571 80.6466 288.571 80.9426C292.265 82.8663 295.663 85.6778 298.618 88.4894C301.278 91.005 305.268 94.1125 305.12 99.1436C296.993 97.22 291.674 88.3414 287.98 80.4987H288.128ZM280.444 71.4721C277.046 69.2525 273.647 66.7369 271.431 63.9253C271.135 63.4814 270.84 63.0375 270.84 62.4456C271.283 62.1496 271.726 61.8537 272.318 61.8537C280.296 64.8132 288.719 70.1403 291.969 76.0594C287.832 76.3553 283.843 73.6918 280.296 71.4721H280.444ZM261.827 63.9253C252.961 57.4144 267.146 47.204 274.977 52.8271C278.08 62.1496 261.827 56.0826 261.827 63.9253ZM262.861 68.9565C265.077 67.6247 264.043 63.1855 266.407 61.8537C266.998 61.8537 267.294 62.0016 267.441 62.4456C267.441 67.4768 264.634 71.7681 262.418 75.6154C260.349 79.1669 258.724 84.494 254.291 84.642C255.621 78.131 258.428 73.2478 260.792 68.0687C262.122 67.7727 261.827 69.1045 262.861 69.1045V68.9565ZM80.8229 147.68C85.4034 144.72 90.7227 142.501 95.4509 139.689C97.8151 141.169 96.9285 146.052 97.9628 148.716C91.757 148.716 86.4377 148.124 80.8229 147.68ZM81.2661 155.818C87.7675 164.253 95.8942 175.943 110.079 176.979C124.412 178.015 134.164 169.136 147.905 166.917C145.245 169.432 141.995 171.504 138.892 174.02C135.789 176.387 130.913 179.495 130.322 183.638C127.958 201.839 142.881 230.103 161.499 232.618C164.306 233.062 167.409 232.322 169.035 232.618C167.705 238.241 167.852 245.196 167.557 251.855C137.414 230.398 107.419 208.794 80.3796 184.23C82.0049 174.168 74.3215 172.984 67.3769 170.024C56.886 165.733 43.1445 159.962 33.5402 156.41C36.9387 154.635 41.6669 154.043 45.2131 152.415C54.0786 158.334 68.2634 153.451 76.3901 149.899C78.311 151.527 79.7886 153.747 81.4139 155.966L81.2661 155.818ZM167.557 336.645C167.852 343.008 168.591 349.075 169.626 354.846H156.032C155.293 347.892 154.85 340.641 153.963 333.686C159.43 333.686 162.681 336.053 167.557 336.793V336.645ZM153.372 328.507C153.372 323.032 153.224 317.556 152.338 312.821C152.338 312.229 153.224 312.377 153.815 312.229C157.657 315.485 162.09 318.148 166.375 320.812C166.079 324.215 167.261 326.287 166.966 329.838C161.942 329.838 156.327 330.282 153.372 328.359V328.507ZM170.069 358.842C171.842 365.649 172.728 373.195 174.649 380.002H158.987C158.1 372.899 156.918 366.241 156.475 358.842H170.069ZM175.684 384.146C177.013 391.544 179.378 398.055 180.707 405.306C173.615 405.602 166.67 405.602 162.533 402.791C162.238 396.28 159.578 389.325 160.021 383.702C164.306 384.886 171.99 383.702 175.684 384.146ZM183.219 412.409C184.549 418.92 187.357 424.099 188.686 430.61H170.512C168.296 423.507 165.193 417.292 164.454 409.006C171.546 409.154 175.536 412.705 183.072 412.557L183.219 412.409ZM190.312 434.162C193.415 441.264 196.518 448.515 199.916 455.322H180.707C178.048 448.071 174.354 441.708 172.137 434.162H190.312ZM202.428 459.465C204.792 463.461 207.304 467.456 210.111 471.008C205.826 475.299 203.61 481.662 194.006 480.626C190.755 473.375 186.027 467.308 183.515 459.465H202.576H202.428ZM212.032 474.559C213.953 476.187 215.431 478.258 216.613 480.626H206.565C208.19 478.258 210.555 476.927 212.18 474.559H212.032ZM198.438 442.744C200.655 443.484 205.383 441.856 208.043 442.744C210.998 443.632 216.169 452.511 219.125 456.95C220.898 459.465 222.375 461.981 224.148 464.497C225.921 466.864 227.103 470.268 228.729 472.043C230.354 473.819 234.491 476.335 237.742 478.554C240.993 480.774 244.391 483.734 246.755 484.621C249.415 485.657 252.961 485.509 255.769 486.101C258.871 486.693 261.679 487.581 264.339 488.173C270.249 489.505 276.75 489.653 281.478 491.724C284.286 492.908 286.502 495.572 289.014 497.347C291.526 498.975 294.333 500.159 296.993 502.379C302.46 502.379 306.893 501.491 312.655 501.787C313.542 501.639 313.69 502.231 313.099 502.379C308.518 502.822 306.597 502.379 303.494 503.414C300.244 504.45 299.357 507.706 296.402 508.446C294.186 509.037 291.674 508.002 288.275 508.446C284.138 511.997 281.183 516.88 279.262 522.651C273.352 522.799 269.067 524.427 267.737 529.162C240.845 504.154 214.249 478.702 198.143 442.892L198.438 442.744ZM312.803 497.791C307.779 498.087 302.46 499.123 298.618 498.383C294.186 497.495 289.605 492.02 285.025 489.357C284.434 488.913 283.695 488.617 283.104 488.321C278.819 486.545 271.431 485.953 265.964 484.769C259.906 483.438 253.7 482.994 248.824 481.218C246.164 480.182 243.061 477.667 240.254 475.743C237.447 473.671 234.048 472.043 232.275 470.12C229.024 467.012 226.66 461.389 223.705 457.098C220.011 451.771 216.317 447.775 214.101 442.892H435.886C429.828 456.802 422.292 469.232 412.688 479.738C409.437 479.294 405.891 479.146 402.64 478.702C401.163 480.478 403.379 482.994 402.64 485.805C394.07 484.03 388.899 488.617 382.988 491.872C378.851 494.24 375.157 496.903 370.872 498.383C373.827 501.787 378.408 502.083 379.442 508.446C379.442 509.185 380.624 511.849 378.999 511.997C376.487 513.921 375.748 510.369 375.009 508.889C373.975 507.41 372.941 505.93 372.498 503.858C366.292 499.567 360.825 494.832 354.323 490.836C349.004 491.428 344.867 496.312 338.661 497.347C331.273 498.679 321.521 497.347 312.951 497.791H312.803ZM421.701 474.559C424.065 476.039 424.952 478.998 427.759 480.034C425.247 481.218 420.519 480.182 417.121 480.626C418.598 478.554 420.223 476.631 421.701 474.559ZM410.176 483.142C409.437 484.769 408.107 485.805 407.073 487.137C406.186 486.101 406.482 484.03 406.039 482.55C407.96 482.254 408.403 483.142 410.028 483.142H410.176ZM377.817 499.271C383.579 495.424 390.376 492.316 396.434 488.617C398.651 489.505 402.197 489.061 405.004 489.209C400.424 495.276 394.514 501.195 388.899 506.818C387.273 508.446 385.944 511.553 383.284 511.405C382.545 506.374 382.693 500.307 377.669 499.271H377.817ZM424.213 471.452C426.725 467.16 429.089 462.869 432.192 459.318H450.809C447.854 467.012 443.569 473.227 440.319 480.478C430.714 481.662 428.646 475.151 424.213 471.452ZM434.26 455.322C437.216 448.219 441.057 441.856 443.274 434.162H462.039C459.527 441.56 455.981 447.923 453.469 455.322H434.26ZM444.899 430.61C446.968 424.691 449.036 418.624 450.957 412.409C458.493 412.557 462.335 409.006 469.722 408.858C468.688 416.996 465.733 423.359 463.664 430.462H445.047L444.899 430.61ZM453.469 405.306C454.651 397.759 456.867 391.249 458.493 384.146C462.039 384.146 469.427 384.146 474.598 384.146C473.269 390.213 472.53 396.872 471.052 402.791C467.358 405.898 460.266 405.454 453.469 405.306ZM459.527 380.002C460.857 372.899 462.778 366.389 463.517 358.842H477.701C476.815 365.945 475.928 372.899 475.189 380.002H459.527ZM464.551 354.698C465.29 348.631 466.176 342.86 466.62 336.497C471.348 335.757 474.451 333.538 479.77 333.39C479.77 341.085 478.44 347.152 478.292 354.55H464.699L464.551 354.698ZM467.063 329.986C467.211 327.027 467.802 324.363 467.506 320.96C472.087 318 476.815 315.337 480.656 311.933C481.986 317.26 480.065 323.623 480.065 329.099C476.667 330.43 471.643 330.134 467.063 330.134V329.986ZM338.809 37.2896C338.218 31.6665 340.73 22.788 346.935 19.6805C352.846 16.573 365.405 15.8331 373.089 14.6493C375.6 14.2054 378.112 13.7614 380.92 13.3175C392.297 11.5418 404.857 10.062 415.052 14.0574C421.406 16.573 427.611 21.3082 434.26 25.1556C446.377 32.1105 458.493 39.2133 470.461 46.6121C480.657 52.8271 490.556 59.0421 500.456 65.5531C509.469 71.4721 518.335 77.5391 526.905 83.7541C539.021 92.4847 552.024 100.475 558.673 112.461C558.968 114.829 557.491 115.421 557.639 117.493C562.958 120.896 569.459 123.116 575.222 126.075C580.689 128.887 586.895 131.846 589.259 137.617C581.28 140.577 576.108 134.066 570.641 130.515C564.879 126.815 556.752 121.044 547.443 120.896C549.955 125.483 555.127 128.443 559.559 131.402C563.697 134.362 568.277 137.469 573.153 139.985C583.348 145.312 597.829 143.536 606.99 151.083C603.591 152.711 599.897 154.043 596.351 155.671C580.098 149.899 567.095 140.873 552.024 133.918C552.024 142.945 563.549 144.572 570.198 148.568C563.844 152.563 555.865 144.72 550.103 143.536C547.886 143.093 545.522 143.832 543.602 143.536C538.282 142.797 534.293 139.837 530.008 138.505V130.959C534.884 132.438 538.134 135.546 545.67 134.51C545.67 129.923 540.351 130.367 536.657 129.479C532.667 126.963 530.747 122.228 525.132 121.34C523.95 122.82 526.757 124.596 526.609 126.963C524.984 129.331 523.063 131.402 521.586 134.066C517.005 133.178 515.232 135.102 513.016 136.582C507.549 136.878 503.559 134.066 498.979 131.55C494.841 129.331 490.261 125.335 486.419 125.039C484.203 124.891 481.986 126.519 479.918 126.519C473.121 126.667 463.812 120.452 462.335 113.497C451.844 119.86 448.298 101.659 437.659 101.363C437.659 90.561 425.986 87.4535 421.553 80.6466C420.076 78.427 418.303 74.4316 420.962 71.0282C428.35 70.5843 430.419 79.7588 437.068 76.6513C438.102 71.6201 432.044 71.916 433.522 68.0687C443.717 73.3958 453.912 75.7634 462.335 81.6825C466.472 84.642 469.722 88.0454 473.416 91.7448C476.076 94.4084 479.327 97.9598 483.464 98.9957C484.35 99.2916 485.385 99.4396 486.567 99.2916C488.635 98.5517 487.158 94.8523 487.01 93.2246C496.614 101.955 505.775 117.197 521.733 118.972C523.95 119.268 527.791 119.564 529.86 117.937C531.042 110.538 523.359 111.87 518.778 110.39C520.403 97.072 494.841 104.175 497.058 90.2651C500.456 87.4535 507.696 92.9286 511.686 95.8882C522.177 103.139 533.554 114.089 548.477 114.089C549.069 98.2558 525.575 99.4396 513.754 91.8928C511.39 90.4131 507.992 87.3056 506.662 84.79C503.411 78.427 504.741 69.9924 499.865 67.1808C498.092 66.145 495.285 65.701 491 66.5889C490.409 75.1715 500.604 73.0999 501.49 80.2027C494.398 79.3148 483.316 61.1138 473.269 68.0687C475.042 74.4316 480.656 77.0952 483.316 82.7183C477.554 81.6825 472.53 81.9784 468.688 79.1669C465.142 76.5033 461.891 69.4004 458.493 65.5531C453.469 59.782 447.706 52.6791 437.807 55.4907C440.762 60.078 447.706 60.8178 450.366 65.5531C443.274 64.5172 434.704 62.2976 426.725 60.5219C420.814 59.1901 414.609 58.8941 414.165 53.419C422.144 52.9751 426.725 60.078 434.26 56.9705C432.487 52.6791 428.055 50.7555 426.725 45.8722C431.453 46.0202 433.817 48.5358 438.841 48.3878C440.466 42.4688 432.487 42.0249 430.271 38.3255C438.989 38.0295 445.342 44.5405 451.991 48.9797C455.094 51.0514 459.084 53.1231 462.482 55.0468C465.733 56.8225 470.313 59.93 474.598 56.5265C474.007 53.1231 472.087 50.6075 469.131 48.6838C464.403 45.5763 457.311 43.8006 451.4 40.8411C442.683 36.4018 435.147 29.003 426.134 27.8192C422.144 27.2273 419.485 27.8192 417.564 29.8908C416.973 33.2943 416.825 37.1417 415.495 39.9532C408.846 42.9127 394.218 36.6977 395.252 30.3348C395.843 27.0793 400.128 28.2631 400.867 24.2677C399.39 21.7521 395.4 20.4204 393.331 20.7163C387.569 21.4562 384.909 35.5139 376.191 26.7833C379.442 24.8596 388.751 23.8238 383.284 16.721C382.693 16.721 381.954 16.721 381.511 16.721C372.793 17.6088 369.69 24.1198 362.745 26.7833C358.461 25.3036 349.152 22.492 349.152 29.8908C352.698 31.2226 359.347 29.4469 362.302 31.3706C363.041 36.4018 366.883 38.1775 368.36 42.4688C365.11 44.2445 359.79 42.7648 359.347 46.4642C358.608 52.3832 369.69 49.5717 372.498 54.0109C372.054 58.4502 366.292 57.5624 364.371 60.5219C365.257 63.9253 368.951 64.6652 369.395 68.5126C367.326 71.3241 362.302 68.3646 358.904 69.9924C358.313 73.3958 362.154 75.0235 361.416 77.0952C360.972 81.9784 353.437 82.5703 349.299 80.6466C353.289 78.279 356.096 76.3553 355.358 68.9565C354.176 57.5624 340.434 48.2399 339.252 37.1417L338.809 37.2896ZM347.379 108.022C352.698 111.574 351.368 122.968 344.423 123.708C341.321 119.564 346.935 113.349 347.379 108.022ZM325.806 69.1045C328.17 69.8444 323.146 71.3241 323.737 73.6918C325.067 73.6918 326.397 71.916 328.318 71.6201C342.65 69.9924 345.606 93.5206 337.922 102.843C336.74 101.659 336.149 99.8835 335.854 97.8119C332.751 98.5517 335.558 104.175 334.376 105.951C332.307 105.507 331.716 103.879 330.83 102.399C328.613 103.879 330.239 108.91 327.284 109.502C326.693 107.726 326.545 105.507 325.215 104.471C324.033 106.69 323.59 109.946 322.26 112.018C320.782 110.686 320.782 107.874 320.191 105.507C317.975 107.874 318.714 113.201 315.167 114.089C315.611 110.982 313.838 110.094 314.133 106.986C312.508 107.282 312.951 109.798 312.064 110.982C309.553 108.318 307.336 105.211 304.972 102.399C306.45 100.032 306.154 96.1841 304.972 93.8165C306.006 92.4847 306.893 91.005 307.484 89.2292C306.154 87.7495 304.381 90.1171 303.494 90.709C300.835 88.7853 299.062 85.9738 296.402 84.1981C297.141 82.7183 299.209 82.5703 300.392 81.6825C299.505 79.7588 295.368 79.9068 293.299 80.6466C294.481 78.131 296.402 76.3553 299.357 75.6154C302.46 77.9831 301.426 84.642 304.381 87.1576C309.7 87.4535 310.735 92.0408 316.94 91.1529C320.339 88.0454 318.714 80.0547 321.964 76.9472C320.93 73.8397 318.27 72.212 317.384 68.9565H325.51L325.806 69.1045ZM305.711 50.9034C304.086 65.997 314.133 69.4004 320.339 76.6513C317.827 79.3148 316.349 83.1622 315.758 87.7495C314.281 88.6373 312.803 85.6778 311.178 85.2339C309.109 85.2339 307.041 85.2339 305.711 84.642C304.972 77.0952 302.756 70.7322 299.209 67.4768C298.471 66.8849 295.959 65.2571 294.629 64.9612C291.674 64.2213 288.423 65.997 285.025 65.5531C281.331 64.9612 278.376 61.1138 275.42 59.93C277.489 57.4144 275.716 53.2711 275.42 50.3115C285.025 49.2757 299.948 40.989 305.711 50.7555V50.9034ZM11.672 154.043C10.6377 150.195 13.2974 147.828 16.2525 145.904C20.9808 142.945 23.3449 142.501 30.4373 141.909C43.2923 140.873 52.6011 132.882 61.6143 126.815C64.7172 124.744 68.1157 123.264 70.1843 120.304C66.0471 118.233 61.3188 120.304 58.0681 121.784C54.8174 123.264 51.419 125.483 48.4638 127.407C42.4057 131.402 37.0864 138.061 28.812 135.99C28.812 133.622 31.1761 131.402 32.8015 129.923C38.2685 125.039 45.9519 122.08 52.4533 117.345C61.0233 111.278 65.6038 101.659 73.1394 94.5564C76.6856 91.1529 81.2662 88.4894 85.6989 85.5298C123.229 59.4861 161.203 30.6307 208.781 13.9094C219.863 9.91405 231.832 6.80655 245.573 7.84239C261.974 9.0262 284.138 16.573 276.307 36.1058C272.022 38.1775 268.033 40.2492 264.191 42.6168C263.6 44.8364 263.6 47.5 264.191 49.7196C260.792 52.0872 255.769 52.9751 255.178 57.2664C254.439 61.4097 258.28 63.9253 258.724 68.3646C257.246 71.0282 252.813 72.6559 249.71 70.8802C248.972 65.701 253.848 66.293 254.291 62.2976C253.552 58.5982 247.79 59.782 246.755 56.2306C248.233 50.6075 259.019 53.567 259.906 48.6838C260.792 43.2087 252.518 44.5405 246.755 45.1324C246.017 41.285 257.837 39.0653 256.36 34.0342C255.621 31.6665 254.291 32.2584 251.336 31.5186C255.03 29.4469 262.713 33.1463 268.033 30.9267C269.215 29.2989 269.806 24.4157 266.998 23.3799C262.27 21.6042 262.27 27.5232 257.985 27.9671C254.734 28.2631 250.745 24.4157 247.937 22.344C244.834 20.1244 241.879 16.129 237.89 17.3129C235.23 18.0527 234.639 21.4562 235.378 23.3799C236.117 25.7475 240.845 26.1914 243.948 27.3752C242.618 29.7429 239.958 30.7787 235.821 30.4827C232.866 27.0793 225.183 15.9811 219.272 25.4515C219.272 28.855 223.705 27.6712 224.296 30.4827C222.671 38.4734 213.51 41.5809 205.088 40.989C202.871 38.0295 203.314 32.2584 201.098 29.2989C187.8 25.4515 181.446 33.8862 171.842 39.3613C162.238 44.9844 149.087 44.9844 145.098 55.4907C148.644 59.93 153.668 56.0826 156.771 54.4549C160.465 52.6791 164.158 50.3115 167.409 48.3878C174.502 44.2445 181.151 39.2133 189.573 37.8815C187.8 42.3208 180.412 41.137 180.56 47.5C183.663 50.1636 188.391 46.4642 192.233 46.4642C193.858 47.0561 190.755 50.1636 189.721 51.4953C188.243 53.419 186.322 55.1947 185.731 56.9705C193.415 60.5219 196.665 52.5312 205.383 54.0109C203.758 60.2259 196.518 59.1901 190.755 60.078C183.515 61.2618 175.831 64.9612 169.182 65.701C170.66 59.634 178.196 59.634 182.185 56.0826C174.354 51.3474 167.557 58.8941 162.533 64.2213C160.612 66.293 158.691 68.0687 156.918 70.2883C154.702 73.2478 153.224 76.9472 150.417 78.8709C146.428 81.3865 141.551 80.9426 135.789 82.4223C138.153 76.5033 143.768 73.9877 146.428 68.3646C144.95 64.2213 139.187 66.145 137.414 66.8849C130.617 69.4005 124.855 77.9831 118.206 79.9068C117.91 71.6201 128.844 74.4316 128.697 66.293C120.865 62.5935 116.58 69.8444 115.103 75.9114C114.216 79.9068 114.512 83.0143 112.591 85.5298C110.522 88.0454 106.828 89.5252 103.578 91.1529C100.179 92.7807 96.3375 93.9645 92.939 95.1483C83.187 98.5517 71.5141 100.623 69.741 111.87C72.1051 113.201 76.3901 112.461 78.7543 111.87C86.881 109.798 93.8256 104.323 100.475 99.7355C103.725 97.5159 107.715 95.4442 111.113 93.2246C114.216 91.1529 117.762 86.8616 122.195 89.6732C125.298 97.3679 111.852 97.9598 105.498 102.251C102.396 104.323 101.509 106.246 99.8837 109.354C94.8599 110.538 87.9153 109.946 88.8018 116.901C106.385 122.672 120.274 102.103 131.652 93.2246C132.39 93.9645 130.765 97.9598 132.686 98.8477C134.607 98.6997 136.232 98.1078 137.858 97.3679C144.507 94.2604 148.348 87.0096 153.815 82.5703C162.829 75.4675 174.206 73.5438 186.174 68.5126C186.174 72.36 180.855 73.2478 182.628 77.0952C189.425 80.4987 191.198 70.7322 198.734 71.4721C202.576 85.0859 186.618 86.4177 182.628 96.1841C181.742 98.2558 182.037 100.475 181.151 103.287C170.364 100.623 169.035 110.834 162.533 113.941C152.042 112.314 146.723 124.3 137.858 124.448C136.084 124.448 134.459 123.264 132.686 122.968C132.39 122.968 132.095 122.968 131.799 122.968C128.844 123.116 123.082 126.963 119.683 128.591C115.842 130.367 111.261 133.474 106.533 133.178C104.612 133.178 102.248 130.219 99.4404 130.219C96.3375 130.219 90.7227 133.918 86.881 135.694C82.7437 137.765 78.1632 139.689 74.7648 141.317C66.1948 145.164 58.3636 150.935 48.6116 147.384C51.419 144.72 55.9995 143.832 60.2845 140.873C61.3188 140.133 62.7964 137.913 63.3874 137.913C63.5352 137.913 65.8993 138.801 66.9336 138.949C69.2977 139.097 71.2186 138.949 72.9917 138.357C79.7886 136.286 87.3242 133.03 88.063 124.3C81.5617 122.672 79.3453 129.183 74.9125 131.846C72.4007 133.326 69.8888 133.326 66.9336 134.806C64.865 135.102 67.0814 133.77 66.3426 132.29C53.6354 137.913 43.44 146.052 29.9941 150.935C23.0494 147.68 19.2077 154.339 12.4108 154.487L11.672 154.043ZM61.0233 196.364C58.5114 194.884 55.4085 190.149 52.8966 187.337C45.8042 178.903 36.9387 167.509 30.1418 160.11C32.2104 159.518 35.0178 162.477 38.2685 162.625V166.621C50.2369 176.979 63.5352 186.154 75.0603 196.956C70.332 196.364 64.7172 198.732 61.0233 196.364ZM61.4665 414.481C59.5457 402.643 57.4771 390.065 55.9995 377.191C54.3742 363.873 54.9652 349.963 54.9652 335.757C54.9652 307.938 54.6697 279.527 58.0681 253.483C57.4771 253.187 56.7383 253.039 56.1473 252.891C51.419 252.003 46.9862 254.371 41.9625 252.891C39.3028 252.151 35.0178 246.824 32.3582 243.864C24.527 235.134 18.1734 227.883 10.7855 219.152C10.1945 218.412 9.30791 217.377 8.71687 216.637C8.71687 216.637 6.35274 215.009 8.2736 214.565C12.2631 216.193 16.2525 217.673 20.242 219.152C31.7672 223.444 43.5878 227.439 55.1129 231.73C55.4085 241.349 62.9441 244.456 70.1843 249.339C98.2583 268.428 125.594 286.777 153.372 305.422C157.657 308.234 164.306 310.158 165.488 315.929C163.124 315.485 160.908 313.709 158.987 312.377C130.174 293.14 99.5882 272.572 70.1843 252.743C68.5589 251.707 66.6381 248.452 64.1262 250.227C62.6486 253.187 66.6381 254.815 68.1157 255.85C82.3005 265.321 98.2583 275.827 112.443 285.594C112.295 291.957 113.33 297.136 112.886 303.795C112.739 305.718 109.34 302.611 108.306 301.723C101.509 295.804 94.1211 288.997 87.1765 282.042C85.4034 280.266 81.7094 273.312 79.0498 275.975C77.4244 277.603 79.0498 278.787 81.1184 281.006C90.5749 291.365 103.282 301.427 113.33 310.75C114.66 331.022 115.694 351.591 118.353 370.384C113.921 367.424 111.704 361.653 108.749 356.77C101.509 344.34 95.5987 330.134 90.5749 314.301C90.2794 313.265 89.6884 311.045 89.0973 309.714C88.5063 308.382 88.5063 306.31 86.1422 307.198C85.1079 307.494 84.8123 308.086 84.8123 308.826C84.8123 309.862 85.4034 311.045 85.5511 311.785C88.063 323.18 93.8256 335.462 98.7016 345.672C104.464 357.954 111.261 369.94 119.388 378.966C123.229 423.063 138.449 455.766 155.145 486.989C143.029 483.586 131.504 479.442 123.377 471.304C105.498 453.694 95.5987 424.987 88.063 395.54C81.5617 369.94 76.6856 341.972 73.8782 312.229C73.8782 311.489 73.8782 310.306 73.7305 309.122C73.7305 307.938 73.7305 306.754 73.435 305.718C73.2872 304.682 73.8782 300.983 70.9231 301.723C68.1157 301.871 69.741 306.754 69.8888 308.826C72.9917 347.744 80.5274 386.365 91.1659 418.328C102.543 452.807 117.91 485.361 157.657 490.984C167.705 508.742 181.298 525.611 191.937 541C179.525 544.996 164.75 546.327 149.53 545.588C134.459 544.7 122.786 538.485 112.739 533.897C86.881 503.858 69.741 463.757 61.3188 414.185L61.4665 414.481ZM195.04 575.035C162.681 575.035 139.778 559.201 121.456 542.776C120.718 542.776 119.831 541.296 121.456 541.74C140.369 552.247 170.66 551.951 191.05 545.292C209.52 539.225 227.695 521.911 240.402 509.925C253.109 521.023 264.339 533.749 277.785 544.256C256.36 556.982 229.468 575.035 195.04 575.035ZM249.563 616.468C255.325 605.962 261.531 595.456 266.703 584.209C272.022 572.371 277.194 560.533 281.774 547.807C287.241 552.247 293.004 556.39 298.323 560.829C295.072 581.398 292.708 603.002 288.275 622.387C278.228 617.504 265.225 615.432 249.415 616.32L249.563 616.468ZM284.877 625.051C282.365 628.454 276.307 628.306 273.204 631.118C272.465 628.75 274.977 625.199 275.273 622.091C278.967 622.535 281.479 624.311 284.877 625.051ZM298.471 639.7C291.969 643.104 275.864 643.844 271.283 638.221C274.977 630.378 284.729 633.189 289.901 627.122C294.186 622.239 295.516 605.962 296.993 597.231C299.062 584.505 300.096 572.519 302.017 563.345C302.46 563.641 302.903 563.937 303.494 563.937C303.494 588.797 301.13 615.728 298.471 639.7ZM286.65 546.771C280.74 541.888 275.125 537.005 269.215 532.122C270.101 526.795 276.159 526.499 281.331 525.611C283.399 520.728 284.877 515.4 288.866 512.589C296.845 513.921 300.096 510.369 303.494 506.966C310.882 506.078 323.885 504.598 330.682 503.414C333.785 502.822 335.706 507.262 337.183 509.481C340.434 508.002 343.094 505.93 345.753 503.858C347.674 504.302 349.299 505.042 351.22 505.338C350.925 507.706 350.482 509.925 350.186 512.441C351.811 515.548 354.471 517.62 356.687 519.988C356.244 524.871 354.323 532.122 357.722 535.081C354.767 537.893 351.959 540.704 348.856 543.368C338.661 552.099 327.579 560.089 315.906 567.34C304.972 561.421 295.516 554.17 286.502 546.623L286.65 546.771ZM325.658 565.564C326.545 565.564 326.988 565.12 327.136 564.529C327.727 564.529 328.022 564.676 328.17 565.12C328.318 570.3 329.648 574.443 329.648 579.77C323.146 580.658 327.284 569.708 325.658 565.712V565.564ZM326.693 583.765H330.239C331.569 590.572 332.455 597.823 333.342 604.926H328.318C327.431 598.267 327.579 590.572 326.84 583.765H326.693ZM328.761 608.477H333.785C335.262 618.392 336.888 628.306 346.935 629.638C342.355 630.822 335.706 629.786 330.239 630.082C329.352 623.275 328.761 616.172 328.761 608.477ZM342.355 623.571C345.31 621.499 354.028 618.096 353.88 624.607C350.629 625.643 344.276 625.495 342.355 623.571ZM357.426 636.149C354.767 644.14 340.286 643.252 331.273 641.624C331.125 639.256 330.239 635.113 330.83 633.633H345.901C350.482 633.633 356.096 632.598 357.426 636.149ZM378.703 616.024C365.996 615.728 349.447 615.58 339.843 620.02C338.809 614.988 337.183 608.033 337.331 603.446H371.611C373.827 607.737 377.078 611.141 378.703 616.024ZM364.519 589.241C366.587 593.532 368.656 596.787 369.542 599.747H336.297C335.706 592.496 334.08 586.133 333.785 578.586C342.503 577.994 353.585 579.326 358.461 578.586C360.677 578.29 363.189 586.281 364.519 589.241ZM358.017 574.591H333.342C332.012 571.187 332.603 565.86 331.273 562.457C336.888 558.905 339.4 552.099 350.038 553.43C352.255 561.125 355.801 567.044 358.017 574.591ZM508.731 544.848C492.773 560.237 468.393 575.035 437.068 575.183C402.197 575.183 373.827 560.237 351.959 546.919C364.371 534.341 378.408 523.391 390.229 510.073C404.118 520.876 420.519 538.781 440.171 545.44C461.152 552.394 492.182 552.099 511.242 541.444C511.833 543.072 509.617 544.108 508.731 544.996V544.848ZM622.652 215.749C612.309 228.919 600.932 241.201 589.407 253.039C584.974 253.039 578.768 253.039 575.37 253.039H574.779C574.483 269.76 577.29 286.925 577.29 304.535C577.29 322.144 578.177 340.493 577.29 359.138C576.552 375.711 574.04 394.06 571.823 411.669C565.765 457.838 549.216 494.832 526.462 525.315C524.393 528.126 522.177 531.974 520.404 533.306C518.778 534.637 514.936 535.821 511.833 537.301C504.002 541 493.511 545.144 482.577 545.883C466.472 546.919 451.696 545.144 439.284 541.296C451.253 525.167 463.812 509.629 473.564 491.28C505.184 487.137 520.108 466.716 532.076 441.264C549.66 403.826 558.23 350.259 561.924 301.871C557.195 300.391 558.673 305.126 558.377 306.902C558.082 308.53 557.786 310.01 557.639 311.637C556.9 317.408 556.604 323.623 555.865 329.542C552.171 358.694 546.852 388.141 538.725 413.889C528.087 447.775 513.311 478.85 477.258 487.137C477.849 482.55 480.952 479.294 482.725 475.447C492.329 456.358 502.229 434.605 507.401 410.337C508.435 405.454 509.026 400.127 509.913 394.652C510.651 389.917 510.947 383.85 512.424 379.558C513.311 377.191 515.823 374.231 517.892 371.42C529.269 356.03 537.543 337.385 544.193 316.817C544.784 314.745 546.409 312.377 546.409 309.862C546.409 308.974 546.261 308.086 545.67 307.198C541.828 306.754 541.828 312.229 541.09 314.745C538.282 323.623 534.884 332.354 531.042 340.937C526.018 352.183 520.551 362.837 513.459 370.236C515.38 354.994 516.266 342.268 517.448 325.843C517.744 321.256 516.857 315.189 518.483 311.193C519.517 308.234 524.688 305.126 527.496 302.611C534.588 296.248 538.43 292.696 545.67 285.446C547.295 283.818 554.388 278.639 553.206 276.419C551.433 272.72 545.522 280.118 544.193 281.45C535.918 289.737 526.905 299.207 518.483 304.682C520.551 298.615 517.153 291.365 519.517 286.038C520.699 283.522 528.087 279.379 531.633 277.011C542.715 269.612 551.433 263.693 563.401 255.85C566.504 253.779 568.868 253.039 567.982 250.819C566.947 248.304 563.401 251.263 561.924 252.299C532.52 272.276 502.968 291.809 473.121 311.785C471.348 313.117 469.722 315.485 467.063 315.337C466.176 311.489 470.461 310.75 472.53 309.27C501.343 290.033 531.042 269.908 560.741 249.783C568.72 244.308 575.665 241.053 577.881 230.99C588.224 227.735 598.272 223.888 608.172 220.188C613.048 218.412 617.776 216.637 622.652 214.861C623.243 214.861 622.948 215.453 622.652 215.453V215.749Z" fill="#F9A340"/>
<path d="M442.683 222.557C445.342 222.557 447.263 223.445 450.218 223.149C450.218 223.001 450.218 222.853 450.218 222.853C450.218 221.521 447.854 222.705 448.15 221.225C448.889 217.525 446.081 210.423 451.253 211.163C453.912 212.494 452.287 218.265 452.73 221.817C452.435 222.557 450.662 221.817 450.662 222.853C450.662 222.853 450.662 223.149 450.662 223.297C452.139 224.036 456.277 224.924 458.197 223.74C457.606 223.297 456.424 223.297 456.129 222.261C457.459 214.27 454.651 204.948 447.559 210.127C448.298 206.279 444.16 209.239 442.535 209.091C441.944 211.015 444.16 210.127 444.604 211.163V220.189C444.604 221.669 442.24 220.781 442.535 222.705L442.683 222.557Z" fill="#F9A340"/>
<path d="M128.105 119.12C129.583 120.156 131.061 120.748 132.39 121.044C140.517 122.819 148.201 114.681 150.269 107.578C160.908 107.874 169.33 95.1478 169.921 87.4531C170.069 86.1213 170.66 83.6057 168.887 82.4219C164.158 92.0403 153.52 95.7397 146.132 102.547C141.699 106.838 139.335 114.237 131.947 114.681C134.902 109.797 138.744 105.95 139.039 98.5513C139.039 98.5513 138.744 98.6992 138.744 98.8472C132.686 103.878 126.628 111.869 117.91 116.16C112.886 118.676 105.498 119.416 103.873 125.779C113.33 130.514 122.195 122.967 127.958 119.268L128.105 119.12Z" fill="#F9A340"/>
<path d="M482.431 100.92C482.431 108.319 488.341 112.462 488.932 117.493C483.17 117.937 481.101 112.462 477.85 109.503C469.428 101.808 459.085 95.4448 453.175 85.2345C452.584 85.2345 452.436 84.6426 451.697 84.6426C453.47 98.1084 458.051 108.763 471.792 110.39C473.418 116.309 478.885 123.56 485.977 124.152C488.489 124.3 491.149 123.856 493.956 121.933C497.059 125.336 502.378 128.887 508.141 129.923C511.392 130.663 516.563 131.847 517.154 127.408C513.312 122.968 507.402 120.897 502.526 117.789C494.843 112.906 488.046 106.839 482.431 100.624V100.92Z" fill="#F9A340"/>
<path d="M358.017 212.049C358.756 212.345 359.643 212.345 360.234 212.197C362.007 211.901 363.337 210.422 364.076 208.942C366.44 204.355 367.77 194.884 370.134 191.333C368.361 191.185 367.77 192.221 366.144 192.369C368.065 194.588 365.849 198.436 364.667 200.507C364.076 197.844 361.564 195.92 363.632 193.404C361.268 193.552 359.643 194.44 357.574 194.884C360.234 197.696 361.859 201.395 363.632 204.947C363.928 209.386 357.87 207.61 358.017 212.049Z" fill="#F9A340"/>
<path d="M340.287 534.638C339.844 536.414 339.991 538.782 338.218 539.226C339.548 535.822 335.706 537.302 334.672 536.266C334.968 535.082 334.081 532.567 335.115 532.271H339.696C339.105 527.98 339.105 524.872 339.696 520.581C338.07 520.285 335.263 521.321 334.672 520.137V514.514H331.569V520.581H326.989C325.511 523.688 326.102 528.275 326.545 532.271H331.569V536.858C328.614 536.118 327.875 537.598 327.58 539.374H323.59C324.92 535.97 321.078 537.45 320.044 536.414C320.34 535.23 319.453 532.715 320.635 532.419H325.659C324.92 529.163 324.92 523.984 325.659 520.729C323.886 520.433 320.931 521.469 320.044 520.285V514.662H316.498C317.089 517.029 317.089 518.213 316.498 520.729H312.508C311.917 524.132 311.622 529.015 312.508 532.419C314.134 532.567 316.941 531.679 317.089 533.455C317.384 535.082 316.793 535.822 316.646 537.006C313.69 536.118 313.69 538.042 313.099 539.522C310.735 539.522 308.371 539.966 309.11 537.006C308.076 536.71 305.859 537.598 305.564 536.562C305.859 535.378 304.973 532.863 306.007 532.567H311.031C310.292 528.423 311.031 523.688 311.031 520.877C309.405 520.581 306.302 521.616 305.564 520.433C305.416 517.473 306.302 516.881 305.564 514.81H302.461V520.877H297.88C296.846 522.652 298.028 525.02 297.289 526.944C296.255 530.051 290.64 534.49 288.276 535.082C286.207 535.674 283.695 534.342 281.184 535.674C282.957 539.374 285.469 542.333 288.424 544.849C290.197 546.329 292.265 547.512 294.334 548.844H338.662C341.617 546.624 345.015 545.145 348.266 543.369C348.857 540.41 349.596 538.042 350.334 535.23H340.287V534.638ZM299.949 521.469H308.962V529.607H299.949C299.21 527.832 299.21 523.244 299.949 521.469ZM302.461 536.562C299.506 535.822 298.767 537.302 298.471 539.078C295.516 538.338 296.55 533.603 291.97 534.49C293.3 532.271 295.664 531.087 296.994 528.867C297.733 529.459 297.585 531.087 298.028 531.975H302.609V536.562H302.461ZM314.134 529.459C313.543 526.796 313.543 524.132 314.134 521.321H323.738C322.999 523.688 322.999 527.092 323.738 529.459H314.134ZM328.318 529.459V521.321H337.923C337.627 525.464 337.775 525.02 337.923 529.459H328.318Z" fill="#F9A340"/>
<path d="M608.469 221.669C597.24 229.216 585.419 236.17 573.746 243.421C573.746 246.529 575.224 248.304 575.224 251.412C587.931 242.977 599.604 233.359 611.572 224.184C610.095 223.888 610.538 221.521 608.469 221.669Z" fill="#F9A340"/>
<path d="M430.568 83.311C432.636 86.5665 435.887 89.526 438.547 92.9295C441.059 96.037 442.979 101.512 447.56 101.068C452.436 92.1896 435.739 73.5446 430.42 83.459L430.568 83.311Z" fill="#F9A340"/>
<path d="M442.092 215.601C439.728 215.157 440.319 217.82 437.511 217.08C434.113 215.897 432.192 213.233 431.896 208.942C434.999 210.273 437.807 211.901 441.501 212.493C442.387 204.502 431.01 200.211 428.941 206.426C425.838 215.157 438.989 225.367 441.944 215.453L442.092 215.601ZM437.511 208.498C435.886 209.977 434.113 207.166 431.896 207.462C432.487 203.615 437.068 206.278 437.511 208.498Z" fill="#F9A340"/>
<path d="M423.033 213.086C423.033 213.826 423.033 214.861 424.067 214.565C425.249 213.678 428.204 214.713 428.647 213.086C428.056 212.346 426.135 212.938 426.135 211.606V192.961C424.215 193.257 420.964 192.073 420.521 193.997C423.033 193.849 423.919 197.696 422.589 199.62C410.473 191.925 410.178 218.117 423.18 213.234L423.033 213.086ZM421.998 200.952C423.328 203.171 423.771 209.534 421.998 211.606C415.201 212.642 414.315 196.216 421.998 200.952Z" fill="#F9A340"/>
<path d="M401.311 209.535C403.232 209.831 408.404 211.902 409.29 209.979C405.596 209.683 406.04 199.916 408.256 198.288C409.438 198.732 409.586 200.36 411.802 199.768C412.984 198.436 411.802 196.365 410.768 195.773C408.552 195.477 407.961 196.661 406.779 197.253C407.517 193.553 401.755 196.069 401.311 197.253C405.005 197.992 402.789 204.651 403.38 208.351C402.494 208.499 400.868 207.907 401.311 209.387V209.535Z" fill="#F9A340"/>
<path d="M393.332 209.534C401.606 207.611 402.197 192.961 394.809 189.41C392.741 188.374 388.751 188.522 387.274 188.818C383.136 189.705 380.181 192.961 379.738 195.92C378.113 205.391 386.387 211.162 393.332 209.534ZM387.865 190.741C390.229 189.853 391.854 190.149 393.332 191.333C399.981 196.068 393.775 214.565 385.796 205.983C382.102 201.987 383.432 192.369 387.865 190.889V190.741Z" fill="#F9A340"/>
<path d="M351.961 481.071C351.961 481.071 354.768 478.703 352.995 478.556C347.676 478.851 345.607 478.851 344.425 475.596C344.573 476.188 345.46 475.004 345.46 474.56C345.755 471.009 343.834 465.83 345.46 462.87C342.652 462.722 336.594 463.462 333.343 463.314C332.309 463.314 329.945 463.314 329.797 462.278C330.388 460.059 335.117 461.834 337.333 461.242C336.003 457.839 336.003 452.66 337.333 449.108C335.855 448.812 333.048 449.7 332.309 448.516C333.343 447.629 335.412 447.924 336.299 447.037C334.082 446.149 331.866 445.409 329.797 444.521C328.911 445.853 329.502 448.516 327.729 449.108H320.193C319.897 453.104 319.159 457.987 320.784 461.242C322.705 461.242 327.433 460.65 325.808 462.722C323.148 463.018 320.045 462.87 317.681 462.722C316.351 462.722 313.544 463.61 313.101 461.686C313.987 460.502 316.942 461.538 318.568 461.094C317.977 457.247 317.977 452.808 318.568 448.96C317.681 448.664 315.612 449.552 315.612 448.368C316.647 447.481 318.715 447.776 319.602 446.889C317.386 446.001 315.169 445.261 313.101 444.373C312.214 445.705 312.805 448.368 311.032 448.96H302.019C301.28 452.512 301.28 457.543 302.019 461.094C304.383 461.39 308.077 460.354 309.702 461.686C308.816 463.166 309.259 465.978 308.225 467.161C307.781 465.09 308.963 464.646 308.668 462.574C304.235 463.018 295.517 462.13 291.528 463.018C290.789 465.682 291.085 469.233 290.937 472.636C285.47 472.932 278.525 471.897 273.797 473.08C275.127 475.152 275.718 477.816 276.9 480.183H281.48C283.106 483.143 285.322 485.362 287.095 488.174H343.982C346.198 485.954 350.04 482.847 352.109 480.627L351.961 481.071ZM294.04 464.498C295.813 463.906 300.689 463.906 305.713 463.906C306.451 465.534 304.974 470.269 306.156 472.489H294.04C293.301 470.861 293.301 466.126 294.04 464.498ZM297.586 478.556C295.222 478.851 295.813 476.336 294.04 476.04C294.187 475.004 296.552 475.892 297.586 475.596V478.556ZM306.599 478.112C305.565 478.999 302.905 478.408 300.984 478.556C300.689 477.076 301.871 477.076 301.575 475.596H306.599V478.112ZM304.087 458.431C303.349 456.063 303.349 452.808 304.087 450.44H316.203C316.056 453.252 315.317 455.915 316.203 458.431C313.987 459.023 308.963 458.135 304.087 458.431ZM310.145 478.556V476.04C311.032 475.152 313.101 475.744 314.726 475.596C315.317 478.703 312.953 478.851 310.145 478.556ZM322.705 478.556H317.681C317.829 475.892 319.897 475.004 323.296 475.596C323.591 477.076 322.705 477.372 322.705 478.556ZM312.066 472.489C311.771 469.825 311.032 466.273 312.657 464.498C317.386 463.166 320.636 465.09 324.33 463.906C325.069 464.942 323.444 470.269 324.921 472.045C321.671 473.228 316.351 472.193 312.214 472.489H312.066ZM322.262 458.283C321.375 455.767 321.818 452.808 322.262 450.292H334.378V458.283C329.649 457.987 324.478 458.875 322.262 458.283ZM331.275 478.408H326.694C326.547 475.744 327.581 474.264 327.729 471.897C328.615 472.488 328.172 474.56 328.763 475.448H331.866C332.161 476.928 330.979 476.928 331.275 478.408ZM334.821 478.408C334.821 477.224 335.708 476.928 335.264 475.448C338.663 474.856 340.288 476.188 341.322 477.964C340.14 479.147 336.742 478.112 334.821 478.408ZM337.776 467.309C336.446 467.605 335.855 468.789 334.821 469.381C334.821 470.713 337.333 471.749 336.299 472.341H330.241C330.241 468.937 329.354 466.865 330.832 464.35C332.752 463.61 338.367 463.758 342.504 463.758C343.243 464.794 341.618 470.121 342.948 471.897C340.584 473.08 339.402 468.789 337.924 467.309H337.776Z" fill="#F9A340"/>
<path d="M293.89 55.4906C293.89 55.4906 294.629 54.7508 295.368 54.8987C296.402 52.5311 296.107 51.7912 297.436 50.9034C297.436 50.3115 296.845 50.1635 296.993 49.4236C292.117 48.8317 290.196 51.0514 285.32 50.4594C285.911 54.4548 291.674 53.123 293.89 55.4906Z" fill="#F9A340"/>
<path d="M273.205 212.493C273.648 210.569 270.545 212.197 271.136 209.977V195.771H266.555C266.851 197.399 269.215 198.731 268.033 200.359C266.703 199.767 264.93 199.767 263.009 199.767C261.236 201.839 260.202 203.91 260.497 206.278C261.088 211.457 268.181 213.529 273.057 212.345L273.205 212.493ZM268.181 202.43C268.772 205.538 268.181 206.87 268.181 210.569C262.27 211.605 262.123 197.991 268.181 202.43Z" fill="#F9A340"/>
<path d="M255.621 208.498C255.326 211.014 261.088 210.57 260.202 208.054C260.202 207.018 258.133 208.942 258.133 207.018C257.394 203.615 259.168 201.543 258.133 198.88C256.508 194.588 247.347 194.144 249.563 200.359H252.075C252.371 199.471 251.484 197.4 252.666 197.252C254.883 197.104 255.326 198.584 255.178 200.803C252.962 201.395 250.745 201.839 249.12 202.875C246.904 207.758 251.78 211.014 255.621 208.35V208.498ZM254.144 202.431C256.212 202.283 254.735 205.538 255.178 207.018C253.257 207.166 252.075 206.722 251.632 205.538C251.484 203.467 253.257 203.467 254.144 202.431Z" fill="#F9A340"/>
<path d="M241.438 208.055C241.438 208.055 242.472 208.055 242.472 208.499C245.279 208.647 247.052 207.611 247.496 205.54C246.166 205.096 244.688 207.019 243.95 205.54V196.513C244.984 196.217 247.496 197.253 247.052 195.477C246.018 193.849 244.541 195.773 243.95 193.997C243.654 192.962 244.836 190.446 242.915 190.89C242.029 193.11 239.812 193.849 238.926 195.921C243.063 195.921 239.665 204.504 241.438 208.055Z" fill="#F9A340"/>
<path d="M226.957 208.055H235.526C236.118 205.984 233.458 207.168 233.015 205.984C232.867 203.764 231.389 197.845 234.049 195.921C235.526 195.921 235.527 197.105 237.004 196.957C237.743 196.069 238.334 195.181 238.038 193.406C235.674 192.074 234.197 193.702 232.571 194.442C232.571 193.702 232.571 192.666 231.537 192.962C230.503 194.442 227.104 193.554 226.957 195.921C231.685 195.329 228.582 202.728 229.468 205.984C228.73 206.724 226.513 206.132 226.957 208.055Z" fill="#F9A340"/>
<path d="M221.341 208.943C223.114 208.203 227.252 203.32 225.331 202.432C223.705 205.391 216.17 208.647 215.726 200.952C218.829 200.36 222.08 199.916 225.331 199.472C225.626 196.957 224.74 195.625 223.853 194.441C209.964 189.41 209.668 213.974 221.341 209.091V208.943ZM220.898 195.773C220.75 197.105 221.785 196.809 221.341 198.289C219.125 197.993 218.386 199.028 216.317 198.88C216.613 196.661 217.943 195.477 220.898 195.773Z" fill="#F9A340"/>
<path d="M198.144 196.364V213.53C213.659 217.229 214.693 188.226 201.099 199.472C200.213 196.66 202.725 191.777 200.065 191.925C199.326 193.701 196.371 193.257 196.076 195.477C195.78 196.808 198.44 195.181 198.144 196.512V196.364ZM206.123 200.36C209.374 204.207 207.158 211.754 201.543 211.458C200.656 207.315 199.77 198.88 206.123 200.36Z" fill="#F9A340"/>
<path d="M197.701 214.121C197.701 214.121 195.189 214.712 195.189 213.529V201.395C195.189 201.395 194.746 200.803 194.155 200.803C193.269 203.17 189.722 202.726 189.575 205.834C190.904 206.574 191.2 203.762 191.643 205.39V215.008C191.495 216.636 188.984 216.044 189.131 218.116C192.086 216.784 196.224 216.784 197.701 214.121Z" fill="#F9A340"/>
<path d="M195.189 194.886C193.416 194.146 191.052 195.181 191.2 197.993C191.791 197.993 191.939 198.585 192.234 199.029C194.598 199.029 195.485 197.549 195.189 195.033V194.886Z" fill="#F9A340"/>
<path d="M169.479 221.669C174.798 222.409 181.151 219.893 187.062 219.597C187.505 217.378 188.539 215.75 188.539 213.086C185.436 216.194 182.629 219.301 176.423 219.153V201.988C177.31 200.952 179.231 201.1 179.526 199.473C176.128 200.361 170.956 199.325 169.479 201.988C170.808 201.988 172.434 201.692 172.434 203.024V219.153C171.843 220.485 169.922 220.337 169.479 221.669Z" fill="#F9A340"/>
<path d="M186.028 86.8622C187.801 84.4946 190.756 83.7547 191.642 80.7952C187.21 75.1721 179.674 80.9432 176.571 85.3825C173.911 89.0819 172.286 94.8529 174.059 98.9963C181.743 98.8483 182.629 91.3015 186.175 86.8622H186.028Z" fill="#F9A340"/>
<path d="M19.7988 224.627C32.3583 233.209 43.8834 242.828 56.5906 251.41C57.0339 248.599 58.0682 246.527 58.0682 243.42C45.361 235.577 32.8015 227.586 19.7988 220.188V224.775V224.627Z" fill="#F9A340"/>
<path d="M740.711 261.326H810.896V434.162H869.408V261.326H939.593V213.086H740.711V261.326Z" fill="#F9A340"/>
<path d="M1025.44 213.086H966.93V434.31H1025.44V213.086Z" fill="#F9A340"/>
<path d="M1204.38 382.666C1195.36 385.478 1185.91 386.957 1176.3 386.957C1157.68 386.957 1143.35 381.63 1133.45 370.828C1123.4 360.026 1118.38 344.34 1118.38 323.624C1118.38 302.907 1123.4 287.222 1133.6 276.567C1143.8 265.913 1157.98 260.586 1176.3 260.586C1185.91 260.586 1195.22 262.066 1204.38 265.025C1213.54 267.985 1222.55 272.72 1231.42 279.527L1249 233.358C1240.58 226.107 1229.79 220.336 1216.34 216.045C1203.05 211.902 1188.86 209.83 1174.09 209.83C1150 209.83 1129.31 214.417 1111.88 223.74C1094.44 233.062 1081 246.232 1071.39 263.101C1061.94 280.119 1057.21 300.243 1057.21 323.624C1057.21 347.004 1061.94 367.277 1071.39 384.294C1080.85 401.311 1094.44 414.629 1112.03 423.952C1129.61 433.274 1150.3 438.009 1174.09 438.009C1188.86 438.009 1203.05 435.79 1216.34 431.646C1229.64 427.355 1240.58 421.584 1249 414.185L1231.42 368.312C1222.4 374.971 1213.39 379.707 1204.38 382.518V382.666Z" fill="#F9A340"/>
</g>
<defs>
<clipPath id="clip0_2101_1409">
<rect width="1249" height="669" fill="white"/>
</clipPath>
</defs>
</svg>
